<?xml version="1.0" encoding="UTF-8" standalone="no"?>
<!-- Created with Inkscape (http://www.inkscape.org/) -->

<svg
   xmlns:dc="http://purl.org/dc/elements/1.1/"
   xmlns:cc="http://creativecommons.org/ns#"
   xmlns:rdf="http://www.w3.org/1999/02/22-rdf-syntax-ns#"
   xmlns:svg="http://www.w3.org/2000/svg"
   xmlns="http://www.w3.org/2000/svg"
   xmlns:xlink="http://www.w3.org/1999/xlink"
   xmlns:sodipodi="http://sodipodi.sourceforge.net/DTD/sodipodi-0.dtd"
   xmlns:inkscape="http://www.inkscape.org/namespaces/inkscape"
   width="386.47668"
   height="512"
   viewBox="0 0 102.25529 135.46667"
   version="1.1"
   id="svg23489"
   inkscape:version="0.48.5 r10040"
   sodipodi:docname="punch_blast_04.svg">
  <defs
     id="defs23483">
    <linearGradient
       inkscape:collect="always"
       id="linearGradient3821">
      <stop
         style="stop-color:#ebf4f7;stop-opacity:1;"
         offset="0"
         id="stop3823" />
      <stop
         style="stop-color:#ebf4f7;stop-opacity:0;"
         offset="1"
         id="stop3825" />
    </linearGradient>
    <linearGradient
       inkscape:collect="always"
       xlink:href="#linearGradient56908"
       id="linearGradient56861"
       gradientUnits="userSpaceOnUse"
       gradientTransform="matrix(0.26458334,0,0,0.26458334,-10546.714,4018.1013)"
       x1="14533.545"
       y1="482.7551"
       x2="15026.226"
       y2="1336.1028" />
    <linearGradient
       id="linearGradient56908"
       inkscape:collect="always">
      <stop
         id="stop56910"
         offset="0"
         style="stop-color:#ffffff;stop-opacity:1" />
      <stop
         id="stop56912"
         offset="1"
         style="stop-color:#ebf4f7;stop-opacity:1" />
    </linearGradient>
    <linearGradient
       inkscape:collect="always"
       xlink:href="#linearGradient3821"
       id="linearGradient3834"
       gradientUnits="userSpaceOnUse"
       x1="-8.2902393"
       y1="623.87189"
       x2="-366.62106"
       y2="267.90973"
       gradientTransform="translate(1052.8605,259.03711)" />
    <filter
       inkscape:collect="always"
       id="filter4633"
       color-interpolation-filters="sRGB">
      <feGaussianBlur
         inkscape:collect="always"
         stdDeviation="1.3967595"
         id="feGaussianBlur4635" />
    </filter>
    <filter
       inkscape:collect="always"
       id="filter4637"
       color-interpolation-filters="sRGB">
      <feGaussianBlur
         inkscape:collect="always"
         stdDeviation="0.56677656"
         id="feGaussianBlur4639" />
    </filter>
    <filter
       inkscape:collect="always"
       id="filter4641"
       color-interpolation-filters="sRGB">
      <feGaussianBlur
         inkscape:collect="always"
         stdDeviation="1.1203685"
         id="feGaussianBlur4643" />
    </filter>
    <filter
       inkscape:collect="always"
       id="filter4645"
       color-interpolation-filters="sRGB">
      <feGaussianBlur
         inkscape:collect="always"
         stdDeviation="1.4338869"
         id="feGaussianBlur4647" />
    </filter>
    <filter
       inkscape:collect="always"
       id="filter4649"
       color-interpolation-filters="sRGB">
      <feGaussianBlur
         inkscape:collect="always"
         stdDeviation="1.3891112"
         id="feGaussianBlur4651" />
    </filter>
    <filter
       inkscape:collect="always"
       id="filter4653"
       color-interpolation-filters="sRGB">
      <feGaussianBlur
         inkscape:collect="always"
         stdDeviation="1.4646426"
         id="feGaussianBlur4655" />
    </filter>
    <filter
       inkscape:collect="always"
       id="filter4657"
       color-interpolation-filters="sRGB">
      <feGaussianBlur
         inkscape:collect="always"
         stdDeviation="0.29454085"
         id="feGaussianBlur4659" />
    </filter>
  </defs>
  <sodipodi:namedview
     id="base"
     pagecolor="#2b2e30"
     bordercolor="#666666"
     borderopacity="1.0"
     inkscape:pageopacity="0"
     inkscape:pageshadow="2"
     inkscape:zoom="0.50661983"
     inkscape:cx="142.85171"
     inkscape:cy="155.8224"
     inkscape:document-units="px"
     inkscape:current-layer="layer1"
     showgrid="false"
     inkscape:pagecheckerboard="false"
     showborder="true"
     units="px"
     inkscape:window-width="1920"
     inkscape:window-height="1017"
     inkscape:window-x="-8"
     inkscape:window-y="-8"
     inkscape:window-maximized="1"
     inkscape:showpageshadow="false"
     guidetolerance="28"
     showguides="true"
     inkscape:guide-bbox="true">
    <inkscape:grid
       type="xygrid"
       id="grid24034"
       spacingx="1px"
       spacingy="1px"
       empspacing="8"
       visible="true"
       enabled="true"
       snapvisiblegridlinesonly="true"
       originx="-1251.2089px"
       originy="-3856.4706px" />
  </sodipodi:namedview>
  <metadata
     id="metadata23486">
    <rdf:RDF>
      <cc:Work
         rdf:about="">
        <dc:format>image/svg+xml</dc:format>
        <dc:type
           rdf:resource="http://purl.org/dc/dcmitype/StillImage" />
        <dc:title></dc:title>
        <cc:license
           rdf:resource="" />
        <dc:creator>
          <cc:Agent>
            <dc:title>Robert Brooks</dc:title>
          </cc:Agent>
        </dc:creator>
      </cc:Work>
    </rdf:RDF>
  </metadata>
  <g
     inkscape:label="Layer 1"
     inkscape:groupmode="layer"
     id="layer1"
     transform="translate(-331.04903,858.82454)">
    <g
       id="g4799">
      <g
         id="g4679">
        <path
           style="color:#000000;fill:#00ccff;fill-opacity:1;fill-rule:nonzero;stroke:#00ccff;stroke-width:1.32291675;stroke-miterlimit:4;stroke-dasharray:none;marker:none;visibility:visible;display:inline;overflow:visible;filter:url(#filter4649);enable-background:accumulate"
           d="m 396.80845,-845.13936 c -0.27029,-0.007 -0.63168,0.10021 -1.0947,0.35744 -2.11664,1.17594 -12.47192,13.06766 -14.23581,15.30191 0,0 -1.88026,2.11734 -0.46915,1.1766 1.4111,-0.94074 14.47106,-12.83333 15.647,-14.24445 0.91867,-1.10243 1.11803,-2.56566 0.15266,-2.5915 z m 17.16494,2.24014 c -0.47267,0.0183 -0.94204,0.13033 -0.94204,0.13033 -2.58705,1.99906 -7.87963,7.05771 -6.82131,6.35214 1.05836,-0.70555 7.87692,-4.35118 8.5825,-5.6447 0.39687,-0.7276 -0.21143,-0.86128 -0.81915,-0.83777 z m -55.63161,5.01681 c -0.44151,0.005 0.56597,0.8601 0.56597,0.8601 2.82221,2.11668 4.93794,5.17278 6.11384,5.52556 1.17595,0.35279 1.29605,-0.35006 0.47289,-1.76117 -0.82315,-1.41111 -5.05804,-3.88387 -6.58673,-4.47183 -0.28663,-0.11025 -0.46406,-0.15378 -0.56597,-0.15266 z m 9.23038,3.75321 c -0.5031,0.0626 -0.0782,1.34043 -0.0782,1.34043 1.64631,1.76389 1.76466,3.2915 2.58782,3.2915 0.82315,0 0.5879,-2.23506 -1.4112,-3.99895 -0.56223,-0.49609 -0.90156,-0.65749 -1.0984,-0.63298 z m 45.38477,4.41969 c -0.77669,0.007 -2.18937,0.56596 -2.18937,0.56596 -5.29168,3.41021 -17.5208,13.5228 -15.99212,12.34687 1.52873,-1.17593 15.28542,-8.70021 17.87243,-11.40484 1.13185,-1.18327 0.91317,-1.51341 0.30906,-1.50799 z m -40.99861,3.46651 c -0.4746,0.004 -0.23084,1.09842 -0.23084,1.09842 1.41111,1.52871 1.29236,2.70319 1.88035,2.70319 0.58795,0 0.93885,-1.52977 -0.70747,-3.17607 -0.46302,-0.46303 -0.75632,-0.62703 -0.94204,-0.62554 z m 4.76601,4.82184 c -0.1138,0.01 -0.175,0.0645 -0.175,0.15637 0,0.58798 0.93826,1.64577 0.93826,1.64577 3.29263,4.35092 3.52801,10.69955 4.23354,10.58195 0.70558,-0.11759 1.17779,-3.17411 -0.70373,-7.52503 -1.58745,-3.67111 -3.67878,-4.91332 -4.29307,-4.85906 z m 50.37651,11.85143 c -3.99815,0.23519 -13.99345,1.99949 -12.93513,1.99949 1.05836,0 12.81543,-0.4695 14.46175,-1.05745 1.64631,-0.58798 -1.52662,-0.94204 -1.52662,-0.94204 z m -46.55628,1.59384 c 3.175,14.93425 2.46888,19.87121 1.64573,25.16288 -0.82316,5.29167 -1.52657,6.82131 -1.52657,6.82131 0,0 1.53283,-0.0971 3.30266,-6.69845 -0.01,0.66352 -0.0454,1.34579 -0.12659,1.99576 -0.35278,2.82223 -0.5883,3.76067 -0.5883,3.76067 0,0 3.17328,-3.7639 3.52607,-13.2889 0.35279,-9.525 -3.05692,-17.75327 -3.05692,-17.75327 1.5857,5.51821 1.46055,11.20312 1.00905,15.27347 -0.89665,-7.60816 -4.18513,-15.27347 -4.18513,-15.27347 z m 40.31545,10.11263 c -1.45845,0.0287 -2.56176,0.26064 -2.56176,0.26064 -6.82036,0.58797 -19.073,0.81208 -15.87296,1.76119 0.70557,0.1176 18.69577,0.22872 22.10597,-0.12407 3.41021,-0.35278 1.76417,-1.04915 -0.82288,-1.63712 -0.9701,-0.22048 -1.97334,-0.27787 -2.84837,-0.26064 z m -3.95748,20.57567 4.93725,2.34948 c 2.46943,1.17592 4.70463,2.47173 6.82131,2.70692 2.11664,0.23518 -1.40943,-1.88377 -3.52607,-2.70692 -2.11668,-0.82316 -8.23249,-2.34948 -8.23249,-2.34948 z m -19.81033,3.21893 c -0.40623,0.11376 2.25163,1.99053 2.25163,1.99053 2.74207,1.22913 15.72945,9.34906 18.72984,9.7207 3.00033,0.37165 -7.32082,-5.09069 -11.07678,-6.9155 -3.75596,-1.82481 -7.92773,-4.19626 -9.52591,-4.72604 -0.19975,-0.0662 -0.32075,-0.086 -0.37878,-0.0697 z m -15.95933,-2.15763 -1.52662,1.99949 c -1.29352,5.17406 -5.17558,9.63994 -5.17558,9.63994 0,0 1.29434,1.29461 3.99897,-3.2915 2.70462,-4.58613 2.70323,-8.34793 2.70323,-8.34793 z m -10.33622,14.47295 c -0.0275,-10e-4 -0.0716,0.0345 -0.13037,0.10798 -0.47032,0.58797 -1.29199,1.64576 -1.29199,1.64576 -3.52778,4.23333 -6.58673,6.46757 -6.58673,6.46757 0,0 3.17743,-0.70697 5.52927,-3.76438 2.05787,-2.67523 2.67274,-4.44889 2.47982,-4.45693 z m 15.20517,10.51576 c 3.88057,3.88057 9.40917,11.87711 10.82027,12.1123 1.41111,0.23517 0.82496,-1.29677 -0.70373,-3.06066 -1.52868,-1.76388 -10.11654,-9.05164 -10.11654,-9.05164 z m -17.82939,3.89261 c 1.21147,5.90527 2.98305,13.56494 3.53968,15.31938 0.5566,1.75443 1.39937,0.93401 1.09962,-0.18468 -0.29976,-1.11868 -4.6393,-15.1347 -4.6393,-15.1347 z m 39.29246,-2.29608 c 4.50613,3.65222 12.47433,10.5705 14.29505,10.91189 1.64627,0.30867 -12.25006,-9.29615 -14.29505,-10.91189 z m -17.3286,12.25493 c 1.88148,2.58704 2.70234,4.35207 3.76065,4.58726 1.05832,0.23518 -3.76065,-4.58726 -3.76065,-4.58726 z"
           id="path4113-0"
           inkscape:connector-curvature="0"
           sodipodi:nodetypes="cccsccsccssccssccscssscccccccssccscccccscccsccccsccccccsscccsscccsscccccscccccsccsscccsccsccsc"
           gds_switchable="blur"
           gds_color="blur" />
        <g
           id="g4355">
          <g
             inkscape:export-ydpi="40.529583"
             inkscape:export-xdpi="40.529583"
             inkscape:export-filename="C:\Users\rober\Desktop\assets\ASSETS_2024\ESSENTIALS\sword_effects\1.png"
             transform="matrix(0.45032873,0,0,0.45032873,-30.665787,-429.53884)"
             id="g4256">
            <rect
               y="-953.27185"
               x="803.22394"
               height="300.81729"
               width="225.61296"
               id="rect4254"
               style="opacity:0;color:#000000;fill:#00ffff;fill-opacity:1;fill-rule:nonzero;stroke:none;stroke-width:6;marker:none;visibility:visible;display:inline;overflow:visible;enable-background:accumulate" />
            <path
               style="color:#000000;fill:#00ffff;fill-opacity:1;fill-rule:nonzero;stroke:none;stroke-width:6;marker:none;visibility:visible;display:inline;overflow:visible;enable-background:accumulate"
               d="m 949.24932,-922.88257 c -0.6002,-0.0161 -1.4027,0.22254 -2.4309,0.79375 -4.7002,2.61128 -27.69514,29.01803 -31.61204,33.97942 0,0 -4.1753,4.70175 -1.0418,2.61276 3.1335,-2.08902 32.13444,-28.4977 34.74574,-31.63124 2.04,-2.44806 2.4827,-5.6973 0.339,-5.75469 z m 38.11646,4.97447 c -1.0496,0.0406 -2.0919,0.2894 -2.0919,0.2894 -5.7448,4.43913 -17.4975,15.67236 -15.1474,14.10557 2.3502,-1.56675 17.4915,-9.66224 19.0583,-12.53463 0.8813,-1.61571 -0.4695,-1.91254 -1.819,-1.86034 z m -123.53556,11.14032 c -0.9804,0.0108 1.2568,1.90995 1.2568,1.90995 6.267,4.7003 10.9652,11.48667 13.5764,12.27005 2.6113,0.78341 2.878,-0.77734 1.0501,-3.91086 -1.8279,-3.13351 -11.2319,-8.62451 -14.6265,-9.93013 -0.6365,-0.24482 -1.0305,-0.34149 -1.2568,-0.33901 z m 20.497,8.33438 c -1.1172,0.13912 -0.1737,2.97656 -0.1737,2.97656 3.6558,3.91689 3.9186,7.30911 5.7465,7.30911 1.8279,0 1.3055,-4.96318 -3.1337,-8.88007 -1.2485,-1.10162 -2.002,-1.46003 -2.4391,-1.4056 z m 100.7814,9.81437 c -1.7247,0.0155 -4.8617,1.25677 -4.8617,1.25677 -11.7507,7.5727 -38.9067,30.02873 -35.5121,27.41745 3.3947,-2.61125 33.9428,-19.31969 39.6875,-25.32557 2.5134,-2.62758 2.0278,-3.36069 0.6863,-3.34865 z m -91.0415,7.69774 c -1.0539,0.008 -0.5126,2.43914 -0.5126,2.43914 3.1335,3.39466 2.8698,6.00271 4.1755,6.00271 1.3056,0 2.0848,-3.39702 -1.571,-7.05279 -1.0282,-1.0282 -1.6795,-1.39237 -2.0919,-1.38906 z m 10.5834,10.70737 c -0.2527,0.0223 -0.3886,0.14324 -0.3886,0.34724 0,1.30566 2.0835,3.65458 2.0835,3.65458 7.3116,9.66166 7.8343,23.75943 9.401,23.49828 1.5668,-0.26112 2.6154,-7.04842 -1.5627,-16.71008 -3.5251,-8.15205 -8.1691,-10.91051 -9.5332,-10.79002 z m 111.86608,26.31729 c -8.8783,0.52226 -31.07386,4.44005 -28.72376,4.44005 2.3502,0 28.45796,-1.04256 32.11376,-2.34817 3.6558,-1.30567 -3.39,-2.09188 -3.39,-2.09188 z m -103.38288,3.53927 c 7.0504,33.16301 5.4824,44.12602 3.6545,55.87669 -1.8279,11.75068 -3.3899,15.1474 -3.3899,15.1474 0,0 3.4038,-0.21563 7.3339,-14.87456 -0.022,1.47341 -0.1007,2.98845 -0.2811,4.43177 -0.7834,6.26706 -1.3064,8.35094 -1.3064,8.35094 0,0 7.0466,-8.35811 7.83,-29.50932 0.7834,-21.15122 -6.7882,-39.42292 -6.7882,-39.42292 3.5212,12.25375 3.2433,24.87766 2.2407,33.91628 -1.9911,-16.89468 -9.2935,-33.91628 -9.2935,-33.91628 z m 89.52448,22.45612 c -3.23863,0.0637 -5.68863,0.57877 -5.68863,0.57877 -15.1453,1.30564 -42.35352,1.80331 -35.2475,3.91089 1.5668,0.26114 41.51583,0.5079 49.08853,-0.2755 7.5727,-0.78338 3.9175,-2.32975 -1.8273,-3.63539 -2.1542,-0.48961 -4.382,-0.61703 -6.3251,-0.57877 z m -8.78796,45.69032 10.96366,5.21726 c 5.4836,2.61125 10.4471,5.48873 15.1474,6.01099 4.7002,0.52224 -3.1298,-4.18311 -7.83,-6.01099 -4.7003,-1.8279 -18.28106,-5.21726 -18.28106,-5.21726 z m -43.99084,7.14795 c -0.90207,0.25263 4.99998,4.42018 4.99998,4.42018 6.08905,2.72941 34.92882,20.76053 41.59148,21.58579 6.66254,0.82529 -16.25662,-11.30438 -24.5971,-15.35656 -8.34048,-4.05218 -17.60431,-9.31821 -21.15322,-10.49465 -0.44357,-0.14705 -0.71227,-0.19086 -0.84114,-0.15476 z m -35.43928,-4.79121 -3.39,4.44005 c -2.8724,11.48953 -11.4929,21.40646 -11.4929,21.40646 0,0 2.8742,2.8748 8.8801,-7.30911 6.0059,-10.18395 6.0028,-18.5374 6.0028,-18.5374 z m -22.9526,32.13862 c -0.061,-0.003 -0.1589,0.0766 -0.2895,0.23977 -1.0444,1.30566 -2.869,3.65458 -2.869,3.65458 -7.8338,9.40054 -14.6265,14.3619 -14.6265,14.3619 0,0 7.0558,-1.5699 12.2783,-8.35919 4.5697,-5.94061 5.9351,-9.8792 5.5067,-9.89706 z m 33.76459,23.3513 c 8.6172,8.61719 20.894,26.37431 24.0275,26.89657 3.1335,0.52223 1.8319,-2.8796 -1.5627,-6.79649 -3.3946,-3.91689 -22.4648,-20.10008 -22.4648,-20.10008 z m -39.59195,8.64393 c 2.6902,13.11324 6.62417,30.1223 7.86023,34.01822 1.23597,3.89589 3.10744,2.07406 2.44181,-0.41011 -0.66564,-2.48415 -10.30204,-33.60811 -10.30204,-33.60811 z m 87.25286,-5.09869 c 10.0063,8.11014 27.70048,23.47286 31.74358,24.23095 3.6557,0.68545 -27.20248,-20.64302 -31.74358,-24.23095 z m -38.47989,27.21331 c 4.178,5.74479 6.0008,9.6642 8.3509,10.18646 2.3501,0.52226 -8.3509,-10.18646 -8.3509,-10.18646 z"
               id="path4113"
               inkscape:connector-curvature="0"
               sodipodi:nodetypes="cccsccsccssccssccscssscccccccssccscccccscccsccccsccccccsscccsscccsscccccscccccsccsscccsccsccsc" />
          </g>
          <path
             id="path4322"
             transform="matrix(0.26458334,0,0,0.26458334,-6.3049604e-6,18.562493)"
             d="m 1449.4688,-3081.8125 c 4.1872,34.1955 -2.0938,58.625 -2.0938,58.625 0,0 4.8855,-8.3656 6.2812,-23.7187 0.016,-0.1735 0.017,-0.3568 0.031,-0.5313 0.092,0.4275 1.3291,6.4247 0.6563,14.5 -0.5235,6.2808 -1.4185,10.1798 -1.8438,11.75 0.7209,-2.059 6.0979,-17.6871 6.75,-32.6875 0.6979,-16.0509 -1.4062,-21.6562 -1.4062,-21.6562 -1.3192,24.404 -3.8474,27.5962 -4.125,27.875 1.1571,-15.2336 -4.25,-34.1563 -4.25,-34.1563 z"
             style="color:#000000;fill:#ffffff;fill-opacity:1;fill-rule:nonzero;stroke:none;stroke-width:6;marker:none;visibility:visible;display:inline;overflow:visible;enable-background:accumulate"
             inkscape:connector-curvature="0" />
        </g>
      </g>
    </g>
  </g>
</svg>
