<?xml version="1.0" encoding="UTF-8" standalone="no"?>
<!-- Created with Inkscape (http://www.inkscape.org/) -->

<svg
   xmlns:dc="http://purl.org/dc/elements/1.1/"
   xmlns:cc="http://creativecommons.org/ns#"
   xmlns:rdf="http://www.w3.org/1999/02/22-rdf-syntax-ns#"
   xmlns:svg="http://www.w3.org/2000/svg"
   xmlns="http://www.w3.org/2000/svg"
   xmlns:xlink="http://www.w3.org/1999/xlink"
   xmlns:sodipodi="http://sodipodi.sourceforge.net/DTD/sodipodi-0.dtd"
   xmlns:inkscape="http://www.inkscape.org/namespaces/inkscape"
   width="383.99997"
   height="512"
   viewBox="0 0 101.59999 135.46667"
   version="1.1"
   id="svg23489"
   inkscape:version="0.48.5 r10040"
   sodipodi:docname="punch_blast_04.svg">
  <defs
     id="defs23483">
    <linearGradient
       inkscape:collect="always"
       id="linearGradient3821">
      <stop
         style="stop-color:#ebf4f7;stop-opacity:1;"
         offset="0"
         id="stop3823" />
      <stop
         style="stop-color:#ebf4f7;stop-opacity:0;"
         offset="1"
         id="stop3825" />
    </linearGradient>
    <linearGradient
       inkscape:collect="always"
       xlink:href="#linearGradient56908"
       id="linearGradient56861"
       gradientUnits="userSpaceOnUse"
       gradientTransform="matrix(0.26458334,0,0,0.26458334,-10546.714,4018.1013)"
       x1="14533.545"
       y1="482.7551"
       x2="15026.226"
       y2="1336.1028" />
    <linearGradient
       id="linearGradient56908"
       inkscape:collect="always">
      <stop
         id="stop56910"
         offset="0"
         style="stop-color:#ffffff;stop-opacity:1" />
      <stop
         id="stop56912"
         offset="1"
         style="stop-color:#ebf4f7;stop-opacity:1" />
    </linearGradient>
    <linearGradient
       inkscape:collect="always"
       xlink:href="#linearGradient3821"
       id="linearGradient3834"
       gradientUnits="userSpaceOnUse"
       x1="-8.2902393"
       y1="623.87189"
       x2="-366.62106"
       y2="267.90973"
       gradientTransform="translate(1052.8605,259.03711)" />
    <filter
       inkscape:collect="always"
       id="filter4645"
       color-interpolation-filters="sRGB">
      <feGaussianBlur
         inkscape:collect="always"
         stdDeviation="1.4338869"
         id="feGaussianBlur4647" />
    </filter>
  </defs>
  <sodipodi:namedview
     id="base"
     pagecolor="#2b2e30"
     bordercolor="#666666"
     borderopacity="1.0"
     inkscape:pageopacity="0"
     inkscape:pageshadow="2"
     inkscape:zoom="2.2977373"
     inkscape:cx="231.90152"
     inkscape:cy="298.82195"
     inkscape:document-units="px"
     inkscape:current-layer="layer1"
     showgrid="false"
     inkscape:pagecheckerboard="false"
     showborder="true"
     units="px"
     inkscape:window-width="1920"
     inkscape:window-height="1017"
     inkscape:window-x="-8"
     inkscape:window-y="-8"
     inkscape:window-maximized="1"
     inkscape:showpageshadow="false"
     guidetolerance="28"
     showguides="true"
     inkscape:guide-bbox="true">
    <inkscape:grid
       type="xygrid"
       id="grid24034"
       spacingx="1px"
       spacingy="1px"
       empspacing="8"
       visible="true"
       enabled="true"
       snapvisiblegridlinesonly="true"
       originx="-867.20893px"
       originy="-3856.4706px" />
  </sodipodi:namedview>
  <metadata
     id="metadata23486">
    <rdf:RDF>
      <cc:Work
         rdf:about="">
        <dc:format>image/svg+xml</dc:format>
        <dc:type
           rdf:resource="http://purl.org/dc/dcmitype/StillImage" />
        <dc:title />
        <cc:license
           rdf:resource="" />
        <dc:creator>
          <cc:Agent>
            <dc:title>Robert Brooks</dc:title>
          </cc:Agent>
        </dc:creator>
      </cc:Work>
    </rdf:RDF>
  </metadata>
  <g
     inkscape:label="Layer 1"
     inkscape:groupmode="layer"
     id="layer1"
     transform="translate(-229.44904,858.82454)">
    <g
       id="g4788">
      <g
         id="g4669">
        <path
           style="color:#000000;fill:#00ccff;fill-opacity:1;fill-rule:nonzero;stroke:#00ccff;stroke-width:1.32291675;stroke-miterlimit:4;stroke-dasharray:none;marker:none;visibility:visible;display:inline;overflow:visible;filter:url(#filter4645);enable-background:accumulate"
           d="m 267.99828,-848.74008 c -0.19609,-0.0518 -1.14309,6.81758 -1.14309,6.81758 -0.33261,3.49233 -0.664,11.63805 -0.33138,9.97505 0.3326,-1.66302 1.3305,-12.30369 1.4968,-15.96232 0.026,-0.57165 0.014,-0.82072 -0.0223,-0.83031 z m 38.04219,10.31387 c -0.39129,0.0194 -0.96748,0.246 -1.25852,0.57341 -6.3756,5.53171 -16.56268,14.72376 -18.74742,16.68838 2.68922,-2.33238 15.04128,-12.5743 19.5852,-16.1038 1.11795,-0.86837 0.92382,-1.18296 0.42074,-1.15799 z m -18.73254,1.89522 c -0.29054,0.0152 -0.76333,0.24899 -1.16542,0.61064 -3.91665,3.5228 -9.80482,9.94289 -11.56868,12.29475 -1.76393,2.35185 -0.32687,1.34215 2.05906,-1.1282 4.53396,-4.69434 5.3099,-5.77652 10.37717,-10.53728 0.74547,-0.916 0.67144,-1.25949 0.29787,-1.23991 z m -32.35652,1.61969 c 11.14217,6.31948 17.45912,16.13358 17.45912,16.13358 -3.6586,-7.31723 -5.65172,-11.80971 -17.45912,-16.13358 z m 53.43732,7.82051 c -0.39763,0.0126 -0.91169,0.16098 -1.34043,0.44681 -5.29364,3.5291 -22.77844,15.3433 -22.7799,15.5304 0.009,-1.1e-4 0.0379,-0.0116 0.0856,-0.0372 1.52869,-0.82317 18.43991,-11.50955 23.56181,-14.53251 1.55854,-0.95893 1.232,-1.43152 0.47288,-1.40746 z m -35.82926,6.6785 c -0.17257,0.023 -0.0279,0.43803 0.51756,1.21755 0.80365,1.14803 5.02543,9.17452 4.60797,12.76237 -1.42318,-3.02524 -3.66051,-5.50243 -4.19095,-5.69531 -0.69487,-0.2527 1.19865,2.42689 2.58777,8.46705 -2.57218,-3.81514 -5.5814,-6.05427 -5.5814,-6.05427 2.73835,3.20319 4.54991,6.28067 5.65587,9.2043 3.69823,14.66979 -6.53202,25.46302 -9.316,28.54373 1.58876,-1.13693 3.05264,-1.92784 4.41971,-2.87448 -0.0284,0.0334 -0.0616,0.075 -0.0968,0.13033 -0.58209,0.91467 -2.07766,2.1633 -2.07766,2.1633 -1.33046,2.41137 -5.07121,3.74205 -4.07343,3.74205 0.99784,0 2.578,0.33121 4.49045,-2.16332 1.5943,-2.07947 2.08904,-3.9266 1.87288,-3.95426 0.9823,-0.68958 1.91496,-1.46791 2.80746,-2.52076 -1.53229,3.45972 -2.90214,5.64949 -2.52075,5.39524 0.5725,-0.38165 2.94527,-1.64262 4.99682,-5.41387 -0.58943,2.08766 -1.39322,3.67984 -2.25267,5.1644 -2.74398,4.73961 -3.82511,5.90533 -2.99363,5.4064 0.83149,-0.4989 11.89634,-11.36705 11.89634,-24.22085 0,-17.80026 -7.40357,-25.9201 -9.06654,-27.83258 -0.8835,-1.01598 -1.48741,-1.49314 -1.68298,-1.46702 z m -6.8846,0.13777 c -1.33041,0.1663 -1.08096,0.91477 -0.24948,1.4968 0.83153,0.58207 3.16123,2.6586 4.15906,3.65641 0.99784,0.9978 0.9146,10e-4 -0.49893,-1.8282 -1.41359,-1.82932 -3.41065,-3.32501 -3.41065,-3.32501 z m 1.29946,5.9463 c -0.0441,0.007 -0.0521,0.0372 -0.0521,0.0372 -1.1641,0.4989 -0.33005,0.91729 0.83405,2.08138 1.1641,1.16412 1.91137,2.16202 1.8282,1.49683 -0.0832,-0.66523 -0.41585,-1.41498 -1.49681,-2.66226 -0.74318,-0.85748 -1.01617,-0.9677 -1.11331,-0.95319 z m 48.6316,5.68194 c -0.30959,0.008 -0.6977,0.0652 -1.16542,0.18989 l -21.30915,5.46598 22.05383,-4.31544 c 1.62145,-0.47293 1.76236,-1.37552 0.42074,-1.34043 z m -2.11862,10.54846 c -1.61279,-0.009 -3.43299,0.20105 -3.43299,0.20105 -4.82127,0.58799 -24.86581,1.14256 -23.80745,1.37775 1.05832,0.23517 17.67971,0.90531 24.28405,0.28291 3.58177,-0.33757 5.66702,-0.0947 5.39151,-1.23618 -0.0496,-0.47873 -1.18071,-0.61881 -2.43512,-0.62553 z m -21.24584,12.20909 c 0,0 18.84126,7.56356 24.09425,9.46865 6.64227,2.40892 8.65886,3.4215 9.08888,2.4463 0.26372,-1.05834 -2.86612,-1.62479 -8.40377,-3.56332 -2.23002,-0.63716 -24.77936,-8.35163 -24.77936,-8.35163 z m -6.25908,7.17875 c 8.768,5.10781 20.6799,11.58729 20.6799,11.58729 1.82927,1.16411 4.19666,0.54041 -0.10799,-1.88033 -4.38079,-2.631 -16.2496,-7.46306 -20.57191,-9.70696 z m 2.33459,13.3708 c -0.16031,0.0685 3.24683,3.30268 3.24683,3.30268 1.88148,2.11667 14.18582,13.14633 18.87774,16.13731 3.69405,2.49207 -6.95678,-6.89252 -10.71972,-10.3027 -3.763,-3.41019 -9.74055,-7.92256 -11.15165,-8.98089 -0.15433,-0.11579 -0.23348,-0.16481 -0.2532,-0.1564 z m -22.60489,0.0559 c -0.15333,0.005 -0.38814,0.17689 -0.7,0.55106 -1.24727,1.49674 -4.40689,7.34932 -16.29741,8.40004 3.30865,0.8436 6.27723,0.59957 8.75004,-0.17132 -1.18306,0.49508 -2.8475,1.13552 -5.25747,1.99949 0,0 4.65467,0.74942 10.1426,-2.82609 3.65612,-2.38202 4.57233,-4.90621 4.07342,-4.49044 -0.39085,0.32569 -1.69671,1.0564 -2.56543,1.35905 0.43672,-0.48527 0.76914,-0.94953 0.9867,-1.35905 1.06017,-1.99562 1.32748,-3.47837 0.86755,-3.46278 z m 9.33462,3.39204 c 7.24916,10.20682 12.29355,14.66924 16.22667,18.57986 4.70373,4.35095 -16.22667,-18.57986 -16.22667,-18.57986 z m -10.44047,4.98566 c -0.35553,0.10314 1.73156,11.72563 3.0856,18.5996 0.87698,4.45208 3.05049,6.36797 1.33532,-0.40861 -1.11039,-4.38708 -4.36274,-18.20787 -4.42092,-18.19099 z m 7.83408,1.06861 c -0.006,0.007 0.0414,0.0662 0.13776,0.17873 0.0409,0.0477 0.0918,0.11188 0.13777,0.16755 -0.1438,-0.1995 -0.24246,-0.33573 -0.26809,-0.34628 -0.005,-0.001 -0.007,-0.001 -0.007,0 z m 0.27553,0.34628 c 0.25178,0.3493 0.68871,0.95499 1.40001,1.82076 -0.44861,-0.60595 -0.99806,-1.33348 -1.40001,-1.82076 z m 1.40001,1.82076 c 0.38518,0.52028 0.69627,0.94947 0.69627,0.94947 3.20585,5.1334 8.87318,11.73851 11.63943,14.23092 4.20061,3.78484 4.11646,3.52845 2.58777,1.1766 -1.53287,-2.31858 -5.12734,-4.90149 -10.33995,-11.53143 -2.13266,-1.99359 -3.60326,-3.63242 -4.58352,-4.82556 z"
           id="path4069-5"
           inkscape:connector-curvature="0"
           sodipodi:nodetypes="ccssccccsccscsccccccscccccccccccccccscccccccscccscccccsccccccccscsscscsccccccccccscccccccsccscccccsscccccccccccscccc"
           gds_switchable="blur"
           gds_color="blur" />
        <g
           id="g4347">
          <g
             inkscape:export-ydpi="40.529583"
             inkscape:export-xdpi="40.529583"
             inkscape:export-filename="C:\Users\rober\Desktop\assets\ASSETS_2024\ESSENTIALS\sword_effects\1.png"
             transform="matrix(0.45032873,0,0,0.45032873,-132.26578,-429.53884)"
             id="g4260">
            <rect
               style="opacity:0;color:#000000;fill:#00ffff;fill-opacity:1;fill-rule:nonzero;stroke:none;stroke-width:6;marker:none;visibility:visible;display:inline;overflow:visible;enable-background:accumulate"
               id="rect4244"
               width="225.61296"
               height="300.81729"
               x="803.22394"
               y="-953.27185" />
            <path
               style="color:#000000;fill:#00ffff;fill-opacity:1;fill-rule:nonzero;stroke:none;stroke-width:6;marker:none;visibility:visible;display:inline;overflow:visible;enable-background:accumulate"
               d="m 3359.3438,-3588.4375 c -1.6458,-0.4347 -9.5938,57.2187 -9.5938,57.2187 -2.7915,29.3105 -5.5728,97.6761 -2.7812,83.7188 2.7915,-13.9574 11.1667,-103.2626 12.5624,-133.9688 0.2181,-4.7978 0.1173,-6.8882 -0.1874,-6.9687 z m 319.2812,86.5625 c -3.284,0.1631 -8.1199,2.0646 -10.5625,4.8125 -53.5093,46.4266 -139.0076,123.5738 -157.3437,140.0625 22.5701,-19.5752 126.2387,-105.5338 164.375,-135.1562 9.3828,-7.2881 7.7535,-9.9284 3.5312,-9.7188 z m -157.2188,15.9062 c -2.4385,0.1279 -6.4065,2.0897 -9.7812,5.125 -32.8717,29.5662 -82.2901,83.4489 -97.0938,103.1876 -14.8044,19.7386 -2.7434,11.2644 17.2813,-9.4688 38.0527,-39.3987 44.565,-48.4813 87.0937,-88.4375 6.2566,-7.6878 5.6353,-10.5706 2.5,-10.4063 z m -271.5624,13.5938 c 93.5142,53.0382 146.5312,135.4062 146.5312,135.4062 -30.706,-61.4122 -47.4339,-99.1168 -146.5312,-135.4062 z m 448.4897,65.6361 c -3.3372,0.1059 -7.6516,1.3511 -11.25,3.75 -44.4285,29.6191 -191.1753,128.7735 -191.1875,130.3438 0.078,-9e-4 0.3178,-0.097 0.7187,-0.3125 12.83,-6.9087 154.7628,-96.5976 197.75,-121.9687 13.0805,-8.0481 10.3399,-12.0145 3.9688,-11.8126 z m -300.7085,56.0514 c -1.4483,0.1931 -0.2344,3.6763 4.3438,10.2187 6.7449,9.6352 42.1775,77.0001 38.6739,107.1123 -11.9445,-25.3903 -30.722,-46.1809 -35.1739,-47.7997 -5.8319,-2.1209 10.06,20.3684 21.7187,71.0624 -21.5879,-32.0198 -46.8437,-50.8124 -46.8437,-50.8124 22.9825,26.8838 38.1866,52.7125 47.4687,77.25 31.0386,123.1209 -54.8221,213.7065 -78.1875,239.5624 13.3342,-9.5421 25.6202,-16.18 37.0938,-24.125 -0.2382,0.2805 -0.517,0.629 -0.8126,1.0938 -4.8854,7.6767 -17.4374,18.1562 -17.4374,18.1562 -11.1663,20.2382 -42.5618,31.4063 -34.1876,31.4063 8.3747,0 21.6367,2.7798 37.6876,-18.1563 13.3806,-17.4526 17.5329,-32.9553 15.7187,-33.1874 8.2443,-5.7875 16.0719,-12.3199 23.5625,-21.1563 -12.8602,29.0368 -24.3571,47.4152 -21.1562,45.2813 4.8049,-3.2031 24.7191,-13.7862 41.9374,-45.4376 -4.947,17.5213 -11.693,30.8842 -18.9062,43.3438 -23.0298,39.7787 -32.1035,49.5624 -25.125,45.375 6.9785,-4.1872 99.8438,-95.4016 99.8438,-203.2812 0,-149.3944 -62.1368,-217.5427 -76.0938,-233.5938 -7.4151,-8.527 -12.4836,-12.5317 -14.125,-12.3125 z m -57.7812,1.1563 c -11.1659,1.3957 -9.0723,7.6775 -2.0938,12.5624 6.9789,4.8852 26.5316,22.3131 34.9062,30.6876 8.3747,8.3743 7.6761,0.011 -4.1874,-15.3438 -11.864,-15.3531 -28.625,-27.9062 -28.625,-27.9062 z m 10.9062,49.9062 c -0.3704,0.055 -0.4375,0.3125 -0.4375,0.3125 -9.7701,4.1872 -2.7701,7.6987 7,17.4687 9.7701,9.7702 16.0418,18.1454 15.3437,12.5626 -0.698,-5.5831 -3.4901,-11.8756 -12.5624,-22.3438 -6.2374,-7.1967 -8.5286,-8.1218 -9.3438,-8 z m 408.1562,47.6875 c -2.5984,0.068 -5.8557,0.547 -9.7812,1.5937 l -178.8438,45.875 185.0938,-36.2187 c 13.6085,-3.9692 14.7911,-11.5445 3.5312,-11.25 z m -17.7812,88.5313 c -13.5359,-0.073 -28.8125,1.6874 -28.8125,1.6874 -40.464,4.9349 -208.6942,9.5893 -199.8116,11.5632 8.8823,1.9738 148.3826,7.5981 203.8116,2.3744 30.0612,-2.8331 47.5623,-0.7948 45.25,-10.375 -0.4165,-4.0179 -9.9095,-5.1936 -20.4375,-5.25 z m -178.3125,102.4687 c 0,0 158.1313,63.4796 202.2187,79.4687 55.7473,20.2176 72.6722,28.716 76.2813,20.5313 2.2133,-8.8824 -24.0548,-13.6365 -70.5313,-29.9063 -18.7162,-5.3475 -207.9687,-70.0937 -207.9687,-70.0937 z m -52.5313,60.25 c 73.5882,42.8689 173.5626,97.25 173.5626,97.25 15.3528,9.7702 35.2218,4.5356 -0.9063,-15.7813 -36.7672,-22.0815 -136.38,-62.6361 -172.6563,-81.4687 z m 19.5938,112.2187 c -1.3455,0.575 27.25,27.7188 27.25,27.7188 15.7909,17.7648 119.059,110.3348 158.4375,135.4375 31.0035,20.9155 -58.387,-57.8477 -89.9687,-86.4687 -31.5822,-28.6211 -81.7507,-66.4926 -93.5938,-75.375 -1.2952,-0.9718 -1.9595,-1.3832 -2.125,-1.3126 z M 3340.1562,-2888 c -1.2869,0.044 -3.2576,1.4846 -5.875,4.625 -10.4681,12.5618 -36.9862,61.6815 -136.7812,70.5 27.7689,7.0805 52.6837,5.0324 73.4375,-1.4375 -9.9292,4.1551 -23.8985,9.5302 -44.125,16.7813 0,0 39.0658,6.2898 85.125,-23.7188 30.6852,-19.9919 38.3748,-41.177 34.1875,-37.6875 -3.2803,2.7335 -14.2402,8.8662 -21.5312,11.4063 3.6653,-4.0728 6.4553,-7.9693 8.2812,-11.4063 8.8978,-16.7489 11.1413,-29.1933 7.2812,-29.0625 z m 78.3438,28.4688 c 60.8409,85.664 103.1775,123.1163 136.1875,155.9374 39.4775,36.5167 -136.1875,-155.9374 -136.1875,-155.9374 z m -87.625,41.8437 c -2.9839,0.8657 14.5327,98.4111 25.8969,156.1031 7.3603,37.3655 25.6022,53.4452 11.2071,-3.4294 -9.3193,-36.8199 -36.6157,-152.8153 -37.104,-152.6737 z m 65.75,8.9687 c -0.053,0.055 0.3478,0.5555 1.1562,1.5 0.343,0.4002 0.7708,0.939 1.1563,1.4063 -1.2069,-1.6744 -2.0349,-2.8178 -2.25,-2.9063 -0.038,-0.011 -0.059,-0.011 -0.062,0 z m 2.3125,2.9063 c 2.1131,2.9316 5.7802,8.015 11.75,15.2813 -3.7651,-5.0857 -8.3765,-11.1917 -11.75,-15.2813 z m 11.75,15.2813 c 3.2328,4.3666 5.8437,7.9687 5.8437,7.9687 26.9061,43.0837 74.471,98.5192 97.6876,119.4375 35.255,31.7655 34.5487,29.6137 21.7187,9.875 -12.8651,-19.4594 -43.0328,-41.1373 -86.7813,-96.7812 -17.899,-16.7318 -30.2415,-30.4862 -38.4687,-40.5 z"
               transform="matrix(0.26458334,0,0,0.26458334,-6.3049604e-6,18.562493)"
               id="path4069"
               inkscape:connector-curvature="0"
               sodipodi:nodetypes="ccssccccsccscsccccccscccccccccccccccscccccccscccscccccsccccccccscsscscsccccccccccscccccccsccscccccsscccccccccccscccc" />
          </g>
          <path
             sodipodi:nodetypes="ccccccscccscscccc"
             inkscape:connector-curvature="0"
             id="path4311"
             transform="matrix(0.26458334,0,0,0.26458334,-6.3049604e-6,18.562493)"
             d="m 1042.9481,-3147.4013 c 12.5372,29.6658 15.1598,53.9471 14.6874,70.7188 -1.57,-17.9609 -5.5937,-33.375 -5.5937,-33.375 l 0.6563,15.7188 c -3.793,-23.2219 -8.6876,-26.5313 -8.6876,-26.5313 20.9361,73.625 -13.9687,113.75 -13.9687,113.75 0,0 4.1828,1.0458 12.9063,-14.6563 2.2478,-4.046 4.2798,-8.9796 5.9687,-14.5 -5.2462,21.9864 -13.2813,34.0313 -13.2813,34.0313 0,0 8.9102,-9.7753 15.625,-26 0.1404,7.264 -1.186,17.8361 -3.4062,24.25 -0.9531,2.7534 -1.8357,4.9176 -2.6562,6.6563 5.9536,-10.7788 18.0157,-36.2327 19.0624,-67.375 1.3958,-41.5232 -21.3124,-82.6876 -21.3124,-82.6876 z m 2.0937,150.375 c -1.8786,3.3769 -3.125,5.25 -3.125,5.25 0,0 1.3212,-1.4965 3.125,-5.25 z"
             style="color:#000000;fill:#ffffff;fill-opacity:1;fill-rule:nonzero;stroke:none;stroke-width:6;marker:none;visibility:visible;display:inline;overflow:visible;enable-background:accumulate" />
          <path
             transform="matrix(0.26458334,0,0,0.26458334,-6.3049604e-6,18.562493)"
             inkscape:connector-curvature="0"
             id="path4318"
             d="m 957.32535,-2929.9139 c 17.7648,-0.2467 38.98386,-18.505 38.98386,-18.505 0,0 -1.72713,6.6618 -7.64873,10.3628 -5.9216,3.701 -31.33513,8.1422 -31.33513,8.1422 z"
             style="color:#000000;fill:#ffffff;fill-opacity:1;fill-rule:nonzero;stroke:none;stroke-width:6;marker:none;visibility:visible;display:inline;overflow:visible;enable-background:accumulate" />
          <path
             transform="matrix(0.26458334,0,0,0.26458334,-6.3049604e-6,18.562493)"
             inkscape:connector-curvature="0"
             id="path4320"
             d="m 966.20775,-2924.9792 c 15.05073,-3.9477 19.2452,-13.0769 19.2452,-13.0769 0,0 1.23366,0.4935 7.402,-0.7402 6.16833,-1.2336 9.12915,-4.6879 9.12915,-4.6879 0,0 -5.92162,9.8693 -20.23215,14.0638 -14.31054,4.1945 -15.5442,4.4412 -15.5442,4.4412 z"
             style="color:#000000;fill:#ffffff;fill-opacity:1;fill-rule:nonzero;stroke:none;stroke-width:6;marker:none;visibility:visible;display:inline;overflow:visible;enable-background:accumulate" />
        </g>
      </g>
    </g>
  </g>
</svg>
