<?xml version="1.0" encoding="UTF-8" standalone="no"?>
<!-- Created with Inkscape (http://www.inkscape.org/) -->

<svg
   xmlns:dc="http://purl.org/dc/elements/1.1/"
   xmlns:cc="http://creativecommons.org/ns#"
   xmlns:rdf="http://www.w3.org/1999/02/22-rdf-syntax-ns#"
   xmlns:svg="http://www.w3.org/2000/svg"
   xmlns="http://www.w3.org/2000/svg"
   xmlns:xlink="http://www.w3.org/1999/xlink"
   xmlns:sodipodi="http://sodipodi.sourceforge.net/DTD/sodipodi-0.dtd"
   xmlns:inkscape="http://www.inkscape.org/namespaces/inkscape"
   width="383.99997"
   height="512"
   viewBox="0 0 101.59999 135.46667"
   version="1.1"
   id="svg23489"
   inkscape:version="0.48.5 r10040"
   sodipodi:docname="punch_blast_01.svg">
  <defs
     id="defs23483">
    <linearGradient
       inkscape:collect="always"
       id="linearGradient3821">
      <stop
         style="stop-color:#ebf4f7;stop-opacity:1;"
         offset="0"
         id="stop3823" />
      <stop
         style="stop-color:#ebf4f7;stop-opacity:0;"
         offset="1"
         id="stop3825" />
    </linearGradient>
    <linearGradient
       inkscape:collect="always"
       xlink:href="#linearGradient56908"
       id="linearGradient56861"
       gradientUnits="userSpaceOnUse"
       gradientTransform="matrix(0.26458334,0,0,0.26458334,-10546.714,4018.1013)"
       x1="14533.545"
       y1="482.7551"
       x2="15026.226"
       y2="1336.1028" />
    <linearGradient
       id="linearGradient56908"
       inkscape:collect="always">
      <stop
         id="stop56910"
         offset="0"
         style="stop-color:#ffffff;stop-opacity:1" />
      <stop
         id="stop56912"
         offset="1"
         style="stop-color:#ebf4f7;stop-opacity:1" />
    </linearGradient>
    <linearGradient
       inkscape:collect="always"
       xlink:href="#linearGradient3821"
       id="linearGradient3834"
       gradientUnits="userSpaceOnUse"
       x1="-8.2902393"
       y1="623.87189"
       x2="-366.62106"
       y2="267.90973"
       gradientTransform="translate(1052.8605,259.03711)" />
    <filter
       inkscape:collect="always"
       id="filter4633"
       color-interpolation-filters="sRGB">
      <feGaussianBlur
         inkscape:collect="always"
         stdDeviation="1.3967595"
         id="feGaussianBlur4635" />
    </filter>
    <filter
       inkscape:collect="always"
       id="filter4637"
       color-interpolation-filters="sRGB">
      <feGaussianBlur
         inkscape:collect="always"
         stdDeviation="0.56677656"
         id="feGaussianBlur4639" />
    </filter>
    <filter
       inkscape:collect="always"
       id="filter4641"
       color-interpolation-filters="sRGB">
      <feGaussianBlur
         inkscape:collect="always"
         stdDeviation="1.1203685"
         id="feGaussianBlur4643" />
    </filter>
    <filter
       inkscape:collect="always"
       id="filter4645"
       color-interpolation-filters="sRGB">
      <feGaussianBlur
         inkscape:collect="always"
         stdDeviation="1.4338869"
         id="feGaussianBlur4647" />
    </filter>
    <filter
       inkscape:collect="always"
       id="filter4649"
       color-interpolation-filters="sRGB">
      <feGaussianBlur
         inkscape:collect="always"
         stdDeviation="1.3891112"
         id="feGaussianBlur4651" />
    </filter>
    <filter
       inkscape:collect="always"
       id="filter4653"
       color-interpolation-filters="sRGB">
      <feGaussianBlur
         inkscape:collect="always"
         stdDeviation="1.4646426"
         id="feGaussianBlur4655" />
    </filter>
    <filter
       inkscape:collect="always"
       id="filter4657"
       color-interpolation-filters="sRGB">
      <feGaussianBlur
         inkscape:collect="always"
         stdDeviation="0.29454085"
         id="feGaussianBlur4659" />
    </filter>
  </defs>
  <sodipodi:namedview
     id="base"
     pagecolor="#2b2e30"
     bordercolor="#666666"
     borderopacity="1.0"
     inkscape:pageopacity="0"
     inkscape:pageshadow="2"
     inkscape:zoom="0.50661983"
     inkscape:cx="-68.945339"
     inkscape:cy="222.84468"
     inkscape:document-units="px"
     inkscape:current-layer="layer1"
     showgrid="false"
     inkscape:pagecheckerboard="false"
     showborder="true"
     units="px"
     inkscape:window-width="1920"
     inkscape:window-height="1017"
     inkscape:window-x="-8"
     inkscape:window-y="-8"
     inkscape:window-maximized="1"
     inkscape:showpageshadow="false"
     guidetolerance="28"
     showguides="true"
     inkscape:guide-bbox="true">
    <inkscape:grid
       type="xygrid"
       id="grid24034"
       spacingx="1px"
       spacingy="1px"
       empspacing="8"
       visible="true"
       enabled="true"
       snapvisiblegridlinesonly="true"
       originx="-99.208961px"
       originy="-3856.4706px" />
  </sodipodi:namedview>
  <metadata
     id="metadata23486">
    <rdf:RDF>
      <cc:Work
         rdf:about="">
        <dc:format>image/svg+xml</dc:format>
        <dc:type
           rdf:resource="http://purl.org/dc/dcmitype/StillImage" />
        <dc:title></dc:title>
        <cc:license
           rdf:resource="" />
        <dc:creator>
          <cc:Agent>
            <dc:title>Robert Brooks</dc:title>
          </cc:Agent>
        </dc:creator>
      </cc:Work>
    </rdf:RDF>
  </metadata>
  <g
     inkscape:label="Layer 1"
     inkscape:groupmode="layer"
     id="layer1"
     transform="translate(-26.249038,858.82454)">
    <g
       id="g4770">
      <path
         gds_color="blur"
         gds_switchable="blur"
         style="color:#000000;fill:#00ccff;fill-opacity:1;fill-rule:nonzero;stroke:#00ccff;stroke-width:1.32291675;stroke-miterlimit:4;stroke-dasharray:none;marker:none;visibility:visible;display:inline;overflow:visible;filter:url(#filter4637);enable-background:accumulate"
         d="m 54.126359,-812.89862 c 3.893154,1.91868 8.654633,5.82981 10.990232,9.23069 0.608547,0.8861 0.796817,1.56123 1.364002,2.61315 -2.05998,-1.83311 -4.41266,-2.89011 -5.167272,-3.32963 -1.345649,-0.78377 -0.794533,0.0648 -0.244037,0.58734 0.550509,0.52251 0.918026,1.24085 0.918026,1.24085 0,0 -0.981225,-0.78384 -3.122048,-1.56762 -2.140831,-0.78376 -1.83245,0.13015 -0.976123,0.58735 0.856327,0.45721 2.508299,1.17695 3.548135,2.2873 1.039823,1.11034 -2.142047,0.78587 -2.142047,0.78587 2.363204,0.42899 4.089021,1.08057 5.360942,1.89024 0.475414,0.30264 1.47248,1.29807 -0.472578,2.14253 -5.218585,0.32806 -12.042002,1.08292 -12.654765,1.2574 -0.917495,0.26126 8.073111,0.91496 9.296434,0.98028 0.851923,0.0455 3.873687,-0.27805 5.3377,0.88101 -3.22166,-0.0939 -6.630635,0.32577 -6.74378,0.74864 -0.120864,0.45167 5.545321,0.90465 7.510741,0.5377 0.02995,0.17176 0.04565,0.35463 0.03877,0.55425 -2.005256,0.93377 -5.583959,0.87622 -6.635323,1.00095 -1.651504,0.19594 -8.437868,0.45689 -9.416518,0.91411 0.305836,0.45718 7.951572,0.71641 9.358408,0.78173 1.1951,0.0555 4.751606,-0.0294 6.364188,-0.0165 -0.867666,1.07822 -2.018773,2.00267 -3.246013,2.63061 -2.93599,1.50221 -5.016658,1.56694 -4.466158,1.82818 0.5505,0.26126 3.48599,-0.58629 3.18015,-0.19439 -0.305828,0.39188 -3.485815,2.15166 -2.874138,2.21699 0.611659,0.0653 2.631442,-0.64977 3.610119,-1.3029 0.978663,-0.65315 0.426258,0.39122 0.732086,0.26058 0.305827,-0.13064 1.960406,-0.58903 4.040079,-3.52816 0.405175,-0.57263 0.752467,-1.00964 1.069089,-1.41045 -1.18772,5.51188 -3.635743,12.1147 -12.387507,16.04011 -0.587963,0.20578 -0.692565,0.3056 0.04143,0.37091 0.734,0.0653 3.994398,-0.77189 5.404746,-1.61176 3.180654,-1.89412 7.951756,-6.98686 9.664409,-14.23673 1.85573,-7.85552 -1.303475,-15.07502 -3.486618,-17.04757 -3.180652,-2.87385 -6.987905,-6.62799 -12.235973,-8.0342 -0.30317,-0.0812 -2.552738,-0.5787 -1.55879,-0.0888 z m -7.412303,17.03888 c -2.361596,0.0741 -5.44896,0.37289 -5.953598,0.42187 -0.672823,0.0653 3.650004,0.92869 5.687017,0.8961 1.449027,0.0262 3.752972,0.10412 4.056421,-0.6863 0.597465,-0.0261 -1.591223,-0.70068 -3.78984,-0.63167 z m 2.471287,2.23353 c -1.004945,-10e-4 -2.031456,0.0509 -3.040701,0.1489 -2.691313,0.26126 -4.100085,0.97872 -3.366077,1.17468 0.734,0.19594 6.117847,0.39448 8.870332,0.19853 2.752504,-0.19595 2.204036,-1.04646 2.204036,-1.04646 -1.376241,-0.32656 -2.992669,-0.47438 -4.66759,-0.47565 z m -9.370022,0.44256 c -1.590137,0.004 -2.546073,0.22688 -2.049094,0.4922 0.611668,0.32658 1.956835,0.32503 3.180162,0.19441 1.223336,-0.13063 0.06197,-0.65352 0.06197,-0.65352 -0.42434,-0.0245 -0.826091,-0.034 -1.193042,-0.0331 z m 7.227979,2.72988 c -2.956057,0.005 -6.004706,0.25419 -6.646951,0.37638 -0.856327,0.16294 3.23993,0.84367 4.83028,0.83965 1.590309,-0.004 4.404535,-0.0899 5.016194,-0.39294 0.611663,-0.30298 -0.367977,-0.7321 -0.367977,-0.7321 -0.871625,-0.0663 -1.846204,-0.0928 -2.831546,-0.091 z"
         id="path3975-5"
         inkscape:connector-curvature="0"
         sodipodi:nodetypes="cscsccssscscccccccscscscsccsscccsssscssccsscscsscscsscsccscs" />
      <g
         id="g4334">
        <g
           id="g4268"
           transform="matrix(0.45032873,0,0,0.45032873,-335.46578,-429.53884)"
           inkscape:export-filename="C:\Users\rober\Desktop\assets\ASSETS_2024\ESSENTIALS\sword_effects\1.png"
           inkscape:export-xdpi="40.529583"
           inkscape:export-ydpi="40.529583">
          <rect
             y="-953.27185"
             x="803.22394"
             height="300.81729"
             width="225.61296"
             id="rect4248"
             style="opacity:0;color:#000000;fill:#00ffff;fill-opacity:1;fill-rule:nonzero;stroke:none;stroke-width:6;marker:none;visibility:visible;display:inline;overflow:visible;enable-background:accumulate" />
          <g
             id="g4237">
            <path
               style="color:#000000;fill:#00ffff;fill-opacity:1;fill-rule:nonzero;stroke:none;stroke-width:3;marker:none;visibility:visible;display:inline;overflow:visible;enable-background:accumulate"
               d="m 865.12832,-851.28872 c 8.64514,4.26061 19.21848,12.94567 24.40491,20.49767 1.35134,1.96767 1.76941,3.46687 3.0289,5.80275 -4.57439,-4.07061 -9.79875,-6.41778 -11.47444,-7.39377 -2.98815,-1.74044 -1.76434,0.14393 -0.54191,1.30424 1.22246,1.16028 2.03857,2.75543 2.03857,2.75543 0,0 -2.17891,-1.74058 -6.93282,-3.48105 -4.75393,-1.74043 -4.06914,0.28901 -2.16758,1.30427 1.90156,1.01527 5.56993,2.61354 7.87899,5.07918 2.30903,2.46561 -4.75663,1.74511 -4.75663,1.74511 5.24773,0.9526 9.08008,2.39951 11.90451,4.19746 1.0557,0.67204 3.26979,2.8825 -1.04941,4.7577 -11.58839,0.72849 -26.74047,2.40474 -28.10117,2.79217 -2.03739,0.58016 17.92715,2.03177 20.64366,2.17681 1.89178,0.10099 8.60191,-0.61742 11.8529,1.95638 -7.15402,-0.20859 -14.72399,0.72341 -14.97524,1.66243 -0.26839,1.00298 12.31394,2.00887 16.67835,1.19402 0.0665,0.38141 0.10137,0.78748 0.0861,1.23076 -4.45287,2.07353 -12.39974,1.94574 -14.7344,2.22272 -3.66733,0.43511 -18.73713,1.01456 -20.91032,2.02986 0.67914,1.01523 17.65726,1.59086 20.78128,1.73591 2.65384,0.12321 10.55142,-0.0654 14.13232,-0.0367 -1.92674,2.39431 -4.48289,4.44714 -7.2081,5.84153 -6.51966,3.33582 -11.13999,3.47955 -9.91755,4.05967 1.22244,0.58016 7.74099,-1.30191 7.06184,-0.43167 -0.67912,0.87022 -7.7406,4.77798 -6.38231,4.92305 1.35825,0.14505 5.84338,-1.44288 8.01663,-2.89322 2.17322,-1.45038 0.94655,0.86875 1.62567,0.57865 0.67912,-0.29009 4.35328,-1.308 8.9714,-7.83464 0.89973,-1.27158 1.67093,-2.242 2.37402,-3.13203 -2.63745,12.23967 -8.07353,26.90189 -27.5077,35.61865 -1.30563,0.45697 -1.53791,0.67862 0.092,0.82366 1.62992,0.14502 8.86996,-1.71407 12.00178,-3.57909 7.06296,-4.20608 17.65767,-15.51501 21.46079,-31.61408 4.12083,-17.44397 -2.8945,-33.47559 -7.74239,-37.85583 -7.06295,-6.38166 -15.51734,-14.71811 -27.1712,-17.84075 -0.67322,-0.18039 -5.66861,-1.28505 -3.46145,-0.19725 z m -16.45976,37.83652 c -5.24416,0.16459 -12.09996,0.82804 -13.22056,0.93681 -1.49407,0.14508 8.1052,2.06226 12.62859,1.98988 3.21771,0.0582 8.33385,0.23122 9.00769,-1.524 1.32673,-0.0579 -3.53347,-1.55592 -8.41572,-1.40269 z m 5.48774,4.95978 c -2.23158,-0.003 -4.51105,0.11307 -6.75218,0.33066 -5.97633,0.58015 -9.10465,2.17334 -7.47471,2.60848 1.62992,0.43511 13.58529,0.87598 19.69746,0.44087 6.11221,-0.43514 4.89428,-2.32377 4.89428,-2.32377 -3.05608,-0.72517 -6.64552,-1.05342 -10.36485,-1.05624 z m -20.80707,0.98276 c -3.53106,0.009 -5.65381,0.5038 -4.55022,1.09298 1.35827,0.7252 4.34535,0.72176 7.06187,0.4317 2.71654,-0.29007 0.13762,-1.4512 0.13762,-1.4512 -0.94229,-0.0544 -1.83442,-0.0755 -2.64927,-0.0735 z m 16.05045,6.06196 c -6.56422,0.0121 -13.33405,0.56446 -14.76022,0.8358 -1.90156,0.36181 7.19459,1.87344 10.72612,1.86453 3.53144,-0.009 9.78071,-0.19971 11.13896,-0.87257 1.35826,-0.6728 -0.81713,-1.62569 -0.81713,-1.62569 -1.93553,-0.14713 -4.09968,-0.20609 -6.28773,-0.20207 z"
               id="path3975"
               inkscape:connector-curvature="0"
               sodipodi:nodetypes="cscsccssscscccccccscscscsccsscccsssscssccsscscsscscsscsccscs" />
            <path
               style="color:#000000;fill:#ffffff;fill-opacity:1;fill-rule:nonzero;stroke:none;stroke-width:6;marker:none;visibility:visible;display:inline;overflow:visible;enable-background:accumulate"
               d="m 3345.875,-3242.1562 c 2.3972,2.0654 8.8977,7.9406 17.0938,17.1874 -4.9011,-5.9753 -10.5534,-11.7412 -17.0938,-17.1874 z m 17.0938,17.1874 c 23.1565,28.2327 29.2925,60.7934 30.375,83.0626 -2.0064,-6.5453 -5.872,-14.0465 -12.875,-22.25 -24.4255,-28.6128 -45.375,-29.3126 -45.375,-29.3126 l 13.2812,9.7813 c 24.2853,8.3605 34.9182,29.4345 39.5938,46 -15.591,-2.8956 -47.2813,-3.4375 -47.2813,-3.4375 0,0 40.9011,12.4525 50,16.0312 0.061,0.4064 0.1049,0.7424 0.1563,1.125 -0.03,0.676 -0.086,1.3386 -0.125,2 -10.0212,1.0363 -35.375,4.5626 -35.375,4.5626 l 35.0312,0 c -0.1973,2.0507 -0.4349,4.0355 -0.7188,5.9374 -11.1463,12.8896 -27.3437,17.0938 -27.3437,17.0938 0,0 15.6915,-1.8225 25.75,-8.8125 -6.6205,28.065 -22.25,36.75 -22.25,36.75 0,0 23.0421,-11.8869 30.7187,-34.2187 0.5805,-1.6887 1.0192,-3.2828 1.375,-4.8438 3.5728,53.0748 -30.6874,106.0312 -30.6874,106.0312 0,0 34.8855,-41.8464 38.375,-79.5312 1.1771,-12.7124 0.6567,-26.3438 -0.5626,-38.6875 3e-4,-0.028 -2e-4,-0.066 0,-0.094 0.1066,-12.4146 -1.1871,-47.6912 -17.5937,-74.2813 -8.381,-13.583 -17.1043,-24.5976 -24.4687,-32.9063 z"
               transform="matrix(0.26458334,0,0,0.26458334,-6.3049604e-6,18.562493)"
               id="path4221"
               inkscape:connector-curvature="0" />
          </g>
        </g>
      </g>
    </g>
  </g>
</svg>
