<?xml version="1.0" encoding="UTF-8" standalone="no"?>
<!-- Created with Inkscape (http://www.inkscape.org/) -->

<svg
   xmlns:dc="http://purl.org/dc/elements/1.1/"
   xmlns:cc="http://creativecommons.org/ns#"
   xmlns:rdf="http://www.w3.org/1999/02/22-rdf-syntax-ns#"
   xmlns:svg="http://www.w3.org/2000/svg"
   xmlns="http://www.w3.org/2000/svg"
   xmlns:xlink="http://www.w3.org/1999/xlink"
   xmlns:sodipodi="http://sodipodi.sourceforge.net/DTD/sodipodi-0.dtd"
   xmlns:inkscape="http://www.inkscape.org/namespaces/inkscape"
   width="436.44745"
   height="709.00433"
   viewBox="0 0 115.47672 187.59073"
   version="1.1"
   id="svg23489"
   inkscape:version="0.48.5 r10040"
   sodipodi:docname="slash_02.svg">
  <defs
     id="defs23483">
    <linearGradient
       inkscape:collect="always"
       xlink:href="#linearGradient56908"
       id="linearGradient56861"
       gradientUnits="userSpaceOnUse"
       gradientTransform="matrix(0.26458334,0,0,0.26458334,-10546.714,4018.1013)"
       x1="14533.545"
       y1="482.7551"
       x2="15026.226"
       y2="1336.1028" />
    <linearGradient
       id="linearGradient56908"
       inkscape:collect="always">
      <stop
         id="stop56910"
         offset="0"
         style="stop-color:#ffffff;stop-opacity:1" />
      <stop
         id="stop56912"
         offset="1"
         style="stop-color:#ebf4f7;stop-opacity:1" />
    </linearGradient>
    <filter
       inkscape:collect="always"
       id="filter4469"
       color-interpolation-filters="sRGB">
      <feGaussianBlur
         inkscape:collect="always"
         stdDeviation="0.86427134"
         id="feGaussianBlur4471" />
    </filter>
    <filter
       inkscape:collect="always"
       id="filter4483"
       color-interpolation-filters="sRGB">
      <feGaussianBlur
         inkscape:collect="always"
         stdDeviation="4.2032075"
         id="feGaussianBlur4485" />
    </filter>
    <filter
       inkscape:collect="always"
       id="filter4525"
       color-interpolation-filters="sRGB">
      <feGaussianBlur
         inkscape:collect="always"
         stdDeviation="6.6451674"
         id="feGaussianBlur4527" />
    </filter>
    <filter
       inkscape:collect="always"
       id="filter3855"
       color-interpolation-filters="sRGB">
      <feGaussianBlur
         inkscape:collect="always"
         stdDeviation="1.4679456"
         id="feGaussianBlur3857" />
    </filter>
    <filter
       inkscape:collect="always"
       id="filter3895"
       color-interpolation-filters="sRGB">
      <feGaussianBlur
         inkscape:collect="always"
         stdDeviation="1.8327628"
         id="feGaussianBlur3897" />
    </filter>
    <filter
       inkscape:collect="always"
       id="filter3941"
       color-interpolation-filters="sRGB">
      <feGaussianBlur
         inkscape:collect="always"
         stdDeviation="1.3186754"
         id="feGaussianBlur3943" />
    </filter>
    <filter
       inkscape:collect="always"
       id="filter3949"
       color-interpolation-filters="sRGB">
      <feGaussianBlur
         inkscape:collect="always"
         stdDeviation="0.59760691"
         id="feGaussianBlur3951" />
    </filter>
    <filter
       inkscape:collect="always"
       id="filter3955"
       color-interpolation-filters="sRGB">
      <feGaussianBlur
         inkscape:collect="always"
         stdDeviation="4.2032075"
         id="feGaussianBlur3957" />
    </filter>
  </defs>
  <sodipodi:namedview
     id="base"
     pagecolor="#2b2e30"
     bordercolor="#666666"
     borderopacity="1.0"
     inkscape:pageopacity="0"
     inkscape:pageshadow="2"
     inkscape:zoom="0.38746562"
     inkscape:cx="244.35805"
     inkscape:cy="354.00862"
     inkscape:document-units="px"
     inkscape:current-layer="layer1"
     showgrid="false"
     inkscape:pagecheckerboard="false"
     showborder="true"
     units="px"
     inkscape:window-width="1920"
     inkscape:window-height="1017"
     inkscape:window-x="-8"
     inkscape:window-y="-8"
     inkscape:window-maximized="1"
     inkscape:showpageshadow="false"
     guidetolerance="28"
     showguides="true"
     inkscape:guide-bbox="true">
    <inkscape:grid
       type="xygrid"
       id="grid24034"
       spacingx="1px"
       spacingy="1px"
       empspacing="8"
       visible="true"
       enabled="true"
       snapvisiblegridlinesonly="true"
       originx="-157.25839px"
       originy="-1242.8596px" />
  </sodipodi:namedview>
  <metadata
     id="metadata23486">
    <rdf:RDF>
      <cc:Work
         rdf:about="">
        <dc:format>image/svg+xml</dc:format>
        <dc:type
           rdf:resource="http://purl.org/dc/dcmitype/StillImage" />
        <dc:title></dc:title>
        <cc:license
           rdf:resource="" />
        <dc:creator>
          <cc:Agent>
            <dc:title>Robert Brooks</dc:title>
          </cc:Agent>
        </dc:creator>
      </cc:Work>
    </rdf:RDF>
  </metadata>
  <g
     inkscape:label="Layer 1"
     inkscape:groupmode="layer"
     id="layer1"
     transform="translate(-41.607947,219.43068)">
    <g
       id="g3980">
      <path
         gds_color="blur"
         gds_switchable="blur"
         sodipodi:nodetypes="sccscccccccccccccccsccccccccccc"
         inkscape:connector-curvature="0"
         id="path16678-0-2"
         d="m 88.926298,-191.17537 c -10.87559,-7.73947 -23.12043,-12.91659 -36.08551,-14.64136 -5.47793,0.17071 -4.39707,0.48449 -1.05635,0.42101 18.70882,3.72575 33.11848,12.84924 44.06284,24.19209 8.858242,9.18079 15.787882,20.89455 18.899982,29.18015 -8.45765,-18.12962 -24.902262,-29.97102 -28.164232,-32.23001 3.88888,3.12607 40.741842,39.03397 33.277142,85.120091 1.84758,-4.383831 2.92166,-8.966051 3.27936,-13.818791 2.47375,22.955001 -10.805,54.391532 -10.805,54.391532 0,0 8.92583,-11.776535 13.23311,-26.002927 0.20562,-0.01884 0.40107,0.04414 0.58175,0.18601 -0.21921,1.917065 -0.36824,3.085619 -0.36824,3.085619 -2.57022,12.941951 -5.86598,20.256619 -6.36559,21.308031 0.5237,-1.058717 4.34337,-8.811213 7.97833,-20.522102 0.5543,5.4606 -0.45814,16.240826 -4.54135,31.201944 0,0 0.16831,-0.339714 0.44548,-0.919636 -0.31085,0.733415 -0.62913,1.42979 -0.95598,2.084036 3.60746,-6.963572 6.37321,-14.075754 8.36644,-21.244462 5.75812,-18.429804 5.1649,-40.067275 -2.08403,-66.714465 -7.60237,-22.65986 -21.79742,-42.33809 -39.698152,-55.07676 z m -2.7405,6.61967 c -0.0863,-0.0622 -0.15472,-0.10166 -0.19947,-0.12785 -0.19646,-0.10359 0.0412,0.0462 0.59429,0.4334 -0.15426,-0.12433 -0.29526,-0.22874 -0.39721,-0.30223 z m 22.449792,38.56193 c 9.69677,19.43377 11.15841,49.853511 0.18873,69.446997 7.47921,-9.720543 18.12992,-35.695557 -0.18873,-69.446997 z m 13.65752,97.951369 c -0.17441,0.335534 -0.34915,0.668848 -0.52726,1.00385 0.17902,-0.32277 0.35286,-0.657336 0.52726,-1.00385 z"
         style="color:#000000;fill:#00ccff;fill-opacity:1;fill-rule:nonzero;stroke:none;stroke-width:7;marker:none;visibility:visible;display:inline;overflow:visible;filter:url(#filter3895);enable-background:accumulate" />
      <g
         inkscape:export-ydpi="90"
         inkscape:export-xdpi="90"
         inkscape:export-filename="C:\Users\rober\Desktop\assets\ASSETS_2024\ESSENTIALS\sword_effects\slash\1.png"
         transform="translate(-23.788988,-199.00497)"
         id="g4058">
        <rect
           style="color:#000000;fill:none;stroke:none;stroke-width:10;marker:none;visibility:visible;display:inline;overflow:visible;enable-background:accumulate"
           id="rect4040"
           width="115.47672"
           height="187.59073"
           x="65.396935"
           y="-20.425711" />
        <rect
           y="-20.425711"
           x="65.396935"
           height="187.59073"
           width="115.47672"
           id="rect4038"
           style="color:#000000;fill:none;stroke:none;stroke-width:10;marker:none;visibility:visible;display:inline;overflow:visible;enable-background:accumulate" />
        <rect
           style="color:#000000;fill:none;stroke:none;stroke-width:10;marker:none;visibility:visible;display:inline;overflow:visible;enable-background:accumulate"
           id="rect4036"
           width="115.47672"
           height="187.59073"
           x="65.396935"
           y="-20.425711" />
        <g
           id="g3960"
           transform="matrix(0.8112378,0.58471637,-0.58471637,0.8112378,77.219477,-79.217794)">
          <path
             sodipodi:nodetypes="cscscccccccsssccscc"
             inkscape:connector-curvature="0"
             id="path3798"
             d="m 119.11856,52.96245 c 20.74651,10.333582 27.45566,22.555275 35.38788,34.814168 7.93222,12.258892 8.11781,14.221602 8.11781,14.221602 0,0 9.3745,-1.92141 16.34525,8.89526 6.97074,10.81667 13.45902,29.80428 13.45902,29.80428 0,0 -1e-5,-8.89152 -4.08631,-21.39077 C 163.58407,56.810683 119.11856,52.96245 119.11856,52.96245 z m 24.44089,30.275368 c -17.0569,-12.376262 -28.1666,-9.962457 -28.1666,-9.962457 13.09504,1.48998 25.52009,14.818804 32.56798,23.195588 16.82593,29.325191 15.03552,48.511521 15.03552,48.511521 0,0 2.27298,-11.4934 0.1097,-27.5982 -2.16334,-16.10482 -9.85754,-26.682524 -19.47237,-35.335864 -8.41295,-7.571668 0.55374,1.645048 -0.0742,1.189412 z m -21.0757,0.251545 c 26.71469,17.564627 34.2515,54.535967 34.51858,61.389347 0.33366,-3.2319 0.7528,-13.48436 -4.47344,-29.89891 -6.98745,-21.94618 -30.04514,-31.490437 -30.04514,-31.490437 z"
             style="opacity:0.25;color:#000000;fill:#00ffff;fill-opacity:1;fill-rule:nonzero;stroke:none;stroke-width:8;marker:none;visibility:visible;display:inline;overflow:visible;enable-background:accumulate" />
          <path
             style="color:#000000;fill:#00ffff;fill-opacity:1;fill-rule:nonzero;stroke:none;stroke-width:7;marker:none;visibility:visible;display:inline;overflow:visible;enable-background:accumulate"
             d="m 79.693578,49.861153 c -13.348081,0.08059 -26.308709,3.040467 -37.83497,9.222166 -4.344086,3.341526 -3.283782,2.964078 -0.610782,0.959207 17.355813,-7.916885 34.380121,-8.941128 49.890952,-6.138722 12.554302,2.268238 25.025112,7.719017 32.394492,12.620907 C 106.07142,56.76261 85.807062,56.771849 81.839966,56.8466 c 4.982675,0.262092 55.875124,7.843408 76.766784,49.59494 -1.06447,-4.63664 -2.87243,-8.981936 -5.41973,-13.127817 15.42896,17.175527 23.03819,50.442327 23.03819,50.442327 0,0 0.35504,-14.77265 -4.46914,-28.83217 0.15579,-0.13552 0.35118,-0.19871 0.5807,-0.18926 0.94311,1.68337 1.50549,2.71848 1.50549,2.71848 5.48231,12.00185 7.08567,19.86287 7.29514,21.00795 -0.1942,-1.16509 -1.62855,-9.68763 -5.52728,-21.31337 3.64257,4.10574 9.12461,13.44306 14.56017,27.9676 0,0 -0.0621,-0.374 -0.17634,-1.00652 0.17667,0.77673 0.32565,1.52776 0.44305,2.24962 -1.14521,-7.75845 -3.06014,-15.1453 -5.63482,-22.1263 -6.105,-18.31782 -19.23802,-35.524092 -40.69968,-52.902727 -19.41692,-13.937312 -42.43866,-21.600956 -64.408922,-21.4682 z m 1.647433,6.972541 c -0.106419,0 -0.184963,0.008 -0.23657,0.01292 -0.219947,0.03084 0.06048,0.0134 0.735525,0.0041 -0.197846,-0.01066 -0.37328,-0.01292 -0.498955,-0.01292 z m 40.759909,18.156138 c 19.22963,10.095553 38.20229,33.918548 40.7599,56.227678 0.38366,-12.25889 -6.1641,-39.558445 -40.7599,-56.227678 z m 68.35327,71.476078 c 0.0547,0.37418 0.10784,0.74675 0.15923,1.12266 -0.0435,-0.36652 -0.0981,-0.73958 -0.15923,-1.12266 z"
             id="path3945"
             inkscape:connector-curvature="0"
             sodipodi:nodetypes="sccscccccccccccccccsccccccccccc" />
          <path
             sodipodi:nodetypes="sccscccccccccccccccsccccccccccc"
             inkscape:connector-curvature="0"
             id="path16678-0"
             d="m 79.693578,49.861153 c -13.348081,0.08059 -26.308709,3.040467 -37.83497,9.222166 -4.344086,3.341526 -3.283782,2.964078 -0.610782,0.959207 17.355813,-7.916885 34.380121,-8.941128 49.890952,-6.138722 12.554302,2.268238 25.025112,7.719017 32.394492,12.620907 C 106.07142,56.76261 85.807062,56.771849 81.839966,56.8466 c 4.982675,0.262092 55.875124,7.843408 76.766784,49.59494 -1.06447,-4.63664 -2.87243,-8.981936 -5.41973,-13.127817 15.42896,17.175527 23.03819,50.442327 23.03819,50.442327 0,0 0.35504,-14.77265 -4.46914,-28.83217 0.15579,-0.13552 0.35118,-0.19871 0.5807,-0.18926 0.94311,1.68337 1.50549,2.71848 1.50549,2.71848 5.48231,12.00185 7.08567,19.86287 7.29514,21.00795 -0.1942,-1.16509 -1.62855,-9.68763 -5.52728,-21.31337 3.64257,4.10574 9.12461,13.44306 14.56017,27.9676 0,0 -0.0621,-0.374 -0.17634,-1.00652 0.17667,0.77673 0.32565,1.52776 0.44305,2.24962 -1.14521,-7.75845 -3.06014,-15.1453 -5.63482,-22.1263 -6.105,-18.31782 -19.23802,-35.524092 -40.69968,-52.902727 -19.41692,-13.937312 -42.43866,-21.600956 -64.408922,-21.4682 z m 1.647433,6.972541 c -0.106419,0 -0.184963,0.008 -0.23657,0.01292 -0.219947,0.03084 0.06048,0.0134 0.735525,0.0041 -0.197846,-0.01066 -0.37328,-0.01292 -0.498955,-0.01292 z m 40.759909,18.156138 c 19.22963,10.095553 38.20229,33.918548 40.7599,56.227678 0.38366,-12.25889 -6.1641,-39.558445 -40.7599,-56.227678 z m 68.35327,71.476078 c 0.0547,0.37418 0.10784,0.74675 0.15923,1.12266 -0.0435,-0.36652 -0.0981,-0.73958 -0.15923,-1.12266 z"
             style="color:#000000;fill:#00ffff;fill-opacity:1;fill-rule:nonzero;stroke:none;stroke-width:7;marker:none;visibility:visible;display:inline;overflow:visible;enable-background:accumulate" />
          <path
             id="path3951"
             transform="matrix(0.26458334,0,0,0.26458334,-6.3049604e-6,18.562493)"
             d="m 326.625,124.375 c 95.38414,17.34257 157.62597,52.84206 193.875,80.59375 -17.15954,-8.17813 -31.37535,-12.73963 -38.59375,-14.78125 7.3395,3.17314 21.57698,11.61309 39.5,25.53125 -16.62132,-9.00144 -33.0596,-11.58084 -38.90625,-12.25 7.02277,1.73192 28.91348,11.36322 52.875,31.78125 28.08034,23.92778 47.59375,63.8125 47.59375,63.8125 0,0 -11.45066,-30.79315 -34.59375,-60.4375 12.80328,11.80693 26.43305,25.75384 40.125,41.875 54.1358,63.74053 68.3125,139.1875 68.3125,139.1875 0,0 -0.16103,-46.03462 -32.53125,-111.71875 53.10032,59.66504 59.78094,87.42236 82.03125,123.875 0,0 -47.53115,-122.85398 -111.125,-179.65625 C 531.59366,195.38523 458.13461,140.42782 326.625,124.375 z M 482.5,203.46875 c -1.20718,-0.29771 -2.02052,-0.37558 -2.28125,-0.21875 0,0 0.85102,0.0551 2.28125,0.21875 z m -0.59375,-13.28125 c -2.71479,-1.1737 -4.49829,-1.63819 -5.15625,-1.375 0,0 1.94331,0.46626 5.15625,1.375 z"
             style="color:#000000;fill:#ffffff;fill-opacity:1;fill-rule:nonzero;stroke:none;stroke-width:10;marker:none;visibility:visible;display:inline;overflow:visible;enable-background:accumulate"
             inkscape:connector-curvature="0" />
        </g>
      </g>
    </g>
  </g>
</svg>
