<?xml version="1.0" encoding="UTF-8" standalone="no"?>
<!-- Created with Inkscape (http://www.inkscape.org/) -->

<svg
   xmlns:dc="http://purl.org/dc/elements/1.1/"
   xmlns:cc="http://creativecommons.org/ns#"
   xmlns:rdf="http://www.w3.org/1999/02/22-rdf-syntax-ns#"
   xmlns:svg="http://www.w3.org/2000/svg"
   xmlns="http://www.w3.org/2000/svg"
   xmlns:sodipodi="http://sodipodi.sourceforge.net/DTD/sodipodi-0.dtd"
   xmlns:inkscape="http://www.inkscape.org/namespaces/inkscape"
   width="513.43115"
   height="546.41699"
   viewBox="0 0 135.84532 144.57283"
   version="1.1"
   id="svg23489"
   inkscape:version="0.48.5 r10040"
   sodipodi:docname="uppercut_05.svg">
  <defs
     id="defs23483">
    <filter
       inkscape:collect="always"
       id="filter4178"
       color-interpolation-filters="sRGB">
      <feGaussianBlur
         inkscape:collect="always"
         stdDeviation="0.94617652"
         id="feGaussianBlur4180" />
    </filter>
    <filter
       inkscape:collect="always"
       id="filter4182"
       color-interpolation-filters="sRGB">
      <feGaussianBlur
         inkscape:collect="always"
         stdDeviation="1.4712898"
         id="feGaussianBlur4184" />
    </filter>
    <filter
       inkscape:collect="always"
       id="filter4186"
       color-interpolation-filters="sRGB">
      <feGaussianBlur
         inkscape:collect="always"
         stdDeviation="1.786033"
         id="feGaussianBlur4188" />
    </filter>
    <filter
       inkscape:collect="always"
       id="filter4190"
       color-interpolation-filters="sRGB">
      <feGaussianBlur
         inkscape:collect="always"
         stdDeviation="1.7355851"
         id="feGaussianBlur4192" />
    </filter>
    <filter
       inkscape:collect="always"
       id="filter4194"
       color-interpolation-filters="sRGB">
      <feGaussianBlur
         inkscape:collect="always"
         stdDeviation="1.3030529"
         id="feGaussianBlur4196" />
    </filter>
    <filter
       inkscape:collect="always"
       id="filter4198"
       color-interpolation-filters="sRGB">
      <feGaussianBlur
         inkscape:collect="always"
         stdDeviation="0.65784243"
         id="feGaussianBlur4200" />
    </filter>
    <filter
       inkscape:collect="always"
       id="filter4202"
       color-interpolation-filters="sRGB">
      <feGaussianBlur
         inkscape:collect="always"
         stdDeviation="0.39911912"
         id="feGaussianBlur4204" />
    </filter>
  </defs>
  <sodipodi:namedview
     id="base"
     pagecolor="#2b2e30"
     bordercolor="#666666"
     borderopacity="1.0"
     inkscape:pageopacity="0"
     inkscape:pageshadow="2"
     inkscape:zoom="0.34863486"
     inkscape:cx="-876.62677"
     inkscape:cy="128.61215"
     inkscape:document-units="px"
     inkscape:current-layer="layer1"
     showgrid="false"
     inkscape:pagecheckerboard="false"
     showborder="true"
     units="px"
     inkscape:window-width="1920"
     inkscape:window-height="1017"
     inkscape:window-x="-8"
     inkscape:window-y="-8"
     inkscape:window-maximized="1"
     inkscape:showpageshadow="false"
     guidetolerance="28"
     showguides="true"
     inkscape:guide-bbox="true">
    <inkscape:grid
       type="xygrid"
       id="grid24034"
       spacingx="1px"
       spacingy="1px"
       empspacing="8"
       visible="true"
       enabled="true"
       snapvisiblegridlinesonly="true"
       originx="-1457.7692px"
       originy="-867.66998px" />
  </sodipodi:namedview>
  <metadata
     id="metadata23486">
    <rdf:RDF>
      <cc:Work
         rdf:about="">
        <dc:format>image/svg+xml</dc:format>
        <dc:type
           rdf:resource="http://purl.org/dc/dcmitype/StillImage" />
        <dc:title></dc:title>
        <cc:license
           rdf:resource="" />
        <dc:creator>
          <cc:Agent>
            <dc:title>Robert Brooks</dc:title>
          </cc:Agent>
        </dc:creator>
      </cc:Work>
    </rdf:RDF>
  </metadata>
  <g
     inkscape:label="Layer 1"
     inkscape:groupmode="layer"
     id="layer1"
     transform="translate(-385.70144,77.143858)">
    <g
       id="g4247"
       inkscape:export-filename="C:\Users\rober\Desktop\assets\ASSETS_2024\ESSENTIALS\sword_effects\1.png"
       inkscape:export-xdpi="90"
       inkscape:export-ydpi="90">
      <path
         gds_color="blur"
         gds_switchable="blur"
         inkscape:connector-curvature="0"
         inkscape:export-ydpi="90"
         inkscape:export-xdpi="90"
         inkscape:export-filename="C:\Users\rober\Desktop\assets\ASSETS_2024\ESSENTIALS\sword_effects\1.png"
         id="path4066-1"
         d="m 500.88105,-70.122534 1.52135,4.927865 c 4.55348,14.419336 4.17544,27.706837 4.17544,27.706837 0,0 2.08701,-6.261156 0,-17.834572 -2.08701,-11.573415 -5.69679,-14.80013 -5.69679,-14.80013 z m -3.34865,1.95957 c -0.5628,-0.03127 -0.0661,8.474935 -0.0661,8.474935 2.27674,18.972812 -4.74596,52.5528663 -4.74596,52.5528663 0,0 7.02106,-15.3667963 7.59023,-31.4936853 0.56918,-16.126892 -1.89515,-28.081995 -2.65411,-29.410092 -0.0474,-0.08301 -0.0865,-0.121939 -0.12401,-0.124024 z m 7.90443,0.884701 c 0.37946,3.604834 3.22461,12.146029 3.22461,12.146029 0,0 -0.76155,-4.175128 -1.14102,-7.590235 -0.37947,-3.415104 -2.08359,-4.555794 -2.08359,-4.555794 z m -10.34355,2.728515 c -0.36396,-0.04877 -0.66145,1.63711 -0.66145,1.63711 1.3281,10.435047 0.19015,14.229622 0.19015,14.229622 0,0 1.90037,-2.46725 1.3312,-11.005013 -0.24903,-3.735274 -0.57684,-4.823783 -0.8599,-4.861719 z m 15.08951,0.686263 0.37206,7.209896 c 1.51783,7.589124 1.52135,18.975587 1.52135,18.975587 0,0 1.52051,-5.318902 1.14104,-13.477214 -0.37946,-8.158308 -3.03445,-12.708269 -3.03445,-12.708269 z m -19.16576,0.570508 0.38034,5.878711 c 0.5692,12.332328 -2.84427,20.488673 -2.84427,20.488673 0,0 3.78905,-5.119584 4.73768,-12.898438 0.94869,-7.778854 -2.27375,-13.468946 -2.27375,-13.468946 z m 15.49467,43.631447 c -0.4263,0.06331 -0.69454,2.091862 -0.69454,2.091862 -0.56919,2.466464 -0.94863,3.603625 0,3.03444 0.94864,-0.569185 1.51178,-3.979222 0.94258,-4.927865 -0.0889,-0.148224 -0.16909,-0.210161 -0.24804,-0.198437 z"
         style="color:#000000;fill:#00ccff;fill-opacity:1;fill-rule:nonzero;stroke:#00ccff;stroke-width:1.32291663;stroke-miterlimit:4;stroke-dasharray:none;marker:none;visibility:visible;display:inline;overflow:visible;filter:url(#filter4198);enable-background:accumulate" />
      <g
         inkscape:export-ydpi="90"
         inkscape:export-xdpi="90"
         inkscape:export-filename="C:\Users\rober\Desktop\assets\ASSETS_2024\ESSENTIALS\sword_effects\1.png"
         transform="translate(-41.243288,0)"
         id="g4061">
        <g
           id="g4055"
           transform="translate(579.57325,-183.65682)">
          <rect
             y="106.51296"
             x="-152.62852"
             height="144.57283"
             width="135.84532"
             id="rect4057"
             style="opacity:0;color:#000000;fill:#ffcc00;fill-opacity:1;fill-rule:nonzero;stroke:none;stroke-width:2;marker:none;visibility:visible;display:inline;overflow:visible;enable-background:accumulate" />
        </g>
      </g>
      <path
         inkscape:connector-curvature="0"
         inkscape:export-ydpi="90"
         inkscape:export-xdpi="90"
         inkscape:export-filename="C:\Users\rober\Desktop\assets\ASSETS_2024\ESSENTIALS\sword_effects\1.png"
         id="path4066"
         transform="matrix(0.26458334,0,0,0.26458334,-6.3049604e-6,18.562493)"
         d="m 1893.0938,-335.1875 5.75,18.625 c 17.21,54.49828 15.7812,104.71875 15.7812,104.71875 0,0 7.8879,-23.66421 0,-67.40625 -7.8879,-43.74204 -21.5312,-55.9375 -21.5312,-55.9375 z m -12.6563,7.40625 c -2.1271,-0.11817 -0.25,32.03125 -0.25,32.03125 8.605,71.70826 -17.9375,198.625 -17.9375,198.625 0,0 26.5363,-58.07923 28.6875,-119.03125 2.1512,-60.95203 -7.1628,-106.13667 -10.0313,-111.15625 -0.1792,-0.31372 -0.3269,-0.46087 -0.4687,-0.46875 z m 29.875,3.34375 c 1.4342,13.62457 12.1875,45.90625 12.1875,45.90625 0,0 -2.8783,-15.78001 -4.3125,-28.6875 -1.4342,-12.90748 -7.875,-17.21875 -7.875,-17.21875 z m -39.0937,10.3125 c -1.3756,-0.18435 -2.5,6.1875 -2.5,6.1875 5.0196,39.43955 0.7187,53.78125 0.7187,53.78125 0,0 7.1825,-9.32504 5.0313,-41.59375 -0.9412,-14.11757 -2.1802,-18.23162 -3.25,-18.375 z m 57.0312,2.59375 1.4062,27.25 c 5.7367,28.6833 5.75,71.71875 5.75,71.71875 0,0 5.7468,-20.10294 4.3126,-50.9375 -1.4342,-30.83455 -11.4688,-48.03125 -11.4688,-48.03125 z m -72.4375,2.15625 1.4375,22.21875 c 2.1513,46.61037 -10.75,77.4375 -10.75,77.4375 0,0 14.3208,-19.34961 17.9062,-48.75 3.5856,-29.40039 -8.5937,-50.90625 -8.5937,-50.90625 z m 58.5625,164.90625 c -1.6112,0.2393 -2.625,7.90625 -2.625,7.90625 -2.1513,9.32207 -3.5854,13.62 0,11.46875 3.5854,-2.15125 5.7138,-15.03958 3.5625,-18.625 -0.3361,-0.56022 -0.6391,-0.79431 -0.9375,-0.75 z"
         style="color:#000000;fill:#00ffff;fill-opacity:1;fill-rule:nonzero;stroke:none;stroke-width:2;marker:none;visibility:visible;display:inline;overflow:visible;enable-background:accumulate" />
    </g>
  </g>
</svg>
