<?xml version="1.0" encoding="UTF-8" standalone="no"?>
<!-- Created with Inkscape (http://www.inkscape.org/) -->

<svg
   xmlns:dc="http://purl.org/dc/elements/1.1/"
   xmlns:cc="http://creativecommons.org/ns#"
   xmlns:rdf="http://www.w3.org/1999/02/22-rdf-syntax-ns#"
   xmlns:svg="http://www.w3.org/2000/svg"
   xmlns="http://www.w3.org/2000/svg"
   xmlns:sodipodi="http://sodipodi.sourceforge.net/DTD/sodipodi-0.dtd"
   xmlns:inkscape="http://www.inkscape.org/namespaces/inkscape"
   width="3860.5786"
   height="512"
   viewBox="0 0 1021.4447 135.46667"
   version="1.1"
   id="svg23489"
   inkscape:version="0.48.5 r10040"
   sodipodi:docname="slash_2.svg">
  <defs
     id="defs23483">
    <filter
       inkscape:collect="always"
       id="filter4411">
      <feGaussianBlur
         inkscape:collect="always"
         stdDeviation="9.0971125"
         id="feGaussianBlur4413" />
    </filter>
    <filter
       inkscape:collect="always"
       id="filter4429">
      <feGaussianBlur
         inkscape:collect="always"
         stdDeviation="11.710904"
         id="feGaussianBlur4431" />
    </filter>
    <filter
       inkscape:collect="always"
       id="filter4491"
       x="-0.021584861"
       width="1.0431697"
       y="-0.10838009"
       height="1.2167602">
      <feGaussianBlur
         inkscape:collect="always"
         stdDeviation="0.6809065"
         id="feGaussianBlur4493" />
    </filter>
    <filter
       inkscape:collect="always"
       id="filter4513">
      <feGaussianBlur
         inkscape:collect="always"
         stdDeviation="1.4195242"
         id="feGaussianBlur4515" />
    </filter>
    <filter
       color-interpolation-filters="sRGB"
       inkscape:collect="always"
       id="filter4429-6">
      <feGaussianBlur
         inkscape:collect="always"
         stdDeviation="11.710904"
         id="feGaussianBlur4431-5" />
    </filter>
    <filter
       inkscape:collect="always"
       id="filter4635">
      <feGaussianBlur
         inkscape:collect="always"
         stdDeviation="0.74976759"
         id="feGaussianBlur4637" />
    </filter>
    <filter
       inkscape:collect="always"
       id="filter4639">
      <feGaussianBlur
         inkscape:collect="always"
         stdDeviation="1.0611189"
         id="feGaussianBlur4641" />
    </filter>
    <filter
       inkscape:collect="always"
       id="filter4647">
      <feGaussianBlur
         inkscape:collect="always"
         stdDeviation="1.6352989"
         id="feGaussianBlur4649" />
    </filter>
    <filter
       inkscape:collect="always"
       id="filter4651">
      <feGaussianBlur
         inkscape:collect="always"
         stdDeviation="1.8238067"
         id="feGaussianBlur4653" />
    </filter>
  </defs>
  <sodipodi:namedview
     id="base"
     pagecolor="#2b2e30"
     bordercolor="#666666"
     borderopacity="1.0"
     inkscape:pageopacity="0"
     inkscape:pageshadow="2"
     inkscape:zoom="0.50661983"
     inkscape:cx="437.14598"
     inkscape:cy="-20.36754"
     inkscape:document-units="px"
     inkscape:current-layer="layer1"
     showgrid="false"
     inkscape:pagecheckerboard="false"
     showborder="true"
     units="px"
     inkscape:window-width="1920"
     inkscape:window-height="1017"
     inkscape:window-x="-8"
     inkscape:window-y="-8"
     inkscape:window-maximized="1"
     inkscape:showpageshadow="false"
     guidetolerance="28"
     showguides="true"
     inkscape:guide-bbox="true">
    <inkscape:grid
       type="xygrid"
       id="grid24034"
       spacingx="1px"
       spacingy="1px"
       empspacing="8"
       visible="true"
       enabled="true"
       snapvisiblegridlinesonly="true"
       originx="-349.32834px"
       originy="39.080092px" />
  </sodipodi:namedview>
  <metadata
     id="metadata23486">
    <rdf:RDF>
      <cc:Work
         rdf:about="">
        <dc:format>image/svg+xml</dc:format>
        <dc:type
           rdf:resource="http://purl.org/dc/dcmitype/StillImage" />
        <dc:title></dc:title>
        <cc:license
           rdf:resource="" />
        <dc:creator>
          <cc:Agent>
            <dc:title>Robert Brooks</dc:title>
          </cc:Agent>
        </dc:creator>
      </cc:Work>
    </rdf:RDF>
  </metadata>
  <g
     inkscape:label="Layer 1"
     inkscape:groupmode="layer"
     id="layer1"
     transform="translate(-92.42646,-171.87326)">
    <g
       id="g4079"
       transform="translate(115.47672,0)">
      <g
         id="g4081"
         transform="translate(339.83114,-147.85477)" />
    </g>
    <g
       id="g4693">
      <path
         gds_color="blur"
         gds_switchable="blur"
         sodipodi:nodetypes="csccscsccccccccc"
         inkscape:connector-curvature="0"
         id="path4423"
         transform="matrix(0.15604118,0,0,0.15604118,-1733.1068,-945.83214)"
         d="m 13947.344,7252.2812 c 273.323,75.1366 349.722,324.1388 358,416.625 3.464,38.7002 6.197,85.154 -4.969,84 0,0 -17.47,-276.6078 -173.406,-355.5624 96.72,96.7194 94.733,225.0371 88.812,246.75 -4.018,14.7341 -9.837,21.6958 -16.875,2.7812 -8.009,-54.319 -67.156,-372.7673 -353.5,-372.9062 -66.758,-0.032 -145.849,17.2664 -239.531,59.25 604.003,-228.9689 615.139,423.8828 354.25,650.3609 l 432.781,0 c 0,0 165.338,-447.0618 -151.468,-622.7359 116.139,97.4216 150.361,221.5741 155.218,314.875 2.163,41.5394 3.05,73.5077 -0.382,91.7198 -4.987,-88.5572 -26.921,-212.5728 -65.795,-245.6149 30.956,87.529 42.854,279.1638 25.583,284.3738 2.093,-195.9924 -44.345,-492.7014 -408.718,-553.9163 z"
         style="color:#000000;fill:#00ccff;fill-opacity:1;fill-rule:nonzero;stroke:#00ccff;stroke-width:8.47799683000000040;stroke-miterlimit:4;stroke-dasharray:none;marker:none;visibility:visible;display:inline;overflow:visible;filter:url(#filter4429-6);enable-background:accumulate" />
      <g
         inkscape:export-ydpi="53.078571"
         inkscape:export-xdpi="53.078571"
         inkscape:export-filename="C:\Users\rober\Desktop\assets\ASSETS_2024\ESSENTIALS\sword_effects\slash_02\1.png"
         transform="matrix(0.58976194,0,0,0.58976194,-1209.0526,-890.57083)"
         id="g4380">
        <g
           id="g4332"
           transform="translate(-888.58604,-112.26358)">
          <rect
             style="opacity:0.27876107999999999;color:#000000;fill:none;fill-opacity:1;fill-rule:nonzero;stroke:none;stroke-width:5;marker:none;visibility:visible;display:inline;overflow:visible;enable-background:accumulate"
             id="rect4284"
             width="247.42303"
             height="229.6972"
             x="3590.2192"
             y="1913.7432" />
          <g
             id="g4208">
            <path
               style="color:#000000;fill:#00e4ff;fill-opacity:1;fill-rule:nonzero;stroke:none;stroke-width:3;marker:none;visibility:visible;display:inline;overflow:visible;enable-background:accumulate"
               d="m 13947.344,7252.2812 c 273.323,75.1366 349.722,324.1388 358,416.625 3.464,38.7002 6.197,85.154 -4.969,84 0,0 -17.47,-276.6078 -173.406,-355.5624 96.72,96.7194 94.733,225.0371 88.812,246.75 -4.018,14.7341 -9.837,21.6958 -16.875,2.7812 -8.009,-54.319 -67.156,-372.7673 -353.5,-372.9062 -66.758,-0.032 -145.849,17.2664 -239.531,59.25 604.003,-228.9689 615.139,423.8828 354.25,650.3609 l 432.781,0 c 0,0 165.338,-447.0618 -151.468,-622.7359 116.139,97.4216 150.361,221.5741 155.218,314.875 2.163,41.5394 3.05,73.5077 -0.382,91.7198 -4.987,-88.5572 -26.921,-212.5728 -65.795,-245.6149 30.956,87.529 42.854,279.1638 25.583,284.3738 2.093,-195.9924 -44.345,-492.7014 -408.718,-553.9163 z"
               transform="matrix(0.26458334,0,0,0.26458334,-6.3049604e-6,18.562493)"
               id="path4074"
               inkscape:connector-curvature="0"
               sodipodi:nodetypes="csccscsccccccccc" />
            <path
               style="opacity:1;color:#000000;fill:#9dffff;fill-opacity:1;fill-rule:nonzero;stroke:none;stroke-width:5;marker:none;visibility:visible;display:inline;overflow:visible;enable-background:accumulate"
               d="m 13956.719,7301.625 c 102.148,42.9316 157.406,146.0625 157.406,146.0625 0,0 -43.909,-110.0394 -157.406,-146.0625 z m 175.312,30.4688 c 196.4,137.1838 199.065,432.6799 178.438,492.3437 -7.588,21.9473 -25.781,23.1324 -25.781,-12.625 0,-68.227 -16.624,-224.5966 -95.688,-358.375 90.949,177.1954 37.304,271.4273 24.062,278.8437 -25.892,14.024 -28.202,-35.9316 -43.718,-114 -11.779,-59.2666 -18.017,-96.9218 -41.719,-141.3437 83.744,272.1682 -72.781,478.6422 -72.781,478.6422 l -23.313,28 318.031,0 c 48.948,-101.6856 132.92,-372.8037 -24.843,-549.5797 56.996,80.3511 80.937,160.1043 85.343,230.7812 2.132,34.1697 -4.514,99.04 -14.374,132.6876 -3.252,11.0936 -7.767,4.0261 -9.157,-23.0313 -3.002,-58.4373 -17.916,-170.7953 -38.5,-214.25 26.647,139.1576 36.736,181.1533 24.188,253.6563 -6.28,36.2813 -35.23,33.1698 -32.344,-7.9063 0.377,-145.7028 -35.301,-372.7929 -207.844,-473.8437 z"
               transform="matrix(0.26458334,0,0,0.26458334,-6.3049604e-6,18.562493)"
               id="path4132"
               inkscape:connector-curvature="0"
               sodipodi:nodetypes="cccccsccscccccccscccc" />
            <path
               sodipodi:nodetypes="ccccscscsc"
               inkscape:connector-curvature="0"
               id="path4417"
               transform="matrix(0.44862736,0,0,0.44862736,3095.3731,1913.7432)"
               d="m 1454.3125,305.9375 c -0.3872,21.32223 -5.2247,110.82673 -58.0313,178.0625 l 146.2188,0 c 11.5385,-17.03829 34.1562,-66.37385 38.6718,-94.70749 -1.8902,4.28681 -7.4283,22.89593 -17.2656,24.30124 -14.6552,2.0936 -11.8333,-18.11597 -12.5312,-37.65625 0,0 -4.1895,66.28999 -33.5,42.5625 -18.1658,-14.70564 -13.7728,-77.94722 -10.4688,-98 -3.6937,16.86729 -15.5913,61.29724 -33.5312,56.1875 -17.8748,-5.09118 -19.4932,-55.21831 -19.5625,-70.75 z"
               style="color:#000000;fill:#ffffff;fill-opacity:1;fill-rule:nonzero;stroke:none;stroke-width:5;marker:none;visibility:visible;display:inline;overflow:visible;enable-background:accumulate" />
          </g>
        </g>
      </g>
    </g>
    <g
       id="g4703">
      <g
         id="g4517">
        <path
           style="color:#000000;fill:#00ccff;fill-opacity:1;fill-rule:nonzero;stroke:#00ccff;stroke-width:1.32291669999999990;marker:none;visibility:visible;display:inline;overflow:visible;enable-background:accumulate;stroke-miterlimit:4;stroke-dasharray:none;filter:url(#filter4513)"
           d="m 244.28377,198.5231 c 44.42961,-29.61972 83.19679,7.62273 83.19679,7.62273 -1.77981,-6.64253 -10.67182,-13.28531 -10.67182,-13.28531 0,0 44.86497,15.7904 44.86497,66.10036 l -29.54469,0 c 0.4789,-27.77981 -19.67632,-87.44399 -87.84525,-60.43778 z"
           id="path4066-4"
           inkscape:connector-curvature="0"
           sodipodi:nodetypes="cccccc"
           gds_color="blur"
           gds_switchable="blur" />
        <g
           id="g4387"
           transform="matrix(0.58976194,0,0,0.58976194,-1213.0167,-865.30695)"
           inkscape:export-filename="C:\Users\rober\Desktop\assets\ASSETS_2024\ESSENTIALS\sword_effects\slash_02\1.png"
           inkscape:export-xdpi="53.078571"
           inkscape:export-ydpi="53.078571">
          <g
             transform="translate(-1129.2876,-155.101)"
             id="g4324">
            <rect
               style="opacity:0.27876107999999999;color:#000000;fill:none;fill-opacity:1;fill-rule:nonzero;stroke:none;stroke-width:5;marker:none;visibility:visible;display:inline;overflow:visible;enable-background:accumulate"
               id="rect4322"
               width="247.42303"
               height="229.6972"
               x="3590.2192"
               y="1913.7432" />
            <g
               id="g4145"
               transform="translate(347.96537,-1.342973)">
              <g
                 id="g4070">
                <path
                   style="color:#000000;fill:#00e4ff;fill-opacity:1;fill-rule:nonzero;stroke:none;stroke-width:3;marker:none;visibility:visible;display:inline;overflow:visible;enable-background:accumulate"
                   d="m 12292.233,7338.7504 c 284.73,-189.8199 533.172,48.8508 533.172,48.8508 -11.406,-42.5691 -68.391,-85.1398 -68.391,-85.1398 0,0 287.52,101.1938 287.52,423.6084 l -189.339,0 c 3.069,-178.0287 -126.097,-560.3904 -562.962,-387.3194 z"
                   id="path4066"
                   inkscape:connector-curvature="0"
                   transform="matrix(0.26458334,0,0,0.26458334,-6.3049604e-6,18.562493)"
                   sodipodi:nodetypes="cccccc" />
                <path
                   style="opacity:0.25;color:#000000;fill:#00ccff;fill-opacity:1;fill-rule:nonzero;stroke:none;stroke-width:3;marker:none;visibility:visible;display:inline;overflow:visible;enable-background:accumulate"
                   d="m 12418.582,7280.8985 c 114.46,-21.4244 259.392,-27.5922 362.205,36.5165 80.274,50.0547 120.406,176.6611 120.406,176.6611 0,0 -101.654,-58.229 -118.432,-90.7978 -16.778,-32.5688 -158.897,-116.4582 -211.204,-121.3928 -52.307,-4.9347 -152.975,-0.987 -152.975,-0.987 z"
                   id="path4068"
                   inkscape:connector-curvature="0"
                   transform="matrix(0.26458334,0,0,0.26458334,-6.3049604e-6,18.562493)"
                   sodipodi:nodetypes="cscssc" />
              </g>
              <path
                 sodipodi:nodetypes="scccccs"
                 inkscape:connector-curvature="0"
                 id="path4090"
                 transform="matrix(0.26458334,0,0,0.26458334,-6.3049604e-6,18.562493)"
                 d="m 12515.719,7277.5625 c -11.471,-0.079 -23.155,0.2839 -35.063,1.1563 428.49,8.3744 417.314,447.351 417.314,447.351 l 113.082,0 c 0,-98.1887 -34.922,-237.5653 -159.114,-342.6636 32.312,44.1823 55.562,102.0654 70.687,151.4376 -79.609,-121.2842 -211.824,-255.9339 -406.906,-257.2813 z"
                 style="opacity:1;color:#000000;fill:#9dffff;fill-opacity:1;fill-rule:nonzero;stroke:none;stroke-width:3;marker:none;visibility:visible;display:inline;overflow:visible;enable-background:accumulate" />
              <path
                 style="opacity:1;color:#000000;fill:#ffffff;fill-opacity:1;fill-rule:nonzero;stroke:none;stroke-width:3;marker:none;visibility:visible;display:inline;overflow:visible;enable-background:accumulate"
                 d="M 867.5 135.5 C 917.4635 188.70187 949.23131 282.64979 947.71875 329.15625 L 985.3125 329.15625 C 981.38854 253.38621 952.40625 200.625 952.40625 200.625 C 952.40625 200.625 964.24346 238.12382 963.75 268.71875 C 963.75 268.71875 963.23639 285.99095 950.40625 259.34375 C 937.57612 232.69655 901.5492 160.17333 867.5 135.5 z "
                 transform="matrix(0.44862736,0,0,0.44862736,2994.8308,1915.0861)"
                 id="path4406" />
            </g>
          </g>
        </g>
      </g>
    </g>
    <g
       id="g4684">
      <path
         gds_color="blur"
         gds_switchable="blur"
         sodipodi:nodetypes="ccccccccccsccscccccscccsccccscccsscccccccccccccccccsccscccsccc"
         inkscape:connector-curvature="0"
         id="path4101-0"
         d="m 597.36742,185.99792 c -2.57468,-0.0163 -2.3233,2.02003 -1.40437,2.4284 15.57213,4.90032 24.60738,14.04691 25.15181,13.50244 0.54458,-0.54448 -7.18398,-10.45189 -23.19162,-15.8967 -0.19739,-0.0204 -0.38417,-0.0331 -0.55582,-0.0341 z m -25.15197,3.44267 c -1.35521,0.0108 -2.2047,0.3376 -1.887,0.42423 0.42349,0.1155 3.46395,0.92447 4.34949,0.77045 0.88553,-0.15399 -0.96059,-1.07765 -0.96059,-1.07765 -0.53897,-0.0866 -1.05016,-0.12065 -1.5019,-0.11703 z m -12.97092,1.0045 c -9.09221,0.0767 -18.36214,3.48794 -22.26021,9.85499 3.54198,-2.61805 9.24013,-7.08374 27.25852,-9.54777 -1.6364,-0.21657 -3.31447,-0.3214 -4.99831,-0.30722 z m 19.72953,0.37548 c 82.10763,21.12584 11.54206,109.11449 11.54206,109.11449 l 68.6046,0 c 0,0 13.50333,-31.79592 3.26703,-53.13959 0.52742,8.50959 -0.17398,15.03155 -1.36536,19.9684 -0.34547,0.73821 -0.81094,1.3518 -1.37503,1.21907 -1.30903,-0.30801 -1.60785,-4.36059 -2.60886,-8.13365 -0.21658,-0.95311 -0.68892,-1.48055 -0.39493,0.01 0.53912,1.46301 0.54349,8.54684 -0.76554,13.97544 -0.1562,0.93256 -2.14869,2.40351 -2.60402,-0.92163 -1.21228,-8.85279 -1.0152,-44.99067 -19.42229,-58.91042 13.15178,20.4771 11.04147,47.09 10.3719,51.73741 -0.6574,2.71746 -2.96385,2.50499 -3.39389,1.05816 -2.01684,-6.78629 1.87998,-25.09076 -8.71397,-39.05907 3.59363,8.60283 4.31891,43.20775 -1.52624,46.71483 -4.44483,2.66693 -4.52051,-2.73823 -3.98388,-8.07514 4.32015,-22.63648 6.10448,-68.39325 -47.63158,-75.55806 z m 60.54398,13.55608 c -0.65334,0.21779 2.01559,3.97665 2.88677,4.46668 0.87117,0.49003 -0.70874,-2.28543 -1.57992,-3.37439 -0.87118,-1.08897 -1.30685,-1.09229 -1.30685,-1.09229 z m -11.21062,2.06266 c -0.53631,-0.031 -0.37777,0.60781 0.19505,1.21421 0.65444,0.69301 1.19044,1.34534 1.61409,1.30684 0.4235,-0.0385 -0.34298,-1.27111 -0.84356,-1.88711 -0.50058,-0.61604 -0.69251,-0.57542 -0.69251,-0.57542 -0.10595,-0.0337 -0.19645,-0.0541 -0.27307,-0.0585 z m -9.31379,1.78961 c 2.38728,2.92604 3.77246,4.77281 5.85155,8.00686 0.84715,1.61702 3.85016,6.92995 5.15919,9.93301 -0.30803,-2.46405 -1.92711,-7.46963 -3.85219,-11.0887 0,0 -4.54033,-5.61915 -7.15855,-6.85117 z m 29.72585,9.00162 c -0.59904,0.21779 1.03799,3.15578 1.74579,3.42803 0.70796,0.27224 -0.21955,-2.06679 -0.8729,-2.7746 -0.6535,-0.70784 -0.87289,-0.65343 -0.87289,-0.65343 z m 4.94463,10.55717 c -0.0231,0.002 -0.0342,0.0151 -0.0342,0.039 0,0.38115 0.76569,1.96025 0.76569,1.96025 4.1379,7.02382 6.14896,13.39517 6.14896,13.39517 0,0 -0.87055,-5.00987 -2.34062,-9.14791 -1.37815,-3.87943 -4.19345,-6.27623 -4.53986,-6.24652 z m 1.89684,22.00181 c -0.25372,-0.012 -0.42272,0.50119 -0.30225,0.78994 0.42349,2.31005 0.61636,3.85112 0.77037,5.23715 0.068,0.61223 0.57595,0.84548 0.6145,-0.11703 0.0384,-0.96252 -0.11345,-3.69609 -0.57549,-5.15913 -0.1732,-0.54862 -0.35483,-0.74372 -0.50713,-0.75093 z"
         style="color:#000000;fill:#00ccff;fill-opacity:1;fill-rule:nonzero;stroke:#00ccff;stroke-width:1.32291669999999990;marker:none;visibility:visible;display:inline;overflow:visible;enable-background:accumulate;stroke-miterlimit:4;stroke-dasharray:none;filter:url(#filter4651)" />
      <g
         inkscape:export-ydpi="53.078571"
         inkscape:export-xdpi="53.078571"
         inkscape:export-filename="C:\Users\rober\Desktop\assets\ASSETS_2024\ESSENTIALS\sword_effects\slash_02\1.png"
         transform="matrix(0.58976194,0,0,0.58976194,-1587.1862,-956.77962)"
         id="g4316">
        <rect
           style="opacity:0.27876107999999999;color:#000000;fill:none;fill-opacity:1;fill-rule:nonzero;stroke:none;stroke-width:5;marker:none;visibility:visible;display:inline;overflow:visible;enable-background:accumulate"
           id="rect4282"
           width="247.42303"
           height="229.6972"
           x="3590.2192"
           y="1913.7432" />
        <g
           id="g4204"
           transform="translate(-344.91508,0)">
          <path
             sodipodi:nodetypes="ccccccccccsccscccccscccsccccscccsscccccccccccccccccsccscccsccc"
             inkscape:connector-curvature="0"
             id="path4101"
             transform="matrix(0.26458334,0,0,0.26458334,-6.3049604e-6,18.562493)"
             d="m 15303.469,7253.4062 c -16.5,-0.1047 -14.889,12.9455 -9,15.5626 99.795,31.404 157.698,90.0205 161.187,86.5312 3.49,-3.4893 -46.039,-66.9816 -148.625,-101.875 -1.265,-0.1309 -2.462,-0.2118 -3.562,-0.2188 z m -161.188,22.0626 c -8.685,0.069 -14.129,2.1635 -12.093,2.7187 2.714,0.7402 22.199,5.9245 27.874,4.9375 5.675,-0.9869 -6.156,-6.9062 -6.156,-6.9062 -3.454,-0.5552 -6.73,-0.7732 -9.625,-0.75 z m -83.125,6.4374 c -58.268,0.4912 -117.675,22.3527 -142.656,63.1563 22.699,-16.7779 59.216,-45.3966 174.688,-61.1875 -10.487,-1.3879 -21.241,-2.0597 -32.032,-1.9688 z m 126.438,2.4063 c 526.192,135.3863 73.968,699.2672 73.968,699.2672 l 439.657,0 c 0,0 86.537,-203.7662 20.937,-340.5485 3.38,54.5343 -1.115,96.3307 -8.75,127.9688 -2.214,4.7309 -5.197,8.6631 -8.812,7.8125 -8.389,-1.9739 -10.304,-27.9451 -16.719,-52.125 -1.388,-6.1081 -4.415,-9.4882 -2.531,0.062 3.455,9.3758 3.483,54.773 -4.906,89.5625 -1.001,5.9764 -13.77,15.4031 -16.688,-5.9063 -7.769,-56.7337 -6.506,-288.3256 -124.469,-377.5312 84.284,131.2288 70.76,301.7793 66.469,331.5625 -4.213,17.415 -18.994,16.0534 -21.75,6.7813 -12.925,-43.4904 12.048,-160.7958 -55.844,-250.3126 23.03,55.1318 27.678,276.8997 -9.781,299.375 -28.485,17.0912 -28.97,-17.5481 -25.531,-51.75 27.686,-145.0673 39.121,-438.3025 -305.25,-484.2187 z m 388,86.875 c -4.187,1.3957 12.917,25.4846 18.5,28.625 5.583,3.1404 -4.542,-14.6463 -10.125,-21.625 -5.583,-6.9787 -8.375,-7 -8.375,-7 z m -71.844,13.2187 c -3.437,-0.199 -2.421,3.8952 1.25,7.7813 4.194,4.4412 7.629,8.6217 10.344,8.375 2.714,-0.2467 -2.198,-8.146 -5.406,-12.0937 -3.208,-3.9479 -4.438,-3.6876 -4.438,-3.6876 -0.679,-0.2159 -1.259,-0.3465 -1.75,-0.375 z m -59.688,11.4688 c 15.299,18.7517 24.176,30.5869 37.5,51.3125 5.429,10.3628 24.674,44.411 33.063,63.6563 -1.974,-15.791 -12.35,-47.8696 -24.687,-71.0626 0,0 -29.097,-36.0107 -45.876,-43.9062 z m 190.5,57.6875 c -3.839,1.3957 6.652,20.224 11.188,21.9687 4.537,1.7447 -1.407,-13.2451 -5.594,-17.7812 -4.188,-4.5362 -5.594,-4.1875 -5.594,-4.1875 z m 31.688,67.6563 c -0.148,0.013 -0.219,0.097 -0.219,0.25 0,2.4426 4.907,12.5624 4.907,12.5624 26.518,45.0126 39.406,85.8438 39.406,85.8438 0,0 -5.579,-32.1061 -15,-58.625 -8.832,-24.8616 -26.874,-40.2216 -29.094,-40.0312 z m 12.156,141 c -1.626,-0.077 -2.709,3.2119 -1.937,5.0624 2.714,14.8041 3.95,24.6801 4.937,33.5626 0.436,3.9235 3.691,5.4183 3.938,-0.75 0.246,-6.1684 -0.727,-23.6866 -3.688,-33.0626 -1.11,-3.5159 -2.274,-4.7662 -3.25,-4.8124 z"
             style="color:#000000;fill:#00e4ff;fill-opacity:1;fill-rule:nonzero;stroke:none;stroke-width:5;marker:none;visibility:visible;display:inline;overflow:visible;enable-background:accumulate" />
          <path
             sodipodi:nodetypes="cccccccccsccccsc"
             inkscape:connector-curvature="0"
             id="path4154"
             transform="matrix(0.26458334,0,0,0.26458334,-6.3049604e-6,18.562493)"
             d="m 15396.344,7389 c 149.819,198.1476 -31.812,514.2813 -83.344,594.5797 l 351,0 c 74.582,-150.6294 64.531,-256.1109 64.531,-256.1109 -1.396,52.3401 -14.645,98.3855 -23.719,99.7812 -8.374,1.3957 -12.562,-48.1562 -12.562,-48.1562 1.395,22.3318 -2.105,53.0525 -5.594,60.0312 -6.281,21.6339 -41.094,20.081 -41.094,-17.4688 -0.354,-65.3212 -3.075,-180.8497 -46.843,-276.3437 28.856,109.477 27.823,211.7868 12.656,256.7187 -6.21,18.3974 -26.221,22.5705 -35,16.8438 -10.803,-8.1862 -7.025,-37.8684 -8.5,-88.4375 -1.44,-49.4072 -4.633,-100.9621 -19.406,-139.0625 0,0 26.687,109.8726 -12.125,237.6875 -15.908,53.4509 -88.147,25.4163 -76.625,-17.7813 28.97,-108.6134 51.015,-306.8221 -63.375,-422.2812 z"
             style="opacity:1;color:#000000;fill:#9dffff;fill-opacity:1;fill-rule:nonzero;stroke:none;stroke-width:5;marker:none;visibility:visible;display:inline;overflow:visible;enable-background:accumulate" />
          <path
             sodipodi:nodetypes="cccccccc"
             inkscape:connector-curvature="0"
             id="path4435"
             transform="matrix(0.44862736,0,0,0.44862736,3192.8653,1913.7432)"
             d="m 2004.4688,262.8125 c -3.5933,81.74752 -34.4447,160.86286 -70.0975,221.1875 l 171.4099,0 c 7.5775,-10.92821 22.4644,-40.7978 27.9688,-64.78125 0,0 -41.4398,20.24214 -34.5312,-37 -5.4282,31.58187 -37.5211,50.34667 -41.4688,1 -4.4413,75.5004 -77.6718,43.13786 -68.0952,7.39743 2.9608,-16.77787 18.2683,-57.73141 14.814,-127.80368 z"
             style="color:#000000;fill:#ffffff;fill-opacity:1;fill-rule:nonzero;stroke:none;stroke-width:5;marker:none;visibility:visible;display:inline;overflow:visible;enable-background:accumulate" />
        </g>
      </g>
    </g>
    <g
       id="g4716">
      <g
         id="g4529">
        <path
           style="color:#000000;fill:#00ccff;fill-opacity:1;fill-rule:nonzero;stroke:#00ccff;stroke-width:1.32291675000000010;stroke-linejoin:round;stroke-miterlimit:4;stroke-dasharray:none;marker:none;visibility:visible;display:inline;overflow:visible;enable-background:accumulate;filter:url(#filter4491)"
           d="m 100.06264,197.2687 c 3.78969,-3.75779 17.57025,-12.85098 39.12009,-12.16585 21.55008,0.68513 36.17959,14.15853 35.83146,15.02136 -0.55768,0.5309 -22.87032,-9.61831 -44.01158,-8.13671 -21.14125,1.48165 -30.21858,7.26586 -31.138603,7.08911 -0.919852,-0.17669 -0.5795,-1.17351 0.198633,-1.80791 z"
           id="path4064-5"
           inkscape:connector-curvature="0"
           sodipodi:nodetypes="cscscc"
           gds_switchable="blur"
           gds_color="blur" />
        <g
           id="g4396"
           transform="matrix(0.58976194,0,0,0.58976194,-1467.4619,-703.26965)"
           inkscape:export-filename="C:\Users\rober\Desktop\assets\ASSETS_2024\ESSENTIALS\sword_effects\slash_02\1.png"
           inkscape:export-xdpi="53.078571"
           inkscape:export-ydpi="53.078571">
          <g
             transform="translate(-945.27346,-429.85135)"
             id="g4338">
            <rect
               style="opacity:0.27876107999999999;color:#000000;fill:none;fill-opacity:1;fill-rule:nonzero;stroke:none;stroke-width:5;marker:none;visibility:visible;display:inline;overflow:visible;enable-background:accumulate"
               id="rect4286"
               width="247.42303"
               height="229.6972"
               x="3590.2192"
               y="1913.7432" />
            <g
               id="g4222"
               transform="translate(688.40178,-2.6112612)">
              <g
                 transform="translate(15.667569,0)"
                 id="g4141">
                <path
                   style="color:#000000;fill:#00e4ff;fill-opacity:1;fill-rule:nonzero;stroke:none;stroke-width:3;marker:none;visibility:visible;display:inline;overflow:visible;enable-background:accumulate"
                   d="m 2899.0978,1959.4149 c 6.4258,-6.3717 29.7921,-21.7901 66.332,-20.6284 36.5403,1.1617 61.3461,24.0072 60.7558,25.4702 -0.9456,0.9002 -38.7789,-16.3088 -74.626,-13.7966 -35.8471,2.5123 -51.2386,12.32 -52.7986,12.0203 -1.5597,-0.2996 -0.9826,-1.9898 0.3368,-3.0655 z"
                   id="path4064"
                   inkscape:connector-curvature="0"
                   sodipodi:nodetypes="cscscc" />
                <path
                   style="color:#000000;fill:#ffffff;fill-opacity:1;fill-rule:nonzero;stroke:none;stroke-width:5;marker:none;visibility:visible;display:inline;overflow:visible;enable-background:accumulate"
                   d="m 10994.899,7320.6059 c 0,0 93.514,-53.0379 202.381,-49.5485 108.868,3.4893 191.914,55.1315 191.914,55.1315 0,0 -87.234,-39.7785 -200.288,-42.5699 -113.055,-2.7915 -194.007,36.9869 -194.007,36.9869 z"
                   id="path4130"
                   inkscape:connector-curvature="0"
                   transform="matrix(0.26458334,0,0,0.26458334,-6.3049604e-6,18.562493)" />
              </g>
            </g>
          </g>
        </g>
      </g>
    </g>
    <g
       id="g4672">
      <path
         gds_color="blur"
         gds_switchable="blur"
         inkscape:connector-curvature="0"
         id="path4194-5"
         d="m 709.08764,189.887 c -2.30364,0.004 -5.12018,0.20756 -8.4409,0.78507 0,0 -1.54215,0.61419 1.30685,0.22919 2.849,-0.38503 14.7849,-0.078 14.7849,-0.078 0,0 -2.58279,-0.94536 -7.65085,-0.93624 z m 23.58656,2.87212 c -0.47374,0.002 -0.006,0.36849 3.15983,1.68231 7.23813,3.00306 13.93651,8.7822 13.93651,8.7822 0,0 -4.54267,-6.3948 -14.32178,-9.85985 0,0 -2.16538,-0.60617 -2.77456,-0.60466 z m 32.76381,9.9915 c -0.014,0 -0.0245,0.005 -0.0342,0.01 -0.30787,0.15402 0,0.77044 0,0.77044 0.61605,1.30903 1.61518,1.99906 2.07737,1.61406 0.44753,-0.37297 -1.63266,-2.40743 -2.0432,-2.39426 z m -14.60936,1.30198 c 0.002,0.003 0.008,0.005 0.0195,0.0147 0.38511,0.30799 2.77551,3.08202 2.85259,3.46703 7.77709,10.31815 9.00654,15.24814 9.00654,15.24814 0,0 0.30974,-4.39093 -3.54026,-10.08903 -3.72985,-5.52002 -8.40016,-8.72573 -8.33837,-8.64078 z m 12.28341,6.49035 c -0.11173,0.003 -0.24592,0.0452 -0.40477,0.14627 0,0.69303 0.38433,1.1565 0.69235,0.84849 0.25029,-0.25026 0.19599,-1.00821 -0.28758,-0.99476 z m 1.78948,1.90173 c -0.0125,0.003 -0.027,0.0123 -0.039,0.0195 -0.38496,0.23102 -0.22907,0.53641 -0.22907,0.53641 0.0769,0.92401 0.77162,1.77191 1.23366,1.5409 0.44753,-0.22379 -0.5527,-2.18467 -0.96558,-2.09682 z m 5.19336,8.43111 c 0.87102,1.52454 3.32258,3.27206 5.98793,11.4349 1.2502,3.82868 1.85298,7.07572 2.17973,10.66932 1.19793,-10.78075 -3.92084,-19.92629 -8.16766,-22.10422 z m -6.53438,4.35453 c 9.36512,34.19336 -18.729,71.8734 -32.23218,74.70472 l 69.25795,0 c 8.27611,-12.41417 6.96817,-28.53116 6.96817,-28.53116 0,0 -3.91741,14.15262 -6.09528,14.37042 -2.17802,0.21779 -3.05263,-1.74257 -3.05263,-3.26712 0,-1.52456 -3.91757,9.58501 -7.40213,7.40708 -3.48487,-2.17791 11.10514,-43.34184 -8.71396,-62.94311 15.02754,23.08595 5.38076,54.66377 1.73595,60.54398 -1.67135,2.69669 -5.00642,2.79091 -3.91569,-2.17483 2.17802,-9.91507 3.70395,-20.46951 -1.08745,-27.43885 0,6.31597 -2.17834,20.46946 -7.18757,26.78543 -5.00924,6.31597 -9.01793,3.09378 -8.27518,-0.43398 1.74236,-8.27611 14.15653,-42.2526 0,-59.02258 z m 41.27289,22.75763 c 2.8618,10.71044 1.84987,17.4246 2.3943,17.31569 0.54443,-0.10889 1.41405,-2.71971 0.7607,-8.05563 -0.65334,-5.33591 -1.63032,-6.53767 -3.155,-9.26006 z m -5.39793,7.93371 c -0.3344,-0.0249 -0.2634,1.10692 -0.2634,1.10692 0.10892,1.63344 -0.005,2.93713 0.64867,2.82825 0.65334,-0.1089 0.76226,-2.5 0,-3.58895 -0.16681,-0.23821 -0.29164,-0.33923 -0.38527,-0.34622 z m 0.0438,11.21059 c -0.0156,-0.007 -0.0125,0.0364 0.0141,0.13167 0.21783,0.76226 -0.21456,1.85299 -0.21456,1.85299 0.76226,4.02915 -1.30528,9.14468 -0.7607,9.68917 0.54443,0.54448 2.06755,-0.97882 2.06755,-5.33466 0,-3.81136 -1.00272,-6.29005 -1.10696,-6.33917 z"
         style="color:#000000;fill:#00ccff;fill-opacity:1;fill-rule:nonzero;stroke:#00ccff;stroke-width:1.32291669999999990;marker:none;visibility:visible;display:inline;overflow:visible;enable-background:accumulate;stroke-miterlimit:4;stroke-dasharray:none;filter:url(#filter4647)" />
      <g
         inkscape:export-ydpi="53.078571"
         inkscape:export-xdpi="53.078571"
         inkscape:export-filename="C:\Users\rober\Desktop\assets\ASSETS_2024\ESSENTIALS\sword_effects\slash_02\1.png"
         transform="matrix(0.58976194,0,0,0.58976194,-1591.542,-678.00577)"
         id="g4365">
        <g
           id="g4308"
           transform="translate(254.80879,-472.68877)">
          <rect
             style="opacity:0.27876107999999999;color:#000000;fill:none;fill-opacity:1;fill-rule:nonzero;stroke:none;stroke-width:5;marker:none;visibility:visible;display:inline;overflow:visible;enable-background:accumulate"
             id="rect4280"
             width="247.42303"
             height="229.6972"
             x="3590.2192"
             y="1913.7432" />
          <g
             transform="translate(-697.38671,-0.00373063)"
             id="g4227">
            <path
               inkscape:connector-curvature="0"
               style="color:#000000;fill:#00ccff;fill-opacity:1;fill-rule:nonzero;stroke:none;stroke-width:5;marker:none;visibility:visible;display:inline;overflow:visible;enable-background:accumulate"
               d="m 16416.469,7278.3438 c -14.763,0.026 -32.813,1.3302 -54.094,5.0312 0,0 -9.883,3.9361 8.375,1.4688 18.258,-2.4675 94.75,-0.5 94.75,-0.5 0,0 -16.552,-6.0584 -49.031,-6 z m 151.156,18.4062 c -3.036,0.01 -0.04,2.3615 20.25,10.7812 46.386,19.2453 89.313,56.2813 89.313,56.2813 0,0 -29.112,-40.9815 -91.782,-63.1875 0,0 -13.877,-3.8847 -17.781,-3.875 z m 209.969,64.0312 c -0.09,0 -0.157,0.032 -0.219,0.063 -1.973,0.987 0,4.9374 0,4.9374 3.948,8.389 10.351,12.8111 13.313,10.3438 2.868,-2.3902 -10.463,-15.4282 -13.094,-15.3438 z m -93.625,8.3438 c 0.01,0.018 0.05,0.032 0.125,0.094 2.468,1.9738 17.787,19.7513 18.281,22.2187 49.84,66.1245 57.719,97.7187 57.719,97.7187 0,0 1.985,-28.1396 -22.688,-64.6562 -23.903,-35.3754 -53.833,-55.9194 -53.437,-55.375 z m 78.719,41.5938 c -0.716,0.02 -1.576,0.2898 -2.594,0.9374 0,4.4413 2.463,7.4115 4.437,5.4376 1.604,-1.6038 1.256,-6.4612 -1.843,-6.375 z m 11.468,12.1874 c -0.08,0.018 -0.173,0.079 -0.25,0.125 -2.467,1.4805 -1.468,3.4376 -1.468,3.4376 0.493,5.9216 4.945,11.3554 7.906,9.875 2.868,-1.4342 -3.542,-14.0006 -6.188,-13.4376 z m 33.282,54.0313 c 5.582,9.7701 21.293,20.9692 38.374,73.2813 8.012,24.5363 11.875,45.3452 13.969,68.375 7.677,-69.0891 -25.127,-127.6989 -52.343,-141.6563 z m -41.876,27.9063 c 60.017,219.1303 -120.026,460.6053 -206.562,478.75 l 443.844,0 c 53.038,-79.557 44.656,-182.8438 44.656,-182.8438 0,0 -25.105,90.698 -39.062,92.0938 -13.958,1.3957 -19.563,-11.1674 -19.563,-20.9376 0,-9.7702 -25.106,61.4262 -47.437,47.4688 -22.333,-13.9573 71.168,-277.759 -55.844,-403.375 96.305,147.9478 34.483,350.3163 11.125,388 -10.711,17.2819 -32.084,17.8857 -25.094,-13.9375 13.958,-63.5414 23.737,-131.1802 -6.969,-175.8437 0,40.4763 -13.96,131.1799 -46.062,171.6562 -32.102,40.4763 -57.792,19.8267 -53.032,-2.7812 11.166,-53.038 90.723,-270.7785 0,-378.25 z m 264.5,145.8437 c 18.34,68.6386 11.855,111.6667 15.344,110.9687 3.489,-0.6978 9.062,-17.4294 4.875,-51.625 -4.187,-34.1955 -10.448,-41.8971 -20.219,-59.3437 z m -34.593,50.8437 c -2.143,-0.1597 -1.688,7.0938 -1.688,7.0938 0.698,10.468 -0.03,18.8228 4.157,18.125 4.187,-0.6979 4.885,-16.0214 0,-23 -1.069,-1.5266 -1.869,-2.174 -2.469,-2.2188 z m 0.281,71.8438 c -0.1,-0.045 -0.08,0.2331 0.09,0.8438 1.396,4.885 -1.375,11.875 -1.375,11.875 4.885,25.8211 -8.365,58.6043 -4.875,62.0937 3.489,3.4893 13.25,-6.2728 13.25,-34.1875 0,-24.4254 -6.426,-40.3102 -7.094,-40.625 z"
               transform="matrix(0.26458334,0,0,0.26458334,-6.3049604e-6,18.562493)"
               id="path4162" />
            <path
               inkscape:connector-curvature="0"
               style="color:#000000;fill:#7ee5ff;fill-opacity:1;fill-rule:nonzero;stroke:none;stroke-width:5;marker:none;visibility:visible;display:inline;overflow:visible;enable-background:accumulate"
               d="m 16788.719,7569.0938 c -1.669,97.5943 -24.472,291.7665 -147.094,414.5 l 335.531,0 c 13.834,-17.8965 30.954,-44.8221 47.438,-82.9063 0,0 -30.581,48.3603 -41.438,11.8437 0.987,16.7779 -20.747,51.3381 -51.344,41.4688 -24.673,-18.7517 -1.971,-59.2227 -6.906,-87.8438 -0.987,12.8303 -16.824,78.3771 -60.187,72.0313 -40.465,-5.9218 16.789,-94.7277 7.906,-175.6563 -10.271,64.43 -31.563,137.6583 -62.156,157.9376 -34.638,22.9605 -82.26,7.6726 -70.188,-30.3438 51.989,-163.725 53.45,-221.1223 48.438,-321.0312 z"
               transform="matrix(0.26458334,0,0,0.26458334,-6.3049604e-6,18.562493)"
               id="path4166" />
            <path
               inkscape:connector-curvature="0"
               id="path4194"
               transform="matrix(0.26458334,0,0,0.26458334,-6.3049604e-6,18.562493)"
               d="m 16416.469,7278.3438 c -14.763,0.026 -32.813,1.3302 -54.094,5.0312 0,0 -9.883,3.9361 8.375,1.4688 18.258,-2.4675 94.75,-0.5 94.75,-0.5 0,0 -16.552,-6.0584 -49.031,-6 z m 151.156,18.4062 c -3.036,0.01 -0.04,2.3615 20.25,10.7812 46.386,19.2453 89.313,56.2813 89.313,56.2813 0,0 -29.112,-40.9815 -91.782,-63.1875 0,0 -13.877,-3.8847 -17.781,-3.875 z m 209.969,64.0312 c -0.09,0 -0.157,0.032 -0.219,0.063 -1.973,0.987 0,4.9374 0,4.9374 3.948,8.389 10.351,12.8111 13.313,10.3438 2.868,-2.3902 -10.463,-15.4282 -13.094,-15.3438 z m -93.625,8.3438 c 0.01,0.018 0.05,0.032 0.125,0.094 2.468,1.9738 17.787,19.7513 18.281,22.2187 49.84,66.1245 57.719,97.7187 57.719,97.7187 0,0 1.985,-28.1396 -22.688,-64.6562 -23.903,-35.3754 -53.833,-55.9194 -53.437,-55.375 z m 78.719,41.5938 c -0.716,0.02 -1.576,0.2898 -2.594,0.9374 0,4.4413 2.463,7.4115 4.437,5.4376 1.604,-1.6038 1.256,-6.4612 -1.843,-6.375 z m 11.468,12.1874 c -0.08,0.018 -0.173,0.079 -0.25,0.125 -2.467,1.4805 -1.468,3.4376 -1.468,3.4376 0.493,5.9216 4.945,11.3554 7.906,9.875 2.868,-1.4342 -3.542,-14.0006 -6.188,-13.4376 z m 33.282,54.0313 c 5.582,9.7701 21.293,20.9692 38.374,73.2813 8.012,24.5363 11.875,45.3452 13.969,68.375 7.677,-69.0891 -25.127,-127.6989 -52.343,-141.6563 z m -41.876,27.9063 c 60.017,219.1303 -120.026,460.6053 -206.562,478.75 l 443.844,0 c 53.038,-79.557 44.656,-182.8438 44.656,-182.8438 0,0 -25.105,90.698 -39.062,92.0938 -13.958,1.3957 -19.563,-11.1674 -19.563,-20.9376 0,-9.7702 -25.106,61.4262 -47.437,47.4688 -22.333,-13.9573 71.168,-277.759 -55.844,-403.375 96.305,147.9478 34.483,350.3163 11.125,388 -10.711,17.2819 -32.084,17.8857 -25.094,-13.9375 13.958,-63.5414 23.737,-131.1802 -6.969,-175.8437 0,40.4763 -13.96,131.1799 -46.062,171.6562 -32.102,40.4763 -57.792,19.8267 -53.032,-2.7812 11.166,-53.038 90.723,-270.7785 0,-378.25 z m 264.5,145.8437 c 18.34,68.6386 11.855,111.6667 15.344,110.9687 3.489,-0.6978 9.062,-17.4294 4.875,-51.625 -4.187,-34.1955 -10.448,-41.8971 -20.219,-59.3437 z m -34.593,50.8437 c -2.143,-0.1597 -1.688,7.0938 -1.688,7.0938 0.698,10.468 -0.03,18.8228 4.157,18.125 4.187,-0.6979 4.885,-16.0214 0,-23 -1.069,-1.5266 -1.869,-2.174 -2.469,-2.2188 z m 0.281,71.8438 c -0.1,-0.045 -0.08,0.2331 0.09,0.8438 1.396,4.885 -1.375,11.875 -1.375,11.875 4.885,25.8211 -8.365,58.6043 -4.875,62.0937 3.489,3.4893 13.25,-6.2728 13.25,-34.1875 0,-24.4254 -6.426,-40.3102 -7.094,-40.625 z"
               style="color:#000000;fill:#00e4ff;fill-opacity:1;fill-rule:nonzero;stroke:none;stroke-width:5;marker:none;visibility:visible;display:inline;overflow:visible;enable-background:accumulate" />
            <path
               inkscape:connector-curvature="0"
               id="path4196"
               d="m 16788.719,7569.0938 c -1.669,97.5943 -24.472,291.7665 -147.094,414.5 l 335.531,0 c 13.834,-17.8965 30.954,-44.8221 47.438,-82.9063 0,0 -30.581,48.3603 -41.438,11.8437 0.987,16.7779 -20.747,51.3381 -51.344,41.4688 -24.673,-18.7517 -1.971,-59.2227 -6.906,-87.8438 -0.987,12.8303 -16.824,78.3771 -60.187,72.0313 -40.465,-5.9218 16.789,-94.7277 7.906,-175.6563 -10.271,64.43 -31.563,137.6583 -62.156,157.9376 -34.638,22.9605 -82.26,7.6726 -70.188,-30.3438 51.989,-163.725 53.45,-221.1223 48.438,-321.0312 z"
               style="color:#000000;fill:#9dffff;fill-opacity:1;fill-rule:nonzero;stroke:none;stroke-width:5;marker:none;visibility:visible;display:inline;overflow:visible;enable-background:accumulate;opacity:1"
               transform="matrix(0.26458334,0,0,0.26458334,-6.3049604e-6,18.562493)" />
            <path
               id="path4440"
               transform="matrix(0.44862736,0,0,0.44862736,3297.9138,1913.7469)"
               d="M 2509.2812 451.8125 C 2509.2812 451.8125 2501.466 469.61246 2484.9062 484 L 2652.125 484 C 2653.1022 483.16173 2653.9048 482.425 2654.3438 481.90625 C 2659.772 475.49119 2663.7188 466.09375 2663.7188 466.09375 C 2663.7188 466.09375 2656.8106 475.00142 2642.5 477.46875 C 2628.1895 479.93609 2616.8438 464.125 2616.8438 464.125 C 2616.8438 464.125 2606.9849 476.47387 2591.6875 474.5 C 2576.39 472.52614 2569.4688 458.71875 2569.4688 458.71875 C 2569.4688 458.71875 2555.6617 470.06108 2532.4688 467.59375 C 2509.2757 465.12642 2509.2812 451.8125 2509.2812 451.8125 z "
               style="color:#000000;fill:#ffffff;fill-opacity:1;fill-rule:nonzero;stroke:none;stroke-width:5;marker:none;visibility:visible;display:inline;overflow:visible;enable-background:accumulate;opacity:1" />
          </g>
        </g>
      </g>
    </g>
    <g
       id="g4655">
      <path
         gds_color="blur"
         gds_switchable="blur"
         inkscape:connector-curvature="0"
         style="color:#000000;fill:#00ccff;fill-opacity:1;fill-rule:nonzero;stroke:#00ccff;stroke-width:0.79375001999999983;marker:none;visibility:visible;display:inline;overflow:visible;enable-background:accumulate;stroke-miterlimit:4;stroke-dasharray:none;filter:url(#filter4635)"
         d="m 1059.9352,262.80214 c -0.3339,-0.0151 -0.7802,0.434 -0.7802,0.434 -0.6535,2.6135 -1.9636,5.44684 -1.419,5.77353 0.5444,0.32668 2.1795,-2.61385 2.5063,-4.90068 0.1429,-1.00047 -0.048,-1.29511 -0.3071,-1.30685 z m 24.7227,1.39951 c -0.2757,0.0613 -0.4583,1.10204 -0.4583,1.10204 -0.5447,1.52454 -0.8696,2.83472 -0.1074,2.39913 0.7623,-0.43559 1.3036,-2.07087 0.8679,-3.15983 -0.1089,-0.27225 -0.2103,-0.36177 -0.3022,-0.34134 z m -33.7976,17.70092 c -0.379,0.0384 -1.0728,1.1508 -1.0728,1.1508 -0.9801,4.02916 -4.5739,7.8443 -3.9205,7.62651 0.6533,-0.2178 4.1416,-2.50833 5.0128,-6.64637 0.3539,-1.68109 0.2399,-2.1572 -0.019,-2.13094 z m 19.8758,0.60466 c -0.039,0.005 -0.056,0.0441 -0.039,0.11214 0.1089,0.43561 -0.434,3.15984 -0.434,3.15984 -0.1089,4.46474 -4.2504,9.36244 -3.0526,8.70906 1.1981,-0.65339 3.1582,-2.93908 3.9207,-7.29492 0.6432,-3.67526 -0.1854,-4.71268 -0.3951,-4.68612 z m 10.6303,9.4795 c 0,0 -1.0883,5.77043 -14.4825,7.94835 l 24.7227,0 c 0.9287,-0.53625 2.0675,-3.26712 2.0675,-3.26712 0,0 -1.0893,1.74412 -5.2274,2.1797 0.3268,-0.87116 1.0875,-1.85469 0.4341,-3.05254 0,0 -2.0678,2.39749 -5.3347,2.50639 1.5245,-3.37578 -2.1797,-6.31478 -2.1797,-6.31478 z m -37.4596,1.63355 c 0,0 -6.8614,5.98811 -13.0684,6.3148 l 18.1884,0 c 0,0 -10.0203,-1.19667 -5.12,-6.3148 z m 23.4159,1.84812 c -4.3559,3.0128 -8.151,3.12905 -16.0088,4.46668 l 0.434,0 11.7616,0 c 2.5046,-0.65338 3.8132,-4.46668 3.8132,-4.46668 z"
         id="path4237-1" />
      <g
         inkscape:export-ydpi="53.078571"
         inkscape:export-xdpi="53.078571"
         inkscape:export-filename="C:\Users\rober\Desktop\assets\ASSETS_2024\ESSENTIALS\sword_effects\slash_02\1.png"
         transform="matrix(0.58976194,0,0,0.58976194,-1001.7611,-690.20213)"
         id="g4354">
        <g
           id="g4294"
           transform="translate(-250.37734,-452.00863)">
          <rect
             style="opacity:0.27876107999999999;color:#000000;fill:none;fill-opacity:1;fill-rule:nonzero;stroke:none;stroke-width:5;marker:none;visibility:visible;display:inline;overflow:visible;enable-background:accumulate"
             id="rect4292"
             width="247.42303"
             height="229.6972"
             x="3590.2192"
             y="1913.7432" />
          <g
             style="fill:#ff00ff"
             transform="translate(-1386.5797,1.4763205)"
             id="g4252">
            <path
               inkscape:connector-curvature="0"
               style="color:#000000;fill:#00e4ff;fill-opacity:1;fill-rule:nonzero;stroke:none;stroke-width:5;marker:none;visibility:visible;display:inline;overflow:visible;enable-background:accumulate"
               d="m 19399.438,7740.0312 c -2.14,-0.097 -5,2.7813 -5,2.7813 -4.188,16.7488 -12.584,34.9064 -9.094,37 3.489,2.0936 13.968,-16.751 16.062,-31.4063 0.916,-6.4116 -0.305,-8.2998 -1.968,-8.375 z m 158.437,8.9688 c -1.767,0.3926 -2.937,7.0625 -2.937,7.0625 -3.491,9.7701 -5.573,18.1665 -0.688,15.375 4.885,-2.7915 8.354,-13.2713 5.562,-20.25 -0.698,-1.7447 -1.348,-2.3184 -1.937,-2.1875 z m -216.594,113.4375 c -2.429,0.246 -6.875,7.375 -6.875,7.375 -6.281,25.8211 -29.312,50.2707 -25.125,48.875 4.187,-1.3958 26.542,-16.0748 32.125,-42.5937 2.268,-10.7734 1.537,-13.8246 -0.125,-13.6563 z m 127.375,3.875 c -0.249,0.032 -0.359,0.2826 -0.25,0.7187 0.698,2.7916 -2.781,20.25 -2.781,20.25 -0.698,28.6126 -27.239,59.9998 -19.563,55.8126 7.678,-4.1873 20.24,-18.8353 25.126,-46.75 4.122,-23.5531 -1.188,-30.2015 -2.532,-30.0313 z m 68.125,60.75 c 0,0 -6.974,36.9802 -92.812,50.9375 l 158.437,0 c 5.952,-3.4366 13.25,-20.9375 13.25,-20.9375 0,0 -6.981,11.1773 -33.5,13.9687 2.094,-5.5829 6.969,-11.8859 2.782,-19.5624 0,0 -13.252,15.3645 -34.188,16.0624 9.77,-21.6339 -13.969,-40.4687 -13.969,-40.4687 z m -240.062,10.4687 c 0,0 -43.972,38.3752 -83.75,40.4688 l 116.562,0 c 0,0 -64.216,-7.6689 -32.812,-40.4688 z m 150.062,11.8438 c -27.915,19.3077 -52.236,20.0527 -102.593,28.625 l 2.781,0 75.375,0 c 16.051,-4.1872 24.437,-28.625 24.437,-28.625 z"
               transform="matrix(0.26458334,0,0,0.26458334,-6.3049604e-6,18.562493)"
               id="path4237" />
          </g>
        </g>
      </g>
    </g>
    <g
       id="g4663">
      <path
         gds_switchable="blur"
         gds_color="blur"
         inkscape:connector-curvature="0"
         id="path4235-6"
         d="m 930.49228,230.67715 c -0.37763,0.0865 0.0584,1.90664 0.0584,1.90664 2.00201,4.77407 2.31128,8.16207 2.31128,6.62203 0,-1.54005 0.76846,-4.00236 -1.23367,-7.23644 -0.62555,-1.01062 -0.96449,-1.33151 -1.13617,-1.29223 z m -19.88554,2.23827 c -0.39278,-0.0177 -0.0732,2.28697 -0.0732,2.28697 1.69415,3.85003 1.53727,7.39485 1.99935,6.47081 0.46202,-0.92398 0.4625,-3.85038 -1.07761,-7.39243 -0.43318,-0.99622 -0.69486,-1.35857 -0.84855,-1.36535 z m 12.04447,9.38193 c -0.0566,-0.0165 -0.0593,0.1104 0.009,0.3755 0.36825,1.41384 0.93141,4.53497 0.93141,4.53497 1.14408,8.25714 0.29948,16.2299 0.65835,15.4822 0.35887,-0.74764 1.60286,-5.45176 0.66319,-12.15175 -0.76368,-5.44374 -2.01764,-8.16862 -2.26262,-8.24092 z m 30.01841,12.48821 c -0.29706,0 -0.46591,0.50743 -0.37054,0.93625 0.2178,0.98006 0.86789,2.39909 0.86789,2.39909 1.19792,5.00926 0.54612,8.81953 0.87285,8.27507 0.32679,-0.54447 0.90693,-3.1606 0.10722,-7.81665 -0.50555,-2.94397 -1.09543,-3.79182 -1.47742,-3.79376 z m -16.86707,2.14066 c -0.0307,-0.0189 -0.0389,0.0809 -0.0147,0.29747 0.15399,1.386 0.30727,4.46668 0.30727,4.46668 1.53992,8.16213 -1.69463,20.0216 -0.77041,19.25154 0.92392,-0.76999 3.2352,-4.15864 2.31128,-12.93678 -0.77973,-7.40652 -1.66714,-10.97688 -1.83345,-11.07891 z m 10.68395,10.6498 c -0.1991,-0.0153 -0.5023,0.78025 -0.5023,0.78025 -0.10887,0.98007 -0.21951,1.30521 0.1074,1.41408 0.32655,0.10893 0.65505,-0.87291 0.54612,-1.85297 -0.0271,-0.24499 -0.0849,-0.33623 -0.15122,-0.34136 z m -39.61991,4.43253 c -0.20087,0.0383 -0.71951,1.29164 -2.03338,4.92994 -2.00201,5.54412 -12.3193,18.78852 -22.0213,22.48462 0,0 -0.97282,0.51197 -0.15605,0.51197 l 61.90932,0 c 5.85203,-9.85616 8.62532,-20.68903 8.93336,-23.92305 -2.44268,7.21674 -5.65134,14.32314 -9.74759,18.28605 -0.66395,0.51492 -1.83316,1.28338 -2.57466,0.96549 -1.07838,-0.46196 1.38765,-5.39113 1.23366,-7.08522 -0.135,-1.48437 -2.63364,5.90181 -8.43124,7.85569 -1.24829,-1.36813 -1.7316,-3.75702 -0.43878,-7.30467 -2.36259,1.76244 -3.78226,5.57726 -7.41195,7.59241 -2.05851,1.14285 -9.66302,2.95053 -6.38801,-2.23826 2.72305,-5.86583 4.57573,-10.66991 3.87668,-17.67163 -1.23195,3.38801 -5.89119,16.91886 -14.83357,19.31494 -1.79836,0.4819 -3.87267,0.82437 -5.637,0.59979 -3.75655,-1.00655 -2.62338,-4.76073 -0.006,-10.76681 2.61807,-6.00608 3.84737,-11.39473 3.84737,-12.78073 0,-0.47647 -0.0165,-0.79052 -0.12202,-0.77053 z m 38.89327,3.48172 c -0.34643,0.0218 -1.03863,1.75549 -1.03863,1.75549 -0.15399,1.84802 -0.76929,4.31015 -0.30709,3.54016 0.46202,-0.77005 1.54075,-2.61583 1.54075,-4.61784 0,-0.50053 -0.0794,-0.68506 -0.19503,-0.67781 z"
         style="color:#000000;fill:#00ccff;fill-opacity:1;fill-rule:nonzero;stroke:#00ccff;stroke-width:1.05833336000000000;marker:none;visibility:visible;display:inline;overflow:visible;enable-background:accumulate;stroke-miterlimit:4;stroke-dasharray:none;filter:url(#filter4639)" />
      <g
         inkscape:export-ydpi="53.078571"
         inkscape:export-xdpi="53.078571"
         inkscape:export-filename="C:\Users\rober\Desktop\assets\ASSETS_2024\ESSENTIALS\sword_effects\slash_02\1.png"
         transform="matrix(0.58976194,0,0,0.58976194,-1301.443,-682.36161)"
         id="g4360">
        <g
           id="g4303"
           transform="translate(10.340063,-465.30301)">
          <rect
             y="1913.7432"
             x="3590.2192"
             height="229.6972"
             width="247.42303"
             id="rect4278"
             style="opacity:0.27876107999999999;color:#000000;fill:none;fill-opacity:1;fill-rule:nonzero;stroke:none;stroke-width:5;marker:none;visibility:visible;display:inline;overflow:visible;enable-background:accumulate" />
          <path
             inkscape:connector-curvature="0"
             id="path4235"
             d="m 3774.1281,2013.451 c -0.6403,0.1466 0.099,3.2329 0.099,3.2329 3.3946,8.0949 3.919,13.8396 3.919,11.2283 0,-2.6113 1.303,-6.7864 -2.0918,-12.2701 -1.0607,-1.7136 -1.6354,-2.2577 -1.9265,-2.1911 z m -33.7179,3.7952 c -0.666,-0.03 -0.1241,3.8778 -0.1241,3.8778 2.8726,6.5281 2.6066,12.5387 3.3901,10.9719 0.7834,-1.5667 0.7842,-6.5287 -1.8272,-12.5346 -0.7345,-1.6892 -1.1782,-2.3036 -1.4388,-2.3151 z m 20.4226,15.908 c -0.096,-0.028 -0.1005,0.1872 0.016,0.6367 0.6244,2.3973 1.5793,7.6895 1.5793,7.6895 1.9399,14.0008 0.5078,27.5194 1.1163,26.2516 0.6085,-1.2677 2.7178,-9.244 1.1245,-20.6045 -1.2949,-9.2304 -3.4211,-13.8507 -3.8365,-13.9733 z m 50.8992,21.175 c -0.5037,0 -0.79,0.8604 -0.6283,1.5875 0.3693,1.6618 1.4716,4.0679 1.4716,4.0679 2.0312,8.4937 0.926,14.9544 1.48,14.0312 0.5541,-0.9232 1.5378,-5.3591 0.1818,-13.2539 -0.8572,-4.9918 -1.8574,-6.4294 -2.5051,-6.4327 z m -28.5998,3.6297 c -0.052,-0.032 -0.066,0.1372 -0.025,0.5044 0.2611,2.3501 0.521,7.5737 0.521,7.5737 2.6111,13.8397 -2.8734,33.9486 -1.3063,32.6429 1.5666,-1.3056 5.4856,-7.0514 3.919,-21.9356 -1.3221,-12.5585 -2.8268,-18.6124 -3.1088,-18.7854 z m 18.1157,18.0578 c -0.3376,-0.026 -0.8517,1.323 -0.8517,1.323 -0.1846,1.6618 -0.3722,2.2131 0.1821,2.3977 0.5537,0.1847 1.1107,-1.4801 0.926,-3.1419 -0.046,-0.4154 -0.1439,-0.5701 -0.2564,-0.5788 z m -67.1795,7.5158 c -0.3406,0.065 -1.22,2.1901 -3.4478,8.3592 -3.3946,9.4006 -20.8886,31.8578 -37.3393,38.1249 0,0 -1.6495,0.8681 -0.2646,0.8681 l 104.9734,0 c 9.9227,-16.7121 14.6251,-35.0803 15.1474,-40.5639 -4.1418,12.2367 -9.5824,24.2863 -16.528,31.0058 -1.1258,0.8731 -3.1083,2.1761 -4.3656,1.6371 -1.8285,-0.7833 2.3529,-9.1412 2.0918,-12.0137 -0.2289,-2.5169 -4.4656,10.0071 -14.296,13.3201 -2.1166,-2.3198 -2.9361,-6.3704 -0.744,-12.3858 -4.006,2.9884 -6.4132,9.4568 -12.5677,12.8737 -3.4904,1.9378 -16.3846,5.0029 -10.8315,-3.7952 4.6172,-9.9461 7.7586,-18.0919 6.5733,-29.964 -2.0889,5.7447 -9.9891,28.6876 -25.1518,32.7504 -3.0493,0.8171 -6.5665,1.3978 -9.5581,1.017 -6.3696,-1.7067 -4.4482,-8.0723 -0.01,-18.2562 4.4392,-10.1839 6.5236,-19.3209 6.5236,-21.671 0,-0.8079 -0.028,-1.3404 -0.2069,-1.3065 z m 65.9474,5.9036 c -0.5874,0.037 -1.7611,2.9766 -1.7611,2.9766 -0.2611,3.1335 -1.3044,7.3083 -0.5207,6.0027 0.7834,-1.3057 2.6125,-4.4354 2.6125,-7.83 0,-0.8487 -0.1347,-1.1616 -0.3307,-1.1493 z"
             style="color:#000000;fill:#00e4ff;fill-opacity:1;fill-rule:nonzero;stroke:none;stroke-width:5;marker:none;visibility:visible;display:inline;overflow:visible;enable-background:accumulate" />
          <path
             id="path4445"
             transform="matrix(0.44862736,0,0,0.44862736,2353.1041,1913.7432)"
             d="M 3036.4062 465.25 C 3036.4062 465.25 3027.1089 475.04044 3010.75 484 L 3209.5312 484 C 3212.9462 477.77968 3215.0625 472.21875 3215.0625 472.21875 C 3215.0625 472.21875 3210.8746 476.4064 3204.5938 478.5 C 3198.3129 480.5936 3192.75 472.21875 3192.75 472.21875 C 3192.75 472.21875 3186.4581 477.80213 3182.9688 478.5 C 3179.4793 479.19787 3167.625 475 3167.625 475 C 3167.625 475 3162.7383 480.5939 3144.5938 482.6875 C 3126.4491 484.78111 3112.4793 475.01022 3113.875 472.21875 C 3115.2708 469.42728 3109.685 477.09405 3074.0938 481.28125 C 3038.5025 485.46845 3036.4062 465.25 3036.4062 465.25 z "
             style="color:#000000;fill:#9dffff;fill-opacity:1;fill-rule:nonzero;stroke:none;stroke-width:5;marker:none;visibility:visible;display:inline;overflow:visible;enable-background:accumulate" />
        </g>
      </g>
      <path
         transform="matrix(0.26458334,0,0,0.26458334,92.426418,171.87326)"
         inkscape:connector-curvature="0"
         id="path4448"
         d="m 3132.0283,428.9538 c -6.9787,14.65521 -15.3531,27.91469 -15.3531,27.91469 0,0 9.0723,-6.97868 13.2595,-15.35308 4.1872,-8.37441 2.0936,-12.56161 2.0936,-12.56161 z"
         style="color:#000000;fill:#9dffff;fill-opacity:1;fill-rule:nonzero;stroke:none;stroke-width:2;marker:none;visibility:visible;display:inline;overflow:visible;enable-background:accumulate" />
    </g>
  </g>
</svg>
