<?xml version="1.0" encoding="UTF-8" standalone="no"?>
<!-- Created with Inkscape (http://www.inkscape.org/) -->

<svg
   xmlns:dc="http://purl.org/dc/elements/1.1/"
   xmlns:cc="http://creativecommons.org/ns#"
   xmlns:rdf="http://www.w3.org/1999/02/22-rdf-syntax-ns#"
   xmlns:svg="http://www.w3.org/2000/svg"
   xmlns="http://www.w3.org/2000/svg"
   xmlns:sodipodi="http://sodipodi.sourceforge.net/DTD/sodipodi-0.dtd"
   xmlns:inkscape="http://www.inkscape.org/namespaces/inkscape"
   width="494.54544"
   height="512"
   viewBox="0 0 130.84848 135.46667"
   version="1.1"
   id="svg23489"
   inkscape:version="0.48.5 r10040"
   sodipodi:docname="strike_01.svg">
  <defs
     id="defs23483">
    <filter
       inkscape:collect="always"
       id="filter4404"
       color-interpolation-filters="sRGB">
      <feGaussianBlur
         inkscape:collect="always"
         stdDeviation="0.45411664"
         id="feGaussianBlur4406" />
    </filter>
    <filter
       inkscape:collect="always"
       id="filter4410"
       color-interpolation-filters="sRGB">
      <feGaussianBlur
         inkscape:collect="always"
         stdDeviation="3.2687384"
         id="feGaussianBlur4412" />
    </filter>
    <filter
       inkscape:collect="always"
       id="filter4416"
       color-interpolation-filters="sRGB">
      <feGaussianBlur
         inkscape:collect="always"
         stdDeviation="4.2089162"
         id="feGaussianBlur4418" />
    </filter>
    <filter
       inkscape:collect="always"
       id="filter4442"
       color-interpolation-filters="sRGB">
      <feGaussianBlur
         inkscape:collect="always"
         stdDeviation="1.6753654"
         id="feGaussianBlur4444" />
    </filter>
    <filter
       inkscape:collect="always"
       id="filter4464"
       color-interpolation-filters="sRGB">
      <feGaussianBlur
         inkscape:collect="always"
         stdDeviation="1.7634851"
         id="feGaussianBlur4466" />
    </filter>
  </defs>
  <sodipodi:namedview
     id="base"
     pagecolor="#2b2e30"
     bordercolor="#666666"
     borderopacity="1.0"
     inkscape:pageopacity="0"
     inkscape:pageshadow="2"
     inkscape:zoom="0.34863486"
     inkscape:cx="330.09745"
     inkscape:cy="-86.314132"
     inkscape:document-units="px"
     inkscape:current-layer="layer1"
     showgrid="false"
     inkscape:pagecheckerboard="false"
     showborder="true"
     units="px"
     inkscape:window-width="1920"
     inkscape:window-height="1017"
     inkscape:window-x="-8"
     inkscape:window-y="-8"
     inkscape:window-maximized="1"
     inkscape:showpageshadow="false"
     guidetolerance="28"
     showguides="true"
     inkscape:guide-bbox="true">
    <inkscape:grid
       type="xygrid"
       id="grid24034"
       spacingx="1px"
       spacingy="1px"
       empspacing="8"
       visible="true"
       enabled="true"
       snapvisiblegridlinesonly="true"
       originx="5355.8752px"
       originy="4587.2207px" />
  </sodipodi:namedview>
  <metadata
     id="metadata23486">
    <rdf:RDF>
      <cc:Work
         rdf:about="">
        <dc:format>image/svg+xml</dc:format>
        <dc:type
           rdf:resource="http://purl.org/dc/dcmitype/StillImage" />
        <dc:title></dc:title>
        <cc:license
           rdf:resource="" />
        <dc:creator>
          <cc:Agent>
            <dc:title>Robert Brooks</dc:title>
          </cc:Agent>
        </dc:creator>
      </cc:Work>
    </rdf:RDF>
  </metadata>
  <g
     inkscape:label="Layer 1"
     inkscape:groupmode="layer"
     id="layer1"
     transform="translate(1417.0753,-1375.2355)">
    <g
       id="g4496">
      <g
         transform="matrix(0.36653193,0,0,0.36653193,-799.60292,914.49596)"
         inkscape:export-ydpi="90"
         inkscape:export-xdpi="90"
         inkscape:export-filename="C:\Users\rober\Desktop\assets\ASSETS_2024\ESSENTIALS\sword_effects\1.png"
         id="g4316">
        <g
           id="g4244"
           transform="translate(-379.1544,0)">
          <path
             style="color:#000000;fill:#00ffff;fill-opacity:1;fill-rule:nonzero;stroke:#00ccff;stroke-width:2.16556859;stroke-linejoin:round;stroke-miterlimit:4;stroke-dasharray:none;marker:none;visibility:visible;display:inline;overflow:visible;filter:url(#filter4410);enable-background:accumulate"
             d="m -1119.6244,1314.9506 c -0.7926,0.285 -1.1906,10.9885 -1.1906,10.9885 -0.8049,6.7079 -0.5358,14.7561 0.5374,18.5125 1.0734,3.7566 3.7538,1.8804 3.7538,-1.3394 0,-3.2199 -1.6056,-23.0747 -2.6789,-27.3679 -0.151,-0.6037 -0.292,-0.8403 -0.4217,-0.7937 z m -31.9153,10.9968 c -0.5397,0.1024 1.4552,7.185 1.4552,7.185 0.8574,4.399 2.6669,9.4307 4.1093,11.5838 1.4425,2.1534 2.7556,0.4205 2.1001,-1.6123 -0.6556,-2.0328 -5.7161,-14.2429 -7.2678,-16.7349 -0.1939,-0.3115 -0.3197,-0.4364 -0.3968,-0.4216 z m -26.1194,22.1919 c -1.0098,0.084 -0.9115,1.5142 -0.1736,2.621 0.9284,1.3926 21.52,36.9907 29.2365,47.625 -1.4432,2.4138 -1.9255,5.6877 -2.4061,6.1681 -0.5366,0.5366 -33.6713,-5.3688 -35.818,-5.7712 -2.1465,-0.4025 0.4052,1.3477 0.4052,1.3477 1.4757,1.0733 26.9653,10.9962 31.5268,13.411 4.0207,2.1288 2.7253,8.011 3.4643,14.3372 -0.04,0.052 -0.074,0.1053 -0.1157,0.1571 -1.8514,2.3142 -54.2303,1.2042 -54.9011,2.0091 1.4758,1.4759 50.9981,10.2593 54.4132,13.1052 3.4153,2.8459 -37.5717,37.3771 -37.9511,39.4643 -0.3796,2.087 36.4349,-19.7307 45.7315,-20.8691 9.2967,-1.1385 -1.7069,11.1897 -6.8295,15.9329 -5.1227,4.7432 -7.784,9.2932 -12.9067,16.3132 -5.1228,7.02 -13.473,15.9416 -11.5755,16.1313 1.8973,0.1898 15.751,-12.1448 19.3559,-15.1804 3.6048,-3.0357 22.0092,-22.1998 25.2346,-22.01 3.2254,0.1897 -0.3088,57.1921 0.4961,57.7287 0.7284,0.4856 14.2021,-39.0071 17.7519,-47.1206 7.3586,3.6998 20.6613,8.5858 35.8428,4.9113 10.4741,10.0176 20.5141,26.2667 22.9361,29.0711 3.6048,4.1741 -13.2758,-28.6487 -15.5526,-35.479 -2.2768,-6.8302 21.245,5.31 22.9526,6.0689 1.7076,0.759 -17.2627,-16.8815 -16.6935,-19.5378 0.5691,-2.6562 18.2137,3.6041 21.2493,3.2246 3.0357,-0.3795 -18.9739,-11.1944 -21.8198,-14.4198 -2.8461,-3.2255 5.1263,-4.3656 5.1263,-4.3656 0,0 -7.9706,-1.5149 -7.9706,-2.2738 0,-0.7589 3.9826,-1.5226 2.8443,-2.0918 -0.972,-0.486 -3.5979,-1.3831 -4.4649,-2.1084 -1.5226,-4.6851 -3.0955,-8.5127 -4.6219,-11.6086 3.6242,-0.4306 14.3949,-2.7864 14.3949,-2.7864 0,0 -13.4345,-3.1738 -18.1322,-3.605 -2.7624,-3.8901 -4.9757,-5.215 -5.8125,-4.9361 -1.61,0.5366 8.584,14.4904 9.6572,31.3945 0.4675,7.3607 -1.819,13.0386 -6.6476,15.7344 -6.4566,-8.7202 -16.5094,-22.2567 -18.3307,-24.3582 -1.9251,-2.2213 5.6276,11.8522 12.915,25.9871 -5.5075,0.5548 -12.8291,-1.3807 -21.8447,-6.6229 -2.7751,-2.9889 -5.2668,-6.8221 -5.2668,-11.005 0,-6.4397 3.4913,-33.5418 2.1497,-31.9319 -1.0371,1.2445 -7.3607,16.7386 -12.7827,29.4183 -8.6412,-10.6881 -14.4998,-24.7463 -16.1974,-36.7026 0.1729,-1.1462 0.2931,-2.7762 0.3555,-4.7874 4.0842,3.897 8.9636,8.9461 7.4662,4.9031 -0.8692,-2.3468 -2.3295,-5.8049 -3.7538,-8.9545 9.0892,9.0499 18.6461,18.5968 17.4129,16.3546 -1.4505,-2.6374 -10.319,-17.2657 -16.1065,-26.3343 3.0687,-2.5528 7.6672,-4.0335 14.0973,-3.0593 0.8537,7.9157 1.8289,13.391 2.3896,12.1295 0.4178,-0.9401 0.9435,-6.187 1.3064,-11.3523 0.9224,0.2488 1.8742,0.5415 2.8608,0.8848 18.5138,6.4395 26.023,21.1976 25.2181,18.3802 -0.5872,-2.0552 -2.6058,-6.4726 -5.424,-10.8975 -0.2014,-2.8053 -0.1782,-8.1623 -0.8186,-8.9628 -0.5678,-0.7098 -0.8103,3.1494 -3.1253,3.5471 -4.2769,-5.0531 -7.1634,-5.6448 -7.9375,-7.8383 -0.8051,-2.2807 2.0148,-14.3542 1.6123,-16.0982 -0.4025,-1.7441 -4.2934,9.7921 -7.1107,10.1947 -2.8173,0.4025 -5.3695,-8.053 -6.3087,-13.4193 -0.9392,-5.3664 -1.0727,-13.9508 -2.4143,-12.6091 -0.796,0.796 0.2494,8.5361 -0.7855,15.288 -8e-4,0.01 8e-4,0.011 0,0.017 -0.336,1.5808 -0.8668,3.6519 -1.5792,5.5315 -0.9043,1.8876 -2.1943,3.3711 -4.0349,4.1341 -3.4683,-3.4256 -12.782,-28.0891 -14.2627,-30.0633 -1.6099,-2.1466 -0.9343,0.802 -0.9343,0.802 1.4757,4.8297 6.1719,23.7448 5.9035,26.8304 -0.1907,2.1938 -1.8099,2.8248 -3.5471,2.6707 -10.2446,-7.0797 -37.2401,-33.7923 -37.2401,-33.7923 -0.9642,-0.6708 -1.6492,-0.9149 -2.1084,-0.8764 z m -48.8321,38.5547 c -1.7816,-0.016 12.1129,4.8535 12.1129,4.8535 3.9657,2.0881 10.1098,4.6037 12.6918,4.8286 2.5819,0.225 2.0529,-1.883 0.058,-2.6458 -1.995,-0.7628 -21.725,-6.6676 -24.6393,-7.0197 -0.091,-0.011 -0.1658,-0.016 -0.2232,-0.017 z m 124.2797,94.5638 c 5.1779,0.5902 10.9662,0.7207 15.4534,0.1653 2.0892,0.849 4.2555,2.2377 6.4409,3.9936 -1.9327,-0.042 -4.4079,-0.1926 -7.582,-0.5292 -5.2741,-0.5594 -10.1436,-1.8588 -14.3123,-3.6297 z m -90.3469,3.0923 c -0.4822,0.031 -1.0502,0.2325 -1.5875,0.6283 -1.7197,1.267 -17.3448,14.6875 -19.2154,16.9499 -1.8708,2.2624 10.4924,-7.3918 10.4924,-7.3918 3.8994,-2.2093 9.3301,-6.0268 10.9141,-8.078 1.089,-1.4103 0.4571,-2.1774 -0.6036,-2.1084 z m 98.0364,32.5024 c -1.0458,0.01 -1.1576,7.8796 -1.1576,7.8796 0.9487,10.0556 4.1703,34.1514 5.4984,39.2741 1.3281,5.1227 0.9513,-1.706 1.141,-6.4492 0.1898,-4.7432 -2.2786,-31.312 -4.3656,-38.5217 -0.4565,-1.5771 -0.8234,-2.1849 -1.1162,-2.1828 z"
             id="path4408"
             inkscape:connector-curvature="0"
             gds_switchable="blur"
             gds_color="blur" />
          <rect
             style="opacity:0;color:#000000;fill:#916f6f;fill-opacity:1;fill-rule:nonzero;stroke:none;stroke-width:4;marker:none;visibility:visible;display:inline;overflow:visible;enable-background:accumulate"
             id="rect4228"
             width="356.99069"
             height="369.59036"
             x="-1305.4803"
             y="1257.0243"
             rx="0"
             ry="0" />
          <path
             inkscape:connector-curvature="0"
             id="path3993"
             d="m -1119.6244,1314.9506 c -0.7926,0.285 -1.1906,10.9885 -1.1906,10.9885 -0.8049,6.7079 -0.5358,14.7561 0.5374,18.5125 1.0734,3.7566 3.7538,1.8804 3.7538,-1.3394 0,-3.2199 -1.6056,-23.0747 -2.6789,-27.3679 -0.151,-0.6037 -0.292,-0.8403 -0.4217,-0.7937 z m -31.9153,10.9968 c -0.5397,0.1024 1.4552,7.185 1.4552,7.185 0.8574,4.399 2.6669,9.4307 4.1093,11.5838 1.4425,2.1534 2.7556,0.4205 2.1001,-1.6123 -0.6556,-2.0328 -5.7161,-14.2429 -7.2678,-16.7349 -0.1939,-0.3115 -0.3197,-0.4364 -0.3968,-0.4216 z m -26.1194,22.1919 c -1.0098,0.084 -0.9115,1.5142 -0.1736,2.621 0.9284,1.3926 21.52,36.9907 29.2365,47.625 -1.4432,2.4138 -1.9255,5.6877 -2.4061,6.1681 -0.5366,0.5366 -33.6713,-5.3688 -35.818,-5.7712 -2.1465,-0.4025 0.4052,1.3477 0.4052,1.3477 1.4757,1.0733 26.9653,10.9962 31.5268,13.411 4.0207,2.1288 2.7253,8.011 3.4643,14.3372 -0.04,0.052 -0.074,0.1053 -0.1157,0.1571 -1.8514,2.3142 -54.2303,1.2042 -54.9011,2.0091 1.4758,1.4759 50.9981,10.2593 54.4132,13.1052 3.4153,2.8459 -37.5717,37.3771 -37.9511,39.4643 -0.3796,2.087 36.4349,-19.7307 45.7315,-20.8691 9.2967,-1.1385 -1.7069,11.1897 -6.8295,15.9329 -5.1227,4.7432 -7.784,9.2932 -12.9067,16.3132 -5.1228,7.02 -13.473,15.9416 -11.5755,16.1313 1.8973,0.1898 15.751,-12.1448 19.3559,-15.1804 3.6048,-3.0357 22.0092,-22.1998 25.2346,-22.01 3.2254,0.1897 -0.3088,57.1921 0.4961,57.7287 0.7284,0.4856 14.2021,-39.0071 17.7519,-47.1206 7.3586,3.6998 20.6613,8.5858 35.8428,4.9113 10.4741,10.0176 20.5141,26.2667 22.9361,29.0711 3.6048,4.1741 -13.2758,-28.6487 -15.5526,-35.479 -2.2768,-6.8302 21.245,5.31 22.9526,6.0689 1.7076,0.759 -17.2627,-16.8815 -16.6935,-19.5378 0.5691,-2.6562 18.2137,3.6041 21.2493,3.2246 3.0357,-0.3795 -18.9739,-11.1944 -21.8198,-14.4198 -2.8461,-3.2255 5.1263,-4.3656 5.1263,-4.3656 0,0 -7.9706,-1.5149 -7.9706,-2.2738 0,-0.7589 3.9826,-1.5226 2.8443,-2.0918 -0.972,-0.486 -3.5979,-1.3831 -4.4649,-2.1084 -1.5226,-4.6851 -3.0955,-8.5127 -4.6219,-11.6086 3.6242,-0.4306 14.3949,-2.7864 14.3949,-2.7864 0,0 -13.4345,-3.1738 -18.1322,-3.605 -2.7624,-3.8901 -4.9757,-5.215 -5.8125,-4.9361 -1.61,0.5366 8.584,14.4904 9.6572,31.3945 0.4675,7.3607 -1.819,13.0386 -6.6476,15.7344 -6.4566,-8.7202 -16.5094,-22.2567 -18.3307,-24.3582 -1.9251,-2.2213 5.6276,11.8522 12.915,25.9871 -5.5075,0.5548 -12.8291,-1.3807 -21.8447,-6.6229 -2.7751,-2.9889 -5.2668,-6.8221 -5.2668,-11.005 0,-6.4397 3.4913,-33.5418 2.1497,-31.9319 -1.0371,1.2445 -7.3607,16.7386 -12.7827,29.4183 -8.6412,-10.6881 -14.4998,-24.7463 -16.1974,-36.7026 0.1729,-1.1462 0.2931,-2.7762 0.3555,-4.7874 4.0842,3.897 8.9636,8.9461 7.4662,4.9031 -0.8692,-2.3468 -2.3295,-5.8049 -3.7538,-8.9545 9.0892,9.0499 18.6461,18.5968 17.4129,16.3546 -1.4505,-2.6374 -10.319,-17.2657 -16.1065,-26.3343 3.0687,-2.5528 7.6672,-4.0335 14.0973,-3.0593 0.8537,7.9157 1.8289,13.391 2.3896,12.1295 0.4178,-0.9401 0.9435,-6.187 1.3064,-11.3523 0.9224,0.2488 1.8742,0.5415 2.8608,0.8848 18.5138,6.4395 26.023,21.1976 25.2181,18.3802 -0.5872,-2.0552 -2.6058,-6.4726 -5.424,-10.8975 -0.2014,-2.8053 -0.1782,-8.1623 -0.8186,-8.9628 -0.5678,-0.7098 -0.8103,3.1494 -3.1253,3.5471 -4.2769,-5.0531 -7.1634,-5.6448 -7.9375,-7.8383 -0.8051,-2.2807 2.0148,-14.3542 1.6123,-16.0982 -0.4025,-1.7441 -4.2934,9.7921 -7.1107,10.1947 -2.8173,0.4025 -5.3695,-8.053 -6.3087,-13.4193 -0.9392,-5.3664 -1.0727,-13.9508 -2.4143,-12.6091 -0.796,0.796 0.2494,8.5361 -0.7855,15.288 -8e-4,0.01 8e-4,0.011 0,0.017 -0.336,1.5808 -0.8668,3.6519 -1.5792,5.5315 -0.9043,1.8876 -2.1943,3.3711 -4.0349,4.1341 -3.4683,-3.4256 -12.782,-28.0891 -14.2627,-30.0633 -1.6099,-2.1466 -0.9343,0.802 -0.9343,0.802 1.4757,4.8297 6.1719,23.7448 5.9035,26.8304 -0.1907,2.1938 -1.8099,2.8248 -3.5471,2.6707 -10.2446,-7.0797 -37.2401,-33.7923 -37.2401,-33.7923 -0.9642,-0.6708 -1.6492,-0.9149 -2.1084,-0.8764 z m -48.8321,38.5547 c -1.7816,-0.016 12.1129,4.8535 12.1129,4.8535 3.9657,2.0881 10.1098,4.6037 12.6918,4.8286 2.5819,0.225 2.0529,-1.883 0.058,-2.6458 -1.995,-0.7628 -21.725,-6.6676 -24.6393,-7.0197 -0.091,-0.011 -0.1658,-0.016 -0.2232,-0.017 z m 124.2797,94.5638 c 5.1779,0.5902 10.9662,0.7207 15.4534,0.1653 2.0892,0.849 4.2555,2.2377 6.4409,3.9936 -1.9327,-0.042 -4.4079,-0.1926 -7.582,-0.5292 -5.2741,-0.5594 -10.1436,-1.8588 -14.3123,-3.6297 z m -90.3469,3.0923 c -0.4822,0.031 -1.0502,0.2325 -1.5875,0.6283 -1.7197,1.267 -17.3448,14.6875 -19.2154,16.9499 -1.8708,2.2624 10.4924,-7.3918 10.4924,-7.3918 3.8994,-2.2093 9.3301,-6.0268 10.9141,-8.078 1.089,-1.4103 0.4571,-2.1774 -0.6036,-2.1084 z m 98.0364,32.5024 c -1.0458,0.01 -1.1576,7.8796 -1.1576,7.8796 0.9487,10.0556 4.1703,34.1514 5.4984,39.2741 1.3281,5.1227 0.9513,-1.706 1.141,-6.4492 0.1898,-4.7432 -2.2786,-31.312 -4.3656,-38.5217 -0.4565,-1.5771 -0.8234,-2.1849 -1.1162,-2.1828 z"
             style="color:#000000;fill:#00ffff;fill-opacity:1;fill-rule:nonzero;stroke:none;stroke-width:4;marker:none;visibility:visible;display:inline;overflow:visible;enable-background:accumulate" />
        </g>
        <path
           style="color:#000000;fill:#ffffff;fill-opacity:1;fill-rule:nonzero;stroke:none;stroke-width:4;marker:none;visibility:visible;display:inline;overflow:visible;enable-background:accumulate"
           d="m -5652.0453,5409.3562 c -4.3025,7.1709 -20.0783,57.3667 -22.9466,63.1033 -2.8684,5.7367 -15.7759,177.8365 -14.3417,163.4949 1.4342,-14.3417 35.8541,-143.4166 34.42,-153.4557 -1.4342,-10.0392 2.8683,-73.1425 2.8683,-73.1425 z"
           id="path4260"
           inkscape:connector-curvature="0"
           transform="matrix(0.26458334,0,0,0.26458334,-6.3049604e-6,18.562493)" />
        <path
           style="color:#000000;fill:#ffffff;fill-opacity:1;fill-rule:nonzero;stroke:none;stroke-width:4;marker:none;visibility:visible;display:inline;overflow:visible;enable-background:accumulate"
           d="m -5573.1662,5518.3528 c -182.139,-57.3666 -202.2173,-203.6515 -193.6123,-269.6231 8.605,-65.9716 25.815,-70.2741 25.815,-70.2741 0,0 -34.42,106.1283 5.7366,186.4415 40.1566,80.3133 93.2208,123.3382 156.324,141.9824 63.1033,18.6441 110.4308,-15.7758 103.2599,-74.5766 -7.1708,-58.8008 5.7367,2.8683 5.7367,25.815 0,22.9466 -103.2599,60.2349 -103.2599,60.2349 z"
           id="path4262"
           inkscape:connector-curvature="0"
           transform="matrix(0.26458334,0,0,0.26458334,-6.3049604e-6,18.562493)" />
        <path
           style="color:#000000;fill:#ffffff;fill-opacity:1;fill-rule:nonzero;stroke:none;stroke-width:4;marker:none;visibility:visible;display:inline;overflow:visible;enable-background:accumulate"
           d="m -5746.7002,5359.1605 c 7.1708,35.8541 -103.2599,121.904 -90.3524,111.8649 12.9075,-10.0392 96.0891,-51.63 107.5624,-53.0642 11.4733,-1.4341 15.7758,4.3025 15.7758,4.3025 z"
           id="path4264"
           inkscape:connector-curvature="0"
           transform="matrix(0.26458334,0,0,0.26458334,-6.3049604e-6,18.562493)" />
        <path
           style="color:#000000;fill:#ffffff;fill-opacity:1;fill-rule:nonzero;stroke:none;stroke-width:4;marker:none;visibility:visible;display:inline;overflow:visible;enable-background:accumulate"
           d="m -5743.8319,5373.5021 c -21.5125,-5.7366 -111.8649,-20.0783 -111.8649,-20.0783 0,0 100.3916,-15.7758 101.8258,-8.605 1.4341,7.1708 10.0391,28.6833 10.0391,28.6833 z"
           id="path4266"
           inkscape:connector-curvature="0"
           transform="matrix(0.26458334,0,0,0.26458334,-6.3049604e-6,18.562493)" />
        <path
           style="color:#000000;fill:#ffffff;fill-opacity:1;fill-rule:nonzero;stroke:none;stroke-width:4;marker:none;visibility:visible;display:inline;overflow:visible;enable-background:accumulate"
           d="m -5766.7785,5270.2422 c -10.0392,-11.4733 -48.7616,-24.3808 -48.7616,-24.3808 l 53.0641,1.4342 z"
           id="path4268"
           inkscape:connector-curvature="0"
           transform="matrix(0.26458334,0,0,0.26458334,-6.3049604e-6,18.562493)" />
        <path
           style="color:#000000;fill:#ffffff;fill-opacity:1;fill-rule:nonzero;stroke:none;stroke-width:4;marker:none;visibility:visible;display:inline;overflow:visible;enable-background:accumulate"
           d="m -5755.3052,5217.1781 c -4.3025,-10.0392 -53.0641,-90.3524 -53.0641,-90.3524 l 60.2349,58.8008 z"
           id="path4270"
           inkscape:connector-curvature="0"
           transform="matrix(0.26458334,0,0,0.26458334,-6.3049604e-6,18.562493)" />
        <path
           style="color:#000000;fill:#ffffff;fill-opacity:1;fill-rule:nonzero;stroke:none;stroke-width:4;marker:none;visibility:visible;display:inline;overflow:visible;enable-background:accumulate"
           d="m -5702.2411,5433.7371 c -18.6441,20.0783 -68.8399,87.484 -58.8008,78.879 10.0392,-8.6049 71.7083,-64.5374 71.7083,-64.5374 z"
           id="path4272"
           inkscape:connector-curvature="0"
           transform="matrix(0.26458334,0,0,0.26458334,-6.3049604e-6,18.562493)" />
        <path
           style="color:#000000;fill:#ffffff;fill-opacity:1;fill-rule:nonzero;stroke:none;stroke-width:4;marker:none;visibility:visible;display:inline;overflow:visible;enable-background:accumulate"
           d="m -5525.8388,5508.3137 c 14.3417,17.2099 54.4983,70.274 54.4983,70.274 l -37.2883,-81.7474 z"
           id="path4274"
           inkscape:connector-curvature="0"
           transform="matrix(0.26458334,0,0,0.26458334,-6.3049604e-6,18.562493)" />
        <path
           style="color:#000000;fill:#ffffff;fill-opacity:1;fill-rule:nonzero;stroke:none;stroke-width:4;marker:none;visibility:visible;display:inline;overflow:visible;enable-background:accumulate"
           d="m -5507.1946,5495.4062 c 21.5125,-10.0392 68.8399,21.5124 68.8399,21.5124 0,0 -31.5516,-37.2883 -34.4199,-48.7616 -2.8684,-11.4733 -1.4342,-11.4733 -1.4342,-11.4733 0,0 -5.7367,18.6442 -15.7758,27.2491 -10.0392,8.605 -17.21,11.4734 -17.21,11.4734 z"
           id="path4276"
           inkscape:connector-curvature="0"
           transform="matrix(0.26458334,0,0,0.26458334,-6.3049604e-6,18.562493)" />
        <path
           style="color:#000000;fill:#ffffff;fill-opacity:1;fill-rule:nonzero;stroke:none;stroke-width:4;marker:none;visibility:visible;display:inline;overflow:visible;enable-background:accumulate"
           d="m -5472.7746,5462.4204 c 5.7366,2.8683 45.8932,2.8683 45.8932,2.8683 l -48.7616,-22.9467 z"
           id="path4278"
           inkscape:connector-curvature="0"
           transform="matrix(0.26458334,0,0,0.26458334,-6.3049604e-6,18.562493)" />
      </g>
    </g>
  </g>
</svg>
