<?xml version="1.0" encoding="UTF-8" standalone="no"?>
<!-- Created with Inkscape (http://www.inkscape.org/) -->

<svg
   xmlns:dc="http://purl.org/dc/elements/1.1/"
   xmlns:cc="http://creativecommons.org/ns#"
   xmlns:rdf="http://www.w3.org/1999/02/22-rdf-syntax-ns#"
   xmlns:svg="http://www.w3.org/2000/svg"
   xmlns="http://www.w3.org/2000/svg"
   xmlns:sodipodi="http://sodipodi.sourceforge.net/DTD/sodipodi-0.dtd"
   xmlns:inkscape="http://www.inkscape.org/namespaces/inkscape"
   width="494.54544"
   height="512"
   viewBox="0 0 130.84848 135.46667"
   version="1.1"
   id="svg23489"
   inkscape:version="0.48.5 r10040"
   sodipodi:docname="strike_03.svg">
  <defs
     id="defs23483">
    <filter
       inkscape:collect="always"
       id="filter4404"
       color-interpolation-filters="sRGB">
      <feGaussianBlur
         inkscape:collect="always"
         stdDeviation="0.45411664"
         id="feGaussianBlur4406" />
    </filter>
    <filter
       inkscape:collect="always"
       id="filter4410"
       color-interpolation-filters="sRGB">
      <feGaussianBlur
         inkscape:collect="always"
         stdDeviation="3.2687384"
         id="feGaussianBlur4412" />
    </filter>
    <filter
       inkscape:collect="always"
       id="filter4416"
       color-interpolation-filters="sRGB">
      <feGaussianBlur
         inkscape:collect="always"
         stdDeviation="4.2089162"
         id="feGaussianBlur4418" />
    </filter>
    <filter
       inkscape:collect="always"
       id="filter4442"
       color-interpolation-filters="sRGB">
      <feGaussianBlur
         inkscape:collect="always"
         stdDeviation="1.6753654"
         id="feGaussianBlur4444" />
    </filter>
    <filter
       inkscape:collect="always"
       id="filter4464"
       color-interpolation-filters="sRGB">
      <feGaussianBlur
         inkscape:collect="always"
         stdDeviation="1.7634851"
         id="feGaussianBlur4466" />
    </filter>
  </defs>
  <sodipodi:namedview
     id="base"
     pagecolor="#2b2e30"
     bordercolor="#666666"
     borderopacity="1.0"
     inkscape:pageopacity="0"
     inkscape:pageshadow="2"
     inkscape:zoom="0.34863486"
     inkscape:cx="-658.99345"
     inkscape:cy="-86.314142"
     inkscape:document-units="px"
     inkscape:current-layer="layer1"
     showgrid="false"
     inkscape:pagecheckerboard="false"
     showborder="true"
     units="px"
     inkscape:window-width="1920"
     inkscape:window-height="1017"
     inkscape:window-x="-8"
     inkscape:window-y="-8"
     inkscape:window-maximized="1"
     inkscape:showpageshadow="false"
     guidetolerance="28"
     showguides="true"
     inkscape:guide-bbox="true">
    <inkscape:grid
       type="xygrid"
       id="grid24034"
       spacingx="1px"
       spacingy="1px"
       empspacing="8"
       visible="true"
       enabled="true"
       snapvisiblegridlinesonly="true"
       originx="4366.7843px"
       originy="4587.2207px" />
  </sodipodi:namedview>
  <metadata
     id="metadata23486">
    <rdf:RDF>
      <cc:Work
         rdf:about="">
        <dc:format>image/svg+xml</dc:format>
        <dc:type
           rdf:resource="http://purl.org/dc/dcmitype/StillImage" />
        <dc:title></dc:title>
        <cc:license
           rdf:resource="" />
        <dc:creator>
          <cc:Agent>
            <dc:title>Robert Brooks</dc:title>
          </cc:Agent>
        </dc:creator>
      </cc:Work>
    </rdf:RDF>
  </metadata>
  <g
     inkscape:label="Layer 1"
     inkscape:groupmode="layer"
     id="layer1"
     transform="translate(1155.3784,-1375.2355)">
    <g
       id="g4475">
      <path
         inkscape:connector-curvature="0"
         id="path4115-0"
         d="m -1088.8374,1380.4752 c -0.3339,0.079 -0.4546,1.7607 -0.4546,1.7607 -0.1967,3.1471 0,4.3249 0.9849,4.5216 0.9835,0.1967 0.3931,-4.5236 -0.197,-5.9005 -0.129,-0.3012 -0.2398,-0.4039 -0.3333,-0.3818 z m -12.286,7.7097 c -0.5397,0.033 -0.3636,1.7214 -0.3636,1.7214 1.5735,4.3272 1.9686,5.1137 3.1487,5.9005 1.1802,0.7868 0.7848,-2.557 -1.3789,-6.0975 -0.7099,-1.1617 -1.1426,-1.5406 -1.4062,-1.5244 z m -23.4354,1.5729 c -0.753,-0.038 0.4516,1.9183 0.4516,1.9183 3.7372,5.3107 4.5254,7.8676 7.0824,10.0312 2.5571,2.1636 2.7543,-0.3923 0.394,-3.3427 -2.3603,-2.9504 -5.9029,-7.6716 -7.4764,-8.4583 -0.1967,-0.098 -0.344,-0.1431 -0.4516,-0.1485 z m 22.3172,6.2884 c -0.3622,0.046 0.5576,2.1214 0.5576,2.1214 1.2785,2.6554 2.36,4.6216 2.8517,4.6216 0.4918,0 -0.8845,-4.0322 -2.6547,-6.0975 -0.4149,-0.484 -0.6438,-0.6596 -0.7546,-0.6455 z m 13.3436,2.9063 c 0,4.3273 0,4.5261 0.9849,5.5096 0.9835,0.9835 0.5886,-4.7228 -0.9849,-5.5096 z m -25.8417,4.4974 c -0.086,0 -0.1212,0.027 -0.1212,0.027 3.7371,4.7207 7.8659,9.4412 6.8824,8.0644 -0.9835,-1.3769 -2.3577,-4.1309 -4.3246,-6.2945 -1.4752,-1.6228 -2.1785,-1.8064 -2.4366,-1.7972 z m 25.4416,6.0581 c -1.3,0.01 -2.1577,0.5577 -2.1577,0.5577 l 1.2304,0.1 c 2.9995,-0.4425 4.9671,1.6214 4.9671,1.6214 0,0 -0.541,-1.4246 -2.6063,-2.0638 -0.5163,-0.1598 -1.0001,-0.2175 -1.4335,-0.2152 z m -5.1519,1.6214 c -4.9869,0.05 -7.2532,1.9436 -7.1825,2.085 0,0 3.4912,-2.5065 13.08,0.3455 9.5887,2.852 13.8648,11.2586 13.8648,11.2586 0,0 -2.6553,-9.9815 -12.6375,-12.686 -2.8075,-0.7607 -5.1735,-1.0227 -7.1248,-1.0031 z m 10.51,0.894 c -0.1226,0 -0.1879,0.012 -0.1879,0.012 9.5888,4.1305 11.604,12.6859 11.604,12.6859 0,0 1.0347,-4.0828 -3.1942,-8.6068 -3.7003,-3.9584 -7.3641,-4.1141 -8.2219,-4.0913 z m -23.7779,1.8729 c -0.7868,0.01 -1.9323,0.1528 -2.6699,0.497 -3.8355,2.0653 -4.5726,6.3456 -4.1792,6.5915 0.3934,0.2459 0.686,-1.5196 3.2942,-3.8852 2.1145,-1.9178 2.7054,-2.4092 4.0822,-2.8518 0.6885,-0.2213 0.2595,-0.3577 -0.5273,-0.3515 z m 4.0428,0.5091 c -0.7053,-0.023 -2.6436,0.3835 -5.1883,2.0062 -3.393,2.1637 -4.8683,4.8666 -5.6551,9.0463 0,0 0.1013,0.6897 0.4455,0.3455 0.3442,-0.3442 0.9325,-2.4095 3.8337,-6.0975 2.9012,-3.688 6.5881,-4.8691 6.8339,-5.1641 0.062,-0.074 -0.034,-0.1287 -0.2697,-0.1364 z m 15.4165,1.7001 c -0.2521,0 -0.394,0.01 -0.394,0.01 l 1.2304,0.4425 c 6.1959,1.4261 10.2282,7.6219 10.2282,7.6219 0,0 -0.836,-3.2435 -4.1306,-5.8005 -2.6769,-2.0776 -5.8417,-2.273 -6.934,-2.273 z m -50.2832,1.7275 c -0.5349,0.024 0.3727,0.5455 0.3727,0.5455 0.5901,0.5409 4.6724,2.0159 6.6885,2.4093 2.0161,0.3934 2.0642,0.048 1.8183,-0.3455 -0.2459,-0.3934 -7.9655,-2.5571 -8.7523,-2.6063 -0.049,0 -0.092,0 -0.1272,0 z m -2.5942,14.0103 c -2.0167,0.1391 -1.6006,0.9716 -0.4879,1.7365 1.1126,0.765 17.5935,3.3384 16.759,2.7821 -0.8345,-0.5564 -16.2711,-4.5186 -16.2711,-4.5186 z m 25.9811,2.9093 c 0.9835,17.7024 9.106,29.8893 18.8805,35.6002 1.1215,0.6552 2.2041,1.2016 3.2396,1.6547 0.9941,0.8328 1.4213,1.0667 0.8698,0.3636 6.5736,2.6218 11.0373,1.5214 11.0373,1.5214 0,0 -8.9082,-1.2438 -17.2348,-9.3433 -0.3475,-0.5115 -0.6954,-1.0352 -1.0455,-1.5698 2.3221,2.158 5.6722,4.6792 9.428,6.3915 6.6876,3.0487 7.9674,2.9487 7.9674,2.9487 0,0 -16.3271,-12.1957 -22.3262,-21.7352 -5.9991,-9.5397 -7.0794,-14.2589 -7.0794,-14.2589 0.2981,2.9442 0.9506,5.8303 1.7729,8.5705 -0.5428,-1.1538 -0.9546,-2.1047 -1.185,-2.7669 -1.5735,-4.524 -1.0819,-0.788 -1.0819,-0.788 0.1214,1.1102 0.2895,2.2052 0.5031,3.2912 -2.7445,-5.9374 -3.7458,-9.8797 -3.7458,-9.8797 z m -1.1122,2.4185 c -0.028,-0.01 -0.048,0.1321 -0.07,0.4333 -0.098,1.3769 -0.197,3.3427 -0.197,3.3427 1.3768,6.9827 3.4427,9.6373 3.4427,9.6373 0,0 -1.6724,-3.5388 -2.3608,-7.9644 -0.5378,-3.4575 -0.7163,-5.4148 -0.8152,-5.4489 z m 13.6982,6.0399 0.4939,3.6366 c 3.5405,13.4735 25.6659,22.4233 25.6659,22.4233 0,0 -16.7175,-10.7197 -20.3563,-16.1288 -3.6388,-5.409 -5.8035,-9.9311 -5.8035,-9.9311 z m 44.8827,2.679 c 3.7552,9.7358 0.1386,16.4102 -5.4247,20.1654 -5.5633,3.7553 -8.7618,4.0347 -7.6492,4.4519 1.1127,0.4173 10.7097,-0.1378 14.4649,-9.8736 3.7553,-9.7358 -1.391,-14.7437 -1.391,-14.7437 z m -15.7923,7.2491 c -0.4271,-0.04 -0.3425,1.2335 -0.3425,1.2335 1.1127,2.2253 0.4169,4.0348 1.1123,3.2002 0.6954,-0.8344 0.6947,-2.7819 -0.2788,-4.0336 -0.213,-0.2739 -0.3714,-0.3889 -0.491,-0.4001 z m 13.4588,2.0214 c -0.3384,0 -0.8668,0.8819 -0.8668,0.8819 -0.4172,4.8679 -5.9794,7.7899 -4.7277,8.3462 1.2518,0.5563 5.0051,-2.5042 5.7005,-6.8158 0.3043,-1.8863 0.1571,-2.4144 -0.106,-2.4123 z m 14.3376,4.4944 c -0.016,0 -0.029,0 -0.042,0 -0.8346,0.139 0.1363,1.1122 0.1363,1.1122 1.3909,0.6954 3.6167,2.088 5.4248,2.088 1.7798,0 -4.5252,-3.2349 -5.5187,-3.2033 z m -7.9371,5.5883 c -0.093,-0.01 -0.151,0.031 -0.1727,0.1182 -0.1391,0.5564 0.1394,1.1122 0.1394,1.1122 1.8081,1.8081 5.145,4.5898 7.3703,6.537 2.2254,1.9471 5.8407,4.7281 4.8671,3.6155 -0.9735,-1.1127 -6.1178,-7.51 -8.3431,-8.9008 -1.8776,-1.1736 -3.3603,-2.4472 -3.861,-2.4821 z m -73.0216,0.2394 c -0.3486,0.017 -0.9062,0.2486 -0.9062,0.2486 -2.1636,0.8851 -2.5593,2.0651 -1.5758,1.9668 0.9834,-0.098 2.7548,-1.6704 2.7548,-2.0638 0,-0.123 -0.1143,-0.1595 -0.2728,-0.1516 z m -5.3005,3.8489 c -0.027,0 -0.069,0.015 -0.1303,0.039 -0.9834,0.3934 -3.6397,1.6698 -3.6397,1.6698 -3.0487,0.8852 -6.4913,3.7371 -7.3764,5.0156 -0.8851,1.2785 4.2292,-1.6719 6.2945,-3.0487 1.9362,-1.2908 5.2549,-3.7035 4.8519,-3.6761 z m 32.0635,1.5274 c -0.1883,-0.011 0.7455,1.1789 0.7455,1.1789 2.5035,2.3644 6.1178,3.6168 5.7005,2.9214 -0.4172,-0.6954 -4.7275,-2.6452 -5.9793,-3.7579 -0.2738,-0.2434 -0.4139,-0.3395 -0.4667,-0.3424 z m -13.089,3.173 c -0.027,0 -0.069,0.021 -0.1243,0.058 -1.1801,0.7868 -3.9337,3.0488 -3.9337,3.0488 -4.2289,4.0322 -9.6381,9.5404 -10.2282,11.704 -0.59,2.1637 4.1304,-2.0654 6.9825,-5.2126 2.7184,-2.9995 7.8505,-9.661 7.3037,-9.5977 z m 19.5562,3.5457 c -0.1521,0.041 -0.2091,1.0365 -0.2091,1.0365 -0.7868,5.2124 -2.2616,16.031 -1.7698,17.6046 0.4917,1.5735 1.6731,0.099 1.8698,-0.8849 0.1968,-0.9835 0.589,-16.3258 0.294,-17.4076 -0.074,-0.2705 -0.1342,-0.3624 -0.1849,-0.3486 z m 35.3668,2.1608 c -0.2005,0.013 -0.2,0.2273 -0.2,0.2273 1.1127,3.0599 1.5316,3.7553 3.3397,6.537 1.808,2.7816 4.8655,6.5367 4.17,5.1459 -0.6954,-1.3909 -3.6139,-8.4844 -5.5611,-10.5706 -1.0344,-1.1084 -1.5213,-1.3536 -1.7486,-1.3396 z m -19.0229,15.3044 c -0.422,0.041 -0.4243,1.2729 -0.4243,1.2729 0.5901,2.6553 1.2812,4.8204 1.7729,4.0337 0.4917,-0.7868 -0.1981,-4.3289 -0.9849,-5.1157 -0.1475,-0.1475 -0.2663,-0.2002 -0.3637,-0.1909 z"
         style="color:#000000;fill:#0af5f5;fill-opacity:1;fill-rule:nonzero;stroke:#00ccff;stroke-width:0.79375005;stroke-miterlimit:4;stroke-dasharray:none;marker:none;visibility:visible;display:inline;overflow:visible;filter:url(#filter4442);enable-background:accumulate"
         gds_switchable="blur"
         gds_color="blur" />
      <g
         transform="matrix(0.36653193,0,0,0.36653193,-799.60292,914.49596)"
         inkscape:export-ydpi="90"
         inkscape:export-xdpi="90"
         inkscape:export-filename="C:\Users\rober\Desktop\assets\ASSETS_2024\ESSENTIALS\sword_effects\1.png"
         id="g4304">
        <g
           id="g4236"
           transform="translate(334.82698,0)">
          <rect
             ry="0"
             rx="0"
             y="1257.0243"
             x="-1305.4803"
             height="369.59036"
             width="356.99069"
             id="rect4234"
             style="opacity:0;color:#000000;fill:#916f6f;fill-opacity:1;fill-rule:nonzero;stroke:none;stroke-width:4;marker:none;visibility:visible;display:inline;overflow:visible;enable-background:accumulate" />
          <path
             inkscape:connector-curvature="0"
             id="path4115"
             d="m -1123.9384,1271.3195 c -0.9109,0.2149 -1.2402,4.8038 -1.2402,4.8038 -0.5366,8.5861 0,11.7996 2.6872,12.3362 2.6831,0.5366 1.0724,-12.3418 -0.5375,-16.0983 -0.3521,-0.8217 -0.6544,-1.1019 -0.9095,-1.0417 z m -33.5194,21.0343 c -1.4724,0.091 -0.9921,4.6964 -0.9921,4.6964 4.293,11.8059 5.3708,13.9517 8.5906,16.0982 3.2198,2.1466 2.141,-6.9763 -3.762,-16.6356 -1.9369,-3.1695 -3.1174,-4.2033 -3.8365,-4.159 z m -63.9383,4.2912 c -2.0543,-0.1027 1.232,5.2338 1.232,5.2338 10.1961,14.4891 12.3467,21.4649 19.3229,27.3679 6.9763,5.9029 7.5145,-1.0704 1.0749,-9.1199 -6.4396,-8.0495 -16.1048,-20.9301 -20.3978,-23.0766 -0.5366,-0.2683 -0.9385,-0.3905 -1.232,-0.4052 z m 60.8874,17.1566 c -0.988,0.1253 1.5213,5.7878 1.5213,5.7878 3.4881,7.2445 6.4388,12.609 7.7804,12.609 1.3416,0 -2.4133,-11.001 -7.2429,-16.6356 -1.132,-1.3207 -1.7564,-1.7996 -2.0588,-1.7612 z m 36.405,7.9293 c 0,11.8058 0,12.3484 2.6871,15.0316 2.6832,2.6832 1.6059,-12.8851 -2.6871,-15.0316 z m -70.5032,12.27 c -0.2348,0.01 -0.3307,0.074 -0.3307,0.074 10.196,12.8792 21.4603,25.7582 18.7771,22.0018 -2.6832,-3.7564 -6.4324,-11.2702 -11.7988,-17.1731 -4.0247,-4.4273 -5.9433,-4.9283 -6.6476,-4.9031 z m 69.4118,16.5282 c -3.5468,0.019 -5.887,1.5214 -5.887,1.5214 l 3.3569,0.2728 c 8.1836,-1.2074 13.5516,4.4235 13.5516,4.4235 0,0 -1.476,-3.8866 -7.1107,-5.6307 -1.4086,-0.436 -2.7286,-0.5933 -3.9108,-0.587 z m -14.056,4.4235 c -13.6056,0.1366 -19.7886,5.3028 -19.5957,5.6885 0,0 9.5248,-6.8385 35.6857,0.9426 26.1608,7.7812 37.8271,30.7165 37.8271,30.7165 0,0 -7.2444,-27.2321 -34.4785,-34.6108 -7.6596,-2.0753 -14.1147,-2.7903 -19.4386,-2.7368 z m 28.6742,2.4391 c -0.3343,0.01 -0.5126,0.033 -0.5126,0.033 26.1608,11.2693 31.659,34.6108 31.659,34.6108 0,0 2.8229,-11.1392 -8.7147,-23.4818 -10.0954,-10.7997 -20.0913,-11.2244 -22.4317,-11.1621 z m -64.8725,5.1098 c -2.1466,0.017 -5.272,0.4169 -7.2843,1.356 -10.4644,5.6346 -12.4752,17.3126 -11.4019,17.9834 1.0732,0.6708 1.8714,-4.1458 8.9875,-10.5999 5.7688,-5.2322 7.3809,-6.573 11.1373,-7.7804 1.8783,-0.6037 0.7079,-0.9759 -1.4386,-0.9591 z m 11.0298,1.3891 c -1.9243,-0.063 -7.2125,1.0463 -14.1552,5.4735 -9.2569,5.903 -13.282,13.2772 -15.4285,24.6807 0,0 0.2763,1.8816 1.2154,0.9426 0.9391,-0.9391 2.544,-6.5739 10.4593,-16.6357 7.9153,-10.0619 17.9741,-13.2841 18.6449,-14.0891 0.1677,-0.2012 -0.094,-0.3511 -0.7359,-0.372 z m 42.0605,4.6384 c -0.6878,0 -1.0749,0.025 -1.0749,0.025 l 3.3569,1.2072 c 16.9039,3.8906 27.9053,20.7946 27.9053,20.7946 0,0 -2.281,-8.8492 -11.2696,-15.8254 -7.3032,-5.6682 -15.9376,-6.2012 -18.9177,-6.2012 z m -137.1866,4.7129 c -1.4592,0.066 1.017,1.4883 1.017,1.4883 1.6099,1.4757 12.7475,5.4999 18.248,6.5732 5.5005,1.0733 5.6317,0.1307 4.9609,-0.9425 -0.6708,-1.0733 -21.7321,-6.9765 -23.8786,-7.1107 -0.1342,-0.01 -0.25,-0.013 -0.3473,-0.01 z m -7.0776,38.224 c -5.5021,0.3795 -4.3668,2.6507 -1.3312,4.7377 3.0357,2.087 48.0001,9.1081 45.7233,7.5903 -2.2767,-1.5179 -44.3921,-12.328 -44.3921,-12.328 z m 70.8836,7.9375 c 2.6832,48.2969 24.8437,81.546 51.5111,97.1269 3.0599,1.7878 6.0135,3.2784 8.8387,4.5145 2.7121,2.2722 3.8777,2.9103 2.373,0.9922 17.9345,7.1528 30.1129,4.1506 30.1129,4.1506 0,0 -24.3042,-3.3933 -47.0214,-25.4909 -0.9481,-1.3956 -1.8971,-2.8244 -2.8525,-4.283 6.3355,5.8878 15.4753,12.7662 25.7224,17.4377 18.2455,8.3178 21.7372,8.045 21.7372,8.045 0,0 -44.5448,-33.2731 -60.9121,-59.2997 -16.3672,-26.0267 -19.3145,-38.902 -19.3145,-38.902 0.8134,8.0324 2.5934,15.9065 4.8369,23.3825 -1.4809,-3.1477 -2.6045,-5.7422 -3.2329,-7.5489 -4.2931,-12.3425 -2.9518,-2.1497 -2.9518,-2.1497 0.3313,3.0288 0.7899,6.0162 1.3726,8.9793 -7.4878,-16.1988 -10.2196,-26.9545 -10.2196,-26.9545 z m -3.0344,6.5981 c -0.076,-0.026 -0.1315,0.3606 -0.1902,1.1823 -0.2683,3.7565 -0.5374,9.1199 -0.5374,9.1199 3.7564,19.0505 9.3927,26.293 9.3927,26.293 0,0 -4.5627,-9.6547 -6.441,-21.7289 -1.4673,-9.433 -1.9543,-14.7732 -2.2241,-14.8663 z m 37.3724,16.4786 1.3477,9.9218 c 9.6594,36.7594 70.0236,61.1767 70.0236,61.1767 0,0 -45.61,-29.2462 -55.5376,-44.0036 -9.9277,-14.7574 -15.8337,-27.0949 -15.8337,-27.0949 z m 122.4525,7.3091 c 10.2453,26.5619 0.3781,44.7715 -14.8002,55.0168 -15.1782,10.2453 -23.9046,11.0076 -20.869,12.146 3.0357,1.1384 29.219,-0.3759 39.4643,-26.9379 10.2453,-26.5619 -3.7951,-40.2249 -3.7951,-40.2249 z m -43.0858,19.7776 c -1.1652,-0.1086 -0.9343,3.3652 -0.9343,3.3652 3.0357,6.0713 1.1372,11.008 3.0345,8.7312 1.8972,-2.2767 1.8955,-7.5899 -0.7607,-11.005 -0.5811,-0.7471 -1.0132,-1.061 -1.3395,-1.0914 z m 36.7192,5.5149 c -0.923,0.01 -2.3647,2.4061 -2.3647,2.4061 -1.1384,13.2809 -16.3135,21.2528 -12.8984,22.7707 3.4151,1.5178 13.6552,-6.8321 15.5525,-18.5953 0.8301,-5.1464 0.4285,-6.5873 -0.2894,-6.5815 z m 39.117,12.2618 c -0.043,0 -0.08,0 -0.1157,0.01 -2.2768,0.3794 0.372,3.0344 0.372,3.0344 3.7946,1.8973 9.8672,5.6968 14.8002,5.6968 4.8558,0 -12.3459,-8.8257 -15.0565,-8.7395 z m -21.6545,15.2466 c -0.2529,-0.018 -0.412,0.085 -0.4713,0.3224 -0.3794,1.5179 0.3804,3.0345 0.3804,3.0345 4.9329,4.9329 14.037,12.5222 20.1083,17.8346 6.0713,5.3124 15.935,12.8996 13.2788,9.864 -2.6562,-3.0357 -16.6911,-20.4892 -22.7624,-24.2838 -5.1227,-3.2017 -9.1678,-6.6766 -10.5338,-6.7717 z m -199.2231,0.6532 c -0.9511,0.047 -2.4722,0.678 -2.4722,0.678 -5.9029,2.4149 -6.9826,5.6344 -4.2994,5.3661 2.6831,-0.2683 7.5158,-4.5574 7.5158,-5.6307 0,-0.3354 -0.3118,-0.435 -0.7442,-0.4134 z m -14.4611,10.5007 c -0.073,0 -0.1878,0.04 -0.3555,0.1074 -2.6832,1.0733 -9.9302,4.5558 -9.9302,4.5558 -8.3178,2.4149 -17.71,10.1958 -20.1248,13.6839 -2.4149,3.4882 11.5384,-4.5614 17.1731,-8.3178 5.2825,-3.5217 14.3369,-10.104 13.2374,-10.0293 z m 87.478,4.1671 c -0.5139,-0.029 2.034,3.2164 2.034,3.2164 6.8302,6.4507 16.6909,9.8678 15.5525,7.9705 -1.1384,-1.8972 -12.8981,-7.2169 -16.3132,-10.2526 -0.7471,-0.664 -1.1294,-0.9262 -1.2733,-0.9343 z m -35.7105,8.6569 c -0.073,0.01 -0.1881,0.057 -0.339,0.157 -3.2198,2.1466 -10.7322,8.3179 -10.7322,8.3179 -11.5376,11.001 -26.2954,26.0289 -27.9053,31.9319 -1.6099,5.903 11.2688,-5.6352 19.0501,-14.2214 7.4164,-8.1836 21.4183,-26.3579 19.9264,-26.1854 z m 53.3549,9.6738 c -0.4151,0.1132 -0.5705,2.8277 -0.5705,2.8277 -2.1466,14.2208 -6.1703,43.7371 -4.8287,48.0302 1.3416,4.293 4.5649,0.2688 5.1015,-2.4143 0.5367,-2.6832 1.607,-44.5413 0.802,-47.4927 -0.2012,-0.7379 -0.366,-0.9886 -0.5043,-0.9509 z m 96.4902,5.8952 c -0.5471,0.034 -0.5457,0.6202 -0.5457,0.6202 3.0357,8.348 4.1787,10.2454 9.1116,17.8345 4.9329,7.5892 13.2744,17.834 11.3771,14.0395 -1.8973,-3.7946 -9.8598,-23.1477 -15.1722,-28.8396 -2.8222,-3.0238 -4.1507,-3.6929 -4.7708,-3.6546 z m -51.8997,41.7546 c -1.1513,0.1107 -1.1575,3.4727 -1.1575,3.4727 1.6099,7.2445 3.4953,13.1515 4.8369,11.005 1.3416,-2.1466 -0.5406,-11.8103 -2.6872,-13.9568 -0.4024,-0.4025 -0.7265,-0.5464 -0.9922,-0.5209 z"
             style="color:#000000;fill:#0af5f5;fill-opacity:1;fill-rule:nonzero;stroke:none;stroke-width:4;marker:none;visibility:visible;display:inline;overflow:visible;enable-background:accumulate" />
        </g>
        <path
           style="color:#000000;fill:#ffffff;fill-opacity:1;fill-rule:nonzero;stroke:none;stroke-width:4;marker:none;visibility:visible;display:inline;overflow:visible;enable-background:accumulate"
           d="m -3213.9644,5419.3954 c 53.0642,154.8899 163.4949,223.7298 163.4949,223.7298 0,0 -84.6158,-94.6549 -110.4307,-137.6799 -25.815,-43.0249 -53.0642,-86.0499 -53.0642,-86.0499 z"
           id="path4290"
           inkscape:connector-curvature="0"
           transform="matrix(0.26458334,0,0,0.26458334,-6.3049604e-6,18.562493)" />
        <path
           style="color:#000000;fill:#ffffff;fill-opacity:1;fill-rule:nonzero;stroke:none;stroke-width:4;marker:none;visibility:visible;display:inline;overflow:visible;enable-background:accumulate"
           d="m -3176.6761,5465.2887 c 71.7083,123.3382 177.8365,166.3632 177.8365,166.3632 0,0 -90.3524,-58.8008 -144.8507,-140.5482 -54.4982,-81.7475 -57.3666,-94.6549 -53.0641,-81.7475 4.3025,12.9075 20.0783,55.9325 20.0783,55.9325 z"
           id="path4292"
           inkscape:connector-curvature="0"
           transform="matrix(0.26458334,0,0,0.26458334,-6.3049604e-6,18.562493)" />
      </g>
    </g>
  </g>
</svg>
