<?xml version="1.0" encoding="UTF-8" standalone="no"?>
<!-- Created with Inkscape (http://www.inkscape.org/) -->

<svg
   xmlns:dc="http://purl.org/dc/elements/1.1/"
   xmlns:cc="http://creativecommons.org/ns#"
   xmlns:rdf="http://www.w3.org/1999/02/22-rdf-syntax-ns#"
   xmlns:svg="http://www.w3.org/2000/svg"
   xmlns="http://www.w3.org/2000/svg"
   xmlns:sodipodi="http://sodipodi.sourceforge.net/DTD/sodipodi-0.dtd"
   xmlns:inkscape="http://www.inkscape.org/namespaces/inkscape"
   width="494.54544"
   height="512"
   viewBox="0 0 130.84848 135.46667"
   version="1.1"
   id="svg23489"
   inkscape:version="0.48.5 r10040"
   sodipodi:docname="strike_02.svg">
  <defs
     id="defs23483">
    <filter
       inkscape:collect="always"
       id="filter4404"
       color-interpolation-filters="sRGB">
      <feGaussianBlur
         inkscape:collect="always"
         stdDeviation="0.45411664"
         id="feGaussianBlur4406" />
    </filter>
    <filter
       inkscape:collect="always"
       id="filter4410"
       color-interpolation-filters="sRGB">
      <feGaussianBlur
         inkscape:collect="always"
         stdDeviation="3.2687384"
         id="feGaussianBlur4412" />
    </filter>
    <filter
       inkscape:collect="always"
       id="filter4416"
       color-interpolation-filters="sRGB">
      <feGaussianBlur
         inkscape:collect="always"
         stdDeviation="4.2089162"
         id="feGaussianBlur4418" />
    </filter>
    <filter
       inkscape:collect="always"
       id="filter4442"
       color-interpolation-filters="sRGB">
      <feGaussianBlur
         inkscape:collect="always"
         stdDeviation="1.6753654"
         id="feGaussianBlur4444" />
    </filter>
    <filter
       inkscape:collect="always"
       id="filter4464"
       color-interpolation-filters="sRGB">
      <feGaussianBlur
         inkscape:collect="always"
         stdDeviation="1.7634851"
         id="feGaussianBlur4466" />
    </filter>
  </defs>
  <sodipodi:namedview
     id="base"
     pagecolor="#2b2e30"
     bordercolor="#666666"
     borderopacity="1.0"
     inkscape:pageopacity="0"
     inkscape:pageshadow="2"
     inkscape:zoom="0.34863486"
     inkscape:cx="-164.44784"
     inkscape:cy="-86.314137"
     inkscape:document-units="px"
     inkscape:current-layer="layer1"
     showgrid="false"
     inkscape:pagecheckerboard="false"
     showborder="true"
     units="px"
     inkscape:window-width="1920"
     inkscape:window-height="1017"
     inkscape:window-x="-8"
     inkscape:window-y="-8"
     inkscape:window-maximized="1"
     inkscape:showpageshadow="false"
     guidetolerance="28"
     showguides="true"
     inkscape:guide-bbox="true">
    <inkscape:grid
       type="xygrid"
       id="grid24034"
       spacingx="1px"
       spacingy="1px"
       empspacing="8"
       visible="true"
       enabled="true"
       snapvisiblegridlinesonly="true"
       originx="4861.3299px"
       originy="4587.2207px" />
  </sodipodi:namedview>
  <metadata
     id="metadata23486">
    <rdf:RDF>
      <cc:Work
         rdf:about="">
        <dc:format>image/svg+xml</dc:format>
        <dc:type
           rdf:resource="http://purl.org/dc/dcmitype/StillImage" />
        <dc:title></dc:title>
        <cc:license
           rdf:resource="" />
        <dc:creator>
          <cc:Agent>
            <dc:title>Robert Brooks</dc:title>
          </cc:Agent>
        </dc:creator>
      </cc:Work>
    </rdf:RDF>
  </metadata>
  <g
     inkscape:label="Layer 1"
     inkscape:groupmode="layer"
     id="layer1"
     transform="translate(1286.2269,-1375.2355)">
    <g
       id="g4484">
      <g
         transform="matrix(0.36653193,0,0,0.36653193,-799.60292,914.49596)"
         inkscape:export-ydpi="90"
         inkscape:export-xdpi="90"
         inkscape:export-filename="C:\Users\rober\Desktop\assets\ASSETS_2024\ESSENTIALS\sword_effects\1.png"
         id="g4294">
        <g
           id="g4240"
           transform="translate(-22.163708,0)">
          <path
             style="color:#000000;fill:#0af5f5;fill-opacity:1;fill-rule:nonzero;stroke:#00ccff;stroke-width:2.16556859;stroke-miterlimit:4;stroke-dasharray:none;marker:none;visibility:visible;display:inline;overflow:visible;filter:url(#filter4416);enable-background:accumulate"
             d="m -1123.9006,1286.8421 c -0.7457,-0.051 -1.5545,1.3669 -1.5545,2.9517 0.4025,4.0247 0.2726,11.1296 1.4801,12.8736 1.2074,1.7441 1.7374,-11.4021 1.0665,-14.3536 -0.2305,-1.0146 -0.6015,-1.445 -0.9921,-1.4717 z m -33.9577,27.2438 c -0.8141,-0.063 -0.8102,1.943 -0.8102,1.943 1.328,4.5535 2.4665,7.3983 3.6049,6.6394 1.1384,-0.7589 -0.574,-6.6347 -2.0918,-8.1525 -0.2846,-0.2846 -0.515,-0.4155 -0.7029,-0.4299 z m 8.1195,1.48 c -1.4593,-0.012 -2.419,2.3955 -1.5297,3.8778 2.4665,9.2967 8.1556,29.9806 9.4837,29.9806 1.3281,0 -4.5524,-31.1182 -6.6394,-33.2052 -0.4565,-0.4566 -0.9061,-0.6498 -1.3146,-0.6532 z m -56.5878,4.1258 c -0.7671,-0.031 0.984,2.5962 0.984,2.5962 4.3637,4.933 17.6479,24.6656 22.7706,28.8396 5.1227,4.174 12.902,12.3362 14.4198,12.3362 1.5179,0 -8.1586,-12.9073 -10.8149,-16.7018 -2.6561,-3.7946 -23.7194,-24.6603 -26.3755,-26.5576 -0.4981,-0.3557 -0.8069,-0.5054 -0.984,-0.5126 z m 83.1205,4.4897 c -0.906,0.01 -1.7666,1.3803 -1.8852,2.0918 -0.1897,1.1384 -0.1901,1.3312 -0.1901,1.3312 0.5691,8.5378 1.9039,31.4943 2.8525,35.2888 0.9487,3.7946 0.9426,0.7619 0.9426,-2.2738 0,-3.0356 0.9482,-30.7418 -0.1902,-34.5364 -0.4269,-1.4229 -0.986,-1.9061 -1.5296,-1.9016 z m 22.7791,30.9066 c -0.9013,0.071 -1.799,0.5971 -2.0836,1.356 -1.3281,4.7432 -3.6019,11.9498 -2.2738,12.8984 1.3281,0.9487 7.0184,-10.8114 6.4492,-12.8984 -0.2846,-1.0435 -1.1906,-1.4272 -2.0918,-1.356 z m -32.0395,14.9489 c -1.119,0 -2.2657,0.019 -3.4396,0.066 0,0 -11.7382,1.5126 5.1263,4.1755 21.629,3.4151 26.9402,7.0198 40.7377,24.8543 0.7862,-5.5287 -7.7377,-29.0135 -42.4244,-29.096 z m -19.2071,0.066 c -0.9909,0.01 -5.2875,0.2364 -10.5999,3.2246 -6.0713,3.4151 -24.2846,16.313 -24.6641,37.5626 l 0.1902,0.9508 c 0,0 4.35,-10.8592 13.6177,-21.5139 -6.2612,12.5082 -6.6389,27.6358 -5.6472,27.2107 1.3281,-0.5691 7.2085,-21.2522 17.2641,-29.6002 1.9441,-1.614 3.851,-3.0641 5.6885,-4.3574 1.2878,1.5292 2.9824,3.4753 4.8783,5.5894 -6.8173,7.9564 -10.2836,19.4738 -10.3766,30.2617 0,0 1.8951,2.466 2.6541,-0.1902 0.4604,-1.6117 3.9944,-15.4441 12.2121,-25.1437 5.0561,5.4918 10.1212,10.7807 11.5011,11.8649 1.4506,1.1398 -4.1751,-6.377 -9.9797,-13.5599 5.1678,-5.3825 11.9888,-8.9895 20.7946,-7.4992 24.6647,4.174 34.5282,25.0444 34.5282,25.0444 0,0 -1.1319,-20.8719 -29.2117,-29.2199 -13.1727,-3.9162 -23.3039,-0.4884 -30.361,6.5319 -1.7476,-2.0646 -3.3286,-3.8628 -4.5392,-5.1098 6.7235,-4.4331 12.2338,-6.6512 14.5934,-6.9288 3.2254,-0.3794 -4.5504,-1.7067 -12.8984,0.3804 -2.9863,0.7466 -5.416,1.4186 -7.334,1.9761 8.681,-7.444 7.9045,-7.4745 7.9045,-7.4745 0,0 -0.073,0 -0.215,0 z m -101.5338,8.2682 c -2.5549,0.012 1.6453,2.1084 1.6453,2.1084 2.9515,1.6099 11.5383,4.027 22.5392,6.9784 11.001,2.9515 14.2219,2.4119 11.8071,0.802 -2.4149,-1.6099 -27.3692,-8.584 -33.8088,-9.6573 -1.0062,-0.1677 -1.7097,-0.2337 -2.1828,-0.2315 z m 87.5191,16.0156 c -11.6873,16.3136 -8.2203,42.7837 1.48,64.9717 -4.2612,4.0243 -6.4672,7.2132 -4.1754,6.4493 1.1865,-0.3956 3.3566,-1.5956 5.7051,-3.0841 2.8426,5.9841 6.1321,11.584 9.6655,16.5034 -2.7695,3.9356 -4.6978,7.1756 -3.0261,6.4327 1.0888,-0.484 3.4827,-1.5695 5.8125,-2.7616 2.1264,2.6477 4.3208,5.0393 6.5484,7.1107 21.6291,20.1111 41.7382,18.9756 41.7382,18.9756 0,0 -26.1828,-14.0399 -35.6692,-28.4593 -9.4865,-14.4193 -10.2444,-17.4542 -10.2444,-17.4542 0,0 9.483,9.1047 16.3132,13.2788 6.8302,4.174 -2.2737,-8.351 -2.2737,-8.351 0,0 11.3857,12.1454 25.8051,18.9756 14.4195,6.8302 27.6987,-2.2737 27.6987,-2.2737 0,0 -33.39,-9.4912 -52.3628,-26.9462 -18.9728,-17.455 -15.5608,-46.2938 -15.5608,-46.2938 0,0 -3.0383,15.9393 -1.141,25.8051 1.6483,8.5716 3.0113,10.838 3.3403,11.2862 -0.4213,-0.5183 -6.7869,-8.4038 -7.8879,-12.8075 -1.1383,-4.5535 -1.5213,-6.0689 -1.5213,-6.0689 0,0 -0.7619,9.4877 2.2737,14.8001 3.0357,5.3124 2.6624,5.6886 2.6624,5.6886 0,0 -6.4518,-12.5222 -7.5902,-17.8346 -1.1384,-5.3124 -0.3804,-10.6247 -0.3804,-10.6247 0,0 -4.5549,7.2093 -4.1754,14.0395 0.2835,5.104 0.9835,8.3012 1.3229,9.5911 -0.9275,-3.1961 -6.2254,-21.953 -5.8787,-32.3535 0.3795,-11.3837 1.5213,-18.5953 1.5213,-18.5953 z m 46.5915,2.5383 c -0.581,-0.054 -0.8682,1.2568 -0.8682,1.2568 -0.5691,2.087 -0.3781,3.2246 0.5706,3.2246 0.9486,0 1.3294,-3.7964 0.5705,-4.3656 -0.095,-0.071 -0.1899,-0.108 -0.2729,-0.1158 z m -10.9967,12.4354 c -0.042,7e-4 -0.08,0 -0.1158,0.017 -1.1384,0.3795 -0.3803,2.2738 -0.3803,2.2738 3.0356,5.6918 6.259,5.8834 6.259,4.3656 0,-1.4704 -4.4498,-6.6768 -5.7629,-6.656 z m 56.2406,2.9518 c -0.08,0 -0.1079,0.036 -0.083,0.099 0.4985,1.2464 18.1312,18.4745 18.2645,46.7321 -0.8697,-5.251 -2.9415,-10.6728 -6.1929,-15.875 -8.0495,-12.8792 -15.8275,-16.365 -14.486,-15.0234 1.3416,1.3416 6.1681,9.1199 6.1681,9.1199 15.5624,23.6118 5.6373,43.4682 -3.7537,50.4444 -9.3911,6.9763 -15.8331,6.441 -9.9302,6.441 5.6342,0 16.3991,-4.1623 23.2007,-12.9398 -12.5804,21.2856 -44.9296,16.4207 -44.9296,16.4207 14.112,5.4949 27.6984,6.4582 38.0587,1.9926 0.3724,1.2021 0.5044,2.0506 0.5044,2.0506 6.8301,14.4193 25.8044,44.0137 32.6346,51.9823 6.8303,7.9686 4.5544,3.8005 0.3804,-4.5475 -4.174,-8.3481 -14.417,-28.843 -23.9035,-40.9856 -3.3637,-4.3056 -5.9046,-7.3481 -7.7308,-9.3927 8.4687,-4.3766 14.4835,-12.7201 16.3628,-25.5902 5.5689,1.4568 12.3729,3.6794 13.7501,3.6794 1.2849,0 -7.951,-7.1966 -13.1713,-10.5172 0.05,-1.5752 0.05,-3.2002 -0.01,-4.8866 -1.2786,-37.0821 -23.5177,-49.3017 -25.1354,-49.2042 z m -178.2466,6.8048 47.2281,12.0799 c 0,0 26.2892,2.9501 26.5576,1.8768 0.8049,-1.6099 -25.491,-6.9784 -25.491,-6.9784 l -48.2947,-6.9783 z m 138.716,3.6049 c -0.3438,-0.013 -0.6795,0.2677 -0.8929,0.6945 -0.7589,1.5179 -1.3229,2.6542 -1.3229,2.6542 -1.7076,7.5891 -4.1728,27.1289 -3.0345,27.5083 1.1384,0.3795 5.1207,-14.2246 6.2591,-22.7624 0.8182,-6.1365 -0.1301,-8.0625 -1.0088,-8.0946 z m 94.3407,2.3895 c -0.7226,-0.019 -1.3147,0.1985 -1.3147,0.1985 -2.087,0.7589 -1.8981,1.5227 -0.3803,2.0919 1.5178,0.5691 4.1728,-1.1428 3.0344,-1.9018 -0.4269,-0.2846 -0.9059,-0.3774 -1.3394,-0.3886 z m -8.5742,1.5131 c -3.0814,0.058 -8.4175,0.4619 -10.7652,0.5457 -3.7565,0.1342 -12.0808,1.2069 -16.7763,2.4144 0,0 -1.4746,0.5382 -0.6697,1.0748 0.8049,0.5367 8.7193,-0.1349 13.1465,-0.5374 4.4272,-0.4025 14.626,-2.1449 17.0408,-3.0841 0.9056,-0.3521 -0.1272,-0.448 -1.9761,-0.4134 z m -110.2983,12.5512 c -0.05,0.014 -0.074,0.1266 -0.074,0.3638 0,1.8973 0.7607,3.7951 0.7607,3.7951 3.2254,11.5734 15.1744,18.9743 16.1231,18.4051 0.9486,-0.5692 -7.0212,-6.2566 -11.1952,-12.3279 -3.6523,-5.3124 -5.2666,-10.3347 -5.6142,-10.2361 z m 99.6736,7.243 c -0.4269,0 -0.711,0.1405 -0.711,0.1405 -2.4665,0.9487 -2.279,1.9026 -0.9509,2.2821 1.3281,0.3794 4.3713,-0.5732 3.2329,-1.7116 -0.5692,-0.5692 -1.1441,-0.711 -1.571,-0.711 z m -58.6961,6.2094 c -0.7295,0.058 0.1901,1.91 0.1901,1.91 4.9795,8.7734 9.1224,15.7604 12.5181,21.0178 -6.014,1.6029 -12.5925,0.2232 -12.5925,0.2232 4.4475,3.1931 10.1966,4.7403 15.1887,3.6546 2.9789,4.2935 5.2475,6.8964 6.8958,7.8383 1.472,0.8411 -0.4429,-3.3524 -3.5967,-9.0124 1.9696,-1.019 3.7066,-2.5754 5.0436,-4.7542 5.1227,-8.3481 0.7611,-17.4603 0.9508,-16.5117 0.1898,0.9487 0.1835,10.2489 -6.2673,15.751 -0.6456,0.5507 -1.3403,1.0206 -2.0753,1.4222 -4.7795,-8.1329 -10.8751,-17.404 -13.378,-19.6288 -1.6602,-1.4758 -2.4953,-1.9403 -2.8773,-1.91 z m -25.3505,2.1828 c -0.054,0 -0.033,0.1476 0.05,0.4796 0.3794,1.5178 1.7032,3.6049 1.7032,3.6049 5.3124,5.8816 10.4385,7.0206 12.146,7.4001 1.7077,0.3794 -6.8287,-3.7944 -10.0541,-7.0197 -2.5198,-2.5199 -3.6518,-4.4601 -3.8447,-4.4649 z m -50.0807,12.452 c -1.0932,0 -2.4309,0.7358 -2.4309,0.7358 -24.2851,8.7276 -33.009,17.4566 -37.5625,22.0101 -4.5535,4.5535 -17.0798,15.9358 -12.5263,13.6591 4.5534,-2.2768 25.425,-11.7607 32.6346,-16.6936 7.2097,-4.9329 21.6288,-16.3185 21.2494,-18.5952 -0.1423,-0.8538 -0.7084,-1.1162 -1.3643,-1.1162 z m 143.8507,13.072 c 0.9487,0.9487 22.5785,11.5764 25.2347,11.9559 2.6562,0.3795 0.7619,-3.4178 -2.2738,-4.746 -3.0356,-1.3281 -22.9609,-7.2099 -22.9609,-7.2099 z m -129.0919,6.8958 c -0.9605,0.053 -3.5223,2.3977 -3.5223,2.3977 -10.6247,9.4864 -23.5263,19.3574 -28.4592,23.5314 -4.933,4.174 -23.912,36.0469 -20.4969,34.9085 3.4151,-1.1384 27.3252,-26.1852 30.3609,-29.6003 3.0356,-3.4151 21.6232,-27.6965 22.3821,-30.3527 0.1897,-0.664 0.056,-0.9024 -0.2646,-0.8846 z m 108.8927,0.05 c -0.1195,0 -0.2183,0.027 -0.2894,0.074 -1.1384,0.7589 0.3803,2.4639 0.3803,2.4639 6.2611,7.02 11.1924,13.4756 17.0739,16.3215 5.8816,2.8459 8.9149,4.7442 9.6738,3.9853 0.759,-0.7589 -7.0164,-8.7345 -12.7082,-13.6674 -5.3361,-4.6246 -12.3378,-9.2431 -14.1304,-9.1778 z m -180.1483,17.1236 c -1.013,0.045 -2.0918,0.4051 -2.0918,0.4051 -5.6919,2.2768 -11.0036,9.109 -6.8296,7.9706 4.174,-1.1384 11.0042,-6.0724 10.6247,-7.5902 -0.166,-0.6641 -0.9154,-0.8205 -1.7033,-0.7855 z m 98.4664,5.3164 c -1.0956,0.1351 -2.6542,2.2986 -2.6542,2.2986 -3.4151,16.6961 -6.451,37.5628 -7.2099,44.7725 -0.7589,7.2096 -0.01,9.4896 1.5131,4.9361 1.5179,-4.5535 7.5938,-36.8083 9.1116,-46.6742 0.6641,-4.3163 0.091,-5.438 -0.7606,-5.333 z m -113.4649,4.1342 c -0.7985,0.017 -2.2738,0.8185 -2.2738,0.8185 -9.8659,5.3124 -14.4127,10.6238 -11.3771,10.2443 3.0357,-0.3794 11.7618,-6.448 13.6591,-9.4836 0.7708,-1.2333 0.5381,-1.5907 -0.01,-1.5792 z m 148.3651,27.219 c -0.9843,0.3256 -0.7524,13.0638 -0.7524,13.0638 1.5179,11.0042 3.038,31.1156 4.5558,35.6691 1.5179,4.5535 1.5205,0.3769 1.141,-11.7657 -0.3794,-12.1426 -1.5183,-22.7632 -3.7951,-33.7674 -0.498,-2.4072 -0.8736,-3.291 -1.1493,-3.1998 z"
             id="path4414"
             inkscape:connector-curvature="0"
             gds_switchable="blur"
             gds_color="blur" />
          <rect
             ry="0"
             rx="0"
             y="1257.0243"
             x="-1305.4803"
             height="369.59036"
             width="356.99069"
             id="rect4226"
             style="opacity:0;color:#000000;fill:#916f6f;fill-opacity:1;fill-rule:nonzero;stroke:none;stroke-width:4;marker:none;visibility:visible;display:inline;overflow:visible;enable-background:accumulate" />
          <path
             inkscape:connector-curvature="0"
             id="path4038"
             d="m -1123.9006,1286.8421 c -0.7457,-0.051 -1.5545,1.3669 -1.5545,2.9517 0.4025,4.0247 0.2726,11.1296 1.4801,12.8736 1.2074,1.7441 1.7374,-11.4021 1.0665,-14.3536 -0.2305,-1.0146 -0.6015,-1.445 -0.9921,-1.4717 z m -33.9577,27.2438 c -0.8141,-0.063 -0.8102,1.943 -0.8102,1.943 1.328,4.5535 2.4665,7.3983 3.6049,6.6394 1.1384,-0.7589 -0.574,-6.6347 -2.0918,-8.1525 -0.2846,-0.2846 -0.515,-0.4155 -0.7029,-0.4299 z m 8.1195,1.48 c -1.4593,-0.012 -2.419,2.3955 -1.5297,3.8778 2.4665,9.2967 8.1556,29.9806 9.4837,29.9806 1.3281,0 -4.5524,-31.1182 -6.6394,-33.2052 -0.4565,-0.4566 -0.9061,-0.6498 -1.3146,-0.6532 z m -56.5878,4.1258 c -0.7671,-0.031 0.984,2.5962 0.984,2.5962 4.3637,4.933 17.6479,24.6656 22.7706,28.8396 5.1227,4.174 12.902,12.3362 14.4198,12.3362 1.5179,0 -8.1586,-12.9073 -10.8149,-16.7018 -2.6561,-3.7946 -23.7194,-24.6603 -26.3755,-26.5576 -0.4981,-0.3557 -0.8069,-0.5054 -0.984,-0.5126 z m 83.1205,4.4897 c -0.906,0.01 -1.7666,1.3803 -1.8852,2.0918 -0.1897,1.1384 -0.1901,1.3312 -0.1901,1.3312 0.5691,8.5378 1.9039,31.4943 2.8525,35.2888 0.9487,3.7946 0.9426,0.7619 0.9426,-2.2738 0,-3.0356 0.9482,-30.7418 -0.1902,-34.5364 -0.4269,-1.4229 -0.986,-1.9061 -1.5296,-1.9016 z m 22.7791,30.9066 c -0.9013,0.071 -1.799,0.5971 -2.0836,1.356 -1.3281,4.7432 -3.6019,11.9498 -2.2738,12.8984 1.3281,0.9487 7.0184,-10.8114 6.4492,-12.8984 -0.2846,-1.0435 -1.1906,-1.4272 -2.0918,-1.356 z m -32.0395,14.9489 c -1.119,0 -2.2657,0.019 -3.4396,0.066 0,0 -11.7382,1.5126 5.1263,4.1755 21.629,3.4151 26.9402,7.0198 40.7377,24.8543 0.7862,-5.5287 -7.7377,-29.0135 -42.4244,-29.096 z m -19.2071,0.066 c -0.9909,0.01 -5.2875,0.2364 -10.5999,3.2246 -6.0713,3.4151 -24.2846,16.313 -24.6641,37.5626 l 0.1902,0.9508 c 0,0 4.35,-10.8592 13.6177,-21.5139 -6.2612,12.5082 -6.6389,27.6358 -5.6472,27.2107 1.3281,-0.5691 7.2085,-21.2522 17.2641,-29.6002 1.9441,-1.614 3.851,-3.0641 5.6885,-4.3574 1.2878,1.5292 2.9824,3.4753 4.8783,5.5894 -6.8173,7.9564 -10.2836,19.4738 -10.3766,30.2617 0,0 1.8951,2.466 2.6541,-0.1902 0.4604,-1.6117 3.9944,-15.4441 12.2121,-25.1437 5.0561,5.4918 10.1212,10.7807 11.5011,11.8649 1.4506,1.1398 -4.1751,-6.377 -9.9797,-13.5599 5.1678,-5.3825 11.9888,-8.9895 20.7946,-7.4992 24.6647,4.174 34.5282,25.0444 34.5282,25.0444 0,0 -1.1319,-20.8719 -29.2117,-29.2199 -13.1727,-3.9162 -23.3039,-0.4884 -30.361,6.5319 -1.7476,-2.0646 -3.3286,-3.8628 -4.5392,-5.1098 6.7235,-4.4331 12.2338,-6.6512 14.5934,-6.9288 3.2254,-0.3794 -4.5504,-1.7067 -12.8984,0.3804 -2.9863,0.7466 -5.416,1.4186 -7.334,1.9761 8.681,-7.444 7.9045,-7.4745 7.9045,-7.4745 0,0 -0.073,0 -0.215,0 z m -101.5338,8.2682 c -2.5549,0.012 1.6453,2.1084 1.6453,2.1084 2.9515,1.6099 11.5383,4.027 22.5392,6.9784 11.001,2.9515 14.2219,2.4119 11.8071,0.802 -2.4149,-1.6099 -27.3692,-8.584 -33.8088,-9.6573 -1.0062,-0.1677 -1.7097,-0.2337 -2.1828,-0.2315 z m 87.5191,16.0156 c -11.6873,16.3136 -8.2203,42.7837 1.48,64.9717 -4.2612,4.0243 -6.4672,7.2132 -4.1754,6.4493 1.1865,-0.3956 3.3566,-1.5956 5.7051,-3.0841 2.8426,5.9841 6.1321,11.584 9.6655,16.5034 -2.7695,3.9356 -4.6978,7.1756 -3.0261,6.4327 1.0888,-0.484 3.4827,-1.5695 5.8125,-2.7616 2.1264,2.6477 4.3208,5.0393 6.5484,7.1107 21.6291,20.1111 41.7382,18.9756 41.7382,18.9756 0,0 -26.1828,-14.0399 -35.6692,-28.4593 -9.4865,-14.4193 -10.2444,-17.4542 -10.2444,-17.4542 0,0 9.483,9.1047 16.3132,13.2788 6.8302,4.174 -2.2737,-8.351 -2.2737,-8.351 0,0 11.3857,12.1454 25.8051,18.9756 14.4195,6.8302 27.6987,-2.2737 27.6987,-2.2737 0,0 -33.39,-9.4912 -52.3628,-26.9462 -18.9728,-17.455 -15.5608,-46.2938 -15.5608,-46.2938 0,0 -3.0383,15.9393 -1.141,25.8051 1.6483,8.5716 3.0113,10.838 3.3403,11.2862 -0.4213,-0.5183 -6.7869,-8.4038 -7.8879,-12.8075 -1.1383,-4.5535 -1.5213,-6.0689 -1.5213,-6.0689 0,0 -0.7619,9.4877 2.2737,14.8001 3.0357,5.3124 2.6624,5.6886 2.6624,5.6886 0,0 -6.4518,-12.5222 -7.5902,-17.8346 -1.1384,-5.3124 -0.3804,-10.6247 -0.3804,-10.6247 0,0 -4.5549,7.2093 -4.1754,14.0395 0.2835,5.104 0.9835,8.3012 1.3229,9.5911 -0.9275,-3.1961 -6.2254,-21.953 -5.8787,-32.3535 0.3795,-11.3837 1.5213,-18.5953 1.5213,-18.5953 z m 46.5915,2.5383 c -0.581,-0.054 -0.8682,1.2568 -0.8682,1.2568 -0.5691,2.087 -0.3781,3.2246 0.5706,3.2246 0.9486,0 1.3294,-3.7964 0.5705,-4.3656 -0.095,-0.071 -0.1899,-0.108 -0.2729,-0.1158 z m -10.9967,12.4354 c -0.042,7e-4 -0.08,0 -0.1158,0.017 -1.1384,0.3795 -0.3803,2.2738 -0.3803,2.2738 3.0356,5.6918 6.259,5.8834 6.259,4.3656 0,-1.4704 -4.4498,-6.6768 -5.7629,-6.656 z m 56.2406,2.9518 c -0.08,0 -0.1079,0.036 -0.083,0.099 0.4985,1.2464 18.1312,18.4745 18.2645,46.7321 -0.8697,-5.251 -2.9415,-10.6728 -6.1929,-15.875 -8.0495,-12.8792 -15.8275,-16.365 -14.486,-15.0234 1.3416,1.3416 6.1681,9.1199 6.1681,9.1199 15.5624,23.6118 5.6373,43.4682 -3.7537,50.4444 -9.3911,6.9763 -15.8331,6.441 -9.9302,6.441 5.6342,0 16.3991,-4.1623 23.2007,-12.9398 -12.5804,21.2856 -44.9296,16.4207 -44.9296,16.4207 14.112,5.4949 27.6984,6.4582 38.0587,1.9926 0.3724,1.2021 0.5044,2.0506 0.5044,2.0506 6.8301,14.4193 25.8044,44.0137 32.6346,51.9823 6.8303,7.9686 4.5544,3.8005 0.3804,-4.5475 -4.174,-8.3481 -14.417,-28.843 -23.9035,-40.9856 -3.3637,-4.3056 -5.9046,-7.3481 -7.7308,-9.3927 8.4687,-4.3766 14.4835,-12.7201 16.3628,-25.5902 5.5689,1.4568 12.3729,3.6794 13.7501,3.6794 1.2849,0 -7.951,-7.1966 -13.1713,-10.5172 0.05,-1.5752 0.05,-3.2002 -0.01,-4.8866 -1.2786,-37.0821 -23.5177,-49.3017 -25.1354,-49.2042 z m -178.2466,6.8048 47.2281,12.0799 c 0,0 26.2892,2.9501 26.5576,1.8768 0.8049,-1.6099 -25.491,-6.9784 -25.491,-6.9784 l -48.2947,-6.9783 z m 138.716,3.6049 c -0.3438,-0.013 -0.6795,0.2677 -0.8929,0.6945 -0.7589,1.5179 -1.3229,2.6542 -1.3229,2.6542 -1.7076,7.5891 -4.1728,27.1289 -3.0345,27.5083 1.1384,0.3795 5.1207,-14.2246 6.2591,-22.7624 0.8182,-6.1365 -0.1301,-8.0625 -1.0088,-8.0946 z m 94.3407,2.3895 c -0.7226,-0.019 -1.3147,0.1985 -1.3147,0.1985 -2.087,0.7589 -1.8981,1.5227 -0.3803,2.0919 1.5178,0.5691 4.1728,-1.1428 3.0344,-1.9018 -0.4269,-0.2846 -0.9059,-0.3774 -1.3394,-0.3886 z m -8.5742,1.5131 c -3.0814,0.058 -8.4175,0.4619 -10.7652,0.5457 -3.7565,0.1342 -12.0808,1.2069 -16.7763,2.4144 0,0 -1.4746,0.5382 -0.6697,1.0748 0.8049,0.5367 8.7193,-0.1349 13.1465,-0.5374 4.4272,-0.4025 14.626,-2.1449 17.0408,-3.0841 0.9056,-0.3521 -0.1272,-0.448 -1.9761,-0.4134 z m -110.2983,12.5512 c -0.05,0.014 -0.074,0.1266 -0.074,0.3638 0,1.8973 0.7607,3.7951 0.7607,3.7951 3.2254,11.5734 15.1744,18.9743 16.1231,18.4051 0.9486,-0.5692 -7.0212,-6.2566 -11.1952,-12.3279 -3.6523,-5.3124 -5.2666,-10.3347 -5.6142,-10.2361 z m 99.6736,7.243 c -0.4269,0 -0.711,0.1405 -0.711,0.1405 -2.4665,0.9487 -2.279,1.9026 -0.9509,2.2821 1.3281,0.3794 4.3713,-0.5732 3.2329,-1.7116 -0.5692,-0.5692 -1.1441,-0.711 -1.571,-0.711 z m -58.6961,6.2094 c -0.7295,0.058 0.1901,1.91 0.1901,1.91 4.9795,8.7734 9.1224,15.7604 12.5181,21.0178 -6.014,1.6029 -12.5925,0.2232 -12.5925,0.2232 4.4475,3.1931 10.1966,4.7403 15.1887,3.6546 2.9789,4.2935 5.2475,6.8964 6.8958,7.8383 1.472,0.8411 -0.4429,-3.3524 -3.5967,-9.0124 1.9696,-1.019 3.7066,-2.5754 5.0436,-4.7542 5.1227,-8.3481 0.7611,-17.4603 0.9508,-16.5117 0.1898,0.9487 0.1835,10.2489 -6.2673,15.751 -0.6456,0.5507 -1.3403,1.0206 -2.0753,1.4222 -4.7795,-8.1329 -10.8751,-17.404 -13.378,-19.6288 -1.6602,-1.4758 -2.4953,-1.9403 -2.8773,-1.91 z m -25.3505,2.1828 c -0.054,0 -0.033,0.1476 0.05,0.4796 0.3794,1.5178 1.7032,3.6049 1.7032,3.6049 5.3124,5.8816 10.4385,7.0206 12.146,7.4001 1.7077,0.3794 -6.8287,-3.7944 -10.0541,-7.0197 -2.5198,-2.5199 -3.6518,-4.4601 -3.8447,-4.4649 z m -50.0807,12.452 c -1.0932,0 -2.4309,0.7358 -2.4309,0.7358 -24.2851,8.7276 -33.009,17.4566 -37.5625,22.0101 -4.5535,4.5535 -17.0798,15.9358 -12.5263,13.6591 4.5534,-2.2768 25.425,-11.7607 32.6346,-16.6936 7.2097,-4.9329 21.6288,-16.3185 21.2494,-18.5952 -0.1423,-0.8538 -0.7084,-1.1162 -1.3643,-1.1162 z m 143.8507,13.072 c 0.9487,0.9487 22.5785,11.5764 25.2347,11.9559 2.6562,0.3795 0.7619,-3.4178 -2.2738,-4.746 -3.0356,-1.3281 -22.9609,-7.2099 -22.9609,-7.2099 z m -129.0919,6.8958 c -0.9605,0.053 -3.5223,2.3977 -3.5223,2.3977 -10.6247,9.4864 -23.5263,19.3574 -28.4592,23.5314 -4.933,4.174 -23.912,36.0469 -20.4969,34.9085 3.4151,-1.1384 27.3252,-26.1852 30.3609,-29.6003 3.0356,-3.4151 21.6232,-27.6965 22.3821,-30.3527 0.1897,-0.664 0.056,-0.9024 -0.2646,-0.8846 z m 108.8927,0.05 c -0.1195,0 -0.2183,0.027 -0.2894,0.074 -1.1384,0.7589 0.3803,2.4639 0.3803,2.4639 6.2611,7.02 11.1924,13.4756 17.0739,16.3215 5.8816,2.8459 8.9149,4.7442 9.6738,3.9853 0.759,-0.7589 -7.0164,-8.7345 -12.7082,-13.6674 -5.3361,-4.6246 -12.3378,-9.2431 -14.1304,-9.1778 z m -180.1483,17.1236 c -1.013,0.045 -2.0918,0.4051 -2.0918,0.4051 -5.6919,2.2768 -11.0036,9.109 -6.8296,7.9706 4.174,-1.1384 11.0042,-6.0724 10.6247,-7.5902 -0.166,-0.6641 -0.9154,-0.8205 -1.7033,-0.7855 z m 98.4664,5.3164 c -1.0956,0.1351 -2.6542,2.2986 -2.6542,2.2986 -3.4151,16.6961 -6.451,37.5628 -7.2099,44.7725 -0.7589,7.2096 -0.01,9.4896 1.5131,4.9361 1.5179,-4.5535 7.5938,-36.8083 9.1116,-46.6742 0.6641,-4.3163 0.091,-5.438 -0.7606,-5.333 z m -113.4649,4.1342 c -0.7985,0.017 -2.2738,0.8185 -2.2738,0.8185 -9.8659,5.3124 -14.4127,10.6238 -11.3771,10.2443 3.0357,-0.3794 11.7618,-6.448 13.6591,-9.4836 0.7708,-1.2333 0.5381,-1.5907 -0.01,-1.5792 z m 148.3651,27.219 c -0.9843,0.3256 -0.7524,13.0638 -0.7524,13.0638 1.5179,11.0042 3.038,31.1156 4.5558,35.6691 1.5179,4.5535 1.5205,0.3769 1.141,-11.7657 -0.3794,-12.1426 -1.5183,-22.7632 -3.7951,-33.7674 -0.498,-2.4072 -0.8736,-3.291 -1.1493,-3.1998 z"
             style="color:#000000;fill:#0af5f5;fill-opacity:1;fill-rule:nonzero;stroke:none;stroke-width:4;marker:none;visibility:visible;display:inline;overflow:visible;enable-background:accumulate" />
        </g>
        <path
           style="color:#000000;fill:#ffffff;fill-opacity:1;fill-rule:nonzero;stroke:none;stroke-width:4;marker:none;visibility:visible;display:inline;overflow:visible;enable-background:accumulate"
           d="m -4487.5031,5383.5413 c 18.6441,86.0499 74.5766,150.5873 110.4307,185.0073 35.8542,34.42 58.8008,34.42 58.8008,34.42 0,0 -64.5374,-43.025 -100.3916,-103.2599 -35.8541,-60.235 -41.5908,-107.5624 -41.5908,-101.8258 0,5.7367 51.63,48.7616 68.84,64.5375 17.21,15.7758 -17.21,-37.2883 -17.21,-37.2883 0,0 54.4983,63.1032 114.7332,93.2207 60.2349,30.1175 60.2349,24.3808 60.2349,24.3808 0,0 -108.9965,-51.6299 -141.9823,-96.0891 -32.9858,-44.4591 -38.7225,-68.8399 -38.7225,-63.1032 0,5.7366 21.5125,51.6299 15.7758,47.3274 -5.7366,-4.3025 -24.3808,-24.3808 -24.3808,-24.3808 0,0 25.815,32.9858 12.9075,25.815 -12.9075,-7.1708 -35.8541,-20.0783 -44.4591,-37.2883 -8.605,-17.21 -7.1708,-10.0392 -7.1708,-10.0392 0,0 10.0391,70.2741 7.1708,64.5375 -2.8683,-5.7367 -31.5516,-60.235 -31.5516,-60.235 z"
           id="path4280"
           inkscape:connector-curvature="0"
           transform="matrix(0.26458334,0,0,0.26458334,-6.3049604e-6,18.562493)" />
        <path
           style="color:#000000;fill:#ffffff;fill-opacity:1;fill-rule:nonzero;stroke:none;stroke-width:4;marker:none;visibility:visible;display:inline;overflow:visible;enable-background:accumulate"
           d="m -4154.7768,5590.0611 c 77.445,-11.4734 84.6158,-83.1816 88.9183,-120.4699 4.3025,-37.2883 0,-67.4058 0,-67.4058 0,0 12.9075,63.1033 -1.4342,110.4307 -14.3416,47.3275 -87.4841,77.445 -87.4841,77.445 z"
           id="path4282"
           inkscape:connector-curvature="0"
           transform="matrix(0.26458334,0,0,0.26458334,-6.3049604e-6,18.562493)" />
        <path
           style="color:#000000;fill:#ffffff;fill-opacity:1;fill-rule:nonzero;stroke:none;stroke-width:4;marker:none;visibility:visible;display:inline;overflow:visible;enable-background:accumulate"
           d="m -4116.0543,5542.7336 c 34.42,-31.5516 31.5516,-87.4841 31.5516,-87.4841 0,0 2.8684,4.3025 2.8684,35.8542 0,31.5516 -7.1709,57.3666 -7.1709,57.3666 0,0 -22.9466,38.7224 -2.8683,10.0391 20.0783,-28.6833 34.42,-83.1815 27.2491,-70.2741 -7.1708,12.9075 -51.6299,54.4983 -51.6299,54.4983 z"
           id="path4284"
           inkscape:connector-curvature="0"
           transform="matrix(0.26458334,0,0,0.26458334,-6.3049604e-6,18.562493)" />
        <path
           style="color:#000000;fill:#ffffff;fill-opacity:1;fill-rule:nonzero;stroke:none;stroke-width:4;marker:none;visibility:visible;display:inline;overflow:visible;enable-background:accumulate"
           d="m -4478.8981,5132.5624 c -54.4983,25.8149 -64.5374,65.9716 -64.5374,65.9716 0,0 37.2882,-37.2883 57.3666,-53.0642 20.0783,-15.7758 7.1708,-12.9074 7.1708,-12.9074 z"
           id="path4286"
           inkscape:connector-curvature="0"
           transform="matrix(0.26458334,0,0,0.26458334,-6.3049604e-6,18.562493)" />
        <path
           style="color:#000000;fill:#ffffff;fill-opacity:1;fill-rule:nonzero;stroke:none;stroke-width:4;marker:none;visibility:visible;display:inline;overflow:visible;enable-background:accumulate"
           d="m -4471.7273,5145.4698 c -40.1566,24.3808 -48.7616,51.63 -48.7616,51.63 0,0 18.6441,-25.815 50.1958,-44.4591 31.5516,-18.6442 37.2883,-20.0783 31.5516,-18.6442 -5.7366,1.4342 -32.9858,11.4733 -32.9858,11.4733 z"
           id="path4288"
           inkscape:connector-curvature="0"
           transform="matrix(0.26458334,0,0,0.26458334,-6.3049604e-6,18.562493)" />
      </g>
    </g>
  </g>
</svg>
