<?xml version="1.0" encoding="UTF-8" standalone="no"?>
<!-- Created with Inkscape (http://www.inkscape.org/) -->

<svg
   xmlns:dc="http://purl.org/dc/elements/1.1/"
   xmlns:cc="http://creativecommons.org/ns#"
   xmlns:rdf="http://www.w3.org/1999/02/22-rdf-syntax-ns#"
   xmlns:svg="http://www.w3.org/2000/svg"
   xmlns="http://www.w3.org/2000/svg"
   xmlns:sodipodi="http://sodipodi.sourceforge.net/DTD/sodipodi-0.dtd"
   xmlns:inkscape="http://www.inkscape.org/namespaces/inkscape"
   width="494.54544"
   height="512"
   viewBox="0 0 130.84848 135.46667"
   version="1.1"
   id="svg23489"
   inkscape:version="0.48.5 r10040"
   sodipodi:docname="strike_05.svg">
  <defs
     id="defs23483">
    <filter
       inkscape:collect="always"
       id="filter4404"
       color-interpolation-filters="sRGB">
      <feGaussianBlur
         inkscape:collect="always"
         stdDeviation="0.45411664"
         id="feGaussianBlur4406" />
    </filter>
    <filter
       inkscape:collect="always"
       id="filter4410"
       color-interpolation-filters="sRGB">
      <feGaussianBlur
         inkscape:collect="always"
         stdDeviation="3.2687384"
         id="feGaussianBlur4412" />
    </filter>
    <filter
       inkscape:collect="always"
       id="filter4416"
       color-interpolation-filters="sRGB">
      <feGaussianBlur
         inkscape:collect="always"
         stdDeviation="4.2089162"
         id="feGaussianBlur4418" />
    </filter>
    <filter
       inkscape:collect="always"
       id="filter4442"
       color-interpolation-filters="sRGB">
      <feGaussianBlur
         inkscape:collect="always"
         stdDeviation="1.6753654"
         id="feGaussianBlur4444" />
    </filter>
    <filter
       inkscape:collect="always"
       id="filter4464"
       color-interpolation-filters="sRGB">
      <feGaussianBlur
         inkscape:collect="always"
         stdDeviation="1.7634851"
         id="feGaussianBlur4466" />
    </filter>
  </defs>
  <sodipodi:namedview
     id="base"
     pagecolor="#2b2e30"
     bordercolor="#666666"
     borderopacity="1.0"
     inkscape:pageopacity="0"
     inkscape:pageshadow="2"
     inkscape:zoom="0.34863486"
     inkscape:cx="-1263.6332"
     inkscape:cy="-25.1112"
     inkscape:document-units="px"
     inkscape:current-layer="layer1"
     showgrid="false"
     inkscape:pagecheckerboard="false"
     showborder="true"
     units="px"
     inkscape:window-width="1920"
     inkscape:window-height="1017"
     inkscape:window-x="-8"
     inkscape:window-y="-8"
     inkscape:window-maximized="1"
     inkscape:showpageshadow="false"
     guidetolerance="28"
     showguides="true"
     inkscape:guide-bbox="true">
    <inkscape:grid
       type="xygrid"
       id="grid24034"
       spacingx="1px"
       spacingy="1px"
       empspacing="8"
       visible="true"
       enabled="true"
       snapvisiblegridlinesonly="true"
       originx="3872.2388px"
       originy="4587.2207px" />
  </sodipodi:namedview>
  <metadata
     id="metadata23486">
    <rdf:RDF>
      <cc:Work
         rdf:about="">
        <dc:format>image/svg+xml</dc:format>
        <dc:type
           rdf:resource="http://purl.org/dc/dcmitype/StillImage" />
        <dc:title></dc:title>
        <cc:license
           rdf:resource="" />
        <dc:creator>
          <cc:Agent>
            <dc:title>Robert Brooks</dc:title>
          </cc:Agent>
        </dc:creator>
      </cc:Work>
    </rdf:RDF>
  </metadata>
  <g
     inkscape:label="Layer 1"
     inkscape:groupmode="layer"
     id="layer1"
     transform="translate(1024.5299,-1375.2355)">
    <g
       id="g4468">
      <g
         transform="matrix(0.36653193,0,0,0.36653193,-799.60292,914.49596)"
         inkscape:export-ydpi="90"
         inkscape:export-xdpi="90"
         inkscape:export-filename="C:\Users\rober\Desktop\assets\ASSETS_2024\ESSENTIALS\sword_effects\1.png"
         id="g4311">
        <g
           id="g4254"
           transform="translate(691.81767,0)">
          <rect
             style="opacity:0;color:#000000;fill:#916f6f;fill-opacity:1;fill-rule:nonzero;stroke:none;stroke-width:4;marker:none;visibility:visible;display:inline;overflow:visible;enable-background:accumulate"
             id="rect4232"
             width="356.99069"
             height="369.59036"
             x="-1305.4803"
             y="1257.0243"
             rx="0"
             ry="0" />
          <path
             sodipodi:nodetypes="cccccccccccscccccscccccsccccsccccscccccccccccccccscccsccscccccsccscccscscccccccccsccccsccccsccccccccscccsccssccccccccscc"
             inkscape:connector-curvature="0"
             id="path4178"
             d="m -1121.6427,1270.9223 -1.5214,1.8934 c -0.7589,3.4151 0,6.0727 1.1411,4.1754 1.1383,-1.8973 0.3803,-6.0688 0.3803,-6.0688 z m -35.5451,9.0454 c -0.9962,-0.042 -1.2651,3.4726 -1.2651,3.4726 -0.3794,6.8303 0.383,11.7605 1.5214,9.4837 1.1384,-2.2767 1.8982,-10.6208 0.3803,-12.5181 -0.2371,-0.2964 -0.4521,-0.4304 -0.6366,-0.4382 z m -72.8349,4.4896 c -2.1348,-0.055 1.3974,3.9192 1.3974,3.9192 5.9029,6.9762 7.5131,10.7247 11.2695,11.2613 3.7565,0.5366 -8.0506,-13.9501 -11.807,-15.0233 -0.3521,-0.1007 -0.639,-0.1515 -0.8599,-0.1572 z m 109.1903,60.0191 c -1.8237,0.014 -3.9208,0.2129 -6.3169,0.6863 l -4.2416,2.5549 c 0,0 1.9234,-0.7089 9.3348,-1.0914 7.4114,-0.3825 11.9228,1.2485 11.9228,1.2485 0,0 -2.7965,-3.4574 -10.6991,-3.3983 z m -64.6328,12.3114 c -1.3793,0.048 -7.2738,0.8418 -13.378,10.4676 l -1.0748,4.8286 c 0,0 0.8092,-1.8729 5.6389,-7.5075 4.8297,-5.6347 9.1199,-7.7804 9.1199,-7.7804 0,0 -0.1089,-0.015 -0.306,-0.01 z m 52.6108,4.3656 c 0,0 3.0672,0.7257 12.9067,6.5816 9.8395,5.8558 14.2296,11.8152 14.2296,11.8152 0,0 -0.9497,-10.3377 -19.513,-18.0412 z m 47.2695,3.6298 c 0,0 2.9606,1.0711 12.0798,7.9954 9.1193,6.9242 12.8241,13.3366 12.8241,13.3366 0,0 0.2086,-10.3761 -17.3716,-20.1166 z m -188.433,3.605 c -1.4904,-0.013 -1.0258,0.3469 1.389,1.5544 4.2931,2.1465 10.7322,2.6789 10.7322,2.6789 0,0 -1.3451,-3.4855 -5.1015,-3.7538 -3.5216,-0.2348 -5.8605,-0.4695 -7.0197,-0.4795 z m 176.7003,16.1726 c -0.8481,0.1268 0.1654,2.282 0.1654,2.282 5.6346,4.8297 6.7055,6.1764 6.7055,6.1764 0,0 0.2702,-3.222 -4.2912,-6.9784 -1.4254,-1.1739 -2.1942,-1.5376 -2.5797,-1.48 z m -179.0816,28.1864 c -2.1067,0.041 -3.1394,0.3939 -2.1332,1.1989 2.6832,2.1465 10.1969,4.8286 17.1731,4.8286 6.9762,0 0,-4.2912 0,-4.2912 -5.0309,-1.0062 -11.5287,-1.8044 -15.0399,-1.7363 z m 73.2152,8.7064 c -0.061,0.046 -0.041,0.5247 -0.041,1.0584 0,1.7075 0.1902,7.5902 0.1902,7.5902 0.3795,14.0399 8.723,24.2838 8.723,24.2838 0,0 -3.4132,-11.1977 -6.2591,-22.9609 -1.9565,-8.0872 -2.4777,-10.0729 -2.6127,-9.9715 z m 183.0421,18.5126 -0.1902,9.1116 c -0.1897,26.9414 -9.2935,45.343 -9.2935,45.343 0,0 6.8302,-3.9894 10.6247,-23.5314 3.7946,-19.542 -1.141,-30.9232 -1.141,-30.9232 z m -180.9998,35.8593 c -2.087,8.1583 12.7137,27.1317 18.5952,32.2544 5.8816,5.1227 7.9706,3.9853 7.9706,3.9853 0,0 -18.2178,-14.9901 -26.5658,-36.2397 z m 190.1114,3.605 c 0,0 -0.5671,3.6012 -2.6541,9.1033 -2.087,5.5021 -17.2649,33.3948 -42.4987,43.8299 0,0 22.0051,-3.2234 34.1477,-20.4887 12.1427,-17.2653 11.0051,-32.4445 11.0051,-32.4445 z m -158.0886,11.4928 c -0.7902,0 1.5627,5.3909 1.5627,5.3909 7.9686,12.9015 15.9329,15.1805 15.9329,15.1805 0,0 -9.1,-9.296 -14.7918,-17.4543 -1.6009,-2.2945 -2.3946,-3.1183 -2.7038,-3.1171 z m 191.5253,9.3183 c -0.1924,0.021 -0.3461,0.2174 -0.43,0.6367 -0.5366,2.6831 -2.1414,3.2245 -2.1414,3.2245 2.1465,3.7565 5.9035,6.9736 5.9035,3.7539 0,-2.7168 -2.2935,-7.7279 -3.3321,-7.6151 z m -64.7402,9.5415 c 0,0 -3.9851,3.2273 -11.005,4.3657 l -5.1263,1.141 c 0,0 3.4201,1.3263 9.3017,-0.7607 5.8816,-2.087 6.8296,-4.746 6.8296,-4.746 z m -218.6617,18.7524 c -0.1854,0 -0.482,0.08 -0.9012,0.248 -5.3663,2.1466 -8.0533,2.6872 -8.0533,2.6872 -5.9029,5.3663 -9.1225,7.5076 -5.366,7.5076 3.4629,0 16.5084,-10.4856 14.3205,-10.4428 z m 125.5862,4.1672 c -1.1465,-0.051 -0.083,1.7528 -0.083,1.7528 7.3994,8.9173 26.9378,9.1033 26.9378,9.1033 0,0 -16.1219,-4.1777 -22.7624,-8.7312 -2.2826,-1.5653 -3.4922,-2.0982 -4.0928,-2.1249 z m 145.419,1.7929 c -0.4323,-0.2637 -0.8437,-0.3776 -1.2143,-0.2963 -2.9651,0.6503 -1.6984,4.6461 -1.6984,4.6461 5.3322,6.6001 13.9517,14.0343 11.9456,10.2011 -1.7553,-3.3542 -6.0091,-12.7019 -9.0329,-14.5509 z m -240.4623,33.4876 c -1.677,0 -4.6137,1.0501 -4.6137,1.0501 -9.6594,7.5128 -17.175,15.56 -12.8819,15.0234 4.2931,-0.5367 16.1015,-11.2662 18.248,-14.486 0.8049,-1.2074 0.2538,-1.5875 -0.7524,-1.5875 z m 210.9002,7.5347 c -0.1021,-0.032 -0.1979,-0.029 -0.2853,0 -1.8591,0.5359 0.076,5.0902 0.076,5.0902 5.4234,11.293 11.7979,17.8255 9.6787,12.0857 -2.0196,-5.4708 -7.3636,-16.6049 -9.4695,-17.172 z m -118.7343,4.446 c -1.2282,0.133 -2.869,5.705 -2.869,5.705 -1.0733,15.0257 3.2179,25.7567 4.2912,20.9269 1.0733,-4.8297 0.5358,-20.3884 -0.5374,-25.2181 -0.2348,-1.0565 -0.5408,-1.4511 -0.8848,-1.4138 z"
             style="color:#000000;fill:#0af5f5;fill-opacity:1;fill-rule:nonzero;stroke:none;stroke-width:4;marker:none;visibility:visible;display:inline;overflow:visible;enable-background:accumulate" />
        </g>
      </g>
      <path
         sodipodi:nodetypes="cccccccccccscccccscccccsccccsccccscccccccccccccccscccsccscccccsccscccscscccccccccsccccsccccsccccccccscccsccssccccccccscc"
         inkscape:connector-curvature="0"
         id="path4178-4"
         d="m -957.14753,1380.3296 -0.55764,0.694 c -0.27816,1.2517 0,2.2258 0.41825,1.5304 0.41723,-0.6954 0.13939,-2.2244 0.13939,-2.2244 z m -13.02841,3.3154 c -0.36514,-0.015 -0.4637,1.2728 -0.4637,1.2728 -0.13906,2.5035 0.14038,4.3106 0.55764,3.4761 0.41726,-0.8345 0.69575,-3.8929 0.13939,-4.5883 -0.0869,-0.1086 -0.16571,-0.1577 -0.23333,-0.1606 z m -26.69632,1.6456 c -0.78247,-0.02 0.51219,1.4365 0.51219,1.4365 2.16361,2.557 2.7538,3.9309 4.13064,4.1276 1.37687,0.1967 -2.95081,-5.1131 -4.32765,-5.5065 -0.12905,-0.037 -0.23421,-0.055 -0.31518,-0.058 z m 40.02173,21.9989 c -0.66844,0.01 -1.43709,0.078 -2.31534,0.2515 l -1.55468,0.9365 c 0,0 0.70498,-0.2598 3.4215,-0.4 2.71651,-0.1402 4.37009,0.4576 4.37009,0.4576 0,0 -1.02501,-1.2673 -3.92157,-1.2456 z m -23.68998,4.5125 c -0.50556,0.018 -2.66608,0.3086 -4.90347,3.8367 l -0.39394,1.7699 c 0,0 0.29659,-0.6865 2.06683,-2.7518 1.77024,-2.0653 3.34274,-2.8517 3.34274,-2.8517 0,0 -0.0399,-0.01 -0.11216,0 z m 19.28354,1.6001 c 0,0 1.12422,0.266 4.73072,2.4124 3.60649,2.1464 5.2156,4.3307 5.2156,4.3307 0,0 -0.3481,-3.7891 -7.15214,-6.6127 z m 17.32578,1.3305 c 0,0 1.08515,0.3926 4.42763,2.9306 3.34251,2.5379 4.70044,4.8882 4.70044,4.8882 0,0 0.0765,-3.8031 -6.36724,-7.3733 z m -69.06671,1.3213 c -0.5463,0 -0.376,0.1272 0.5091,0.5698 1.5736,0.7867 3.9337,0.9819 3.9337,0.9819 0,0 -0.493,-1.2776 -1.8699,-1.3759 -1.2907,-0.086 -2.148,-0.1721 -2.5729,-0.1758 z m 64.7663,5.9278 c -0.31086,0.046 0.0606,0.8364 0.0606,0.8364 2.06526,1.7703 2.45778,2.2639 2.45778,2.2639 0,0 0.099,-1.181 -1.57286,-2.5578 -0.52246,-0.4303 -0.80425,-0.5636 -0.94555,-0.5425 z m -65.6391,10.3312 c -0.7722,0.015 -1.1507,0.1444 -0.7819,0.4395 0.9835,0.7867 3.7375,1.7698 6.2945,1.7698 2.557,0 0,-1.5729 0,-1.5729 -1.844,-0.3688 -4.2257,-0.6613 -5.5126,-0.6364 z m 26.83568,3.1912 c -0.0224,0.017 -0.015,0.1923 -0.015,0.3879 0,0.6259 0.0697,2.7821 0.0697,2.7821 0.1391,5.1461 3.19726,8.9008 3.19726,8.9008 0,0 -1.25104,-4.1043 -2.29416,-8.4159 -0.71711,-2.9642 -0.90815,-3.6921 -0.95763,-3.6549 z m 67.09078,6.7855 -0.0697,3.3396 c -0.0695,9.8749 -3.40637,16.6197 -3.40637,16.6197 0,0 2.50349,-1.4622 3.8943,-8.625 1.39084,-7.1628 -0.41822,-11.3343 -0.41822,-11.3343 z m -66.34221,13.1435 c -0.76495,2.9903 4.65998,9.9447 6.81574,11.8223 2.15579,1.8776 2.92148,1.4607 2.92148,1.4607 0,0 -6.67741,-5.4943 -9.73722,-13.283 z m 69.6819,1.3214 c 0,0 -0.20786,1.3199 -0.97281,3.3366 -0.76496,2.0167 -6.32814,12.2403 -15.57713,16.0651 0,0 8.06557,-1.1815 12.51622,-7.5098 4.45069,-6.3283 4.03372,-11.8919 4.03372,-11.8919 z m -57.94452,4.2125 c -0.28963,0 0.57278,1.9759 0.57278,1.9759 2.92075,4.7288 5.83992,5.5641 5.83992,5.5641 0,0 -3.33544,-3.4072 -5.42167,-6.3975 -0.58678,-0.841 -0.8777,-1.143 -0.99103,-1.1425 z m 70.20014,3.4154 c -0.0705,0.01 -0.12686,0.08 -0.15761,0.2334 -0.19668,0.9834 -0.78489,1.1819 -0.78489,1.1819 0.78676,1.3768 2.16382,2.556 2.16382,1.3759 0,-0.9958 -0.84064,-2.8325 -1.22132,-2.7912 z m -23.72935,3.4973 c 0,0 -1.46067,1.1829 -4.03368,1.6001 l -1.87896,0.4183 c 0,0 1.25358,0.4861 3.40937,-0.2789 2.15579,-0.7649 2.50327,-1.7395 2.50327,-1.7395 z m -80.14652,6.8733 c -0.068,0 -0.1766,0.029 -0.3303,0.091 -1.9669,0.7868 -2.9518,0.985 -2.9518,0.985 -2.1636,1.9669 -3.3437,2.7518 -1.9668,2.7518 1.2693,0 6.0509,-3.8434 5.2489,-3.8277 z m 46.03138,1.5274 c -0.42023,-0.019 -0.0304,0.6425 -0.0304,0.6425 2.71211,3.2685 9.87356,3.3366 9.87356,3.3366 0,0 -5.90919,-1.5312 -8.34314,-3.2002 -0.83665,-0.5737 -1.28001,-0.7691 -1.50015,-0.7789 z m 53.3007,0.6572 c -0.15845,-0.097 -0.30924,-0.1384 -0.44508,-0.1086 -1.0868,0.2384 -0.62251,1.7029 -0.62251,1.7029 1.95442,2.4192 5.11374,5.1441 4.37844,3.7391 -0.64337,-1.2295 -2.20253,-4.6557 -3.31085,-5.3334 z m -88.13711,12.2743 c -0.61467,0 -1.69107,0.3849 -1.69107,0.3849 -3.5405,2.7536 -6.2952,5.7032 -4.7216,5.5065 1.5735,-0.1967 5.90169,-4.1294 6.68845,-5.3096 0.29502,-0.4425 0.093,-0.5818 -0.27578,-0.5818 z m 77.30166,2.7617 c -0.0374,-0.012 -0.0725,-0.011 -0.10457,0 -0.68142,0.1964 0.0279,1.8657 0.0279,1.8657 1.98785,4.1392 4.3243,6.5336 3.54755,4.4298 -0.74025,-2.0052 -2.69899,-6.0862 -3.47087,-6.2941 z m -43.51991,1.6296 c -0.45018,0.049 -1.05158,2.091 -1.05158,2.091 -0.3934,5.5074 1.17946,9.4407 1.57286,7.6704 0.3934,-1.7702 0.19638,-7.473 -0.19698,-9.2432 -0.0861,-0.3873 -0.19822,-0.5319 -0.3243,-0.5182 z"
         style="color:#000000;fill:#00ccff;fill-opacity:1;fill-rule:nonzero;stroke:none;stroke-width:0.79375005;marker:none;visibility:visible;display:inline;overflow:visible;filter:url(#filter4464);enable-background:accumulate"
         gds_color="blur"
         gds_switchable="blur" />
    </g>
  </g>
</svg>
