<?xml version="1.0" encoding="UTF-8" standalone="no"?>
<!-- Created with Inkscape (http://www.inkscape.org/) -->

<svg
   xmlns:dc="http://purl.org/dc/elements/1.1/"
   xmlns:cc="http://creativecommons.org/ns#"
   xmlns:rdf="http://www.w3.org/1999/02/22-rdf-syntax-ns#"
   xmlns:svg="http://www.w3.org/2000/svg"
   xmlns="http://www.w3.org/2000/svg"
   xmlns:xlink="http://www.w3.org/1999/xlink"
   xmlns:sodipodi="http://sodipodi.sourceforge.net/DTD/sodipodi-0.dtd"
   xmlns:inkscape="http://www.inkscape.org/namespaces/inkscape"
   width="436.44745"
   height="709.00433"
   viewBox="0 0 115.47672 187.59073"
   version="1.1"
   id="svg23489"
   inkscape:version="0.48.5 r10040"
   sodipodi:docname="slash_03.svg">
  <defs
     id="defs23483">
    <linearGradient
       inkscape:collect="always"
       xlink:href="#linearGradient56908"
       id="linearGradient56861"
       gradientUnits="userSpaceOnUse"
       gradientTransform="matrix(0.26458334,0,0,0.26458334,-10546.714,4018.1013)"
       x1="14533.545"
       y1="482.7551"
       x2="15026.226"
       y2="1336.1028" />
    <linearGradient
       id="linearGradient56908"
       inkscape:collect="always">
      <stop
         id="stop56910"
         offset="0"
         style="stop-color:#ffffff;stop-opacity:1" />
      <stop
         id="stop56912"
         offset="1"
         style="stop-color:#ebf4f7;stop-opacity:1" />
    </linearGradient>
    <filter
       inkscape:collect="always"
       id="filter4469"
       color-interpolation-filters="sRGB">
      <feGaussianBlur
         inkscape:collect="always"
         stdDeviation="0.86427134"
         id="feGaussianBlur4471" />
    </filter>
    <filter
       inkscape:collect="always"
       id="filter4483"
       color-interpolation-filters="sRGB">
      <feGaussianBlur
         inkscape:collect="always"
         stdDeviation="4.2032075"
         id="feGaussianBlur4485" />
    </filter>
    <filter
       inkscape:collect="always"
       id="filter4525"
       color-interpolation-filters="sRGB">
      <feGaussianBlur
         inkscape:collect="always"
         stdDeviation="6.6451674"
         id="feGaussianBlur4527" />
    </filter>
    <filter
       inkscape:collect="always"
       id="filter3855"
       color-interpolation-filters="sRGB">
      <feGaussianBlur
         inkscape:collect="always"
         stdDeviation="1.4679456"
         id="feGaussianBlur3857" />
    </filter>
    <filter
       inkscape:collect="always"
       id="filter3895"
       color-interpolation-filters="sRGB">
      <feGaussianBlur
         inkscape:collect="always"
         stdDeviation="1.8327628"
         id="feGaussianBlur3897" />
    </filter>
    <filter
       inkscape:collect="always"
       id="filter3941"
       color-interpolation-filters="sRGB">
      <feGaussianBlur
         inkscape:collect="always"
         stdDeviation="1.3186754"
         id="feGaussianBlur3943" />
    </filter>
    <filter
       inkscape:collect="always"
       id="filter3949"
       color-interpolation-filters="sRGB">
      <feGaussianBlur
         inkscape:collect="always"
         stdDeviation="0.59760691"
         id="feGaussianBlur3951" />
    </filter>
    <filter
       inkscape:collect="always"
       id="filter3955"
       color-interpolation-filters="sRGB">
      <feGaussianBlur
         inkscape:collect="always"
         stdDeviation="4.2032075"
         id="feGaussianBlur3957" />
    </filter>
  </defs>
  <sodipodi:namedview
     id="base"
     pagecolor="#2b2e30"
     bordercolor="#666666"
     borderopacity="1.0"
     inkscape:pageopacity="0"
     inkscape:pageshadow="2"
     inkscape:zoom="0.38746562"
     inkscape:cx="-192.08939"
     inkscape:cy="354.0086"
     inkscape:document-units="px"
     inkscape:current-layer="layer1"
     showgrid="false"
     inkscape:pagecheckerboard="false"
     showborder="true"
     units="px"
     inkscape:window-width="1920"
     inkscape:window-height="1017"
     inkscape:window-x="-8"
     inkscape:window-y="-8"
     inkscape:window-maximized="1"
     inkscape:showpageshadow="false"
     guidetolerance="28"
     showguides="true"
     inkscape:guide-bbox="true">
    <inkscape:grid
       type="xygrid"
       id="grid24034"
       spacingx="1px"
       spacingy="1px"
       empspacing="8"
       visible="true"
       enabled="true"
       snapvisiblegridlinesonly="true"
       originx="-593.70583px"
       originy="-1242.8596px" />
  </sodipodi:namedview>
  <metadata
     id="metadata23486">
    <rdf:RDF>
      <cc:Work
         rdf:about="">
        <dc:format>image/svg+xml</dc:format>
        <dc:type
           rdf:resource="http://purl.org/dc/dcmitype/StillImage" />
        <dc:title></dc:title>
        <cc:license
           rdf:resource="" />
        <dc:creator>
          <cc:Agent>
            <dc:title>Robert Brooks</dc:title>
          </cc:Agent>
        </dc:creator>
      </cc:Work>
    </rdf:RDF>
  </metadata>
  <g
     inkscape:label="Layer 1"
     inkscape:groupmode="layer"
     id="layer1"
     transform="translate(-157.08466,219.43068)">
    <g
       id="g3992">
      <path
         gds_color="blur"
         gds_switchable="blur"
         id="path4216-9"
         d="m 229.56426,-159.13049 c 1.97262,4.6028 3.74626,9.60688 5.30823,14.84974 -0.2652,-0.39872 -0.44823,-0.60729 -0.4961,-0.57051 -0.0461,0.0354 0.0228,0.27698 0.24802,0.71934 1.03005,2.02223 2.47222,8.31784 2.47222,8.31784 0.0798,0.22821 0.15441,0.4516 0.23151,0.67799 0.004,0.0107 0.005,0.0223 0.008,0.0331 3.41315,14.28571 5.25235,29.62074 5.10151,43.234574 -1.33239,7.55336 -3.7207,9.51674 -3.7207,9.51674 l -0.33073,-19.281514 c -1.32329,30.681274 -14.55844,48.962534 -21.48914,55.893224 0,0 10.7847,-5.3138 15.93289,-14.72571 6.73272,-12.30875 7.51581,-17.31367 7.51581,-17.31367 l -0.43821,8.13593 c -3.92554,16.2067 -11.31919,26.82214 -11.31919,26.82214 12.35972,-8.77888 17.6526,-23.83965 19.38073,-30.98932 -1.79475,17.443 -5.39851,29.56278 -5.77125,30.30306 0.13861,-0.16733 2.28849,-2.80466 4.55581,-8.30131 1.47537,-1.7128 3.0535,-3.50055 4.71289,-6.59804 -1.42394,5.9045 -3.03906,10.60028 -4.58886,13.62604 2.61374,-2.61373 30.56933,-45.05441 1.96781,-98.673054 5.5058,16.51732 7.23609,34.25655 6.88745,50.254304 -1.15493,-6.38137 -3.06678,-8.355274 -3.10885,-8.102874 -0.0746,4.402904 -0.33933,8.957354 -0.71107,13.394544 -0.77949,-20.767624 -5.82083,-36.917654 -5.82083,-36.917654 l 1.63711,11.43496 c 0.61523,4.84735 0.3638,9.23562 0.3638,9.23562 -0.12454,3.64277 -0.32861,7.089944 -0.57878,10.335284 C 246.68085,-126.99444 229.564,-159.13046 229.564,-159.13046 z m -6.77167,62.681454 c -0.0279,0.007 -0.0603,0.12703 -0.0909,0.37207 -0.32673,2.61372 -3.74838,21.56882 -20.58791,37.24837 9.4748,-5.81449 15.36544,-11.7668 18.30588,-19.9347 2.66481,-7.40216 2.64303,-17.75485 2.37297,-17.68574 z m 11.34401,1.67845 c -3.26715,25.81056 -29.40182,48.03014 -29.40182,48.03014 0,0 14.05281,-4.57905 22.54745,-19.9347 8.49463,-15.35565 6.85437,-28.09544 6.85437,-28.09544 z"
         style="color:#000000;fill:#00ccff;fill-opacity:1;fill-rule:nonzero;stroke:none;stroke-width:10;marker:none;visibility:visible;display:inline;overflow:visible;filter:url(#filter3941);enable-background:accumulate"
         inkscape:connector-curvature="0" />
      <g
         inkscape:export-ydpi="90"
         inkscape:export-xdpi="90"
         inkscape:export-filename="C:\Users\rober\Desktop\assets\ASSETS_2024\ESSENTIALS\sword_effects\slash\1.png"
         transform="translate(-326.08254,-51.150204)"
         id="g4557">
        <g
           id="g4044"
           transform="translate(417.77027,-147.85477)"
           inkscape:export-filename="C:\Users\rober\Desktop\assets\ASSETS_2024\ESSENTIALS\sword_effects\slash\1.png"
           inkscape:export-xdpi="90"
           inkscape:export-ydpi="90">
          <rect
             style="opacity:0;color:#000000;fill:#000000;fill-opacity:1;fill-rule:nonzero;stroke:none;stroke-width:10;marker:none;visibility:visible;display:inline;overflow:visible;enable-background:accumulate"
             id="rect4042"
             width="115.47672"
             height="187.59073"
             x="65.396935"
             y="-20.425711" />
          <path
             id="path4216"
             transform="matrix(0.26458333,0,0,0.26458333,-281.03324,-20.425706)"
             d="m 1583.2812,227.90625 c 7.4556,17.3964 14.1591,36.30947 20.0626,56.125 -1.0023,-1.50699 -1.6941,-2.29528 -1.875,-2.15625 -0.1743,0.1338 0.086,1.04683 0.9374,2.71875 3.8931,7.64308 9.3438,31.4375 9.3438,31.4375 0.3017,0.86254 0.5836,1.70686 0.875,2.5625 0.014,0.0406 0.017,0.0844 0.031,0.125 12.9001,53.99322 19.8514,111.95238 19.2813,163.40625 -5.0358,28.5481 -14.0625,35.96875 -14.0625,35.96875 l -1.25,-72.875 c -5.0014,115.96074 -55.024,185.05526 -81.2188,211.25 0,0 40.7611,-20.08368 60.2188,-55.65625 25.4465,-46.52124 28.4062,-65.4375 28.4062,-65.4375 l -1.6562,30.75 c -14.8367,61.25365 -42.7812,101.375 -42.7812,101.375 46.7139,-33.18001 66.7185,-90.10263 73.25,-117.125 -6.7833,65.92633 -20.4038,111.73336 -21.8126,114.53125 0.5239,-0.6324 8.6494,-10.60026 17.2188,-31.375 5.5762,-6.47361 11.5408,-13.23046 17.8125,-24.9375 -5.3818,22.31622 -11.4862,40.06405 -17.3437,51.5 9.8787,-9.87865 115.5376,-170.28439 7.4374,-372.9375 20.8093,62.42764 27.349,129.47358 26.0313,189.9375 -4.3651,-24.11856 -11.591,-31.57897 -11.75,-30.625 -0.282,16.64086 -1.2825,33.85452 -2.6875,50.625 -2.9461,-78.49179 -22,-139.53125 -22,-139.53125 l 6.1875,43.21875 c 2.3253,18.32068 1.375,34.90625 1.375,34.90625 -0.4707,13.76798 -1.242,26.79663 -2.1875,39.0625 -3.1502,-125.38479 -67.8438,-246.84375 -67.8438,-246.84375 z m -25.5937,236.90625 c -0.1056,0.027 -0.2279,0.48013 -0.3437,1.40625 -1.2349,9.87866 -14.1671,81.51996 -77.8126,140.78125 35.8103,-21.976 58.0741,-44.47295 69.1876,-75.34375 10.0717,-27.97665 9.9894,-67.10494 8.9687,-66.84375 z m 42.875,6.34375 c -12.3483,97.55172 -111.125,181.53125 -111.125,181.53125 0,0 53.113,-17.30665 85.2187,-75.34375 32.1057,-58.03711 25.9063,-106.1875 25.9063,-106.1875 z"
             style="color:#000000;fill:#00ffff;fill-opacity:1;fill-rule:nonzero;stroke:none;stroke-width:10;marker:none;visibility:visible;display:inline;overflow:visible;enable-background:accumulate"
             inkscape:connector-curvature="0" />
        </g>
      </g>
      <path
         sodipodi:nodetypes="cscsscc"
         transform="matrix(0.26458333,0,0,0.26458333,-189.34551,-219.43068)"
         inkscape:connector-curvature="0"
         id="path3821"
         d="m 1574.935,260.06575 c 67.5233,124.09684 30.1117,254.58103 23.7243,289.25514 -6.3873,34.67412 -3.6499,34.67412 -3.6499,34.67412 0,0 46.5364,10.03725 45.6239,-78.473 -0.9125,-88.51025 -13.6872,-164.24582 -32.8492,-216.257 -19.162,-52.01118 -67.5233,-90.33521 -67.5233,-90.33521 0,0 27.3743,50.18623 34.6742,61.13595 z"
         style="opacity:0.25;color:#000000;fill:#00ffff;fill-opacity:1;fill-rule:nonzero;stroke:none;stroke-width:5;marker:none;visibility:visible;display:inline;overflow:visible;enable-background:accumulate" />
      <path
         transform="matrix(0.26458333,0,0,0.26458333,-189.34551,-219.43068)"
         inkscape:connector-curvature="0"
         id="path3823"
         d="m 1621.4713,276.49033 c 45.6238,120.44694 37.4115,229.03168 37.4115,229.03168 0,0 37.4116,14.59963 36.4991,-31.02421 -0.9125,-45.62384 -10.9497,-129.57171 -34.6741,-174.28307 -23.7244,-44.71136 -41.974,-69.34824 -41.974,-69.34824 0,0 24.6369,44.71137 35.5866,107.67227 10.9497,62.96089 -32.8491,-62.04843 -32.8491,-62.04843 z"
         style="opacity:0.25;color:#000000;fill:#00ffff;fill-opacity:1;fill-rule:nonzero;stroke:none;stroke-width:5;marker:none;visibility:visible;display:inline;overflow:visible;enable-background:accumulate" />
      <path
         transform="matrix(0.26458333,0,0,0.26458333,-189.34551,-219.43068)"
         inkscape:connector-curvature="0"
         id="path3825"
         d="m 1636.9194,427.04384 c 14.1948,79.36188 -12.9044,165.17594 -12.9044,165.17594 0,0 16.7757,-10.96872 22.5827,-59.3601 5.807,-48.39139 -9.6783,-105.81584 -9.6783,-105.81584 z"
         style="color:#000000;fill:#ffffff;fill-opacity:1;fill-rule:nonzero;stroke:none;stroke-width:5;marker:none;visibility:visible;display:inline;overflow:visible;enable-background:accumulate" />
      <path
         transform="matrix(0.26458333,0,0,0.26458333,-189.34551,-219.43068)"
         inkscape:connector-curvature="0"
         id="path3827"
         d="m 1659.5021,467.04739 c 0,45.81051 -16.1305,72.26447 -16.1305,72.26447 l 0.6452,16.77568 c 0,0 6.4522,-8.38784 12.2592,-41.9392 5.8069,-33.55137 3.2261,-47.10095 3.2261,-47.10095 z"
         style="color:#000000;fill:#ffffff;fill-opacity:1;fill-rule:nonzero;stroke:none;stroke-width:5;marker:none;visibility:visible;display:inline;overflow:visible;enable-background:accumulate" />
      <path
         transform="matrix(0.26458333,0,0,0.26458333,-189.34551,-219.43068)"
         inkscape:connector-curvature="0"
         id="path3829"
         d="m 1676.2777,477.37088 c 7.7427,61.94098 -23.873,134.85067 -23.873,134.85067 0,0 12.9043,-6.45218 30.3252,-55.48879 17.4209,-49.03661 13.5496,-108.39671 9.6783,-140.01242 -3.8713,-31.61571 -0.6452,31.61571 -6.4522,74.20013 -5.807,42.58442 -6.4522,46.45573 -6.4522,46.45573 z"
         style="color:#000000;fill:#ffffff;fill-opacity:1;fill-rule:nonzero;stroke:none;stroke-width:5;marker:none;visibility:visible;display:inline;overflow:visible;enable-background:accumulate" />
    </g>
  </g>
</svg>
