<?xml version="1.0" encoding="UTF-8" standalone="no"?>
<!-- Created with Inkscape (http://www.inkscape.org/) -->

<svg
   xmlns:dc="http://purl.org/dc/elements/1.1/"
   xmlns:cc="http://creativecommons.org/ns#"
   xmlns:rdf="http://www.w3.org/1999/02/22-rdf-syntax-ns#"
   xmlns:svg="http://www.w3.org/2000/svg"
   xmlns="http://www.w3.org/2000/svg"
   xmlns:xlink="http://www.w3.org/1999/xlink"
   xmlns:sodipodi="http://sodipodi.sourceforge.net/DTD/sodipodi-0.dtd"
   xmlns:inkscape="http://www.inkscape.org/namespaces/inkscape"
   width="436.44745"
   height="709.00433"
   viewBox="0 0 115.47672 187.59073"
   version="1.1"
   id="svg23489"
   inkscape:version="0.48.5 r10040"
   sodipodi:docname="slash_05.svg">
  <defs
     id="defs23483">
    <linearGradient
       inkscape:collect="always"
       xlink:href="#linearGradient56908"
       id="linearGradient56861"
       gradientUnits="userSpaceOnUse"
       gradientTransform="matrix(0.26458334,0,0,0.26458334,-10546.714,4018.1013)"
       x1="14533.545"
       y1="482.7551"
       x2="15026.226"
       y2="1336.1028" />
    <linearGradient
       id="linearGradient56908"
       inkscape:collect="always">
      <stop
         id="stop56910"
         offset="0"
         style="stop-color:#ffffff;stop-opacity:1" />
      <stop
         id="stop56912"
         offset="1"
         style="stop-color:#ebf4f7;stop-opacity:1" />
    </linearGradient>
    <filter
       inkscape:collect="always"
       id="filter4469"
       color-interpolation-filters="sRGB">
      <feGaussianBlur
         inkscape:collect="always"
         stdDeviation="0.86427134"
         id="feGaussianBlur4471" />
    </filter>
    <filter
       inkscape:collect="always"
       id="filter4483"
       color-interpolation-filters="sRGB">
      <feGaussianBlur
         inkscape:collect="always"
         stdDeviation="4.2032075"
         id="feGaussianBlur4485" />
    </filter>
    <filter
       inkscape:collect="always"
       id="filter4525"
       color-interpolation-filters="sRGB">
      <feGaussianBlur
         inkscape:collect="always"
         stdDeviation="6.6451674"
         id="feGaussianBlur4527" />
    </filter>
    <filter
       inkscape:collect="always"
       id="filter3855"
       color-interpolation-filters="sRGB">
      <feGaussianBlur
         inkscape:collect="always"
         stdDeviation="1.4679456"
         id="feGaussianBlur3857" />
    </filter>
    <filter
       inkscape:collect="always"
       id="filter3895"
       color-interpolation-filters="sRGB">
      <feGaussianBlur
         inkscape:collect="always"
         stdDeviation="1.8327628"
         id="feGaussianBlur3897" />
    </filter>
    <filter
       inkscape:collect="always"
       id="filter3941"
       color-interpolation-filters="sRGB">
      <feGaussianBlur
         inkscape:collect="always"
         stdDeviation="1.3186754"
         id="feGaussianBlur3943" />
    </filter>
    <filter
       inkscape:collect="always"
       id="filter3949"
       color-interpolation-filters="sRGB">
      <feGaussianBlur
         inkscape:collect="always"
         stdDeviation="0.59760691"
         id="feGaussianBlur3951" />
    </filter>
    <filter
       inkscape:collect="always"
       id="filter3955"
       color-interpolation-filters="sRGB">
      <feGaussianBlur
         inkscape:collect="always"
         stdDeviation="4.2032075"
         id="feGaussianBlur3957" />
    </filter>
  </defs>
  <sodipodi:namedview
     id="base"
     pagecolor="#2b2e30"
     bordercolor="#666666"
     borderopacity="1.0"
     inkscape:pageopacity="0"
     inkscape:pageshadow="2"
     inkscape:zoom="0.38746562"
     inkscape:cx="-1064.9844"
     inkscape:cy="354.00856"
     inkscape:document-units="px"
     inkscape:current-layer="layer1"
     showgrid="false"
     inkscape:pagecheckerboard="false"
     showborder="true"
     units="px"
     inkscape:window-width="1920"
     inkscape:window-height="1017"
     inkscape:window-x="-8"
     inkscape:window-y="-8"
     inkscape:window-maximized="1"
     inkscape:showpageshadow="false"
     guidetolerance="28"
     showguides="true"
     inkscape:guide-bbox="true">
    <inkscape:grid
       type="xygrid"
       id="grid24034"
       spacingx="1px"
       spacingy="1px"
       empspacing="8"
       visible="true"
       enabled="true"
       snapvisiblegridlinesonly="true"
       originx="-1466.6008px"
       originy="-1242.8596px" />
  </sodipodi:namedview>
  <metadata
     id="metadata23486">
    <rdf:RDF>
      <cc:Work
         rdf:about="">
        <dc:format>image/svg+xml</dc:format>
        <dc:type
           rdf:resource="http://purl.org/dc/dcmitype/StillImage" />
        <dc:title></dc:title>
        <cc:license
           rdf:resource="" />
        <dc:creator>
          <cc:Agent>
            <dc:title>Robert Brooks</dc:title>
          </cc:Agent>
        </dc:creator>
      </cc:Work>
    </rdf:RDF>
  </metadata>
  <g
     inkscape:label="Layer 1"
     inkscape:groupmode="layer"
     id="layer1"
     transform="translate(-388.03811,219.43068)">
    <g
       id="g4016">
      <g
         inkscape:export-ydpi="90"
         inkscape:export-xdpi="90"
         inkscape:export-filename="C:\Users\rober\Desktop\assets\ASSETS_2024\ESSENTIALS\sword_effects\slash\1.png"
         transform="translate(-326.08253,-51.150204)"
         id="g4506">
        <g
           inkscape:export-ydpi="90"
           inkscape:export-xdpi="90"
           inkscape:export-filename="C:\Users\rober\Desktop\assets\ASSETS_2024\ESSENTIALS\sword_effects\slash\1.png"
           transform="translate(308.89257,0)"
           id="g4159">
          <g
             id="g4161"
             transform="translate(339.83114,-147.85477)">
            <rect
               y="-20.425711"
               x="65.396935"
               height="187.59073"
               width="115.47672"
               id="rect4163"
               style="color:#000000;fill:none;stroke:none;stroke-width:10;marker:none;visibility:visible;display:inline;overflow:visible;enable-background:accumulate" />
          </g>
        </g>
        <path
           id="path4473"
           d="m 814.24697,-29.318823 c -0.45876,0.134265 -0.81857,3.117122 -0.81857,3.117122 0.23101,8.778878 -2.99747,13.863384 -1.1493,12.708269 1.84822,-1.155116 3.23144,-10.170428 2.53836,-14.328842 -0.19492,-1.169553 -0.391,-1.549088 -0.57049,-1.496549 z m -14.18828,6.573242 c -0.44778,0.07593 -0.95086,5.55625 -0.95086,5.55625 -1.84817,11.0891063 -5.07958,14.3254312 -2.53836,12.7082687 2.54124,-1.6171624 4.38946,-8.5479207 3.92742,-15.7096357 -0.12274,-1.90233 -0.27625,-2.582344 -0.4382,-2.554883 z m -10.33532,8.813933 c -0.47794,-0.0042 -1.68672,2.745052 -1.68672,2.745052 -2.31809,8.4704417 -6.88231,12.4029946 -4.77901,11.83183594 2.10331,-0.57115499 6.03388,-8.79172334 6.57323,-12.97285194 0.15172,-1.175941 0.0795,-1.602407 -0.1075,-1.604036 z m 17.86766,1.546158 c -0.55229,-0.09746 -2.24068,5.3578131 -2.24068,5.3578131 -3.00331,8.547854 -8.08974,14.0944072 -5.7795,12.7082685 2.31023,-1.3861383 7.39325,-9.0099678 8.08633,-15.7096356 0.17327,-1.674919 0.11795,-2.323957 -0.0661,-2.356446 z m -31.13815,4.4813808 c -0.42939,0.048127 -1.09141,0.6449219 -1.09141,0.6449219 -2.64255,4.1207752 -8.3026,8.9482903 -5.78776,8.3591799 2.51484,-0.58910808 6.16164,-4.9466856 7.028,-7.5902346 0.37901,-1.1565557 0.18515,-1.4513005 -0.14883,-1.4138672 z m 35.31362,0.3059245 c -0.63471,0.081896 -2.48875,3.571875 -2.48875,3.571875 -3.69636,9.240923 -10.6276,14.7903997 -8.08633,14.0973307 2.54124,-0.6930687 8.77599,-8.5464579 10.39315,-15.0151041 0.50538,-2.0214517 0.4704,-2.6913269 0.18193,-2.6541016 z m -53.39625,1.6784505 c -0.93274,0.071511 -3.62146,2.3564454 -3.62146,2.3564454 -6.93074,7.3927382 -15.70236,10.4014325 -12.23698,10.4014325 3.46533,0 12.01227,-5.0879019 15.24661,-10.4014325 1.11178,-1.8265257 1.10043,-2.3939035 0.61183,-2.3564454 z m 33.45328,5.8208335 c -0.84664,0.01118923 -3.10885,3.2411459 -3.10885,3.2411459 -3.9274,6.468646 -7.85824,7.8548178 -5.548,7.8548178 2.31021,0 7.62574,-4.3923958 8.78086,-9.2438803 0.32488,-1.36448012 0.20727,-1.85646172 -0.12401,-1.8520834 z"
           style="color:#000000;fill:#00ffff;fill-opacity:1;fill-rule:nonzero;stroke:none;stroke-width:1.32291675;marker:none;visibility:visible;display:inline;overflow:visible;enable-background:accumulate"
           inkscape:connector-curvature="0" />
      </g>
    </g>
  </g>
</svg>
