<?xml version="1.0" encoding="UTF-8" standalone="no"?>
<!-- Created with Inkscape (http://www.inkscape.org/) -->

<svg
   xmlns:dc="http://purl.org/dc/elements/1.1/"
   xmlns:cc="http://creativecommons.org/ns#"
   xmlns:rdf="http://www.w3.org/1999/02/22-rdf-syntax-ns#"
   xmlns:svg="http://www.w3.org/2000/svg"
   xmlns="http://www.w3.org/2000/svg"
   xmlns:xlink="http://www.w3.org/1999/xlink"
   xmlns:sodipodi="http://sodipodi.sourceforge.net/DTD/sodipodi-0.dtd"
   xmlns:inkscape="http://www.inkscape.org/namespaces/inkscape"
   width="436.44745"
   height="709.00433"
   viewBox="0 0 115.47672 187.59073"
   version="1.1"
   id="svg23489"
   inkscape:version="0.48.5 r10040"
   sodipodi:docname="slash_04.svg">
  <defs
     id="defs23483">
    <linearGradient
       inkscape:collect="always"
       xlink:href="#linearGradient56908"
       id="linearGradient56861"
       gradientUnits="userSpaceOnUse"
       gradientTransform="matrix(0.26458334,0,0,0.26458334,-10546.714,4018.1013)"
       x1="14533.545"
       y1="482.7551"
       x2="15026.226"
       y2="1336.1028" />
    <linearGradient
       id="linearGradient56908"
       inkscape:collect="always">
      <stop
         id="stop56910"
         offset="0"
         style="stop-color:#ffffff;stop-opacity:1" />
      <stop
         id="stop56912"
         offset="1"
         style="stop-color:#ebf4f7;stop-opacity:1" />
    </linearGradient>
    <filter
       inkscape:collect="always"
       id="filter4469"
       color-interpolation-filters="sRGB">
      <feGaussianBlur
         inkscape:collect="always"
         stdDeviation="0.86427134"
         id="feGaussianBlur4471" />
    </filter>
    <filter
       inkscape:collect="always"
       id="filter4483"
       color-interpolation-filters="sRGB">
      <feGaussianBlur
         inkscape:collect="always"
         stdDeviation="4.2032075"
         id="feGaussianBlur4485" />
    </filter>
    <filter
       inkscape:collect="always"
       id="filter4525"
       color-interpolation-filters="sRGB">
      <feGaussianBlur
         inkscape:collect="always"
         stdDeviation="6.6451674"
         id="feGaussianBlur4527" />
    </filter>
    <filter
       inkscape:collect="always"
       id="filter3855"
       color-interpolation-filters="sRGB">
      <feGaussianBlur
         inkscape:collect="always"
         stdDeviation="1.4679456"
         id="feGaussianBlur3857" />
    </filter>
    <filter
       inkscape:collect="always"
       id="filter3895"
       color-interpolation-filters="sRGB">
      <feGaussianBlur
         inkscape:collect="always"
         stdDeviation="1.8327628"
         id="feGaussianBlur3897" />
    </filter>
    <filter
       inkscape:collect="always"
       id="filter3941"
       color-interpolation-filters="sRGB">
      <feGaussianBlur
         inkscape:collect="always"
         stdDeviation="1.3186754"
         id="feGaussianBlur3943" />
    </filter>
    <filter
       inkscape:collect="always"
       id="filter3949"
       color-interpolation-filters="sRGB">
      <feGaussianBlur
         inkscape:collect="always"
         stdDeviation="0.59760691"
         id="feGaussianBlur3951" />
    </filter>
    <filter
       inkscape:collect="always"
       id="filter3955"
       color-interpolation-filters="sRGB">
      <feGaussianBlur
         inkscape:collect="always"
         stdDeviation="4.2032075"
         id="feGaussianBlur3957" />
    </filter>
  </defs>
  <sodipodi:namedview
     id="base"
     pagecolor="#2b2e30"
     bordercolor="#666666"
     borderopacity="1.0"
     inkscape:pageopacity="0"
     inkscape:pageshadow="2"
     inkscape:zoom="0.38746562"
     inkscape:cx="-628.53685"
     inkscape:cy="354.00858"
     inkscape:document-units="px"
     inkscape:current-layer="layer1"
     showgrid="false"
     inkscape:pagecheckerboard="false"
     showborder="true"
     units="px"
     inkscape:window-width="1920"
     inkscape:window-height="1017"
     inkscape:window-x="-8"
     inkscape:window-y="-8"
     inkscape:window-maximized="1"
     inkscape:showpageshadow="false"
     guidetolerance="28"
     showguides="true"
     inkscape:guide-bbox="true">
    <inkscape:grid
       type="xygrid"
       id="grid24034"
       spacingx="1px"
       spacingy="1px"
       empspacing="8"
       visible="true"
       enabled="true"
       snapvisiblegridlinesonly="true"
       originx="-1030.1533px"
       originy="-1242.8596px" />
  </sodipodi:namedview>
  <metadata
     id="metadata23486">
    <rdf:RDF>
      <cc:Work
         rdf:about="">
        <dc:format>image/svg+xml</dc:format>
        <dc:type
           rdf:resource="http://purl.org/dc/dcmitype/StillImage" />
        <dc:title></dc:title>
        <cc:license
           rdf:resource="" />
        <dc:creator>
          <cc:Agent>
            <dc:title>Robert Brooks</dc:title>
          </cc:Agent>
        </dc:creator>
      </cc:Work>
    </rdf:RDF>
  </metadata>
  <g
     inkscape:label="Layer 1"
     inkscape:groupmode="layer"
     id="layer1"
     transform="translate(-272.56138,219.43068)">
    <g
       id="g4004">
      <g
         inkscape:export-ydpi="90"
         inkscape:export-xdpi="90"
         inkscape:export-filename="C:\Users\rober\Desktop\assets\ASSETS_2024\ESSENTIALS\sword_effects\slash\1.png"
         transform="translate(-326.08254,-51.150204)"
         id="g4495">
        <g
           id="g4074"
           transform="translate(193.41585,0)"
           inkscape:export-filename="C:\Users\rober\Desktop\assets\ASSETS_2024\ESSENTIALS\sword_effects\slash\1.png"
           inkscape:export-xdpi="90"
           inkscape:export-ydpi="90">
          <g
             transform="translate(339.83114,-147.85477)"
             id="g4048">
            <path
               gds_switchable="blur"
               gds_color="blur"
               sodipodi:nodetypes="ccscccscscscscccccccccccccccsscccssccccccscccscc"
               inkscape:connector-curvature="0"
               id="path3953"
               transform="matrix(0.26458334,0,0,0.26458334,-339.83115,166.41726)"
               d="m 1859.2188,-319.59375 c 33.0651,35.61468 23.4345,124.91629 12.9687,136.46875 1.2614,-4.09953 8.7656,-41.7949 5.1267,-75.56225 -3.4856,-32.34531 -18.0954,-60.9065 -18.0954,-60.9065 z m 56.4062,14.5 c -1.7871,0.51191 1.3125,32.06136 1.3125,53.28125 0.3837,0.99809 10.9121,-13.75459 0.5,-49.21875 -0.8623,-2.93696 -1.4416,-4.16875 -1.8125,-4.0625 z m -16.125,44.8125 c -1.2491,0.11658 -1.25,20.375 -1.25,20.375 0,31.43369 -5.2408,45.42277 -0.875,38.4375 4.3658,-6.98526 6.0882,-34.94493 3.4688,-53.28125 -0.5731,-4.01107 -0.9941,-5.56389 -1.3438,-5.53125 z m 12.1875,1.8125 c 2.4879,49.75857 -4.4648,93.12912 -14.2813,128.125 2.0716,-20.3576 1.3438,-39.21875 1.3438,-39.21875 l -1.25,15.4375 c -2.0109,7.53552 -3.9851,14.55456 -5.9062,21.15625 2.2977,-17.35535 1.7227,-36.94025 -3.3438,-58.8125 -1.8523,116.0742 -61.125,161.75 -61.125,161.75 0,0 28.8901,-17.556443 48.375,-53.46875 -3.8052,10.44358 -6.2493,16.416882 -6.4062,17.0625 -0.2629,1.08159 2.3343,-0.4816 6.6562,-5.34375 -11.3008,24.13896 -20.8438,37.4375 -20.8438,37.4375 0,0 84.565,-61.744599 56.7813,-224.125 z m -61.0937,19.5625 c -0.1047,0.0146 -0.1278,0.47279 -0.031,1.4375 0.6174,6.17416 -3.0625,31.5 -3.0625,31.5 -1.8523,16.67023 -16.6742,50.01032 -10.5,43.21875 6.1742,-6.79158 14.7964,-20.99936 16.0312,-43.84375 1.0419,-19.27495 -1.8722,-32.39135 -2.4374,-32.3125 z m -37.6876,42.1875 -16.7537,40.90072 c -22.2515,54.32254 -58.5767,85.05378 -52.4025,81.34928 6.1742,-3.70449 27.9012,-11.423338 51.363,-62.05145 19.5326,-40.15021 17.7932,-60.19855 17.7932,-60.19855 z m 49.4063,2.46875 c -2.7133,122.50894 -70.9581,163.792553 -71,163.625 26.5489,-12.34832 95.0792,-65.45586 71,-163.625 z m -113.625,41.96875 c -54.4767,72.28635 -91.9104,95.64043 -97.5313,98.8125 7.409,-3.7045 39.5222,-17.28728 64.2188,-43.21875 24.6966,-25.93147 33.3125,-55.59375 33.3125,-55.59375 z m 69.7813,16.6875 c -27.1664,62.97643 -59.284,87.05674 -51.875,81.5 7.4089,-5.55674 38.286,-42.00119 46.3124,-59.90625 8.0265,-17.90506 5.5626,-21.59375 5.5626,-21.59375 z"
               style="color:#000000;fill:#00ccff;fill-opacity:1;fill-rule:nonzero;stroke:none;stroke-width:10;marker:none;visibility:visible;display:inline;overflow:visible;filter:url(#filter3955);enable-background:accumulate" />
            <rect
               style="color:#000000;fill:none;stroke:none;stroke-width:10;marker:none;visibility:visible;display:inline;overflow:visible;enable-background:accumulate"
               id="rect4032"
               width="115.47672"
               height="187.59073"
               x="65.396935"
               y="-20.425711" />
            <path
               style="color:#000000;fill:#00ffff;fill-opacity:1;fill-rule:nonzero;stroke:none;stroke-width:10;marker:none;visibility:visible;display:inline;overflow:visible;enable-background:accumulate"
               d="m 1859.2188,-319.59375 c 33.0651,35.61468 23.4345,124.91629 12.9687,136.46875 1.2614,-4.09953 8.7656,-41.7949 5.1267,-75.56225 -3.4856,-32.34531 -18.0954,-60.9065 -18.0954,-60.9065 z m 56.4062,14.5 c -1.7871,0.51191 1.3125,32.06136 1.3125,53.28125 0.3837,0.99809 10.9121,-13.75459 0.5,-49.21875 -0.8623,-2.93696 -1.4416,-4.16875 -1.8125,-4.0625 z m -16.125,44.8125 c -1.2491,0.11658 -1.25,20.375 -1.25,20.375 0,31.43369 -5.2408,45.42277 -0.875,38.4375 4.3658,-6.98526 6.0882,-34.94493 3.4688,-53.28125 -0.5731,-4.01107 -0.9941,-5.56389 -1.3438,-5.53125 z m 12.1875,1.8125 c 2.4879,49.75857 -4.4648,93.12912 -14.2813,128.125 2.0716,-20.3576 1.3438,-39.21875 1.3438,-39.21875 l -1.25,15.4375 c -2.0109,7.53552 -3.9851,14.55456 -5.9062,21.15625 2.2977,-17.35535 1.7227,-36.94025 -3.3438,-58.8125 -1.8523,116.0742 -61.125,161.75 -61.125,161.75 0,0 28.8901,-17.556443 48.375,-53.46875 -3.8052,10.44358 -6.2493,16.416882 -6.4062,17.0625 -0.2629,1.08159 2.3343,-0.4816 6.6562,-5.34375 -11.3008,24.13896 -20.8438,37.4375 -20.8438,37.4375 0,0 84.565,-61.744599 56.7813,-224.125 z m -61.0937,19.5625 c -0.1047,0.0146 -0.1278,0.47279 -0.031,1.4375 0.6174,6.17416 -3.0625,31.5 -3.0625,31.5 -1.8523,16.67023 -16.6742,50.01032 -10.5,43.21875 6.1742,-6.79158 14.7964,-20.99936 16.0312,-43.84375 1.0419,-19.27495 -1.8722,-32.39135 -2.4374,-32.3125 z m -37.6876,42.1875 -16.7537,40.90072 c -22.2515,54.32254 -58.5767,85.05378 -52.4025,81.34928 6.1742,-3.70449 27.9012,-11.423338 51.363,-62.05145 19.5326,-40.15021 17.7932,-60.19855 17.7932,-60.19855 z m 49.4063,2.46875 c -2.7133,122.50894 -70.9581,163.792553 -71,163.625 26.5489,-12.34832 95.0792,-65.45586 71,-163.625 z m -113.625,41.96875 c -54.4767,72.28635 -91.9104,95.64043 -97.5313,98.8125 7.409,-3.7045 39.5222,-17.28728 64.2188,-43.21875 24.6966,-25.93147 33.3125,-55.59375 33.3125,-55.59375 z m 69.7813,16.6875 c -27.1664,62.97643 -59.284,87.05674 -51.875,81.5 7.4089,-5.55674 38.286,-42.00119 46.3124,-59.90625 8.0265,-17.90506 5.5626,-21.59375 5.5626,-21.59375 z"
               transform="matrix(0.26458334,0,0,0.26458334,-339.83115,166.41726)"
               id="path4218"
               inkscape:connector-curvature="0"
               sodipodi:nodetypes="ccscccscscscscccccccccccccccsscccssccccccscccscc" />
          </g>
        </g>
        <path
           style="opacity:0.62389377;color:#000000;fill:#ffffff;fill-opacity:1;fill-rule:nonzero;stroke:none;stroke-width:5;marker:none;visibility:visible;display:inline;overflow:visible;enable-background:accumulate"
           d="m 2620.441,-162.45513 c -8.5586,54.87571 -12.0827,65.951542 -26.1792,87.599758 -14.0966,21.648215 -15.1035,23.662003 -15.1035,23.662003 0,0 22.6552,-25.172344 31.2138,-40.27575 8.5585,-15.103411 10.5723,-19.130981 10.5723,-19.130981 0,0 -1.5103,14.599959 -6.5448,27.689578 -5.0344,13.089618 -9.062,20.641322 -9.062,20.641322 0,0 17.1172,-20.641322 27.6896,-57.89639 10.5723,-37.25507 12.0827,-68.97222 11.0758,-64.94465 -1.0069,4.02758 -3.0207,34.73784 -11.5793,52.86192 -8.5586,18.12409 -9.5655,20.13788 -9.5655,20.13788 0,0 4.531,-21.64822 3.5242,-19.63443 -1.0069,2.01379 -10.4835,17.3847 -10.5724,19.63443 -0.3043,7.69753 6.385,-35.34586 4.531,-50.34469 z"
           id="path4487"
           inkscape:connector-curvature="0"
           transform="matrix(0.26458334,0,0,0.26458334,-6.3049604e-6,18.562493)"
           sodipodi:nodetypes="cscscscsssccsc" />
        <path
           style="color:#000000;fill:#ffffff;fill-opacity:1;fill-rule:nonzero;stroke:none;stroke-width:5;marker:none;visibility:visible;display:inline;overflow:visible;enable-background:accumulate"
           d="m 2594.7652,-174.53785 c -5.5379,86.592859 -55.8826,132.909972 -55.8826,132.909972 0,0 68.4688,-44.806769 55.8826,-132.909972 z"
           id="path4489"
           inkscape:connector-curvature="0"
           transform="matrix(0.26458334,0,0,0.26458334,-6.3049604e-6,18.562493)"
           sodipodi:nodetypes="ccc" />
        <path
           style="color:#000000;fill:#ffffff;fill-opacity:1;fill-rule:nonzero;stroke:none;stroke-width:5;marker:none;visibility:visible;display:inline;overflow:visible;enable-background:accumulate"
           d="m 2581.1721,-217.33084 c -4.0275,33.2275 -10.5724,47.82746 -10.5724,47.82746 0,0 5.538,-5.03447 10.069,-21.64822 4.531,-16.61375 0.5034,-26.17924 0.5034,-26.17924 z"
           id="path4491"
           inkscape:connector-curvature="0"
           transform="matrix(0.26458334,0,0,0.26458334,-6.3049604e-6,18.562493)" />
        <path
           style="color:#000000;fill:#ffffff;fill-opacity:1;fill-rule:nonzero;stroke:none;stroke-width:5;marker:none;visibility:visible;display:inline;overflow:visible;enable-background:accumulate"
           d="m 2474.9448,-144.83449 c -37.7585,58.903286 -76.0204,81.054949 -76.0204,81.054949 0,0 33.2275,-18.124088 46.3171,-34.234388 13.0896,-16.110301 29.7033,-46.820561 29.7033,-46.820561 z"
           id="path4493"
           inkscape:connector-curvature="0"
           transform="matrix(0.26458334,0,0,0.26458334,-6.3049604e-6,18.562493)" />
      </g>
    </g>
  </g>
</svg>
