<?xml version="1.0" encoding="UTF-8" standalone="no"?>
<!-- Created with Inkscape (http://www.inkscape.org/) -->

<svg
   xmlns:dc="http://purl.org/dc/elements/1.1/"
   xmlns:cc="http://creativecommons.org/ns#"
   xmlns:rdf="http://www.w3.org/1999/02/22-rdf-syntax-ns#"
   xmlns:svg="http://www.w3.org/2000/svg"
   xmlns="http://www.w3.org/2000/svg"
   xmlns:xlink="http://www.w3.org/1999/xlink"
   xmlns:sodipodi="http://sodipodi.sourceforge.net/DTD/sodipodi-0.dtd"
   xmlns:inkscape="http://www.inkscape.org/namespaces/inkscape"
   width="436.44745"
   height="709.00433"
   viewBox="0 0 115.47672 187.59073"
   version="1.1"
   id="svg23489"
   inkscape:version="0.48.5 r10040"
   sodipodi:docname="slash_01.svg">
  <defs
     id="defs23483">
    <linearGradient
       inkscape:collect="always"
       xlink:href="#linearGradient56908"
       id="linearGradient56861"
       gradientUnits="userSpaceOnUse"
       gradientTransform="matrix(0.26458334,0,0,0.26458334,-10546.714,4018.1013)"
       x1="14533.545"
       y1="482.7551"
       x2="15026.226"
       y2="1336.1028" />
    <linearGradient
       id="linearGradient56908"
       inkscape:collect="always">
      <stop
         id="stop56910"
         offset="0"
         style="stop-color:#ffffff;stop-opacity:1" />
      <stop
         id="stop56912"
         offset="1"
         style="stop-color:#ebf4f7;stop-opacity:1" />
    </linearGradient>
    <filter
       inkscape:collect="always"
       id="filter4469"
       color-interpolation-filters="sRGB">
      <feGaussianBlur
         inkscape:collect="always"
         stdDeviation="0.86427134"
         id="feGaussianBlur4471" />
    </filter>
    <filter
       inkscape:collect="always"
       id="filter4483"
       color-interpolation-filters="sRGB">
      <feGaussianBlur
         inkscape:collect="always"
         stdDeviation="4.2032075"
         id="feGaussianBlur4485" />
    </filter>
    <filter
       inkscape:collect="always"
       id="filter4525"
       color-interpolation-filters="sRGB">
      <feGaussianBlur
         inkscape:collect="always"
         stdDeviation="6.6451674"
         id="feGaussianBlur4527" />
    </filter>
    <filter
       inkscape:collect="always"
       id="filter3855"
       color-interpolation-filters="sRGB">
      <feGaussianBlur
         inkscape:collect="always"
         stdDeviation="1.4679456"
         id="feGaussianBlur3857" />
    </filter>
    <filter
       inkscape:collect="always"
       id="filter3895"
       color-interpolation-filters="sRGB">
      <feGaussianBlur
         inkscape:collect="always"
         stdDeviation="1.8327628"
         id="feGaussianBlur3897" />
    </filter>
    <filter
       inkscape:collect="always"
       id="filter3941"
       color-interpolation-filters="sRGB">
      <feGaussianBlur
         inkscape:collect="always"
         stdDeviation="1.3186754"
         id="feGaussianBlur3943" />
    </filter>
    <filter
       inkscape:collect="always"
       id="filter3949"
       color-interpolation-filters="sRGB">
      <feGaussianBlur
         inkscape:collect="always"
         stdDeviation="0.59760691"
         id="feGaussianBlur3951" />
    </filter>
    <filter
       inkscape:collect="always"
       id="filter3955"
       color-interpolation-filters="sRGB">
      <feGaussianBlur
         inkscape:collect="always"
         stdDeviation="4.2032075"
         id="feGaussianBlur3957" />
    </filter>
  </defs>
  <sodipodi:namedview
     id="base"
     pagecolor="#2b2e30"
     bordercolor="#666666"
     borderopacity="1.0"
     inkscape:pageopacity="0"
     inkscape:pageshadow="2"
     inkscape:zoom="0.38746562"
     inkscape:cx="680.80554"
     inkscape:cy="351.42774"
     inkscape:document-units="px"
     inkscape:current-layer="layer1"
     showgrid="false"
     inkscape:pagecheckerboard="false"
     showborder="true"
     units="px"
     inkscape:window-width="1920"
     inkscape:window-height="1017"
     inkscape:window-x="-8"
     inkscape:window-y="-8"
     inkscape:window-maximized="1"
     inkscape:showpageshadow="false"
     guidetolerance="28"
     showguides="true"
     inkscape:guide-bbox="true">
    <inkscape:grid
       type="xygrid"
       id="grid24034"
       spacingx="1px"
       spacingy="1px"
       empspacing="8"
       visible="true"
       enabled="true"
       snapvisiblegridlinesonly="true"
       originx="279.1891px"
       originy="-1245.4405px" />
  </sodipodi:namedview>
  <metadata
     id="metadata23486">
    <rdf:RDF>
      <cc:Work
         rdf:about="">
        <dc:format>image/svg+xml</dc:format>
        <dc:type
           rdf:resource="http://purl.org/dc/dcmitype/StillImage" />
        <dc:title></dc:title>
        <cc:license
           rdf:resource="" />
        <dc:creator>
          <cc:Agent>
            <dc:title>Robert Brooks</dc:title>
          </cc:Agent>
        </dc:creator>
      </cc:Work>
    </rdf:RDF>
  </metadata>
  <g
     inkscape:label="Layer 1"
     inkscape:groupmode="layer"
     id="layer1"
     transform="translate(73.868785,220.11354)">
    <g
       id="g3970"
       transform="translate(0,-0.68285628)">
      <path
         gds_color="blur"
         gds_switchable="blur"
         inkscape:connector-curvature="0"
         style="color:#000000;fill:#00ccff;fill-opacity:1;fill-rule:nonzero;stroke:none;stroke-width:10;marker:none;visibility:visible;display:inline;overflow:visible;filter:url(#filter3855);enable-background:accumulate"
         d="m -64.611884,-206.08226 c 2.88879,0.38213 13.14369,2.16489 25.25117,9.26042 -6.02917,-1.23489 -12.02201,-0.8599 -12.02201,-0.8599 23.52355,6.53432 42.1494997,38.88016 47.3769597,53.25566 5.22745,14.37551 5.55625,19.27325 5.55625,19.27325 0,0 -0.2139,-13.8288 -3.28249,-27.78125 7.09277,15.92272 12.2250003,36.58734 13.4110703,63.392511 0.53244,-23.434711 1.57717,-107.473801 -76.29095,-116.540691 z m 13.61777,0.76895 c 42.4603697,8.41257 56.8204197,54.49359 57.0590497,54.01634 0,0 -4.06192,-21.90075 -20.3977197,-37.90983 -16.3358,-16.00909 -36.66133,-16.10651 -36.66133,-16.10651 z"
         id="path3831" />
      <g
         inkscape:export-ydpi="90"
         inkscape:export-xdpi="90"
         inkscape:export-filename="C:\Users\rober\Desktop\assets\ASSETS_2024\ESSENTIALS\sword_effects\slash\1.png"
         transform="translate(-245.62754,-51.150204)"
         id="g4456">
        <g
           id="g4068"
           transform="translate(258.375,-147.85477)"
           inkscape:export-filename="C:\Users\rober\Desktop\assets\ASSETS_2024\ESSENTIALS\sword_effects\slash\1.png"
           inkscape:export-xdpi="90"
           inkscape:export-ydpi="90">
          <g
             transform="translate(-152.01318,0)"
             id="g4052">
            <rect
               y="-20.425711"
               x="65.396935"
               height="187.59073"
               width="115.47672"
               id="rect4034"
               style="color:#000000;fill:none;stroke:none;stroke-width:10;marker:none;visibility:visible;display:inline;overflow:visible;enable-background:accumulate" />
            <path
               id="path4214"
               transform="matrix(0.26458334,0,0,0.26458334,-6.3049604e-6,18.562493)"
               d="m 282.15625,-96.90625 c 10.91828,1.444269 49.67696,8.182269 95.4375,35 -22.78741,-4.667289 -45.4375,-3.25 -45.4375,-3.25 88.9079,24.696639 159.30519,146.948645 179.0625,201.28125 19.75731,54.33261 21,72.84375 21,72.84375 0,0 -0.80844,-52.26631 -12.40625,-105 26.80732,60.18038 46.20472,138.28288 50.6875,239.59375 2.01237,-88.57215 5.96096,-406.200197 -288.34375,-440.46875 z M 333.625,-94 c 160.48015,31.795545 214.75436,205.96005 215.65625,204.15625 0,0 -15.35215,-82.774484 -77.09375,-143.28125 C 410.4459,-93.631766 333.625,-94 333.625,-94 z"
               style="color:#000000;fill:#00ffff;fill-opacity:1;fill-rule:nonzero;stroke:none;stroke-width:10;marker:none;visibility:visible;display:inline;overflow:visible;enable-background:accumulate"
               inkscape:connector-curvature="0" />
          </g>
        </g>
        <path
           style="color:#000000;fill:#ffffff;stroke:none;stroke-width:5;marker:none;visibility:visible;display:inline;overflow:visible;enable-background:accumulate"
           d="M 778.90625,-643.5625 C 880.9999,-604.43255 930.01843,-503.00923 939,-480.21875 930.8322,-503.76455 886.98417,-614.95364 778.90625,-643.5625 z M 939,-480.21875 c 0.97935,2.82322 1.53125,4.65625 1.53125,4.65625 0.11525,-0.0864 -0.39847,-1.78186 -1.53125,-4.65625 z M 764.65625,-632.1875 c 0.56626,0.17667 1.12447,0.3829 1.6875,0.5625 -0.76816,-0.31942 -1.39491,-0.5625 -1.6875,-0.5625 z m 1.6875,0.5625 c 5.56929,2.31583 23.19708,13.03685 47.25,33 -27.8435,-16.58108 -48.9375,-20.03125 -48.9375,-20.03125 141.6843,97.437 161.625,221.64454 161.625,222.125 0,0 -3.14452,-42.10943 -18.8086,-96.08572 23.46587,46.30257 49.80525,119.69723 55.1211,160.17947 -1.41943,-43.2927 -19.83097,-242.91148 -196.25,-299.1875 z"
           transform="matrix(0.26458334,0,0,0.26458334,-6.3049604e-6,18.562493)"
           id="path4422"
           inkscape:connector-curvature="0"
           sodipodi:nodetypes="cccccccccccccccc" />
        <path
           inkscape:connector-curvature="0"
           style="color:#000000;fill:#00ffff;fill-opacity:1;fill-rule:nonzero;stroke:none;stroke-width:10;marker:none;visibility:visible;display:inline;overflow:visible;enable-background:accumulate"
           d="m 201.86054,-150.17554 c -0.82713,0.27114 -6.22019,-2.00704 -6.8284,-1.614 2.10153,0.98194 8.96762,4.79119 11.23537,6.12019 -2.1301,-0.43628 -4.25187,-0.67183 -6.11022,-0.79375 30.08914,14.56908 41.91165,40.52259 41.91165,40.52259 0,0 -6.78246,-15.71775 -13.14648,-23.8125 4.34851,4.97716 11.12876,13.82632 16.72662,25.69766 2.98189,6.32364 5.23879,11.273227 6.97839,15.172198 -6.1466,-24.590628 -19.98594,-50.278338 -50.76693,-61.292388 z m 22.63841,15.83366 c -0.0107,-0.0452 0.57472,0.48204 1.53789,1.46348 -1.0243,-0.9214 -1.52833,-1.42296 -1.53789,-1.46348 z"
           id="path4431"
           sodipodi:nodetypes="ccccccsccccc" />
      </g>
    </g>
  </g>
</svg>
