<?xml version="1.0" encoding="UTF-8" standalone="no"?>
<!-- Created with Inkscape (http://www.inkscape.org/) -->

<svg
   xmlns:dc="http://purl.org/dc/elements/1.1/"
   xmlns:cc="http://creativecommons.org/ns#"
   xmlns:rdf="http://www.w3.org/1999/02/22-rdf-syntax-ns#"
   xmlns:svg="http://www.w3.org/2000/svg"
   xmlns="http://www.w3.org/2000/svg"
   xmlns:sodipodi="http://sodipodi.sourceforge.net/DTD/sodipodi-0.dtd"
   xmlns:inkscape="http://www.inkscape.org/namespaces/inkscape"
   width="551.51123"
   height="512"
   viewBox="0 0 145.92067 135.46667"
   version="1.1"
   id="svg23489"
   inkscape:version="0.48.5 r10040"
   sodipodi:docname="slash_slam_05.svg">
  <defs
     id="defs23483">
    <filter
       inkscape:collect="always"
       id="filter4411"
       color-interpolation-filters="sRGB">
      <feGaussianBlur
         inkscape:collect="always"
         stdDeviation="9.0971125"
         id="feGaussianBlur4413" />
    </filter>
    <filter
       inkscape:collect="always"
       id="filter4429"
       color-interpolation-filters="sRGB">
      <feGaussianBlur
         inkscape:collect="always"
         stdDeviation="11.710904"
         id="feGaussianBlur4431" />
    </filter>
    <filter
       inkscape:collect="always"
       id="filter4491"
       x="-0.021584861"
       width="1.0431697"
       y="-0.10838009"
       height="1.2167602"
       color-interpolation-filters="sRGB">
      <feGaussianBlur
         inkscape:collect="always"
         stdDeviation="0.6809065"
         id="feGaussianBlur4493" />
    </filter>
    <filter
       inkscape:collect="always"
       id="filter4513"
       color-interpolation-filters="sRGB">
      <feGaussianBlur
         inkscape:collect="always"
         stdDeviation="1.4195242"
         id="feGaussianBlur4515" />
    </filter>
    <filter
       color-interpolation-filters="sRGB"
       inkscape:collect="always"
       id="filter4429-6">
      <feGaussianBlur
         inkscape:collect="always"
         stdDeviation="11.710904"
         id="feGaussianBlur4431-5" />
    </filter>
    <filter
       inkscape:collect="always"
       id="filter4635"
       color-interpolation-filters="sRGB">
      <feGaussianBlur
         inkscape:collect="always"
         stdDeviation="0.74976759"
         id="feGaussianBlur4637" />
    </filter>
    <filter
       inkscape:collect="always"
       id="filter4639"
       color-interpolation-filters="sRGB">
      <feGaussianBlur
         inkscape:collect="always"
         stdDeviation="1.0611189"
         id="feGaussianBlur4641" />
    </filter>
    <filter
       inkscape:collect="always"
       id="filter4647"
       color-interpolation-filters="sRGB">
      <feGaussianBlur
         inkscape:collect="always"
         stdDeviation="1.6352989"
         id="feGaussianBlur4649" />
    </filter>
    <filter
       inkscape:collect="always"
       id="filter4651"
       color-interpolation-filters="sRGB">
      <feGaussianBlur
         inkscape:collect="always"
         stdDeviation="1.8238067"
         id="feGaussianBlur4653" />
    </filter>
  </defs>
  <sodipodi:namedview
     id="base"
     pagecolor="#2b2e30"
     bordercolor="#666666"
     borderopacity="1.0"
     inkscape:pageopacity="0"
     inkscape:pageshadow="2"
     inkscape:zoom="0.35823431"
     inkscape:cx="-1407.1302"
     inkscape:cy="170.39216"
     inkscape:document-units="px"
     inkscape:current-layer="layer1"
     showgrid="false"
     inkscape:pagecheckerboard="false"
     showborder="true"
     units="px"
     inkscape:window-width="1920"
     inkscape:window-height="1017"
     inkscape:window-x="-8"
     inkscape:window-y="-8"
     inkscape:window-maximized="1"
     inkscape:showpageshadow="false"
     guidetolerance="28"
     showguides="true"
     inkscape:guide-bbox="true">
    <inkscape:grid
       type="xygrid"
       id="grid24034"
       spacingx="1px"
       spacingy="1px"
       empspacing="8"
       visible="true"
       enabled="true"
       snapvisiblegridlinesonly="true"
       originx="-2555.3733px"
       originy="39.08011px" />
  </sodipodi:namedview>
  <metadata
     id="metadata23486">
    <rdf:RDF>
      <cc:Work
         rdf:about="">
        <dc:format>image/svg+xml</dc:format>
        <dc:type
           rdf:resource="http://purl.org/dc/dcmitype/StillImage" />
        <dc:title></dc:title>
        <cc:license
           rdf:resource="" />
        <dc:creator>
          <cc:Agent>
            <dc:title>Robert Brooks</dc:title>
          </cc:Agent>
        </dc:creator>
      </cc:Work>
    </rdf:RDF>
  </metadata>
  <g
     inkscape:label="Layer 1"
     inkscape:groupmode="layer"
     id="layer1"
     transform="translate(-676.1092,-171.87327)">
    <g
       id="g4672">
      <path
         gds_color="blur"
         gds_switchable="blur"
         inkscape:connector-curvature="0"
         id="path4194-5"
         d="m 709.08764,189.887 c -2.30364,0.004 -5.12018,0.20756 -8.4409,0.78507 0,0 -1.54215,0.61419 1.30685,0.22919 2.849,-0.38503 14.7849,-0.078 14.7849,-0.078 0,0 -2.58279,-0.94536 -7.65085,-0.93624 z m 23.58656,2.87212 c -0.47374,0.002 -0.006,0.36849 3.15983,1.68231 7.23813,3.00306 13.93651,8.7822 13.93651,8.7822 0,0 -4.54267,-6.3948 -14.32178,-9.85985 0,0 -2.16538,-0.60617 -2.77456,-0.60466 z m 32.76381,9.9915 c -0.014,0 -0.0245,0.005 -0.0342,0.01 -0.30787,0.15402 0,0.77044 0,0.77044 0.61605,1.30903 1.61518,1.99906 2.07737,1.61406 0.44753,-0.37297 -1.63266,-2.40743 -2.0432,-2.39426 z m -14.60936,1.30198 c 0.002,0.003 0.008,0.005 0.0195,0.0147 0.38511,0.30799 2.77551,3.08202 2.85259,3.46703 7.77709,10.31815 9.00654,15.24814 9.00654,15.24814 0,0 0.30974,-4.39093 -3.54026,-10.08903 -3.72985,-5.52002 -8.40016,-8.72573 -8.33837,-8.64078 z m 12.28341,6.49035 c -0.11173,0.003 -0.24592,0.0452 -0.40477,0.14627 0,0.69303 0.38433,1.1565 0.69235,0.84849 0.25029,-0.25026 0.19599,-1.00821 -0.28758,-0.99476 z m 1.78948,1.90173 c -0.0125,0.003 -0.027,0.0123 -0.039,0.0195 -0.38496,0.23102 -0.22907,0.53641 -0.22907,0.53641 0.0769,0.92401 0.77162,1.77191 1.23366,1.5409 0.44753,-0.22379 -0.5527,-2.18467 -0.96558,-2.09682 z m 5.19336,8.43111 c 0.87102,1.52454 3.32258,3.27206 5.98793,11.4349 1.2502,3.82868 1.85298,7.07572 2.17973,10.66932 1.19793,-10.78075 -3.92084,-19.92629 -8.16766,-22.10422 z m -6.53438,4.35453 c 9.36512,34.19336 -18.729,71.8734 -32.23218,74.70472 l 69.25795,0 c 8.27611,-12.41417 6.96817,-28.53116 6.96817,-28.53116 0,0 -3.91741,14.15262 -6.09528,14.37042 -2.17802,0.21779 -3.05263,-1.74257 -3.05263,-3.26712 0,-1.52456 -3.91757,9.58501 -7.40213,7.40708 -3.48487,-2.17791 11.10514,-43.34184 -8.71396,-62.94311 15.02754,23.08595 5.38076,54.66377 1.73595,60.54398 -1.67135,2.69669 -5.00642,2.79091 -3.91569,-2.17483 2.17802,-9.91507 3.70395,-20.46951 -1.08745,-27.43885 0,6.31597 -2.17834,20.46946 -7.18757,26.78543 -5.00924,6.31597 -9.01793,3.09378 -8.27518,-0.43398 1.74236,-8.27611 14.15653,-42.2526 0,-59.02258 z m 41.27289,22.75763 c 2.8618,10.71044 1.84987,17.4246 2.3943,17.31569 0.54443,-0.10889 1.41405,-2.71971 0.7607,-8.05563 -0.65334,-5.33591 -1.63032,-6.53767 -3.155,-9.26006 z m -5.39793,7.93371 c -0.3344,-0.0249 -0.2634,1.10692 -0.2634,1.10692 0.10892,1.63344 -0.005,2.93713 0.64867,2.82825 0.65334,-0.1089 0.76226,-2.5 0,-3.58895 -0.16681,-0.23821 -0.29164,-0.33923 -0.38527,-0.34622 z m 0.0438,11.21059 c -0.0156,-0.007 -0.0125,0.0364 0.0141,0.13167 0.21783,0.76226 -0.21456,1.85299 -0.21456,1.85299 0.76226,4.02915 -1.30528,9.14468 -0.7607,9.68917 0.54443,0.54448 2.06755,-0.97882 2.06755,-5.33466 0,-3.81136 -1.00272,-6.29005 -1.10696,-6.33917 z"
         style="color:#000000;fill:#00ccff;fill-opacity:1;fill-rule:nonzero;stroke:#00ccff;stroke-width:1.32291675;stroke-miterlimit:4;stroke-dasharray:none;marker:none;visibility:visible;display:inline;overflow:visible;filter:url(#filter4647);enable-background:accumulate" />
      <g
         inkscape:export-ydpi="53.078571"
         inkscape:export-xdpi="53.078571"
         inkscape:export-filename="C:\Users\rober\Desktop\assets\ASSETS_2024\ESSENTIALS\sword_effects\slash_02\1.png"
         transform="matrix(0.58976194,0,0,0.58976194,-1591.542,-678.00577)"
         id="g4365">
        <g
           id="g4308"
           transform="translate(254.80879,-472.68877)">
          <rect
             style="opacity:0.27876108;color:#000000;fill:none;stroke:none;stroke-width:5;marker:none;visibility:visible;display:inline;overflow:visible;enable-background:accumulate"
             id="rect4280"
             width="247.42303"
             height="229.6972"
             x="3590.2192"
             y="1913.7432" />
          <g
             transform="translate(-697.38671,-0.00373063)"
             id="g4227">
            <path
               inkscape:connector-curvature="0"
               style="color:#000000;fill:#00ccff;fill-opacity:1;fill-rule:nonzero;stroke:none;stroke-width:5;marker:none;visibility:visible;display:inline;overflow:visible;enable-background:accumulate"
               d="m 16416.469,7278.3438 c -14.763,0.026 -32.813,1.3302 -54.094,5.0312 0,0 -9.883,3.9361 8.375,1.4688 18.258,-2.4675 94.75,-0.5 94.75,-0.5 0,0 -16.552,-6.0584 -49.031,-6 z m 151.156,18.4062 c -3.036,0.01 -0.04,2.3615 20.25,10.7812 46.386,19.2453 89.313,56.2813 89.313,56.2813 0,0 -29.112,-40.9815 -91.782,-63.1875 0,0 -13.877,-3.8847 -17.781,-3.875 z m 209.969,64.0312 c -0.09,0 -0.157,0.032 -0.219,0.063 -1.973,0.987 0,4.9374 0,4.9374 3.948,8.389 10.351,12.8111 13.313,10.3438 2.868,-2.3902 -10.463,-15.4282 -13.094,-15.3438 z m -93.625,8.3438 c 0.01,0.018 0.05,0.032 0.125,0.094 2.468,1.9738 17.787,19.7513 18.281,22.2187 49.84,66.1245 57.719,97.7187 57.719,97.7187 0,0 1.985,-28.1396 -22.688,-64.6562 -23.903,-35.3754 -53.833,-55.9194 -53.437,-55.375 z m 78.719,41.5938 c -0.716,0.02 -1.576,0.2898 -2.594,0.9374 0,4.4413 2.463,7.4115 4.437,5.4376 1.604,-1.6038 1.256,-6.4612 -1.843,-6.375 z m 11.468,12.1874 c -0.08,0.018 -0.173,0.079 -0.25,0.125 -2.467,1.4805 -1.468,3.4376 -1.468,3.4376 0.493,5.9216 4.945,11.3554 7.906,9.875 2.868,-1.4342 -3.542,-14.0006 -6.188,-13.4376 z m 33.282,54.0313 c 5.582,9.7701 21.293,20.9692 38.374,73.2813 8.012,24.5363 11.875,45.3452 13.969,68.375 7.677,-69.0891 -25.127,-127.6989 -52.343,-141.6563 z m -41.876,27.9063 c 60.017,219.1303 -120.026,460.6053 -206.562,478.75 l 443.844,0 c 53.038,-79.557 44.656,-182.8438 44.656,-182.8438 0,0 -25.105,90.698 -39.062,92.0938 -13.958,1.3957 -19.563,-11.1674 -19.563,-20.9376 0,-9.7702 -25.106,61.4262 -47.437,47.4688 -22.333,-13.9573 71.168,-277.759 -55.844,-403.375 96.305,147.9478 34.483,350.3163 11.125,388 -10.711,17.2819 -32.084,17.8857 -25.094,-13.9375 13.958,-63.5414 23.737,-131.1802 -6.969,-175.8437 0,40.4763 -13.96,131.1799 -46.062,171.6562 -32.102,40.4763 -57.792,19.8267 -53.032,-2.7812 11.166,-53.038 90.723,-270.7785 0,-378.25 z m 264.5,145.8437 c 18.34,68.6386 11.855,111.6667 15.344,110.9687 3.489,-0.6978 9.062,-17.4294 4.875,-51.625 -4.187,-34.1955 -10.448,-41.8971 -20.219,-59.3437 z m -34.593,50.8437 c -2.143,-0.1597 -1.688,7.0938 -1.688,7.0938 0.698,10.468 -0.03,18.8228 4.157,18.125 4.187,-0.6979 4.885,-16.0214 0,-23 -1.069,-1.5266 -1.869,-2.174 -2.469,-2.2188 z m 0.281,71.8438 c -0.1,-0.045 -0.08,0.2331 0.09,0.8438 1.396,4.885 -1.375,11.875 -1.375,11.875 4.885,25.8211 -8.365,58.6043 -4.875,62.0937 3.489,3.4893 13.25,-6.2728 13.25,-34.1875 0,-24.4254 -6.426,-40.3102 -7.094,-40.625 z"
               transform="matrix(0.26458334,0,0,0.26458334,-6.3049604e-6,18.562493)"
               id="path4162" />
            <path
               inkscape:connector-curvature="0"
               style="color:#000000;fill:#7ee5ff;fill-opacity:1;fill-rule:nonzero;stroke:none;stroke-width:5;marker:none;visibility:visible;display:inline;overflow:visible;enable-background:accumulate"
               d="m 16788.719,7569.0938 c -1.669,97.5943 -24.472,291.7665 -147.094,414.5 l 335.531,0 c 13.834,-17.8965 30.954,-44.8221 47.438,-82.9063 0,0 -30.581,48.3603 -41.438,11.8437 0.987,16.7779 -20.747,51.3381 -51.344,41.4688 -24.673,-18.7517 -1.971,-59.2227 -6.906,-87.8438 -0.987,12.8303 -16.824,78.3771 -60.187,72.0313 -40.465,-5.9218 16.789,-94.7277 7.906,-175.6563 -10.271,64.43 -31.563,137.6583 -62.156,157.9376 -34.638,22.9605 -82.26,7.6726 -70.188,-30.3438 51.989,-163.725 53.45,-221.1223 48.438,-321.0312 z"
               transform="matrix(0.26458334,0,0,0.26458334,-6.3049604e-6,18.562493)"
               id="path4166" />
            <path
               inkscape:connector-curvature="0"
               id="path4194"
               transform="matrix(0.26458334,0,0,0.26458334,-6.3049604e-6,18.562493)"
               d="m 16416.469,7278.3438 c -14.763,0.026 -32.813,1.3302 -54.094,5.0312 0,0 -9.883,3.9361 8.375,1.4688 18.258,-2.4675 94.75,-0.5 94.75,-0.5 0,0 -16.552,-6.0584 -49.031,-6 z m 151.156,18.4062 c -3.036,0.01 -0.04,2.3615 20.25,10.7812 46.386,19.2453 89.313,56.2813 89.313,56.2813 0,0 -29.112,-40.9815 -91.782,-63.1875 0,0 -13.877,-3.8847 -17.781,-3.875 z m 209.969,64.0312 c -0.09,0 -0.157,0.032 -0.219,0.063 -1.973,0.987 0,4.9374 0,4.9374 3.948,8.389 10.351,12.8111 13.313,10.3438 2.868,-2.3902 -10.463,-15.4282 -13.094,-15.3438 z m -93.625,8.3438 c 0.01,0.018 0.05,0.032 0.125,0.094 2.468,1.9738 17.787,19.7513 18.281,22.2187 49.84,66.1245 57.719,97.7187 57.719,97.7187 0,0 1.985,-28.1396 -22.688,-64.6562 -23.903,-35.3754 -53.833,-55.9194 -53.437,-55.375 z m 78.719,41.5938 c -0.716,0.02 -1.576,0.2898 -2.594,0.9374 0,4.4413 2.463,7.4115 4.437,5.4376 1.604,-1.6038 1.256,-6.4612 -1.843,-6.375 z m 11.468,12.1874 c -0.08,0.018 -0.173,0.079 -0.25,0.125 -2.467,1.4805 -1.468,3.4376 -1.468,3.4376 0.493,5.9216 4.945,11.3554 7.906,9.875 2.868,-1.4342 -3.542,-14.0006 -6.188,-13.4376 z m 33.282,54.0313 c 5.582,9.7701 21.293,20.9692 38.374,73.2813 8.012,24.5363 11.875,45.3452 13.969,68.375 7.677,-69.0891 -25.127,-127.6989 -52.343,-141.6563 z m -41.876,27.9063 c 60.017,219.1303 -120.026,460.6053 -206.562,478.75 l 443.844,0 c 53.038,-79.557 44.656,-182.8438 44.656,-182.8438 0,0 -25.105,90.698 -39.062,92.0938 -13.958,1.3957 -19.563,-11.1674 -19.563,-20.9376 0,-9.7702 -25.106,61.4262 -47.437,47.4688 -22.333,-13.9573 71.168,-277.759 -55.844,-403.375 96.305,147.9478 34.483,350.3163 11.125,388 -10.711,17.2819 -32.084,17.8857 -25.094,-13.9375 13.958,-63.5414 23.737,-131.1802 -6.969,-175.8437 0,40.4763 -13.96,131.1799 -46.062,171.6562 -32.102,40.4763 -57.792,19.8267 -53.032,-2.7812 11.166,-53.038 90.723,-270.7785 0,-378.25 z m 264.5,145.8437 c 18.34,68.6386 11.855,111.6667 15.344,110.9687 3.489,-0.6978 9.062,-17.4294 4.875,-51.625 -4.187,-34.1955 -10.448,-41.8971 -20.219,-59.3437 z m -34.593,50.8437 c -2.143,-0.1597 -1.688,7.0938 -1.688,7.0938 0.698,10.468 -0.03,18.8228 4.157,18.125 4.187,-0.6979 4.885,-16.0214 0,-23 -1.069,-1.5266 -1.869,-2.174 -2.469,-2.2188 z m 0.281,71.8438 c -0.1,-0.045 -0.08,0.2331 0.09,0.8438 1.396,4.885 -1.375,11.875 -1.375,11.875 4.885,25.8211 -8.365,58.6043 -4.875,62.0937 3.489,3.4893 13.25,-6.2728 13.25,-34.1875 0,-24.4254 -6.426,-40.3102 -7.094,-40.625 z"
               style="color:#000000;fill:#00e4ff;fill-opacity:1;fill-rule:nonzero;stroke:none;stroke-width:5;marker:none;visibility:visible;display:inline;overflow:visible;enable-background:accumulate" />
            <path
               inkscape:connector-curvature="0"
               id="path4196"
               d="m 16788.719,7569.0938 c -1.669,97.5943 -24.472,291.7665 -147.094,414.5 l 335.531,0 c 13.834,-17.8965 30.954,-44.8221 47.438,-82.9063 0,0 -30.581,48.3603 -41.438,11.8437 0.987,16.7779 -20.747,51.3381 -51.344,41.4688 -24.673,-18.7517 -1.971,-59.2227 -6.906,-87.8438 -0.987,12.8303 -16.824,78.3771 -60.187,72.0313 -40.465,-5.9218 16.789,-94.7277 7.906,-175.6563 -10.271,64.43 -31.563,137.6583 -62.156,157.9376 -34.638,22.9605 -82.26,7.6726 -70.188,-30.3438 51.989,-163.725 53.45,-221.1223 48.438,-321.0312 z"
               style="color:#000000;fill:#9dffff;fill-opacity:1;fill-rule:nonzero;stroke:none;stroke-width:5;marker:none;visibility:visible;display:inline;overflow:visible;enable-background:accumulate"
               transform="matrix(0.26458334,0,0,0.26458334,-6.3049604e-6,18.562493)" />
            <path
               id="path4440"
               transform="matrix(0.44862736,0,0,0.44862736,3297.9138,1913.7469)"
               d="m 2509.2812,451.8125 c 0,0 -7.8152,17.79996 -24.375,32.1875 l 167.2188,0 c 0.9772,-0.83827 1.7798,-1.575 2.2188,-2.09375 5.4282,-6.41506 9.375,-15.8125 9.375,-15.8125 0,0 -6.9082,8.90767 -21.2188,11.375 -14.3105,2.46734 -25.6562,-13.34375 -25.6562,-13.34375 0,0 -9.8589,12.34887 -25.1563,10.375 -15.2975,-1.97386 -22.2187,-15.78125 -22.2187,-15.78125 0,0 -13.8071,11.34233 -37,8.875 -23.1931,-2.46733 -23.1876,-15.78125 -23.1876,-15.78125 z"
               style="color:#000000;fill:#ffffff;fill-opacity:1;fill-rule:nonzero;stroke:none;stroke-width:5;marker:none;visibility:visible;display:inline;overflow:visible;enable-background:accumulate"
               inkscape:connector-curvature="0" />
          </g>
        </g>
      </g>
    </g>
  </g>
</svg>
