<?xml version="1.0" encoding="UTF-8" standalone="no"?>
<!-- Created with Inkscape (http://www.inkscape.org/) -->

<svg
   xmlns:dc="http://purl.org/dc/elements/1.1/"
   xmlns:cc="http://creativecommons.org/ns#"
   xmlns:rdf="http://www.w3.org/1999/02/22-rdf-syntax-ns#"
   xmlns:svg="http://www.w3.org/2000/svg"
   xmlns="http://www.w3.org/2000/svg"
   xmlns:sodipodi="http://sodipodi.sourceforge.net/DTD/sodipodi-0.dtd"
   xmlns:inkscape="http://www.inkscape.org/namespaces/inkscape"
   width="416.95679"
   height="104.2392"
   viewBox="0 0 110.31981 27.579958"
   version="1.1"
   id="svg23489"
   inkscape:version="0.48.5 r10040"
   sodipodi:docname="horizonal_slash_02.svg">
  <defs
     id="defs23483">
    <filter
       inkscape:collect="always"
       id="filter18160"
       color-interpolation-filters="sRGB">
      <feGaussianBlur
         inkscape:collect="always"
         stdDeviation="0.68961443"
         id="feGaussianBlur18162" />
    </filter>
    <filter
       inkscape:collect="always"
       id="filter3967"
       color-interpolation-filters="sRGB">
      <feGaussianBlur
         inkscape:collect="always"
         stdDeviation="1.47148"
         id="feGaussianBlur3969" />
    </filter>
    <filter
       inkscape:collect="always"
       id="filter4022"
       color-interpolation-filters="sRGB">
      <feGaussianBlur
         inkscape:collect="always"
         stdDeviation="2.2104728"
         id="feGaussianBlur4024" />
    </filter>
    <filter
       inkscape:collect="always"
       id="filter4083"
       color-interpolation-filters="sRGB">
      <feGaussianBlur
         inkscape:collect="always"
         stdDeviation="1.7785303"
         id="feGaussianBlur4085" />
    </filter>
    <filter
       inkscape:collect="always"
       id="filter4097"
       color-interpolation-filters="sRGB">
      <feGaussianBlur
         inkscape:collect="always"
         stdDeviation="2.0982677"
         id="feGaussianBlur4099" />
    </filter>
    <filter
       inkscape:collect="always"
       id="filter4130"
       color-interpolation-filters="sRGB">
      <feGaussianBlur
         inkscape:collect="always"
         stdDeviation="0.36492097"
         id="feGaussianBlur4132" />
    </filter>
  </defs>
  <sodipodi:namedview
     id="base"
     pagecolor="#474b4f"
     bordercolor="#666666"
     borderopacity="1.0"
     inkscape:pageopacity="0"
     inkscape:pageshadow="2"
     inkscape:zoom="0.77493125"
     inkscape:cx="163.18572"
     inkscape:cy="14.697975"
     inkscape:document-units="px"
     inkscape:current-layer="layer1"
     showgrid="false"
     inkscape:pagecheckerboard="false"
     showborder="true"
     units="px"
     inkscape:window-width="1920"
     inkscape:window-height="1017"
     inkscape:window-x="-8"
     inkscape:window-y="-8"
     inkscape:window-maximized="1"
     inkscape:showpageshadow="false"
     guidetolerance="28">
    <inkscape:grid
       type="xygrid"
       id="grid24034"
       spacingx="1px"
       spacingy="1px"
       empspacing="8"
       visible="true"
       enabled="true"
       snapvisiblegridlinesonly="true"
       originx="603.60692px"
       originy="-1199.6808px" />
  </sodipodi:namedview>
  <metadata
     id="metadata23486">
    <rdf:RDF>
      <cc:Work
         rdf:about="">
        <dc:format>image/svg+xml</dc:format>
        <dc:type
           rdf:resource="http://purl.org/dc/dcmitype/StillImage" />
        <dc:title></dc:title>
        <cc:license
           rdf:resource="" />
        <dc:creator>
          <cc:Agent>
            <dc:title>Robert Brooks</dc:title>
          </cc:Agent>
        </dc:creator>
      </cc:Work>
    </rdf:RDF>
  </metadata>
  <g
     inkscape:label="Layer 1"
     inkscape:groupmode="layer"
     id="layer1"
     transform="translate(159.70433,47.995521)">
    <g
       id="g3911"
       transform="translate(216.27381,39.532868)">
      <path
         inkscape:connector-curvature="0"
         style="color:#000000;fill:#00ccff;fill-opacity:1;fill-rule:nonzero;stroke:none;stroke-width:2;marker:none;visibility:visible;display:inline;overflow:visible;filter:url(#filter3967);enable-background:accumulate"
         d="m -409.78125,49.28125 c -9.8976,-0.02797 -19.95247,0.962707 -29.4375,3.28125 30.99926,-5.073055 75.62083,4.743312 88.90625,11.71875 -10.03857,-8.204072 -34.17487,-14.924334 -59.46875,-15 z m 57.75,9 c 31.20026,12.669923 18.75,34.25 18.75,34.25 0,0 9.44287,-6.176435 3.0625,-19.53125 -6.38041,-13.354811 -21.8125,-14.71875 -21.8125,-14.71875 z m -35.8125,2.15625 c -0.95357,0.02117 -1.86065,0.07216 -2.71875,0.15625 20.05674,2.045839 31.171,11.891008 25.65625,8.53125 -13.24819,-8.07118 -38.5,-8 -38.5,-8 0,0 20.64019,3.043708 28.59375,13.375 -12.53931,-2.965248 -28.5981,-5.367863 -47.28125,-7.03125 -7.77199,-1.967152 -21.34764,-4.580998 -38.40625,-4.34375 -2.79646,0.03889 -5.66189,0.166049 -8.625,0.375 16.04838,0.471257 29.21671,1.892174 38.59375,3.25 -16.92908,-1.248594 -35.74193,-1.883897 -55.90625,-1.78125 45.03854,4.079969 85.0625,10.376004 85.0625,23.625 0,1.199376 -0.41304,2.351328 -1.1875,3.4375 -3.69169,-5.062994 -9.9375,-6.09375 -9.9375,-6.09375 0,0 4.55173,1.508916 4.5625,7.1875 -7.89449,-6.114341 -30.49378,-10.515635 -59.21875,-10.34375 19.80208,2.408107 37.375,6.149085 37.375,13.9375 0,3.40517 -4.17286,6.04211 -10.59375,8.125 -31.95386,4.85857 -78.33718,6.5625 -118.90625,6.5625 -68.88778,0 -124.96521,-8.41744 -127.03125,-20.75 6.00038,19.31416 130.91742,15.20703 144.21875,11.375 0,0 -142.78721,7.97568 -144.0625,-13.25 0.97353,-3.230127 5.82921,-6.288289 13.75,-9.0625 9.36805,-3.281132 -19.0625,3.228916 -19.0625,11.0625 0,0.589943 0.12593,1.196973 0.375,1.78125 1.75359,14.36169 83.14991,28.9375 184.625,28.9375 87.1331,0 161.04633,-9.40201 181.34375,-21.125 9.60272,-4.583368 13.08254,-9.096637 12.65625,-13.6875 -0.28044,4.15926 -6.91658,7.728119 -12.65625,10.8125 -20.29742,11.72299 -94.21065,22.71875 -181.34375,22.71875 -62.22991,0 -116.86444,-5.51292 -150.25,-13.0625 0.0158,-0.0144 0.0153,-0.0486 0.0312,-0.0625 31.33812,6.68805 81.03882,11.25 137.40625,11.25 81.2548,0 150.1969,-9.40201 169.125,-21.125 14.02265,-7.177186 14.06179,-14.20067 8,-21.59375 -7.239,-8.82885 -31.38369,-15.49795 -45.6875,-15.1875 z m -79.3125,22.34375 c -0.0741,-0.01058 -0.14467,-0.02445 -0.21875,-0.03125 l 0,0.03125 c 0.0741,-4.91e-4 0.14467,4.57e-4 0.21875,0 z m 62.5,-20.28125 c -1.61429,-0.0092 -3.28284,0.04237 -5.03125,0.21875 14.74155,0.619272 24.0625,3.875 24.0625,3.875 0,0 -7.73125,-4.029489 -19.03125,-4.09375 z m -52.8125,11.40625 c -1.90696,0.03794 -3.8544,0.17116 -5.875,0.375 22.71526,0.95424 37.09375,5.9375 37.09375,5.9375 0,0 -12.78485,-6.679267 -31.21875,-6.3125 z"
         transform="matrix(0.26458337,0,0,0.26458337,-188.19264,-95.912643)"
         id="path3965" />
      <path
         sodipodi:nodetypes="cccsscccccccccsccccc"
         style="opacity:0.25;color:#000000;fill:#00ffff;fill-opacity:1;fill-rule:nonzero;stroke:none;stroke-width:2;marker:none;visibility:visible;display:inline;overflow:visible;enable-background:accumulate"
         d="m -295.43877,-84.111568 c -3.15079,0.0033 -5.53654,0.35401 -6.06888,0.592575 2.87376,0.320624 28.41025,2.12441 16.90026,11.328179 0,0 -1.44734,4.107795 3.96049,1.800812 5.40784,-2.306984 6.40515,-7.252981 -1.16582,-11.028046 -4.25866,-2.123474 -9.57502,-2.697667 -13.62605,-2.69352 z m -13.57643,2.23947 c -0.36324,4.93e-4 -0.72464,2.17e-4 -1.08314,0.0077 -11.47174,0.237279 -13.7666,1.662287 -13.7666,1.662287 0,0 16.81898,-0.873939 18.61179,2.016293 -1.92102,0.300815 -13.76661,0.123132 -13.76661,0.123132 0,0 10.64853,0.493158 12.36101,2.254863 -9.01306,-1.300305 -15.67657,0.230873 -15.67657,0.230873 17.84495,-1.423652 26.22348,2.876498 26.76426,5.225427 0,0 13.64391,-5.222277 12.36927,-6.764582 -1.23481,-1.494141 -14.55279,-4.768477 -25.81341,-4.756019 z m -53.60293,14.00631 c 39.00395,11.626608 83.57721,2.874786 84.94292,-0.624853 -2.81678,1.536427 -57.66565,8.692292 -84.94292,0.624853 z"
         id="path3822"
         inkscape:connector-curvature="0" />
      <rect
         style="color:#000000;fill:none;stroke:none;stroke-width:2.70000005;marker:none;visibility:visible;display:inline;overflow:visible;enable-background:accumulate"
         id="rect3818"
         width="110.31983"
         height="27.579958"
         x="-375.97815"
         y="-87.528389" />
      <path
         id="path3828"
         transform="matrix(0.26458337,0,0,0.26458337,-188.19264,-95.912643)"
         d="m -409.78125,49.28125 c -9.8976,-0.02797 -19.95247,0.962707 -29.4375,3.28125 30.99926,-5.073055 75.62083,4.743312 88.90625,11.71875 -10.03857,-8.204072 -34.17487,-14.924334 -59.46875,-15 z m 57.75,9 c 31.20026,12.669923 18.75,34.25 18.75,34.25 0,0 9.44287,-6.176435 3.0625,-19.53125 -6.38041,-13.354811 -21.8125,-14.71875 -21.8125,-14.71875 z m -35.8125,2.15625 c -0.95357,0.02117 -1.86065,0.07216 -2.71875,0.15625 20.05674,2.045839 31.171,11.891008 25.65625,8.53125 -13.24819,-8.07118 -38.5,-8 -38.5,-8 0,0 20.64019,3.043708 28.59375,13.375 -12.53931,-2.965248 -28.5981,-5.367863 -47.28125,-7.03125 -7.77199,-1.967152 -21.34764,-4.580998 -38.40625,-4.34375 -2.79646,0.03889 -5.66189,0.166049 -8.625,0.375 16.04838,0.471257 29.21671,1.892174 38.59375,3.25 -16.92908,-1.248594 -35.74193,-1.883897 -55.90625,-1.78125 45.03854,4.079969 85.0625,10.376004 85.0625,23.625 0,1.199376 -0.41304,2.351328 -1.1875,3.4375 -3.69169,-5.062994 -9.9375,-6.09375 -9.9375,-6.09375 0,0 4.55173,1.508916 4.5625,7.1875 -7.89449,-6.114341 -30.49378,-10.515635 -59.21875,-10.34375 19.80208,2.408107 37.375,6.149085 37.375,13.9375 0,3.40517 -4.17286,6.04211 -10.59375,8.125 -31.95386,4.85857 -78.33718,6.5625 -118.90625,6.5625 -68.88778,0 -124.96521,-8.41744 -127.03125,-20.75 6.00038,19.31416 130.91742,15.20703 144.21875,11.375 0,0 -142.78721,7.97568 -144.0625,-13.25 0.97353,-3.230127 5.82921,-6.288289 13.75,-9.0625 9.36805,-3.281132 -19.0625,3.228916 -19.0625,11.0625 0,0.589943 0.12593,1.196973 0.375,1.78125 1.75359,14.36169 83.14991,28.9375 184.625,28.9375 87.1331,0 161.04633,-9.40201 181.34375,-21.125 9.60272,-4.583368 13.08254,-9.096637 12.65625,-13.6875 -0.28044,4.15926 -6.91658,7.728119 -12.65625,10.8125 -20.29742,11.72299 -94.21065,22.71875 -181.34375,22.71875 -62.22991,0 -116.86444,-5.51292 -150.25,-13.0625 0.0158,-0.0144 0.0153,-0.0486 0.0312,-0.0625 31.33812,6.68805 81.03882,11.25 137.40625,11.25 81.2548,0 150.1969,-9.40201 169.125,-21.125 14.02265,-7.177186 14.06179,-14.20067 8,-21.59375 -7.239,-8.82885 -31.38369,-15.49795 -45.6875,-15.1875 z m -79.3125,22.34375 c -0.0741,-0.01058 -0.14467,-0.02445 -0.21875,-0.03125 l 0,0.03125 c 0.0741,-4.91e-4 0.14467,4.57e-4 0.21875,0 z m 62.5,-20.28125 c -1.61429,-0.0092 -3.28284,0.04237 -5.03125,0.21875 14.74155,0.619272 24.0625,3.875 24.0625,3.875 0,0 -7.73125,-4.029489 -19.03125,-4.09375 z m -52.8125,11.40625 c -1.90696,0.03794 -3.8544,0.17116 -5.875,0.375 22.71526,0.95424 37.09375,5.9375 37.09375,5.9375 0,0 -12.78485,-6.679267 -31.21875,-6.3125 z"
         style="color:#000000;fill:#00ffff;fill-opacity:1;fill-rule:nonzero;stroke:none;stroke-width:2;marker:none;visibility:visible;display:inline;overflow:visible;enable-background:accumulate"
         inkscape:connector-curvature="0" />
      <path
         sodipodi:nodetypes="ccc"
         inkscape:connector-curvature="0"
         id="path3840"
         d="m -300.60233,-81.544353 c 8.37185,0.258805 13.66868,1.614574 13.66868,1.614574 0,0 -5.72515,-2.204281 -13.66868,-1.614574 z"
         style="color:#000000;fill:#00ffff;fill-opacity:1;fill-rule:nonzero;stroke:none;stroke-width:2;marker:none;visibility:visible;display:inline;overflow:visible;enable-background:accumulate" />
      <path
         sodipodi:nodetypes="csscsc"
         transform="matrix(0.26458337,0,0,0.26458337,-188.19264,-95.912643)"
         inkscape:connector-curvature="0"
         id="path3896"
         d="m -498.75392,114.70831 c 0,0 68.66454,-3.06315 101.62192,-13.54959 35.48701,-11.291323 41.29398,-17.09829 37.74528,-24.518303 -3.54871,-7.420013 -28.85257,-15.635086 -28.85257,-15.635086 0,0 37.12398,5.096571 41.35605,18.294239 10.32799,32.20766 -151.35838,38.1141 -151.87068,35.40874 z"
         style="color:#000000;fill:#ffffff;fill-opacity:1;fill-rule:nonzero;stroke:none;stroke-width:5;marker:none;visibility:visible;display:inline;overflow:visible;enable-background:accumulate" />
      <path
         sodipodi:nodetypes="cscsc"
         transform="matrix(0.26458337,0,0,0.26458337,-188.19264,-95.912643)"
         inkscape:connector-curvature="0"
         id="path3898"
         d="m -426.81206,69.220404 c 43.22964,0.967828 44.52008,26.776569 21.61482,33.551366 -22.90525,6.77479 -37.10006,8.38784 -37.10006,8.38784 0,0 36.13223,-1e-5 61.94097,-11.291327 25.80875,-11.291323 -9.17097,-31.93356 -46.45573,-30.647879 z"
         style="color:#000000;fill:#ffffff;fill-opacity:1;fill-rule:nonzero;stroke:none;stroke-width:5;marker:none;visibility:visible;display:inline;overflow:visible;enable-background:accumulate" />
      <path
         sodipodi:nodetypes="cscsc"
         transform="matrix(0.26458337,0,0,0.26458337,-188.19264,-95.912643)"
         inkscape:connector-curvature="0"
         id="path3900"
         d="m -430.03815,88.899569 c 0,0 10.00089,0 10.00089,8.710451 0,8.71045 -47.74618,15.80786 -47.74618,15.80786 0,0 36.66647,-3.07179 44.19748,-4.51654 22.55729,-4.3274 8.57794,-20.967442 -6.45219,-20.001771 z"
         style="color:#000000;fill:#ffffff;fill-opacity:1;fill-rule:nonzero;stroke:none;stroke-width:5;marker:none;visibility:visible;display:inline;overflow:visible;enable-background:accumulate" />
      <path
         transform="matrix(0.26458337,0,0,0.26458337,-188.19264,-95.912643)"
         inkscape:connector-curvature="0"
         id="path3902"
         d="m -419.39204,105.99786 c 17.09829,-3.5487 14.51741,-11.936542 14.51741,-11.936542 0,0 3.5487,2.903483 1.93566,6.774792 -1.61305,3.87131 -7.09741,6.12958 -9.03306,6.12958 -1.93566,0 -7.42001,-0.96783 -7.42001,-0.96783 z"
         style="color:#000000;fill:#ffffff;fill-opacity:1;fill-rule:nonzero;stroke:none;stroke-width:5;marker:none;visibility:visible;display:inline;overflow:visible;enable-background:accumulate" />
      <path
         transform="matrix(0.26458337,0,0,0.26458337,-188.19264,-95.912643)"
         inkscape:connector-curvature="0"
         id="path3904"
         d="m -383.90502,99.545675 c 15.16263,-10.000887 10.6461,-18.388728 10.6461,-18.388728 0,0 6.12958,3.548702 5.16175,9.678278 -0.96783,6.129576 -15.80785,8.71045 -15.80785,8.71045 z"
         style="color:#000000;fill:#ffffff;fill-opacity:1;fill-rule:nonzero;stroke:none;stroke-width:5;marker:none;visibility:visible;display:inline;overflow:visible;enable-background:accumulate" />
      <path
         transform="matrix(0.26458337,0,0,0.26458337,-188.19264,-95.912643)"
         inkscape:connector-curvature="0"
         id="path3906"
         d="m -379.3885,96.964801 c 20.32439,-14.517417 9.35567,-24.518304 9.35567,-24.518304 0,0 11.29133,4.19392 8.71045,14.840026 -2.58087,10.646106 -18.06612,9.678278 -18.06612,9.678278 z"
         style="color:#000000;fill:#ffffff;fill-opacity:1;fill-rule:nonzero;stroke:none;stroke-width:5;marker:none;visibility:visible;display:inline;overflow:visible;enable-background:accumulate" />
    </g>
  </g>
</svg>
