<?xml version="1.0" encoding="UTF-8" standalone="no"?>
<!-- Created with Inkscape (http://www.inkscape.org/) -->

<svg
   xmlns:dc="http://purl.org/dc/elements/1.1/"
   xmlns:cc="http://creativecommons.org/ns#"
   xmlns:rdf="http://www.w3.org/1999/02/22-rdf-syntax-ns#"
   xmlns:svg="http://www.w3.org/2000/svg"
   xmlns="http://www.w3.org/2000/svg"
   xmlns:sodipodi="http://sodipodi.sourceforge.net/DTD/sodipodi-0.dtd"
   xmlns:inkscape="http://www.inkscape.org/namespaces/inkscape"
   width="3594.0178"
   height="546.41699"
   viewBox="0 0 950.91717 144.57283"
   version="1.1"
   id="svg23489"
   inkscape:version="0.48.5 r10040"
   sodipodi:docname="sword_effects.svg">
  <defs
     id="defs23483">
    <filter
       inkscape:collect="always"
       id="filter4178">
      <feGaussianBlur
         inkscape:collect="always"
         stdDeviation="0.94617652"
         id="feGaussianBlur4180" />
    </filter>
    <filter
       inkscape:collect="always"
       id="filter4182">
      <feGaussianBlur
         inkscape:collect="always"
         stdDeviation="1.4712898"
         id="feGaussianBlur4184" />
    </filter>
    <filter
       inkscape:collect="always"
       id="filter4186">
      <feGaussianBlur
         inkscape:collect="always"
         stdDeviation="1.786033"
         id="feGaussianBlur4188" />
    </filter>
    <filter
       inkscape:collect="always"
       id="filter4190">
      <feGaussianBlur
         inkscape:collect="always"
         stdDeviation="1.7355851"
         id="feGaussianBlur4192" />
    </filter>
    <filter
       inkscape:collect="always"
       id="filter4194">
      <feGaussianBlur
         inkscape:collect="always"
         stdDeviation="1.3030529"
         id="feGaussianBlur4196" />
    </filter>
    <filter
       inkscape:collect="always"
       id="filter4198">
      <feGaussianBlur
         inkscape:collect="always"
         stdDeviation="0.65784243"
         id="feGaussianBlur4200" />
    </filter>
    <filter
       inkscape:collect="always"
       id="filter4202">
      <feGaussianBlur
         inkscape:collect="always"
         stdDeviation="0.39911912"
         id="feGaussianBlur4204" />
    </filter>
  </defs>
  <sodipodi:namedview
     id="base"
     pagecolor="#2b2e30"
     bordercolor="#666666"
     borderopacity="1.0"
     inkscape:pageopacity="1"
     inkscape:pageshadow="2"
     inkscape:zoom="0.34863486"
     inkscape:cx="1690.5289"
     inkscape:cy="128.61214"
     inkscape:document-units="px"
     inkscape:current-layer="layer1"
     showgrid="false"
     inkscape:pagecheckerboard="false"
     showborder="true"
     units="px"
     inkscape:window-width="1920"
     inkscape:window-height="1017"
     inkscape:window-x="-8"
     inkscape:window-y="-8"
     inkscape:window-maximized="1"
     inkscape:showpageshadow="false"
     guidetolerance="28"
     showguides="true"
     inkscape:guide-bbox="true">
    <inkscape:grid
       type="xygrid"
       id="grid24034"
       spacingx="1px"
       spacingy="1px"
       empspacing="8"
       visible="true"
       enabled="true"
       snapvisiblegridlinesonly="true"
       originx="1109.3864px"
       originy="-867.66998px" />
  </sodipodi:namedview>
  <metadata
     id="metadata23486">
    <rdf:RDF>
      <cc:Work
         rdf:about="">
        <dc:format>image/svg+xml</dc:format>
        <dc:type
           rdf:resource="http://purl.org/dc/dcmitype/StillImage" />
        <dc:title></dc:title>
        <cc:license
           rdf:resource="" />
        <dc:creator>
          <cc:Agent>
            <dc:title>Robert Brooks</dc:title>
          </cc:Agent>
        </dc:creator>
      </cc:Work>
    </rdf:RDF>
  </metadata>
  <g
     inkscape:label="Layer 1"
     inkscape:groupmode="layer"
     id="layer1"
     transform="translate(293.52516,77.143858)">
    <g
       id="g4079"
       transform="translate(115.47672,0)">
      <g
         id="g4081"
         transform="translate(339.83114,-147.85477)" />
    </g>
    <g
       id="g4247"
       inkscape:export-filename="C:\Users\rober\Desktop\assets\ASSETS_2024\ESSENTIALS\sword_effects\1.png"
       inkscape:export-xdpi="90"
       inkscape:export-ydpi="90">
      <path
         gds_color="blur"
         gds_switchable="blur"
         inkscape:connector-curvature="0"
         inkscape:export-ydpi="90"
         inkscape:export-xdpi="90"
         inkscape:export-filename="C:\Users\rober\Desktop\assets\ASSETS_2024\ESSENTIALS\sword_effects\1.png"
         id="path4066-1"
         d="m 500.88105,-70.122534 1.52135,4.927865 c 4.55348,14.419336 4.17544,27.706837 4.17544,27.706837 0,0 2.08701,-6.261156 0,-17.834572 -2.08701,-11.573415 -5.69679,-14.80013 -5.69679,-14.80013 z m -3.34865,1.95957 c -0.5628,-0.03127 -0.0661,8.474935 -0.0661,8.474935 2.27674,18.972812 -4.74596,52.5528663 -4.74596,52.5528663 0,0 7.02106,-15.3667963 7.59023,-31.4936853 0.56918,-16.126892 -1.89515,-28.081995 -2.65411,-29.410092 -0.0474,-0.08301 -0.0865,-0.121939 -0.12401,-0.124024 z m 7.90443,0.884701 c 0.37946,3.604834 3.22461,12.146029 3.22461,12.146029 0,0 -0.76155,-4.175128 -1.14102,-7.590235 -0.37947,-3.415104 -2.08359,-4.555794 -2.08359,-4.555794 z m -10.34355,2.728515 c -0.36396,-0.04877 -0.66145,1.63711 -0.66145,1.63711 1.3281,10.435047 0.19015,14.229622 0.19015,14.229622 0,0 1.90037,-2.46725 1.3312,-11.005013 -0.24903,-3.735274 -0.57684,-4.823783 -0.8599,-4.861719 z m 15.08951,0.686263 0.37206,7.209896 c 1.51783,7.589124 1.52135,18.975587 1.52135,18.975587 0,0 1.52051,-5.318902 1.14104,-13.477214 -0.37946,-8.158308 -3.03445,-12.708269 -3.03445,-12.708269 z m -19.16576,0.570508 0.38034,5.878711 c 0.5692,12.332328 -2.84427,20.488673 -2.84427,20.488673 0,0 3.78905,-5.119584 4.73768,-12.898438 0.94869,-7.778854 -2.27375,-13.468946 -2.27375,-13.468946 z m 15.49467,43.631447 c -0.4263,0.06331 -0.69454,2.091862 -0.69454,2.091862 -0.56919,2.466464 -0.94863,3.603625 0,3.03444 0.94864,-0.569185 1.51178,-3.979222 0.94258,-4.927865 -0.0889,-0.148224 -0.16909,-0.210161 -0.24804,-0.198437 z"
         style="color:#000000;fill:#00ccff;fill-opacity:1;fill-rule:nonzero;stroke:#00ccff;stroke-width:1.32291663;stroke-miterlimit:4;stroke-dasharray:none;marker:none;visibility:visible;display:inline;overflow:visible;filter:url(#filter4198);enable-background:accumulate" />
      <g
         inkscape:export-ydpi="90"
         inkscape:export-xdpi="90"
         inkscape:export-filename="C:\Users\rober\Desktop\assets\ASSETS_2024\ESSENTIALS\sword_effects\1.png"
         transform="translate(-41.243288,0)"
         id="g4061">
        <g
           id="g4055"
           transform="translate(579.57325,-183.65682)">
          <rect
             y="106.51296"
             x="-152.62852"
             height="144.57283"
             width="135.84532"
             id="rect4057"
             style="color:#000000;fill:#ffcc00;fill-opacity:1;fill-rule:nonzero;stroke:none;stroke-width:2;marker:none;visibility:visible;display:inline;overflow:visible;enable-background:accumulate;opacity:0" />
        </g>
      </g>
      <path
         inkscape:connector-curvature="0"
         inkscape:export-ydpi="90"
         inkscape:export-xdpi="90"
         inkscape:export-filename="C:\Users\rober\Desktop\assets\ASSETS_2024\ESSENTIALS\sword_effects\1.png"
         id="path4066"
         transform="matrix(0.26458334,0,0,0.26458334,-6.3049604e-6,18.562493)"
         d="m 1893.0938,-335.1875 5.75,18.625 c 17.21,54.49828 15.7812,104.71875 15.7812,104.71875 0,0 7.8879,-23.66421 0,-67.40625 -7.8879,-43.74204 -21.5312,-55.9375 -21.5312,-55.9375 z m -12.6563,7.40625 c -2.1271,-0.11817 -0.25,32.03125 -0.25,32.03125 8.605,71.70826 -17.9375,198.625 -17.9375,198.625 0,0 26.5363,-58.07923 28.6875,-119.03125 2.1512,-60.95203 -7.1628,-106.13667 -10.0313,-111.15625 -0.1792,-0.31372 -0.3269,-0.46087 -0.4687,-0.46875 z m 29.875,3.34375 c 1.4342,13.62457 12.1875,45.90625 12.1875,45.90625 0,0 -2.8783,-15.78001 -4.3125,-28.6875 -1.4342,-12.90748 -7.875,-17.21875 -7.875,-17.21875 z m -39.0937,10.3125 c -1.3756,-0.18435 -2.5,6.1875 -2.5,6.1875 5.0196,39.43955 0.7187,53.78125 0.7187,53.78125 0,0 7.1825,-9.32504 5.0313,-41.59375 -0.9412,-14.11757 -2.1802,-18.23162 -3.25,-18.375 z m 57.0312,2.59375 1.4062,27.25 c 5.7367,28.6833 5.75,71.71875 5.75,71.71875 0,0 5.7468,-20.10294 4.3126,-50.9375 -1.4342,-30.83455 -11.4688,-48.03125 -11.4688,-48.03125 z m -72.4375,2.15625 1.4375,22.21875 c 2.1513,46.61037 -10.75,77.4375 -10.75,77.4375 0,0 14.3208,-19.34961 17.9062,-48.75 3.5856,-29.40039 -8.5937,-50.90625 -8.5937,-50.90625 z m 58.5625,164.90625 c -1.6112,0.2393 -2.625,7.90625 -2.625,7.90625 -2.1513,9.32207 -3.5854,13.62 0,11.46875 3.5854,-2.15125 5.7138,-15.03958 3.5625,-18.625 -0.3361,-0.56022 -0.6391,-0.79431 -0.9375,-0.75 z"
         style="color:#000000;fill:#00ffff;fill-opacity:1;fill-rule:nonzero;stroke:none;stroke-width:2;marker:none;visibility:visible;display:inline;overflow:visible;enable-background:accumulate" />
    </g>
    <g
       id="g4254"
       inkscape:export-filename="C:\Users\rober\Desktop\assets\ASSETS_2024\ESSENTIALS\sword_effects\1.png"
       inkscape:export-xdpi="90"
       inkscape:export-ydpi="90">
      <path
         gds_color="blur"
         gds_switchable="blur"
         inkscape:connector-curvature="0"
         inkscape:export-ydpi="90"
         inkscape:export-xdpi="90"
         inkscape:export-filename="C:\Users\rober\Desktop\assets\ASSETS_2024\ESSENTIALS\sword_effects\1.png"
         id="path4096-6"
         d="m 640.71334,-60.258537 c -0.94867,0.189728 -0.38037,2.844271 -0.38037,2.844271 0.5692,3.794562 1.70413,5.122334 2.0836,3.414779 0.37949,-1.707552 -0.75457,-6.448777 -1.70323,-6.25905 z m -13.00594,0.802019 c -0.46249,0.01225 -0.65318,1.281575 -0.65318,1.281575 -0.37949,4.174017 -0.19582,7.026669 0.94255,6.457487 1.1384,-0.569185 1.32901,-5.122444 0.38037,-7.019726 -0.26681,-0.533612 -0.48877,-0.724131 -0.66974,-0.719336 z m 19.24016,0.05788 c -0.5428,-0.01447 -0.54568,1.604037 -0.54568,1.604037 0.5692,4.174019 1.52268,7.595857 2.09185,6.457487 0.5692,-1.138367 0.18753,-6.07241 -0.95086,-7.590235 -0.249,-0.332023 -0.44331,-0.467235 -0.59531,-0.471289 z m -12.21217,13.841016 c -0.69479,0.01085 -1.04179,3.13366 -1.04179,3.13366 -0.94864,8.158308 -1.89685,14.796601 0.19015,13.278776 2.08704,-1.517825 2.65147,-12.706617 1.5131,-15.552539 -0.24902,-0.622546 -0.46691,-0.862937 -0.66146,-0.859897 z"
         style="color:#000000;fill:#00ccff;fill-opacity:1;fill-rule:nonzero;stroke:#00ccff;stroke-width:1.32291663;stroke-miterlimit:4;stroke-dasharray:none;marker:none;visibility:visible;display:inline;overflow:visible;filter:url(#filter4202);enable-background:accumulate" />
      <g
         inkscape:export-ydpi="90"
         inkscape:export-xdpi="90"
         inkscape:export-filename="C:\Users\rober\Desktop\assets\ASSETS_2024\ESSENTIALS\sword_effects\1.png"
         transform="translate(-42.878566,0)"
         id="g4090">
        <g
           transform="translate(137.4806,0)"
           id="g4082">
          <g
             id="g4084"
             transform="translate(579.57325,-183.65682)">
            <rect
               y="106.51296"
               x="-152.62852"
               height="144.57283"
               width="135.84532"
               id="rect4086"
               style="color:#000000;fill:#ffcc00;fill-opacity:1;fill-rule:nonzero;stroke:none;stroke-width:2;marker:none;visibility:visible;display:inline;overflow:visible;enable-background:accumulate;opacity:0" />
          </g>
        </g>
      </g>
      <path
         inkscape:connector-curvature="0"
         inkscape:export-ydpi="90"
         inkscape:export-xdpi="90"
         inkscape:export-filename="C:\Users\rober\Desktop\assets\ASSETS_2024\ESSENTIALS\sword_effects\1.png"
         id="path4096"
         transform="matrix(0.26458334,0,0,0.26458334,-6.3049604e-6,18.562493)"
         d="m 2421.5938,-297.90625 c -3.5855,0.71708 -1.4376,10.75 -1.4376,10.75 2.1513,14.34165 6.4408,19.36 7.875,12.90625 1.4343,-6.45374 -2.8519,-24.37333 -6.4374,-23.65625 z m -49.1563,3.03125 c -1.748,0.0463 -2.4687,4.84375 -2.4687,4.84375 -1.4343,15.77581 -0.7401,26.55749 3.5624,24.40625 4.3026,-2.15125 5.023,-19.36042 1.4376,-26.53125 -1.0084,-2.0168 -1.8473,-2.73687 -2.5313,-2.71875 z m 72.7187,0.21875 c -2.0515,-0.0547 -2.0624,6.0625 -2.0624,6.0625 2.1513,15.77582 5.755,28.70875 7.9062,24.40625 2.1513,-4.30249 0.7088,-22.95084 -3.5938,-28.6875 -0.9411,-1.25489 -1.6755,-1.76593 -2.25,-1.78125 z M 2399,-242.34375 c -2.626,0.041 -3.9375,11.84375 -3.9375,11.84375 -3.5854,30.83455 -7.1692,55.92416 0.7187,50.1875 7.888,-5.73666 10.0213,-48.02501 5.7188,-58.78125 -0.9412,-2.35293 -1.7647,-3.26149 -2.5,-3.25 z"
         style="color:#000000;fill:#00ffff;fill-opacity:1;fill-rule:nonzero;stroke:none;stroke-width:2;marker:none;visibility:visible;display:inline;overflow:visible;enable-background:accumulate" />
    </g>
    <g
       id="g4206"
       inkscape:export-filename="C:\Users\rober\Desktop\assets\ASSETS_2024\ESSENTIALS\sword_effects\1.png"
       inkscape:export-xdpi="90"
       inkscape:export-ydpi="90">
      <path
         gds_color="blur"
         gds_switchable="blur"
         style="color:#000000;fill:#00ccff;fill-opacity:1;stroke:#00ccff;stroke-width:1.32291663;stroke-miterlimit:4;stroke-dasharray:none;marker:none;visibility:visible;display:inline;overflow:visible;filter:url(#filter4178);enable-background:accumulate"
         d="m -214.01188,21.850338 c -2.69679,0 -5.12942,1.144659 -6.82129,2.984831 0,0 -10.47975,10.681748 -35.34667,22.869919 0.0128,-0.003 0.02,-0.005 0.0331,-0.008 5.88157,-1.328089 21.43952,-7.97057 21.43952,-7.97057 0,0 -11.76174,6.450211 -24.28379,10.43451 -2.53253,0.805789 -12.15135,4.7713 -25.61498,9.409229 17.67695,-1.22415 35.63568,-5.933548 49.53497,-10.500648 13.27406,-5.69377 20.09179,-11.42669 20.09179,-11.42669 0,0 -0.85813,2.675069 -5.97793,6.374799 6.65513,-2.583251 10.8072,-4.48958 11.16212,-4.671549 l 0.2067,-0.0579 -0.0248,-0.0331 c 2.89444,-1.56491 4.85345,-4.631121 4.85345,-8.152469 0,-5.112451 -4.13971,-9.252151 -9.25215,-9.252151 z m 17.84284,14.353649 c 0,0 -14.62528,10.73485 -37.29799,15.296221 28.97814,-4.829691 37.29799,-15.296221 37.29799,-15.296221 z m -51.59374,2.77812 c -1.65288,0.985962 -8.33804,5.11352 -13.44416,7.615041 -5.52259,2.705561 -6.92488,4.286219 -16.42897,7.408328 6.72684,-1.975619 12.50861,-4.714647 16.9416,-7.102408 5.36088,-2.887541 9.28418,-5.10326 12.93153,-7.920961 z"
         id="path3887-9"
         inkscape:connector-curvature="0" />
      <g
         inkscape:export-ydpi="90"
         inkscape:export-xdpi="90"
         inkscape:export-filename="C:\Users\rober\Desktop\assets\ASSETS_2024\ESSENTIALS\sword_effects\1.png"
         transform="translate(301.28825,-183.65682)"
         id="g3993">
        <rect
           y="106.51296"
           x="-594.81342"
           height="144.57283"
           width="135.84532"
           id="rect3973"
           style="color:#000000;fill:#ffcc00;fill-opacity:1;fill-rule:nonzero;stroke:none;stroke-width:2;marker:none;visibility:visible;display:inline;overflow:visible;enable-background:accumulate;opacity:0" />
        <path
           style="color:#000000;fill:#00ffff;fill-opacity:1;stroke:none;stroke-width:2;marker:none;visibility:visible;display:inline;overflow:visible;enable-background:accumulate"
           d="m -515.30012,205.50716 c -2.69679,0 -5.12942,1.14466 -6.82129,2.98483 0,0 -10.47975,10.68175 -35.34668,22.86992 0.0128,-0.003 0.02,-0.005 0.0331,-0.008 5.88157,-1.32809 21.43952,-7.97057 21.43952,-7.97057 0,0 -11.76174,6.45021 -24.28379,10.43451 -2.53253,0.8058 -12.15135,4.77131 -25.61498,9.40924 17.67695,-1.22415 35.63568,-5.93355 49.53497,-10.50065 13.27406,-5.69377 20.09179,-11.42669 20.09179,-11.42669 0,0 -0.85813,2.67507 -5.97793,6.3748 6.65513,-2.58325 10.8072,-4.48958 11.16211,-4.67155 l 0.20671,-0.0579 -0.0248,-0.0331 c 2.89444,-1.56491 4.85345,-4.63112 4.85345,-8.15247 0,-5.11245 -4.13971,-9.25215 -9.25215,-9.25215 z m 17.84284,14.35365 c 0,0 -14.62528,10.73485 -37.29799,15.29622 28.97814,-4.82969 37.29799,-15.29622 37.29799,-15.29622 z m -51.59375,2.77812 c -1.65287,0.98596 -8.33803,5.11352 -13.44415,7.61504 -5.52259,2.70556 -6.92488,4.28622 -16.42897,7.40833 6.72684,-1.97562 12.50861,-4.71465 16.9416,-7.10241 5.36088,-2.88754 9.28418,-5.10326 12.93152,-7.92096 z"
           id="path3887"
           inkscape:connector-curvature="0" />
      </g>
      <path
         sodipodi:nodetypes="ccc"
         transform="matrix(0.26458333,0,0,0.26458333,-293.52519,-77.143858)"
         inkscape:connector-curvature="0"
         id="path4105"
         d="m 114.01614,496.93829 c 88.91824,-22.94664 182.13899,-97.52324 182.13899,-97.52324 0,0 -53.7812,67.40577 -182.13899,97.52324 z"
         style="opacity:1;color:#000000;fill:#ffffff;fill-opacity:1;fill-rule:nonzero;stroke:none;stroke-width:2;marker:none;visibility:visible;display:inline;overflow:visible;enable-background:accumulate" />
      <path
         transform="matrix(0.26458333,0,0,0.26458333,-293.52519,-77.143858)"
         inkscape:connector-curvature="0"
         id="path4107"
         d="m 228.03228,434.5521 c 29.40038,-15.77582 50.91286,-34.41996 50.91286,-34.41996 0,0 -10.03915,17.92706 -17.92706,25.81497 -7.88791,7.88791 -32.9858,8.60499 -32.9858,8.60499 z"
         style="color:#000000;fill:#ffffff;fill-opacity:1;fill-rule:nonzero;stroke:none;stroke-width:2;marker:none;visibility:visible;display:inline;overflow:visible;enable-background:accumulate" />
      <path
         transform="matrix(0.26458333,0,0,0.26458333,-293.52519,-77.143858)"
         inkscape:connector-curvature="0"
         id="path4109"
         d="m 202.93438,474.70873 c 78.87909,-32.9858 103.97699,-65.9716 103.97699,-65.9716 0,0 -27.24914,17.92706 -40.87371,22.94664 -13.62457,5.01958 -13.62457,3.58541 -13.62457,3.58541 z"
         style="color:#000000;fill:#ffffff;fill-opacity:1;fill-rule:nonzero;stroke:none;stroke-width:2;marker:none;visibility:visible;display:inline;overflow:visible;enable-background:accumulate" />
    </g>
    <g
       id="g4215"
       inkscape:export-filename="C:\Users\rober\Desktop\assets\ASSETS_2024\ESSENTIALS\sword_effects\1.png"
       inkscape:export-xdpi="90"
       inkscape:export-ydpi="90">
      <path
         gds_color="blur"
         gds_switchable="blur"
         id="path3991-0"
         d="m -48.822591,-23.443021 c -0.138459,-2.65e-4 -0.27673,0.004 -0.413419,0.008 -5.28528,0.178708 -9.371841,3.678748 -10.070701,9.524998 -0.667869,2.518272 -1.46078,4.9580213 -2.364711,7.3256513 -0.154199,0.643149 -0.304599,1.231921 -0.44649,1.78594 -0.0011,0.0021 0.0011,0.006 0,0.008 -7.605537,16.7056277 -17.528637,25.5653697 -17.528637,25.5653697 0,0 4.273438,-2.81219 7.79694,-5.523182 -1.628111,2.565982 -3.301201,4.8514 -4.845191,6.3252 -5.902952,5.634641 -3.48225,4.29414 -1.604031,3.489191 1.170131,-0.501481 -4.77198,6.546559 -19.959509,16.05875 -21.47994,12.28276 -47.98296,18.146919 -48.41875,18.146919 0,0 28.86051,-0.69098 57.398051,-13.708729 3.154209,-1.659369 6.075219,-3.362161 8.780859,-5.084961 -3.72523,2.85592 -6.928781,5.250331 -6.928781,5.250331 0,0 5.63902,-1.346722 22.274609,-14.494211 16.635601,-13.14749 15.56081,-17.437698 15.56081,-17.437698 0,0 -3.48175,5.003358 -10.83138,10.112049 5.83824,-6.314249 9.19552,-11.773289 11.095961,-14.9406898 4.829691,-8.04947965 5.903521,-14.2213599 5.903521,-14.2213599 0,0 0.433398,4.1126202 -1.02526,11.3440108 2.85646,-5.21941955 5.235278,-10.9463208 7.019729,-17.2392501 1.692119,-5.96736 -3.95314,-11.648721 -10.128589,-12.228722 -0.427421,-0.0401 -0.849651,-0.065 -1.265031,-0.0661 z m 15.602141,16.3132193 c 0,0 -13.42171,49.3704297 -65.74334,60.1030807 56.07806,-9.122752 65.74334,-60.1030807 65.74334,-60.1030807 z m -36.22311,2.141471 c -5.366321,12.879168 -30.85936,42.9345887 -71.10677,57.9602787 26.06668,-4.27971 68.43206,-41.345789 71.10677,-57.9602787 z"
         style="color:#000000;fill:#00ccff;fill-opacity:1;fill-rule:nonzero;stroke:#00ccff;stroke-width:1.32291663;stroke-miterlimit:4;stroke-dasharray:none;marker:none;visibility:visible;display:inline;overflow:visible;filter:url(#filter4182);enable-background:accumulate"
         inkscape:connector-curvature="0"
         sodipodi:nodetypes="ccccccccsscccccsccsccsccccccccc" />
      <g
         inkscape:export-ydpi="90"
         inkscape:export-xdpi="90"
         inkscape:export-filename="C:\Users\rober\Desktop\assets\ASSETS_2024\ESSENTIALS\sword_effects\1.png"
         transform="translate(289.55975,-183.65682)"
         id="g3997">
        <rect
           style="color:#000000;fill:#ffcc00;fill-opacity:1;fill-rule:nonzero;stroke:none;stroke-width:2;marker:none;visibility:visible;display:inline;overflow:visible;enable-background:accumulate;opacity:0"
           id="rect3989"
           width="135.84532"
           height="144.57283"
           x="-447.23959"
           y="106.51296" />
        <path
           id="path3991"
           d="m -338.38233,160.2138 c -0.13846,-3.8e-4 -0.27673,0.004 -0.41342,0.008 -5.28528,0.17871 -9.37184,3.67875 -10.0707,9.525 -0.66787,2.51827 -1.46078,4.95802 -2.36471,7.32565 -0.1542,0.64315 -0.3046,1.23192 -0.44649,1.78594 -10e-4,0.002 0.001,0.006 0,0.008 -7.60554,16.70563 -17.52864,25.56537 -17.52864,25.56537 0,0 4.27344,-2.81219 7.79694,-5.52318 -1.62811,2.56598 -3.3012,4.8514 -4.84519,6.3252 -5.90295,5.63464 -3.48225,4.29414 -1.60403,3.48919 1.17013,-0.50148 -4.77198,6.54656 -19.95951,16.05875 -21.47994,12.28276 -47.98296,18.14692 -48.41875,18.14692 0,0 28.86051,-0.69098 57.39805,-13.70873 3.15421,-1.65937 6.07522,-3.36216 8.78086,-5.08496 -3.72523,2.85592 -6.92878,5.25033 -6.92878,5.25033 0,0 5.63902,-1.34672 22.27461,-14.49421 16.6356,-13.14749 15.56081,-17.4377 15.56081,-17.4377 0,0 -3.48175,5.00336 -10.83138,10.11205 5.83824,-6.31425 9.19552,-11.77329 11.09596,-14.94069 4.82969,-8.04948 5.90352,-14.22136 5.90352,-14.22136 0,0 0.4334,4.11262 -1.02526,11.34401 2.85646,-5.21942 5.23528,-10.94632 7.01973,-17.23925 1.69212,-5.96736 -3.95314,-11.64872 -10.12859,-12.22872 -0.42742,-0.0401 -0.84965,-0.065 -1.26503,-0.0661 z m 15.60214,16.31322 c 0,0 -13.42171,49.37043 -65.74334,60.10308 56.07806,-9.12275 65.74334,-60.10308 65.74334,-60.10308 z m -36.22311,2.14147 c -5.36632,12.87917 -30.85936,42.93459 -71.10677,57.96028 26.06668,-4.27971 68.43206,-41.34579 71.10677,-57.96028 z"
           style="color:#000000;fill:#00ffff;fill-opacity:1;fill-rule:nonzero;stroke:none;stroke-width:2;marker:none;visibility:visible;display:inline;overflow:visible;enable-background:accumulate"
           inkscape:connector-curvature="0"
           sodipodi:nodetypes="ccccccccsscccccsccsccsccccccccc" />
      </g>
      <path
         id="path4111"
         transform="matrix(0.26458333,0,0,0.26458333,-293.52519,-77.143858)"
         d="M 924.40625 218.21875 C 908.24191 218.64931 900.74088 232.93588 898.5 240.21875 C 895.63167 249.54082 890.60666 273.92335 882.71875 294.71875 C 874.83084 315.51414 862.65625 329.84375 862.65625 329.84375 C 862.65625 329.84375 871.14042 323.07323 884.5625 307.03125 C 866.27731 348.67587 832.84758 404.2191 773.21875 442.78125 C 793.77597 430.4907 820.63028 412.66669 842.375 392.3125 C 832.52756 406.33352 801.2205 437.23427 702.03125 484.03125 C 747.20746 469.6896 843.30088 425.23285 892.0625 350.65625 C 922.13974 304.65577 933.09581 268.76262 937.09375 248 C 937.18299 248.27909 937.21875 248.74861 937.21875 249.53125 C 937.21875 263.15582 929.34375 296.15625 929.34375 296.15625 C 929.34375 296.15625 931.48709 292.58165 939.375 273.9375 C 947.26291 255.29335 953.00458 229.45208 941.53125 222.28125 C 938.32472 220.27717 935.00838 219.18058 931.75 218.9375 C 931.73001 218.93335 931.70747 218.94161 931.6875 218.9375 C 929.08655 218.40199 926.6606 218.1587 924.40625 218.21875 z M 773.21875 442.78125 C 754.81822 453.78238 741.46875 460.375 741.46875 460.375 C 752.805 455.07022 763.36424 449.15419 773.21875 442.78125 z "
         style="color:#000000;fill:#ffffff;fill-opacity:1;fill-rule:nonzero;stroke:none;stroke-width:2;marker:none;visibility:visible;display:inline;overflow:visible;enable-background:accumulate" />
    </g>
    <g
       id="g4222"
       inkscape:export-filename="C:\Users\rober\Desktop\assets\ASSETS_2024\ESSENTIALS\sword_effects\1.png"
       inkscape:export-xdpi="90"
       inkscape:export-ydpi="90">
      <path
         gds_color="blur"
         gds_switchable="blur"
         sodipodi:nodetypes="sscccssccccccssccccscccccsscccccsc"
         inkscape:connector-curvature="0"
         id="path3987-2"
         d="m 92.956646,-66.96567 c -7.335256,0 -13.278803,5.951794 -13.278803,13.287044 0,0.56461 0.03911,1.115844 0.107501,1.661914 -0.4141,23.097181 -5.809324,41.450456 -13.71698,56.000717 9.135269,-12.1144617 18.032995,-39.819792 18.032995,-39.819792 0,0 -0.799359,10.999475 -4.555807,23.878646 C 75.78913,0.92202965 69.619126,10.044942 61.033,21.314213 c -8.5861,11.269279 -8.053256,9.657292 -8.053256,9.657292 0,0 5.91611,-7.314068 7.838282,-14.097331 -2.016443,2.850571 -9.446657,18.795029 -31.851045,26.576195 5.232162,-0.67079 10.545181,-1.865929 18.192195,-4.54909 -14.001539,13.781831 -53.7437549,18.636046 -53.7437549,18.636046 0,0 2.210726,0.154327 5.94487017,0.115756 C 33.368378,51.359342 46.968517,46.60104 61.702739,34.865841 76.862597,22.79162 88.398457,5.2135475 90.947453,-0.55525285 92.642665,-4.391772 95.493497,-15.419487 97.115552,-22.251087 c 0.134673,-0.694145 0.239898,-0.990277 0.322448,-1.033528 -0.09081,0.18157 -0.198253,0.510429 -0.322448,1.033528 -0.474689,2.436382 0.195077,26.5989444 -17.487292,46.351693 20.259887,-18.6594506 21.30994,-49.23441 21.6462,-52.428841 0.53665,-5.09801 -0.004,-8.584549 0.26458,-7.242969 0.22275,1.113721 0.56864,5.923383 0.64495,9.367904 0.94279,-6.1253 1.524,-12.696452 1.67844,-19.744532 5.74831,66.80807 -43.102295,91.405274 -43.102295,91.405274 0,0 52.931505,-14.602444 45.442185,-98.036394 0.0243,-0.35697 0.0413,-0.707944 0.0413,-1.099674 0,-7.33525 -5.9518,-13.287044 -13.287028,-13.287044 z M 76.85839,-55.960657 c -2.414852,66.274069 -52.858776,96.052019 -52.858776,96.052019 0,0 59.03005,-32.4611076 52.858776,-96.052019 z m 1.480027,39.720573 c -7.209685,20.6803603 -18.02474,32.634701 -18.02474,32.634701 0,0 8.066405,-7.3097892 11.955833,-14.7091797 4.22439,-8.036621 6.068907,-17.9255213 6.068907,-17.9255213 z"
         style="color:#000000;fill:#00ccff;fill-opacity:1;fill-rule:nonzero;stroke:#00ccff;stroke-width:1.32291663;stroke-miterlimit:4;stroke-dasharray:none;marker:none;visibility:visible;display:inline;overflow:visible;filter:url(#filter4186);enable-background:accumulate" />
      <g
         inkscape:export-ydpi="90"
         inkscape:export-xdpi="90"
         inkscape:export-filename="C:\Users\rober\Desktop\assets\ASSETS_2024\ESSENTIALS\sword_effects\1.png"
         transform="translate(279.97773,-183.65682)"
         id="g4001">
        <rect
           y="106.51296"
           x="-301.81226"
           height="144.57283"
           width="135.84532"
           id="rect3985"
           style="color:#000000;fill:#ffcc00;fill-opacity:1;fill-rule:nonzero;stroke:none;stroke-width:2;marker:none;visibility:visible;display:inline;overflow:visible;enable-background:accumulate;opacity:0" />
        <path
           sodipodi:nodetypes="sscccssccccccssccccscccccsscccccsc"
           inkscape:connector-curvature="0"
           id="path3987"
           transform="matrix(0.26458333,0,0,0.26458333,-573.50292,106.51296)"
           d="m 1460.7188,38.46875 c -27.7238,0 -50.1876,22.494971 -50.1876,50.21875 0,2.133959 0.1478,4.217363 0.4063,6.28125 -1.5651,87.29643 -21.9565,156.66314 -51.8437,211.65625 34.527,-45.78694 68.1562,-150.5 68.1562,-150.5 0,0 -3.0212,41.57282 -17.2188,90.25 -14.1975,48.67718 -37.5172,83.15748 -69.9687,125.75 -32.4514,42.59255 -30.4375,36.5 -30.4375,36.5 0,0 22.3601,-27.64372 29.625,-53.28125 -7.6212,10.77381 -35.7039,71.03633 -120.3819,100.44546 19.7751,-2.53527 39.8558,-7.05233 68.7579,-17.19341 -52.9192,52.08881 -203.126,70.43545 -203.126,70.43545 0,0 8.3555,0.58328 22.4688,0.4375 128.5345,-23.78736 179.9366,-41.77149 235.625,-86.125 57.2971,-45.63485 100.8972,-112.07166 110.5312,-133.875 6.4071,-14.50023 17.1819,-56.17978 23.3125,-82 0.509,-2.62354 0.9067,-3.74278 1.2187,-3.90625 -0.3432,0.68625 -0.7493,1.92918 -1.2187,3.90625 -1.7941,9.20837 0.7373,100.53144 -66.0937,175.1875 76.5728,-70.52391 80.5415,-186.08281 81.8124,-198.15625 2.0283,-19.26807 -0.015,-32.44554 1,-27.375 0.8419,4.20934 2.1492,22.38759 2.4376,35.40625 3.5633,-23.15074 5.76,-47.98659 6.3437,-74.625 21.7259,252.50294 -162.9063,345.46875 -162.9063,345.46875 0,0 200.0561,-55.19034 171.75,-370.53125 0.092,-1.349178 0.1563,-2.675696 0.1563,-4.15625 0,-27.723779 -22.495,-50.21875 -50.2187,-50.21875 z M 1399.875,80.0625 c -9.127,250.48467 -199.7812,363.03125 -199.7812,363.03125 0,0 223.1057,-122.68765 199.7812,-363.03125 z m 5.5938,150.125 c -27.2492,78.16199 -68.125,123.34375 -68.125,123.34375 0,0 30.4872,-27.62755 45.1874,-55.59375 15.9662,-30.37463 22.9376,-67.75 22.9376,-67.75 z"
           style="color:#000000;fill:#00ffff;fill-opacity:1;fill-rule:nonzero;stroke:none;stroke-width:2;marker:none;visibility:visible;display:inline;overflow:visible;enable-background:accumulate" />
      </g>
      <path
         sodipodi:nodetypes="ssccscsscsccccccss"
         inkscape:connector-curvature="0"
         id="path4120"
         transform="matrix(0.26458333,0,0,0.26458333,-293.52519,-77.143858)"
         d="m 1456.0837,57.988926 c -24.2857,0.517762 -25.9599,16.690923 -29.2399,23.979824 -4.5635,10.14108 -2.5313,15.71875 -2.5313,15.71875 0,49.69129 -7.5937,73 -7.5937,73 0,0 10.1279,-18.75819 12.1562,-45.125 0.7665,-9.96516 1.9736,-18.12452 3.7188,-24.90625 -0.1134,8.48491 1.4278,17.09121 3.375,23.90625 6.0846,21.29627 10.142,81.11332 -20.2813,167.3125 C 1385.2643,378.07418 1285.875,445 1285.875,445 c 0,0 82.1566,-34.4865 145.0312,-161.25 62.8747,-126.76349 48.6876,-188.625 48.6876,-188.625 l 8.0937,20.28125 c 0,0 0.9493,-6.16232 0.9375,-14.125 0.2013,0.99632 0.3924,2.03367 0.5938,3 2.5351,12.1693 2.5312,17.71875 2.5312,17.71875 1.5212,17.23984 0.5,24.34375 0.5,24.34375 0,0 5.0735,-10.12311 2.0312,-34.96875 -1.2991,-10.60951 8.9602,-54.391462 -38.1975,-53.386074 z"
         style="color:#000000;fill:#ffffff;fill-opacity:1;fill-rule:nonzero;stroke:none;stroke-width:2;marker:none;visibility:visible;display:inline;overflow:visible;enable-background:accumulate" />
      <path
         transform="matrix(0.26458333,0,0,0.26458333,-293.52519,-77.143858)"
         inkscape:connector-curvature="0"
         id="path4129"
         d="m 1471.4536,104.69409 c 17.927,86.767 10.0391,126.20654 10.0391,126.20654 0,0 14.3417,-65.9716 7.1708,-112.58197 -7.1708,-46.61037 -9.322,-34.419965 -9.322,-34.419965 z"
         style="color:#000000;fill:#ffffff;fill-opacity:1;fill-rule:nonzero;stroke:none;stroke-width:2;marker:none;visibility:visible;display:inline;overflow:visible;enable-background:accumulate" />
      <path
         transform="matrix(0.26458333,0,0,0.26458333,-293.52519,-77.143858)"
         inkscape:connector-curvature="0"
         id="path4131"
         d="m 1435.5994,296.87224 c 21.5125,-43.02496 24.3808,-98.95741 24.3808,-98.95741 0,0 6.4538,-144.850688 11.4734,-83.89866 5.0195,60.95202 -5.7367,102.54281 -14.3417,131.9432 -8.605,29.40039 -21.5125,50.91287 -21.5125,50.91287 z"
         style="color:#000000;fill:#ffffff;fill-opacity:1;fill-rule:nonzero;stroke:none;stroke-width:2;marker:none;visibility:visible;display:inline;overflow:visible;enable-background:accumulate" />
      <path
         transform="matrix(0.26458333,0,0,0.26458333,-293.52519,-77.143858)"
         inkscape:connector-curvature="0"
         id="path4133"
         d="m 1300.0708,411.60546 c -15.0587,15.77582 -34.42,24.38081 -31.5516,24.38081 2.8683,0 10.0391,2.15124 22.2295,-9.32208 12.1904,-11.47332 9.3221,-15.05873 9.3221,-15.05873 z"
         style="color:#000000;fill:#ffffff;fill-opacity:1;fill-rule:nonzero;stroke:none;stroke-width:2;marker:none;visibility:visible;display:inline;overflow:visible;enable-background:accumulate" />
      <path
         transform="matrix(0.26458333,0,0,0.26458333,-293.52519,-77.143858)"
         inkscape:connector-curvature="0"
         id="path4135"
         d="m 1435.5994,120.46991 c 0,108.27948 -31.5516,162.77776 -31.5516,162.77776 0,0 30.1175,-55.21537 38.0054,-110.43073 7.8879,-55.21536 -6.4538,-52.34703 -6.4538,-52.34703 z"
         style="color:#000000;fill:#ffffff;fill-opacity:1;fill-rule:nonzero;stroke:none;stroke-width:2;marker:none;visibility:visible;display:inline;overflow:visible;enable-background:accumulate" />
    </g>
    <g
       id="g4233"
       inkscape:export-filename="C:\Users\rober\Desktop\assets\ASSETS_2024\ESSENTIALS\sword_effects\1.png"
       inkscape:export-xdpi="90"
       inkscape:export-ydpi="90">
      <path
         gds_color="blur"
         gds_switchable="blur"
         style="color:#000000;fill:#00ccff;fill-opacity:1;fill-rule:nonzero;stroke:#00ccff;stroke-width:1.32291663;stroke-miterlimit:4;stroke-dasharray:none;marker:none;visibility:visible;display:inline;overflow:visible;filter:url(#filter4190);enable-background:accumulate"
         d="m 228.0026,-71.795631 c -8.18084,0 -14.81667,5.18064 -14.81667,13.36146 0,2.29701 0.51933,6.42116 0.52089,6.42442 2.3224,17.810351 -5.43028,38.931679 -3.14193,36.289251 2.05206,-2.369572 8.47434,-17.01423 10.45932,-26.292961 0.18384,-0.85937 0.41709,-1.606511 0.57878,-2.298571 1.26706,8.338701 0.83452,25.434761 -5.40742,44.16061005 -2.41792,7.25371095 -5.36332,12.99426995 -8.13594,17.38809095 5.9567,-7.7361993 13.25076,-18.2399408 16.9912,-27.591081 6.97621,-17.44055 6.71007,-28.439499 6.97838,-26.292969 0.26832,2.14652 2.68105,9.92886 1.33946,20.12487 -1.34157,10.1960103 -1.07326,9.6607393 0,6.440948 1.07328,-3.219799 3.48546,-19.053778 3.75377,-27.103258 0.26832,-8.04948 0.26914,-9.38576 0.53745,-7.507549 0.26832,1.878208 0.81029,5.903507 0.81029,5.903507 l 0.26458,-8.053248 c 0,0 2.24946,12.33391 1.71283,20.38339 -0.53662,8.04948 -4.1589,25.3359502 -4.1589,25.3359502 1.51781,-2.8459298 5.58617,-14.4208212 6.33214,-36.0537822 0.20272,-5.879399 0.19015,-19.480048 0.19015,-21.257618 0,-8.18082 -6.62757,-13.36146 -14.80838,-13.36146 z m -19.94297,89.0323 c -5.15297,6.692358 -9.30177,11.319198 -9.30177,11.319198 0,0 4.3824,-3.523409 9.30177,-11.319198 z m 1.57096,-46.756841 c -7.58912,24.4749293 -16.69356,37.7527398 -16.69356,37.7527398 0,0 8.91503,-12.1416393 13.27877,-24.4739588 4.36375,-12.33233 3.41479,-13.278781 3.41479,-13.278781 z m 22.20019,7.780401 c -2.84592,23.2346395 -25.03961,45.150159 -22.95261,44.011789 2.08701,-1.13837 13.26179,-11.95959 17.26406,-20.6788383 5.31239,-11.5734204 5.68855,-17.4513717 5.68855,-23.3329507 z m -15.07297,6.135028 c -0.11742,-0.0861 -1.24024,4.299482 -1.24024,4.299482 -10.43506,27.890029 -22.7707,38.133068 -22.7707,38.133068 0,0 11.95255,-7.778649 17.6444,-21.2493488 5.69185,-13.4706889 5.68987,-17.0731212 6.25904,-20.2985002 0.10673,-0.604761 0.13459,-0.86483 0.1075,-0.884701 z m -22.67977,35.79317 c -11.38367,13.850152 -20.48867,18.02474 -20.48867,18.02474 0,0 9.85983,-4.179549 15.17221,-9.49193 5.31239,-5.312389 5.31646,-8.53281 5.31646,-8.53281 z m 0,11.00501 c 0,0 -17.05025,13.366052 -41.20057,21.249349 6.63641,-1.962967 14.72475,-4.663638 22.03482,-7.970578 15.93717,-7.20966 19.16575,-13.278771 19.16575,-13.278771 z m -43.01172,22.121382 c -7.83207,2.316628 -11.82317,2.732918 -11.82317,2.732918 4.7353,-0.952828 7.48815,-1.31785 11.82317,-2.732918 z"
         id="path3950-9"
         inkscape:connector-curvature="0"
         sodipodi:nodetypes="sscsscscssssssccscssscccccsccsscsccsssccscccscccc" />
      <g
         inkscape:export-ydpi="90"
         inkscape:export-xdpi="90"
         inkscape:export-filename="C:\Users\rober\Desktop\assets\ASSETS_2024\ESSENTIALS\sword_effects\1.png"
         transform="translate(266.63932,-183.65682)"
         id="g4005">
        <rect
           style="color:#000000;fill:#ffcc00;fill-opacity:1;fill-rule:nonzero;stroke:none;stroke-width:2;marker:none;visibility:visible;display:inline;overflow:visible;enable-background:accumulate;opacity:0"
           id="rect3983"
           width="135.84532"
           height="144.57283"
           x="-152.62852"
           y="106.51296" />
        <path
           style="color:#000000;fill:#00ffff;fill-opacity:1;fill-rule:nonzero;stroke:none;stroke-width:2;marker:none;visibility:visible;display:inline;overflow:visible;enable-background:accumulate"
           d="m -38.636713,111.86119 c -8.18083,0 -14.816667,5.18064 -14.816667,13.36146 0,2.29701 0.519329,6.42116 0.520898,6.42442 2.322412,17.81035 -5.430282,38.93168 -3.141927,36.28925 2.052059,-2.36957 8.474327,-17.01423 10.45931,-26.29296 0.183844,-0.85937 0.417089,-1.60651 0.578776,-2.29857 1.267058,8.3387 0.834528,25.43476 -5.407422,44.16061 -2.417903,7.25371 -5.363318,12.99427 -8.135937,17.38809 5.956691,-7.7362 13.250754,-18.23994 16.991211,-27.59108 6.976219,-17.44055 6.710069,-28.4395 6.978386,-26.29297 0.268316,2.14652 2.681033,9.92886 1.339453,20.12487 -1.341581,10.19601 -1.073264,9.66074 0,6.44095 1.073263,-3.2198 3.485459,-19.05378 3.753776,-27.10326 0.268316,-8.04948 0.269118,-9.38576 0.537435,-7.50755 0.268314,1.87821 0.810286,5.90351 0.810286,5.90351 l 0.264584,-8.05325 c 0,0 2.249476,12.33391 1.712846,20.38339 -0.536633,8.04948 -4.158919,25.33595 -4.158919,25.33595 1.517824,-2.84593 5.586174,-14.42082 6.33214,-36.05378 0.20274,-5.8794 0.19017,-19.48005 0.19017,-21.25762 0,-8.18082 -6.62757,-13.36146 -14.808399,-13.36146 z m -19.942969,89.0323 c -5.152967,6.69236 -9.301759,11.3192 -9.301759,11.3192 0,0 4.382398,-3.52341 9.301759,-11.3192 z m 1.570963,-46.75684 c -7.589123,24.47493 -16.693555,37.75274 -16.693555,37.75274 0,0 8.915027,-12.14164 13.278776,-24.47396 4.363747,-12.33233 3.414779,-13.27878 3.414779,-13.27878 z m 22.200196,7.7804 c -2.845922,23.23464 -25.039614,45.15016 -22.952605,44.01179 2.08701,-1.13837 13.26178,-11.95959 17.264063,-20.67884 5.312389,-11.57342 5.688542,-17.45137 5.688542,-23.33295 z m -15.072982,6.13503 c -0.117422,-0.0861 -1.240235,4.29948 -1.240235,4.29948 -10.435045,27.89003 -22.770703,38.13307 -22.770703,38.13307 0,0 11.952557,-7.77865 17.644401,-21.24935 5.691844,-13.47069 5.689865,-17.07312 6.25905,-20.2985 0.106722,-0.60476 0.134585,-0.86483 0.107487,-0.8847 z m -22.679753,35.79317 c -11.383688,13.85015 -20.488673,18.02474 -20.488673,18.02474 0,0 9.859815,-4.17955 15.172201,-9.49193 5.312389,-5.31239 5.316472,-8.53281 5.316472,-8.53281 z m 0,11.00501 c 0,0 -17.050251,13.36605 -41.200592,21.24935 6.63642,-1.96297 14.724774,-4.66364 22.034836,-7.97058 15.937162,-7.20966 19.165756,-13.27877 19.165756,-13.27877 z m -43.011722,22.12138 c -7.83208,2.31663 -11.82318,2.73292 -11.82318,2.73292 4.73529,-0.95283 7.48815,-1.31785 11.82318,-2.73292 z"
           id="path3950"
           inkscape:connector-curvature="0"
           sodipodi:nodetypes="sscsscscssssssccscssscccccsccsscsccsssccscccscccc" />
      </g>
      <path
         transform="matrix(0.26458333,0,0,0.26458333,-293.52519,-77.143858)"
         inkscape:connector-curvature="0"
         id="path4137"
         d="m 1989.6799,37.334785 c -47.6631,-10.14108 -58.8183,22.310376 -56.7901,37.521995 2.0282,15.21162 -6.0846,80.11453 -2.0282,69.97345 4.0564,-10.14108 10.1411,-32.45145 13.1834,-46.648966 3.0423,-14.197512 5.0705,-22.310376 5.0705,-22.310376 0,0 8.1129,14.197512 9.127,62.874692 1.0141,48.67719 -17.2398,135.89047 -17.2398,135.89047 0,0 17.2398,-62.87469 29.4091,-119.66474 12.1693,-56.790046 8.1129,-69.97345 8.1129,-69.97345 0,0 10.1411,31.43735 11.1552,51.71951 1.0141,20.28216 1.0141,29.40913 1.0141,29.40913 0,0 5.0705,-30.42324 3.0423,-57.80416 -2.0282,-27.380912 -2.0282,-32.451452 -2.0282,-32.451452 l 9.1269,16.225728 2.0283,-18.253944 c 0,0 5.0705,-8.112863 9.1269,4.056432 4.0565,12.169296 4.0565,38.536106 4.0565,38.536106 0,0 4.0564,-33.465566 -4.0565,-56.790049 -8.1128,-23.324484 -22.3103,-22.310376 -22.3103,-22.310376 z"
         style="color:#000000;fill:#ffffff;fill-opacity:1;fill-rule:nonzero;stroke:none;stroke-width:2;marker:none;visibility:visible;display:inline;overflow:visible;enable-background:accumulate" />
    </g>
    <g
       id="g4240"
       inkscape:export-filename="C:\Users\rober\Desktop\assets\ASSETS_2024\ESSENTIALS\sword_effects\1.png"
       inkscape:export-xdpi="90"
       inkscape:export-ydpi="90">
      <path
         gds_color="blur"
         gds_switchable="blur"
         sodipodi:nodetypes="cccsccsccccccscsccccscccccsccccsccccsccccccccccscccccccccsccccsccscccsscscsccsccc"
         inkscape:connector-curvature="0"
         inkscape:export-ydpi="90"
         inkscape:export-xdpi="90"
         inkscape:export-filename="C:\Users\rober\Desktop\assets\ASSETS_2024\ESSENTIALS\sword_effects\1.png"
         id="path4015-1"
         d="m 364.73636,-71.676961 c -0.0647,0.0029 -0.0909,0.0083 -0.0909,0.0083 -11.67172,1.207423 -10.73886,11.676364 -9.66557,16.908529 1.07336,5.232162 -0.53023,11.933984 0.14057,11.129037 0.35348,-0.424164 3.54579,-4.444652 4.6133,-9.232909 3.30322,14.476504 -0.85952,40.230501 -0.85952,40.230501 0,0 5.90512,-14.225951 6.97838,-26.970964 0.43693,-5.188416 -0.0153,-12.418524 -0.41688,-16.377982 0.2912,-0.22121 0.95851,0.890373 1.15274,1.726679 4.537,12.835171 4.35737,22.167123 4.35737,22.167123 0,0 0.83256,-12.034134 0.8599,-20.17448 1.22634,3.053347 1.68671,4.34082 1.68671,4.34082 0,0 0.21508,-2.399765 0.25633,-5.126302 3.02906,9.936132 3.2983,20.383602 3.71242,18.975587 0.47432,-1.612688 0.60807,-13.208991 -0.19018,-20.778061 -0.66421,-6.298859 -1.93397,-11.512061 -5.11802,-14.394987 -1.78961,-1.620372 -4.1815,-2.506387 -7.41661,-2.430859 z m -10.5337,29.286069 c -0.49948,-0.0199 -1.02526,1.488281 -1.02526,1.488281 -1.80253,3.984289 -2.74982,7.778197 -1.23198,6.829557 1.51781,-0.948639 3.22331,-6.456661 2.65411,-7.879622 -0.12459,-0.311272 -0.25707,-0.432644 -0.39687,-0.438216 z m 16.78448,10.756966 c -0.0238,0.0036 -0.0423,0.01294 -0.0661,0.02479 -0.7589,0.379458 -0.47953,1.612305 -0.47953,1.612305 0.0949,2.08701 0.57227,4.077944 1.33117,3.03444 0.7352,-1.010896 -0.0461,-4.781846 -0.78549,-4.671549 z m -20.3481,2.960026 c -0.40407,0.05535 -1.28984,2.885612 -1.28984,2.885612 -1.60992,3.756425 -2.15001,6.041668 -0.94258,4.431771 1.20742,-1.609897 2.54846,-4.967883 2.41432,-6.846094 -0.0251,-0.352166 -0.0887,-0.484063 -0.1819,-0.471289 z m 20.1993,7.664649 c -0.33843,0.01788 -0.86818,1.44694 -0.86818,1.44694 -0.37944,3.415106 -1.80073,7.399623 -1.0418,7.209896 0.75891,-0.189728 2.08796,-3.695571 2.18281,-7.110678 0.0326,-1.173943 -0.0956,-1.555522 -0.27283,-1.546158 z m -30.10464,5.721614 c -0.2794,-0.0065 -1.0418,1.30638 -1.0418,1.30638 -2.81731,5.2321653 -4.16488,8.7224403 -2.55487,6.9783863 1.60989,-1.744054 3.219,-5.5034503 3.62146,-7.5158213 0.1133,-0.565978 0.0847,-0.766402 -0.0249,-0.768945 z m 35.24745,0.42168 c -0.22678,-0.01334 -0.60357,1.000456 -0.60357,1.000456 -1.3281,3.225379 -2.75111,8.9148573 -1.80247,7.8713543 0.94863,-1.043506 2.65803,-7.2086293 2.56315,-8.4418623 -0.0238,-0.308309 -0.0814,-0.425501 -0.15711,-0.429948 z m -11.87318,7.7307943 c -1.8782,7.24453255 -9.12812,17.4376957 -9.12812,17.4376957 0,0 4.16478,-3.756467 6.7138,-8.3178387 2.5491,-4.5613744 2.41432,-9.119857 2.41432,-9.119857 z m -7.59849,1.943034 c -0.32499,0.0742 -1.79422,3.0179037 -1.79422,3.0179037 -1.60991,2.95147465 -3.22484,6.3089182 -2.01745,5.1014974 1.20754,-1.2074234 3.09126,-4.8345275 3.76206,-7.3835287 0.14674,-0.5575964 0.1406,-0.7566504 0.0496,-0.7358724 z m -9.30177,4.69635415 c -0.23802,0.033211 -0.67797,1.2733073 -0.67797,1.2733073 -2.95158,7.78116575 -8.18592,14.48966825 -6.97838,14.22135425 1.2074,-0.268317 5.10122,-6.0368921 6.30864,-9.525 1.20743,-3.4881106 1.60589,-4.96627685 1.47175,-5.77122405 -0.0251,-0.1509289 -0.069,-0.2061025 -0.12404,-0.1984375 z m 3.76206,5.72988285 c -0.26681,0.026681 -0.63664,0.719336 -0.63664,0.719336 -0.94875,1.1383672 -1.70979,2.942164 -0.95086,2.3729818 0.7589,-0.5691849 1.99218,-2.0853586 1.80247,-2.8442709 -0.0474,-0.1897301 -0.12605,-0.2569422 -0.21497,-0.2480469 z M 326.27255,25.152272 c -0.30787,0.0066 -0.94255,0.578776 -0.94255,0.578776 -1.87822,3.219792 -8.04632,7.515016 -6.16812,6.978386 1.87825,-0.536633 6.43988,-4.96148 7.11067,-6.705534 0.25157,-0.654021 0.18474,-0.855559 0,-0.851628 z m -2.26546,10.963672 c -0.62551,0.01106 -3.63803,1.95957 -3.63803,1.95957 -3.62227,2.146528 -4.83293,3.755904 -2.14973,2.414323 2.68313,-1.34158 4.83208,-2.685047 5.77119,-4.026627 0.17611,-0.251548 0.1609,-0.349822 0.0167,-0.347266 z"
         style="color:#000000;fill:#00ccff;fill-opacity:1;fill-rule:nonzero;stroke:#00ccff;stroke-width:1.32291663;stroke-miterlimit:4;stroke-dasharray:none;marker:none;visibility:visible;display:inline;overflow:visible;filter:url(#filter4194);enable-background:accumulate" />
      <g
         inkscape:export-ydpi="90"
         inkscape:export-xdpi="90"
         inkscape:export-filename="C:\Users\rober\Desktop\assets\ASSETS_2024\ESSENTIALS\sword_effects\1.png"
         id="g4009"
         transform="translate(402.48464,-183.65682)">
        <rect
           y="106.51296"
           x="-152.62852"
           height="144.57283"
           width="135.84532"
           id="rect4011"
           style="color:#000000;fill:#ffcc00;fill-opacity:1;fill-rule:nonzero;stroke:none;stroke-width:2;marker:none;visibility:visible;display:inline;overflow:visible;enable-background:accumulate;opacity:0" />
      </g>
      <path
         sodipodi:nodetypes="cccsccsccccccscsccccscccccsccccsccccsccccccccccscccccccccsccccsccscccsscscsccsccc"
         inkscape:connector-curvature="0"
         inkscape:export-ydpi="90"
         inkscape:export-xdpi="90"
         inkscape:export-filename="C:\Users\rober\Desktop\assets\ASSETS_2024\ESSENTIALS\sword_effects\1.png"
         id="path4015"
         transform="matrix(0.26458334,0,0,0.26458334,-6.3049604e-6,18.562493)"
         d="m 1378.5312,-341.0625 c -0.2446,0.0109 -0.3437,0.0312 -0.3437,0.0312 -44.1136,4.56349 -40.5878,44.13114 -36.5313,63.90625 4.0568,19.7751 -2.004,45.10482 0.5313,42.0625 1.336,-1.60314 13.4014,-16.79868 17.4361,-34.89603 12.4846,54.71434 -3.2486,152.05228 -3.2486,152.05228 0,0 22.3186,-53.76737 26.375,-101.9375 1.6514,-19.60976 -0.058,-46.93615 -1.5756,-61.90103 1.1006,-0.83607 3.6227,3.36519 4.3568,6.52603 17.1477,48.51088 16.4688,83.78125 16.4688,83.78125 0,0 3.1467,-45.48334 3.25,-76.25 4.635,11.54021 6.375,16.40625 6.375,16.40625 0,0 0.8129,-9.06998 0.9688,-19.375 11.4484,37.55388 12.466,77.04038 14.0312,71.71875 1.7927,-6.0952 2.2982,-49.92374 -0.7188,-78.53125 -2.5104,-23.80671 -7.3095,-43.51015 -19.3437,-54.40625 -6.7639,-6.12424 -15.8041,-9.47296 -28.0313,-9.1875 z m -39.8124,110.6875 c -1.8878,-0.0752 -3.875,5.625 -3.875,5.625 -6.8127,15.05873 -10.393,29.39791 -4.6563,25.8125 5.7366,-3.58541 12.1826,-24.40313 10.0313,-29.78125 -0.4709,-1.17646 -0.9716,-1.63519 -1.5,-1.65625 z m 63.4374,40.65625 c -0.09,0.0135 -0.16,0.0489 -0.25,0.0937 -2.8683,1.43417 -1.8124,6.09375 -1.8124,6.09375 0.3586,7.88791 2.1629,15.4127 5.0312,11.46875 2.7787,-3.82071 -0.1741,-18.07312 -2.9688,-17.65625 z m -76.9062,11.1875 c -1.5272,0.20921 -4.875,10.90625 -4.875,10.90625 -6.0847,14.19751 -8.126,22.83465 -3.5625,16.75 4.5635,-6.08465 9.632,-18.77625 9.125,-25.875 -0.095,-1.33102 -0.3351,-1.82953 -0.6875,-1.78125 z m 76.3438,28.96875 c -1.2791,0.0676 -3.2813,5.46875 -3.2813,5.46875 -1.4341,12.90749 -6.8059,27.96708 -3.9375,27.25 2.8683,-0.71708 7.8915,-13.96751 8.25,-26.875 0.1233,-4.43695 -0.3614,-5.87914 -1.0312,-5.84375 z m -113.7813,21.625 c -1.056,-0.0246 -3.9375,4.9375 -3.9375,4.9375 -10.6481,19.77511 -15.7413,32.966702 -9.6562,26.375 6.0846,-6.5917 12.1663,-20.80044 13.6874,-28.40625 0.4282,-2.13913 0.3201,-2.89664 -0.094,-2.90625 z m 133.2187,1.59375 c -0.8571,-0.0504 -2.2812,3.78125 -2.2812,3.78125 -5.0196,12.19041 -10.3979,33.693954 -6.8125,29.75 3.5854,-3.943955 10.0461,-27.24521 9.6875,-31.90625 -0.09,-1.16526 -0.3077,-1.60819 -0.5938,-1.625 z m -44.875,29.21875 c -7.0987,27.380916 -34.5,65.90625 -34.5,65.90625 0,0 15.7409,-14.197664 25.375,-31.4375 9.6344,-17.239835 9.125,-34.46875 9.125,-34.46875 z m -28.7187,7.34375 c -1.2283,0.280467 -6.7813,11.40625 -6.7813,11.40625 -6.0847,11.155188 -12.1884,23.844736 -7.625,19.28125 4.5639,-4.563486 11.6835,-18.272224 14.2188,-27.90625 0.5546,-2.107443 0.5314,-2.859781 0.1875,-2.78125 z m -35.1563,17.75 c -0.8996,0.125526 -2.5624,4.8125 -2.5624,4.8125 -11.1556,29.409131 -30.9389,54.764108 -26.375,53.75 4.5634,-1.014108 19.2802,-22.816596 23.8437,-36 4.5635,-13.183404 6.0695,-18.770176 5.5625,-21.8125 -0.095,-0.570436 -0.2608,-0.778967 -0.4688,-0.75 z M 1326.5,-50.375 c -1.0084,0.10084 -2.4062,2.71875 -2.4062,2.71875 -3.5858,4.302495 -6.4622,11.119998 -3.5938,8.96875 2.8683,-2.151247 7.5295,-7.881669 6.8125,-10.75 -0.1793,-0.717083 -0.4764,-0.971113 -0.8125,-0.9375 z m -93.3438,75.28125 c -1.1636,0.02476 -3.5624,2.1875 -3.5624,2.1875 -7.0988,12.169296 -30.4113,28.403215 -23.3126,26.375 7.0989,-2.028216 24.3397,-18.752048 26.875,-25.34375 0.9508,-2.471888 0.6982,-3.233605 0,-3.21875 z m -8.5624,41.4375 c -2.3641,0.04184 -13.75,7.40625 -13.75,7.40625 -13.6905,8.112864 -18.2662,14.19554 -8.125,9.125 10.141,-5.07054 18.263,-10.14821 21.8124,-15.21875 0.6656,-0.950726 0.6081,-1.322156 0.063,-1.3125 z"
         style="color:#000000;fill:#00ffff;fill-opacity:1;fill-rule:nonzero;stroke:none;stroke-width:2;marker:none;visibility:visible;display:inline;overflow:visible;enable-background:accumulate" />
      <path
         transform="matrix(0.26458333,0,0,0.26458333,-293.52519,-77.143858)"
         inkscape:connector-curvature="0"
         id="path4139"
         d="m 2496.8817,32.268746 c -40.8737,4.302495 -35.8541,21.512478 -36.5712,34.419966 -0.7171,12.907487 -2.1512,26.532057 -2.1512,26.532057 0,0 5.7366,-8.604991 8.605,-18.644148 2.8683,-10.039157 3.5854,-13.62457 3.5854,-13.62457 0,0 5.0195,15.058735 7.1708,35.137049 2.1512,20.07831 3.5854,22.94664 3.5854,22.94664 0,0 2.1513,-31.551632 0,-48.761615 -2.1512,-17.209983 0.7171,-15.775818 0.7171,-15.775818 0,0 12.9075,10.75624 17.9271,28.683305 5.0195,17.927068 5.7366,17.927068 5.7366,17.927068 l -5.7366,-47.327456 11.4733,21.512479 -0.7171,-17.209983 c 0,0 8.605,2.151248 12.1904,17.927066 3.5854,15.775818 6.4537,18.644148 5.7367,10.75624 -0.7171,-7.887909 -6.4538,-32.985802 -15.0588,-45.176206 -8.605,-12.190405 -16.4929,-9.322074 -16.4929,-9.322074 z"
         style="color:#000000;fill:#ffffff;fill-opacity:1;fill-rule:nonzero;stroke:none;stroke-width:2;marker:none;visibility:visible;display:inline;overflow:visible;enable-background:accumulate" />
    </g>
  </g>
</svg>
