<?xml version="1.0" encoding="UTF-8" standalone="no"?>
<!-- Created with Inkscape (http://www.inkscape.org/) -->

<svg
   xmlns:dc="http://purl.org/dc/elements/1.1/"
   xmlns:cc="http://creativecommons.org/ns#"
   xmlns:rdf="http://www.w3.org/1999/02/22-rdf-syntax-ns#"
   xmlns:svg="http://www.w3.org/2000/svg"
   xmlns="http://www.w3.org/2000/svg"
   xmlns:sodipodi="http://sodipodi.sourceforge.net/DTD/sodipodi-0.dtd"
   xmlns:inkscape="http://www.inkscape.org/namespaces/inkscape"
   width="513.43115"
   height="546.41699"
   viewBox="0 0 135.84532 144.57283"
   version="1.1"
   id="svg23489"
   inkscape:version="0.48.5 r10040"
   sodipodi:docname="uppercut_06.svg">
  <defs
     id="defs23483">
    <filter
       inkscape:collect="always"
       id="filter4178"
       color-interpolation-filters="sRGB">
      <feGaussianBlur
         inkscape:collect="always"
         stdDeviation="0.94617652"
         id="feGaussianBlur4180" />
    </filter>
    <filter
       inkscape:collect="always"
       id="filter4182"
       color-interpolation-filters="sRGB">
      <feGaussianBlur
         inkscape:collect="always"
         stdDeviation="1.4712898"
         id="feGaussianBlur4184" />
    </filter>
    <filter
       inkscape:collect="always"
       id="filter4186"
       color-interpolation-filters="sRGB">
      <feGaussianBlur
         inkscape:collect="always"
         stdDeviation="1.786033"
         id="feGaussianBlur4188" />
    </filter>
    <filter
       inkscape:collect="always"
       id="filter4190"
       color-interpolation-filters="sRGB">
      <feGaussianBlur
         inkscape:collect="always"
         stdDeviation="1.7355851"
         id="feGaussianBlur4192" />
    </filter>
    <filter
       inkscape:collect="always"
       id="filter4194"
       color-interpolation-filters="sRGB">
      <feGaussianBlur
         inkscape:collect="always"
         stdDeviation="1.3030529"
         id="feGaussianBlur4196" />
    </filter>
    <filter
       inkscape:collect="always"
       id="filter4198"
       color-interpolation-filters="sRGB">
      <feGaussianBlur
         inkscape:collect="always"
         stdDeviation="0.65784243"
         id="feGaussianBlur4200" />
    </filter>
    <filter
       inkscape:collect="always"
       id="filter4202"
       color-interpolation-filters="sRGB">
      <feGaussianBlur
         inkscape:collect="always"
         stdDeviation="0.39911912"
         id="feGaussianBlur4204" />
    </filter>
  </defs>
  <sodipodi:namedview
     id="base"
     pagecolor="#2b2e30"
     bordercolor="#666666"
     borderopacity="1.0"
     inkscape:pageopacity="0"
     inkscape:pageshadow="2"
     inkscape:zoom="0.34863486"
     inkscape:cx="-1390.0579"
     inkscape:cy="128.61215"
     inkscape:document-units="px"
     inkscape:current-layer="layer1"
     showgrid="false"
     inkscape:pagecheckerboard="false"
     showborder="true"
     units="px"
     inkscape:window-width="1920"
     inkscape:window-height="1017"
     inkscape:window-x="-8"
     inkscape:window-y="-8"
     inkscape:window-maximized="1"
     inkscape:showpageshadow="false"
     guidetolerance="28"
     showguides="true"
     inkscape:guide-bbox="true">
    <inkscape:grid
       type="xygrid"
       id="grid24034"
       spacingx="1px"
       spacingy="1px"
       empspacing="8"
       visible="true"
       enabled="true"
       snapvisiblegridlinesonly="true"
       originx="-1971.2003px"
       originy="-867.66998px" />
  </sodipodi:namedview>
  <metadata
     id="metadata23486">
    <rdf:RDF>
      <cc:Work
         rdf:about="">
        <dc:format>image/svg+xml</dc:format>
        <dc:type
           rdf:resource="http://purl.org/dc/dcmitype/StillImage" />
        <dc:title></dc:title>
        <cc:license
           rdf:resource="" />
        <dc:creator>
          <cc:Agent>
            <dc:title>Robert Brooks</dc:title>
          </cc:Agent>
        </dc:creator>
      </cc:Work>
    </rdf:RDF>
  </metadata>
  <g
     inkscape:label="Layer 1"
     inkscape:groupmode="layer"
     id="layer1"
     transform="translate(-521.54676,77.143858)">
    <g
       id="g4254"
       inkscape:export-filename="C:\Users\rober\Desktop\assets\ASSETS_2024\ESSENTIALS\sword_effects\1.png"
       inkscape:export-xdpi="90"
       inkscape:export-ydpi="90">
      <path
         gds_color="blur"
         gds_switchable="blur"
         inkscape:connector-curvature="0"
         inkscape:export-ydpi="90"
         inkscape:export-xdpi="90"
         inkscape:export-filename="C:\Users\rober\Desktop\assets\ASSETS_2024\ESSENTIALS\sword_effects\1.png"
         id="path4096-6"
         d="m 640.71334,-60.258537 c -0.94867,0.189728 -0.38037,2.844271 -0.38037,2.844271 0.5692,3.794562 1.70413,5.122334 2.0836,3.414779 0.37949,-1.707552 -0.75457,-6.448777 -1.70323,-6.25905 z m -13.00594,0.802019 c -0.46249,0.01225 -0.65318,1.281575 -0.65318,1.281575 -0.37949,4.174017 -0.19582,7.026669 0.94255,6.457487 1.1384,-0.569185 1.32901,-5.122444 0.38037,-7.019726 -0.26681,-0.533612 -0.48877,-0.724131 -0.66974,-0.719336 z m 19.24016,0.05788 c -0.5428,-0.01447 -0.54568,1.604037 -0.54568,1.604037 0.5692,4.174019 1.52268,7.595857 2.09185,6.457487 0.5692,-1.138367 0.18753,-6.07241 -0.95086,-7.590235 -0.249,-0.332023 -0.44331,-0.467235 -0.59531,-0.471289 z m -12.21217,13.841016 c -0.69479,0.01085 -1.04179,3.13366 -1.04179,3.13366 -0.94864,8.158308 -1.89685,14.796601 0.19015,13.278776 2.08704,-1.517825 2.65147,-12.706617 1.5131,-15.552539 -0.24902,-0.622546 -0.46691,-0.862937 -0.66146,-0.859897 z"
         style="color:#000000;fill:#00ccff;fill-opacity:1;fill-rule:nonzero;stroke:#00ccff;stroke-width:1.32291663;stroke-miterlimit:4;stroke-dasharray:none;marker:none;visibility:visible;display:inline;overflow:visible;filter:url(#filter4202);enable-background:accumulate" />
      <g
         inkscape:export-ydpi="90"
         inkscape:export-xdpi="90"
         inkscape:export-filename="C:\Users\rober\Desktop\assets\ASSETS_2024\ESSENTIALS\sword_effects\1.png"
         transform="translate(-42.878566,0)"
         id="g4090">
        <g
           transform="translate(137.4806,0)"
           id="g4082">
          <g
             id="g4084"
             transform="translate(579.57325,-183.65682)">
            <rect
               y="106.51296"
               x="-152.62852"
               height="144.57283"
               width="135.84532"
               id="rect4086"
               style="opacity:0;color:#000000;fill:#ffcc00;fill-opacity:1;fill-rule:nonzero;stroke:none;stroke-width:2;marker:none;visibility:visible;display:inline;overflow:visible;enable-background:accumulate" />
          </g>
        </g>
      </g>
      <path
         inkscape:connector-curvature="0"
         inkscape:export-ydpi="90"
         inkscape:export-xdpi="90"
         inkscape:export-filename="C:\Users\rober\Desktop\assets\ASSETS_2024\ESSENTIALS\sword_effects\1.png"
         id="path4096"
         transform="matrix(0.26458334,0,0,0.26458334,-6.3049604e-6,18.562493)"
         d="m 2421.5938,-297.90625 c -3.5855,0.71708 -1.4376,10.75 -1.4376,10.75 2.1513,14.34165 6.4408,19.36 7.875,12.90625 1.4343,-6.45374 -2.8519,-24.37333 -6.4374,-23.65625 z m -49.1563,3.03125 c -1.748,0.0463 -2.4687,4.84375 -2.4687,4.84375 -1.4343,15.77581 -0.7401,26.55749 3.5624,24.40625 4.3026,-2.15125 5.023,-19.36042 1.4376,-26.53125 -1.0084,-2.0168 -1.8473,-2.73687 -2.5313,-2.71875 z m 72.7187,0.21875 c -2.0515,-0.0547 -2.0624,6.0625 -2.0624,6.0625 2.1513,15.77582 5.755,28.70875 7.9062,24.40625 2.1513,-4.30249 0.7088,-22.95084 -3.5938,-28.6875 -0.9411,-1.25489 -1.6755,-1.76593 -2.25,-1.78125 z M 2399,-242.34375 c -2.626,0.041 -3.9375,11.84375 -3.9375,11.84375 -3.5854,30.83455 -7.1692,55.92416 0.7187,50.1875 7.888,-5.73666 10.0213,-48.02501 5.7188,-58.78125 -0.9412,-2.35293 -1.7647,-3.26149 -2.5,-3.25 z"
         style="color:#000000;fill:#00ffff;fill-opacity:1;fill-rule:nonzero;stroke:none;stroke-width:2;marker:none;visibility:visible;display:inline;overflow:visible;enable-background:accumulate" />
    </g>
  </g>
</svg>
