<?xml version="1.0" encoding="UTF-8" standalone="no"?>
<!-- Created with Inkscape (http://www.inkscape.org/) -->

<svg
   xmlns:dc="http://purl.org/dc/elements/1.1/"
   xmlns:cc="http://creativecommons.org/ns#"
   xmlns:rdf="http://www.w3.org/1999/02/22-rdf-syntax-ns#"
   xmlns:svg="http://www.w3.org/2000/svg"
   xmlns="http://www.w3.org/2000/svg"
   xmlns:sodipodi="http://sodipodi.sourceforge.net/DTD/sodipodi-0.dtd"
   xmlns:inkscape="http://www.inkscape.org/namespaces/inkscape"
   width="513.43115"
   height="546.41699"
   viewBox="0 0 135.84532 144.57283"
   version="1.1"
   id="svg23489"
   inkscape:version="0.48.5 r10040"
   sodipodi:docname="uppercut_04.svg">
  <defs
     id="defs23483">
    <filter
       inkscape:collect="always"
       id="filter4178"
       color-interpolation-filters="sRGB">
      <feGaussianBlur
         inkscape:collect="always"
         stdDeviation="0.94617652"
         id="feGaussianBlur4180" />
    </filter>
    <filter
       inkscape:collect="always"
       id="filter4182"
       color-interpolation-filters="sRGB">
      <feGaussianBlur
         inkscape:collect="always"
         stdDeviation="1.4712898"
         id="feGaussianBlur4184" />
    </filter>
    <filter
       inkscape:collect="always"
       id="filter4186"
       color-interpolation-filters="sRGB">
      <feGaussianBlur
         inkscape:collect="always"
         stdDeviation="1.786033"
         id="feGaussianBlur4188" />
    </filter>
    <filter
       inkscape:collect="always"
       id="filter4190"
       color-interpolation-filters="sRGB">
      <feGaussianBlur
         inkscape:collect="always"
         stdDeviation="1.7355851"
         id="feGaussianBlur4192" />
    </filter>
    <filter
       inkscape:collect="always"
       id="filter4194"
       color-interpolation-filters="sRGB">
      <feGaussianBlur
         inkscape:collect="always"
         stdDeviation="1.3030529"
         id="feGaussianBlur4196" />
    </filter>
    <filter
       inkscape:collect="always"
       id="filter4198"
       color-interpolation-filters="sRGB">
      <feGaussianBlur
         inkscape:collect="always"
         stdDeviation="0.65784243"
         id="feGaussianBlur4200" />
    </filter>
    <filter
       inkscape:collect="always"
       id="filter4202"
       color-interpolation-filters="sRGB">
      <feGaussianBlur
         inkscape:collect="always"
         stdDeviation="0.39911912"
         id="feGaussianBlur4204" />
    </filter>
  </defs>
  <sodipodi:namedview
     id="base"
     pagecolor="#2b2e30"
     bordercolor="#666666"
     borderopacity="1.0"
     inkscape:pageopacity="0"
     inkscape:pageshadow="2"
     inkscape:zoom="0.34863486"
     inkscape:cx="-363.19564"
     inkscape:cy="128.61215"
     inkscape:document-units="px"
     inkscape:current-layer="layer1"
     showgrid="false"
     inkscape:pagecheckerboard="false"
     showborder="true"
     units="px"
     inkscape:window-width="1920"
     inkscape:window-height="1017"
     inkscape:window-x="-8"
     inkscape:window-y="-8"
     inkscape:window-maximized="1"
     inkscape:showpageshadow="false"
     guidetolerance="28"
     showguides="true"
     inkscape:guide-bbox="true">
    <inkscape:grid
       type="xygrid"
       id="grid24034"
       spacingx="1px"
       spacingy="1px"
       empspacing="8"
       visible="true"
       enabled="true"
       snapvisiblegridlinesonly="true"
       originx="-944.33812px"
       originy="-867.66998px" />
  </sodipodi:namedview>
  <metadata
     id="metadata23486">
    <rdf:RDF>
      <cc:Work
         rdf:about="">
        <dc:format>image/svg+xml</dc:format>
        <dc:type
           rdf:resource="http://purl.org/dc/dcmitype/StillImage" />
        <dc:title></dc:title>
        <cc:license
           rdf:resource="" />
        <dc:creator>
          <cc:Agent>
            <dc:title>Robert Brooks</dc:title>
          </cc:Agent>
        </dc:creator>
      </cc:Work>
    </rdf:RDF>
  </metadata>
  <g
     inkscape:label="Layer 1"
     inkscape:groupmode="layer"
     id="layer1"
     transform="translate(-249.85612,77.143858)">
    <g
       id="g4240"
       inkscape:export-filename="C:\Users\rober\Desktop\assets\ASSETS_2024\ESSENTIALS\sword_effects\1.png"
       inkscape:export-xdpi="90"
       inkscape:export-ydpi="90">
      <path
         gds_color="blur"
         gds_switchable="blur"
         sodipodi:nodetypes="cccsccsccccccscsccccscccccsccccsccccsccccccccccscccccccccsccccsccscccsscscsccsccc"
         inkscape:connector-curvature="0"
         inkscape:export-ydpi="90"
         inkscape:export-xdpi="90"
         inkscape:export-filename="C:\Users\rober\Desktop\assets\ASSETS_2024\ESSENTIALS\sword_effects\1.png"
         id="path4015-1"
         d="m 364.73636,-71.676961 c -0.0647,0.0029 -0.0909,0.0083 -0.0909,0.0083 -11.67172,1.207423 -10.73886,11.676364 -9.66557,16.908529 1.07336,5.232162 -0.53023,11.933984 0.14057,11.129037 0.35348,-0.424164 3.54579,-4.444652 4.6133,-9.232909 3.30322,14.476504 -0.85952,40.230501 -0.85952,40.230501 0,0 5.90512,-14.225951 6.97838,-26.970964 0.43693,-5.188416 -0.0153,-12.418524 -0.41688,-16.377982 0.2912,-0.22121 0.95851,0.890373 1.15274,1.726679 4.537,12.835171 4.35737,22.167123 4.35737,22.167123 0,0 0.83256,-12.034134 0.8599,-20.17448 1.22634,3.053347 1.68671,4.34082 1.68671,4.34082 0,0 0.21508,-2.399765 0.25633,-5.126302 3.02906,9.936132 3.2983,20.383602 3.71242,18.975587 0.47432,-1.612688 0.60807,-13.208991 -0.19018,-20.778061 -0.66421,-6.298859 -1.93397,-11.512061 -5.11802,-14.394987 -1.78961,-1.620372 -4.1815,-2.506387 -7.41661,-2.430859 z m -10.5337,29.286069 c -0.49948,-0.0199 -1.02526,1.488281 -1.02526,1.488281 -1.80253,3.984289 -2.74982,7.778197 -1.23198,6.829557 1.51781,-0.948639 3.22331,-6.456661 2.65411,-7.879622 -0.12459,-0.311272 -0.25707,-0.432644 -0.39687,-0.438216 z m 16.78448,10.756966 c -0.0238,0.0036 -0.0423,0.01294 -0.0661,0.02479 -0.7589,0.379458 -0.47953,1.612305 -0.47953,1.612305 0.0949,2.08701 0.57227,4.077944 1.33117,3.03444 0.7352,-1.010896 -0.0461,-4.781846 -0.78549,-4.671549 z m -20.3481,2.960026 c -0.40407,0.05535 -1.28984,2.885612 -1.28984,2.885612 -1.60992,3.756425 -2.15001,6.041668 -0.94258,4.431771 1.20742,-1.609897 2.54846,-4.967883 2.41432,-6.846094 -0.0251,-0.352166 -0.0887,-0.484063 -0.1819,-0.471289 z m 20.1993,7.664649 c -0.33843,0.01788 -0.86818,1.44694 -0.86818,1.44694 -0.37944,3.415106 -1.80073,7.399623 -1.0418,7.209896 0.75891,-0.189728 2.08796,-3.695571 2.18281,-7.110678 0.0326,-1.173943 -0.0956,-1.555522 -0.27283,-1.546158 z m -30.10464,5.721614 c -0.2794,-0.0065 -1.0418,1.30638 -1.0418,1.30638 -2.81731,5.2321653 -4.16488,8.7224403 -2.55487,6.9783863 1.60989,-1.744054 3.219,-5.5034503 3.62146,-7.5158213 0.1133,-0.565978 0.0847,-0.766402 -0.0249,-0.768945 z m 35.24745,0.42168 c -0.22678,-0.01334 -0.60357,1.000456 -0.60357,1.000456 -1.3281,3.225379 -2.75111,8.9148573 -1.80247,7.8713543 0.94863,-1.043506 2.65803,-7.2086293 2.56315,-8.4418623 -0.0238,-0.308309 -0.0814,-0.425501 -0.15711,-0.429948 z m -11.87318,7.7307943 c -1.8782,7.24453255 -9.12812,17.4376957 -9.12812,17.4376957 0,0 4.16478,-3.756467 6.7138,-8.3178387 2.5491,-4.5613744 2.41432,-9.119857 2.41432,-9.119857 z m -7.59849,1.943034 c -0.32499,0.0742 -1.79422,3.0179037 -1.79422,3.0179037 -1.60991,2.95147465 -3.22484,6.3089182 -2.01745,5.1014974 1.20754,-1.2074234 3.09126,-4.8345275 3.76206,-7.3835287 0.14674,-0.5575964 0.1406,-0.7566504 0.0496,-0.7358724 z m -9.30177,4.69635415 c -0.23802,0.033211 -0.67797,1.2733073 -0.67797,1.2733073 -2.95158,7.78116575 -8.18592,14.48966825 -6.97838,14.22135425 1.2074,-0.268317 5.10122,-6.0368921 6.30864,-9.525 1.20743,-3.4881106 1.60589,-4.96627685 1.47175,-5.77122405 -0.0251,-0.1509289 -0.069,-0.2061025 -0.12404,-0.1984375 z m 3.76206,5.72988285 c -0.26681,0.026681 -0.63664,0.719336 -0.63664,0.719336 -0.94875,1.1383672 -1.70979,2.942164 -0.95086,2.3729818 0.7589,-0.5691849 1.99218,-2.0853586 1.80247,-2.8442709 -0.0474,-0.1897301 -0.12605,-0.2569422 -0.21497,-0.2480469 z M 326.27255,25.152272 c -0.30787,0.0066 -0.94255,0.578776 -0.94255,0.578776 -1.87822,3.219792 -8.04632,7.515016 -6.16812,6.978386 1.87825,-0.536633 6.43988,-4.96148 7.11067,-6.705534 0.25157,-0.654021 0.18474,-0.855559 0,-0.851628 z m -2.26546,10.963672 c -0.62551,0.01106 -3.63803,1.95957 -3.63803,1.95957 -3.62227,2.146528 -4.83293,3.755904 -2.14973,2.414323 2.68313,-1.34158 4.83208,-2.685047 5.77119,-4.026627 0.17611,-0.251548 0.1609,-0.349822 0.0167,-0.347266 z"
         style="color:#000000;fill:#00ccff;fill-opacity:1;fill-rule:nonzero;stroke:#00ccff;stroke-width:1.32291663;stroke-miterlimit:4;stroke-dasharray:none;marker:none;visibility:visible;display:inline;overflow:visible;filter:url(#filter4194);enable-background:accumulate" />
      <g
         inkscape:export-ydpi="90"
         inkscape:export-xdpi="90"
         inkscape:export-filename="C:\Users\rober\Desktop\assets\ASSETS_2024\ESSENTIALS\sword_effects\1.png"
         id="g4009"
         transform="translate(402.48464,-183.65682)">
        <rect
           y="106.51296"
           x="-152.62852"
           height="144.57283"
           width="135.84532"
           id="rect4011"
           style="opacity:0;color:#000000;fill:#ffcc00;fill-opacity:1;fill-rule:nonzero;stroke:none;stroke-width:2;marker:none;visibility:visible;display:inline;overflow:visible;enable-background:accumulate" />
      </g>
      <path
         sodipodi:nodetypes="cccsccsccccccscsccccscccccsccccsccccsccccccccccscccccccccsccccsccscccsscscsccsccc"
         inkscape:connector-curvature="0"
         inkscape:export-ydpi="90"
         inkscape:export-xdpi="90"
         inkscape:export-filename="C:\Users\rober\Desktop\assets\ASSETS_2024\ESSENTIALS\sword_effects\1.png"
         id="path4015"
         transform="matrix(0.26458334,0,0,0.26458334,-6.3049604e-6,18.562493)"
         d="m 1378.5312,-341.0625 c -0.2446,0.0109 -0.3437,0.0312 -0.3437,0.0312 -44.1136,4.56349 -40.5878,44.13114 -36.5313,63.90625 4.0568,19.7751 -2.004,45.10482 0.5313,42.0625 1.336,-1.60314 13.4014,-16.79868 17.4361,-34.89603 12.4846,54.71434 -3.2486,152.05228 -3.2486,152.05228 0,0 22.3186,-53.76737 26.375,-101.9375 1.6514,-19.60976 -0.058,-46.93615 -1.5756,-61.90103 1.1006,-0.83607 3.6227,3.36519 4.3568,6.52603 17.1477,48.51088 16.4688,83.78125 16.4688,83.78125 0,0 3.1467,-45.48334 3.25,-76.25 4.635,11.54021 6.375,16.40625 6.375,16.40625 0,0 0.8129,-9.06998 0.9688,-19.375 11.4484,37.55388 12.466,77.04038 14.0312,71.71875 1.7927,-6.0952 2.2982,-49.92374 -0.7188,-78.53125 -2.5104,-23.80671 -7.3095,-43.51015 -19.3437,-54.40625 -6.7639,-6.12424 -15.8041,-9.47296 -28.0313,-9.1875 z m -39.8124,110.6875 c -1.8878,-0.0752 -3.875,5.625 -3.875,5.625 -6.8127,15.05873 -10.393,29.39791 -4.6563,25.8125 5.7366,-3.58541 12.1826,-24.40313 10.0313,-29.78125 -0.4709,-1.17646 -0.9716,-1.63519 -1.5,-1.65625 z m 63.4374,40.65625 c -0.09,0.0135 -0.16,0.0489 -0.25,0.0937 -2.8683,1.43417 -1.8124,6.09375 -1.8124,6.09375 0.3586,7.88791 2.1629,15.4127 5.0312,11.46875 2.7787,-3.82071 -0.1741,-18.07312 -2.9688,-17.65625 z m -76.9062,11.1875 c -1.5272,0.20921 -4.875,10.90625 -4.875,10.90625 -6.0847,14.19751 -8.126,22.83465 -3.5625,16.75 4.5635,-6.08465 9.632,-18.77625 9.125,-25.875 -0.095,-1.33102 -0.3351,-1.82953 -0.6875,-1.78125 z m 76.3438,28.96875 c -1.2791,0.0676 -3.2813,5.46875 -3.2813,5.46875 -1.4341,12.90749 -6.8059,27.96708 -3.9375,27.25 2.8683,-0.71708 7.8915,-13.96751 8.25,-26.875 0.1233,-4.43695 -0.3614,-5.87914 -1.0312,-5.84375 z m -113.7813,21.625 c -1.056,-0.0246 -3.9375,4.9375 -3.9375,4.9375 -10.6481,19.77511 -15.7413,32.966702 -9.6562,26.375 6.0846,-6.5917 12.1663,-20.80044 13.6874,-28.40625 0.4282,-2.13913 0.3201,-2.89664 -0.094,-2.90625 z m 133.2187,1.59375 c -0.8571,-0.0504 -2.2812,3.78125 -2.2812,3.78125 -5.0196,12.19041 -10.3979,33.693954 -6.8125,29.75 3.5854,-3.943955 10.0461,-27.24521 9.6875,-31.90625 -0.09,-1.16526 -0.3077,-1.60819 -0.5938,-1.625 z m -44.875,29.21875 c -7.0987,27.380916 -34.5,65.90625 -34.5,65.90625 0,0 15.7409,-14.197664 25.375,-31.4375 9.6344,-17.239835 9.125,-34.46875 9.125,-34.46875 z m -28.7187,7.34375 c -1.2283,0.280467 -6.7813,11.40625 -6.7813,11.40625 -6.0847,11.155188 -12.1884,23.844736 -7.625,19.28125 4.5639,-4.563486 11.6835,-18.272224 14.2188,-27.90625 0.5546,-2.107443 0.5314,-2.859781 0.1875,-2.78125 z m -35.1563,17.75 c -0.8996,0.125526 -2.5624,4.8125 -2.5624,4.8125 -11.1556,29.409131 -30.9389,54.764108 -26.375,53.75 4.5634,-1.014108 19.2802,-22.816596 23.8437,-36 4.5635,-13.183404 6.0695,-18.770176 5.5625,-21.8125 -0.095,-0.570436 -0.2608,-0.778967 -0.4688,-0.75 z M 1326.5,-50.375 c -1.0084,0.10084 -2.4062,2.71875 -2.4062,2.71875 -3.5858,4.302495 -6.4622,11.119998 -3.5938,8.96875 2.8683,-2.151247 7.5295,-7.881669 6.8125,-10.75 -0.1793,-0.717083 -0.4764,-0.971113 -0.8125,-0.9375 z m -93.3438,75.28125 c -1.1636,0.02476 -3.5624,2.1875 -3.5624,2.1875 -7.0988,12.169296 -30.4113,28.403215 -23.3126,26.375 7.0989,-2.028216 24.3397,-18.752048 26.875,-25.34375 0.9508,-2.471888 0.6982,-3.233605 0,-3.21875 z m -8.5624,41.4375 c -2.3641,0.04184 -13.75,7.40625 -13.75,7.40625 -13.6905,8.112864 -18.2662,14.19554 -8.125,9.125 10.141,-5.07054 18.263,-10.14821 21.8124,-15.21875 0.6656,-0.950726 0.6081,-1.322156 0.063,-1.3125 z"
         style="color:#000000;fill:#00ffff;fill-opacity:1;fill-rule:nonzero;stroke:none;stroke-width:2;marker:none;visibility:visible;display:inline;overflow:visible;enable-background:accumulate" />
      <path
         transform="matrix(0.26458333,0,0,0.26458333,-293.52519,-77.143858)"
         inkscape:connector-curvature="0"
         id="path4139"
         d="m 2496.8817,32.268746 c -40.8737,4.302495 -35.8541,21.512478 -36.5712,34.419966 -0.7171,12.907487 -2.1512,26.532057 -2.1512,26.532057 0,0 5.7366,-8.604991 8.605,-18.644148 2.8683,-10.039157 3.5854,-13.62457 3.5854,-13.62457 0,0 5.0195,15.058735 7.1708,35.137049 2.1512,20.07831 3.5854,22.94664 3.5854,22.94664 0,0 2.1513,-31.551632 0,-48.761615 -2.1512,-17.209983 0.7171,-15.775818 0.7171,-15.775818 0,0 12.9075,10.75624 17.9271,28.683305 5.0195,17.927068 5.7366,17.927068 5.7366,17.927068 l -5.7366,-47.327456 11.4733,21.512479 -0.7171,-17.209983 c 0,0 8.605,2.151248 12.1904,17.927066 3.5854,15.775818 6.4537,18.644148 5.7367,10.75624 -0.7171,-7.887909 -6.4538,-32.985802 -15.0588,-45.176206 -8.605,-12.190405 -16.4929,-9.322074 -16.4929,-9.322074 z"
         style="color:#000000;fill:#ffffff;fill-opacity:1;fill-rule:nonzero;stroke:none;stroke-width:2;marker:none;visibility:visible;display:inline;overflow:visible;enable-background:accumulate" />
    </g>
  </g>
</svg>
