<?xml version="1.0" encoding="UTF-8" standalone="no"?>
<!-- Created with Inkscape (http://www.inkscape.org/) -->

<svg
   xmlns:dc="http://purl.org/dc/elements/1.1/"
   xmlns:cc="http://creativecommons.org/ns#"
   xmlns:rdf="http://www.w3.org/1999/02/22-rdf-syntax-ns#"
   xmlns:svg="http://www.w3.org/2000/svg"
   xmlns="http://www.w3.org/2000/svg"
   xmlns:sodipodi="http://sodipodi.sourceforge.net/DTD/sodipodi-0.dtd"
   xmlns:inkscape="http://www.inkscape.org/namespaces/inkscape"
   width="508.07666"
   height="512"
   viewBox="0 0 134.42861 135.46667"
   version="1.1"
   id="svg23489"
   inkscape:version="0.48.5 r10040"
   sodipodi:docname="punch_action_03.svg">
  <defs
     id="defs23483">
    <filter
       inkscape:collect="always"
       id="filter4362"
       color-interpolation-filters="sRGB">
      <feGaussianBlur
         inkscape:collect="always"
         stdDeviation="0.46758318"
         id="feGaussianBlur4364" />
    </filter>
    <filter
       inkscape:collect="always"
       id="filter4382"
       x="-0.020819252"
       width="1.0416385"
       y="-0.13292411"
       height="1.2658482"
       color-interpolation-filters="sRGB">
      <feGaussianBlur
         inkscape:collect="always"
         stdDeviation="0.95674149"
         id="feGaussianBlur4384" />
    </filter>
    <filter
       inkscape:collect="always"
       id="filter4390"
       color-interpolation-filters="sRGB">
      <feGaussianBlur
         inkscape:collect="always"
         stdDeviation="1.1453489"
         id="feGaussianBlur4392" />
    </filter>
    <filter
       inkscape:collect="always"
       id="filter4394"
       color-interpolation-filters="sRGB">
      <feGaussianBlur
         inkscape:collect="always"
         stdDeviation="0.99582983"
         id="feGaussianBlur4396" />
    </filter>
    <filter
       inkscape:collect="always"
       id="filter4402"
       color-interpolation-filters="sRGB">
      <feGaussianBlur
         inkscape:collect="always"
         stdDeviation="1.1936347"
         id="feGaussianBlur4404" />
    </filter>
    <filter
       inkscape:collect="always"
       id="filter4406"
       color-interpolation-filters="sRGB">
      <feGaussianBlur
         inkscape:collect="always"
         stdDeviation="1.2182047"
         id="feGaussianBlur4408" />
    </filter>
  </defs>
  <sodipodi:namedview
     id="base"
     pagecolor="#2b2e30"
     bordercolor="#666666"
     borderopacity="1.0"
     inkscape:pageopacity="0"
     inkscape:pageshadow="2"
     inkscape:zoom="0.49304414"
     inkscape:cx="-850.29629"
     inkscape:cy="-78.255692"
     inkscape:document-units="px"
     inkscape:current-layer="layer1"
     showgrid="false"
     inkscape:pagecheckerboard="false"
     showborder="true"
     units="px"
     inkscape:window-width="1920"
     inkscape:window-height="1017"
     inkscape:window-x="-8"
     inkscape:window-y="-8"
     inkscape:window-maximized="1"
     inkscape:showpageshadow="false"
     guidetolerance="28"
     showguides="true"
     inkscape:guide-bbox="true">
    <inkscape:grid
       type="xygrid"
       id="grid24034"
       spacingx="1px"
       spacingy="1px"
       empspacing="8"
       visible="true"
       enabled="true"
       snapvisiblegridlinesonly="true"
       originx="5509.6232px"
       originy="-1606.347px" />
  </sodipodi:namedview>
  <metadata
     id="metadata23486">
    <rdf:RDF>
      <cc:Work
         rdf:about="">
        <dc:format>image/svg+xml</dc:format>
        <dc:type
           rdf:resource="http://purl.org/dc/dcmitype/StillImage" />
        <dc:title></dc:title>
        <cc:license
           rdf:resource="" />
        <dc:creator>
          <cc:Agent>
            <dc:title>Robert Brooks</dc:title>
          </cc:Agent>
        </dc:creator>
      </cc:Work>
    </rdf:RDF>
  </metadata>
  <g
     inkscape:label="Layer 1"
     inkscape:groupmode="layer"
     id="layer1"
     transform="translate(1457.7544,263.47933)">
    <g
       id="g4438">
      <g
         id="g4431">
        <path
           inkscape:connector-curvature="0"
           style="font-size:medium;font-style:normal;font-variant:normal;font-weight:normal;font-stretch:normal;text-indent:0;text-align:start;text-decoration:none;line-height:normal;letter-spacing:normal;word-spacing:normal;text-transform:none;direction:ltr;block-progression:tb;writing-mode:lr-tb;text-anchor:start;baseline-shift:baseline;color:#000000;fill:#00ccff;fill-opacity:1;fill-rule:nonzero;stroke:#00ccff;stroke-width:0.5291667;stroke-miterlimit:4;stroke-dasharray:none;marker:none;visibility:visible;display:inline;overflow:visible;filter:url(#filter4394);enable-background:accumulate;font-family:Sans;-inkscape-font-specification:Sans"
           d="m -1340.2848,-224.31464 c -0.4036,-0.0151 -0.8096,0.20604 -1.0116,0.5558 -0.202,0.34974 -0.1908,0.81352 0.024,1.15556 0,0 3.017,4.34682 3.5267,5.17006 0.1465,0.2479 0.5109,0.33958 0.7557,0.18794 0.2448,-0.15164 0.3246,-0.51816 0.1679,-0.75972 -0.5021,-0.81116 -2.543,-5.75785 -2.543,-5.75785 -0.1889,-0.32224 -0.5464,-0.53765 -0.9197,-0.55179 z m -49.6974,3.65063 c -0.565,0.0557 2.365,0.98317 8.8367,3.11085 7.4437,2.44727 13.8688,3.92453 14.7865,4.02649 0.9177,0.10198 -3.9264,-1.57933 -6.7815,-2.59903 -2.8551,-1.01969 -15.958,-4.53831 -16.7737,-4.53831 -0.025,0 -0.05,-0.002 -0.068,0 z m 46.9065,6.67351 c -0.2138,-0.001 -0.4276,0.0503 -0.6158,0.15195 -0.4069,0.21995 -0.676,0.67301 -0.6717,1.13557 0,0.46256 0.2808,0.91116 0.6917,1.12358 0,0 13.037,6.68577 14.0188,7.20131 0.2887,0.15927 0.6944,0.0361 0.8476,-0.2559 0.1533,-0.29203 0.023,-0.69657 -0.2719,-0.84368 -0.9673,-0.50797 -13.387,-8.35689 -13.387,-8.35689 -0.1869,-0.10399 -0.398,-0.15458 -0.6117,-0.15594 z m 13.391,11.2798 c -0.1559,0.81265 -57.5464,2.6706 -57.4746,2.671 0.3751,0.002 57.4746,0.22392 57.4746,0.22392 0.7654,0.0109 1.4674,-0.75963 1.4674,-1.44748 0,-0.68783 -0.702,-1.45834 -1.4674,-1.44744 z m 0.3878,6.98939 c 0,0 -72.9727,1.38303 -72.9727,1.61139 0,0.22837 72.9727,0.99163 72.9727,0.99163 2.0123,0 2.075,-2.60302 0,-2.60302 z m -0.3878,7.14131 c 0,0 -13.1382,0.7701 -36.5984,1.25555 -30.1899,0.6247 -5.8258,1.02046 -5.8258,1.23154 0,0.1321 -7.1659,0.16551 -7.965,0.17593 0.634,0.004 4.8936,0.004 16.9097,0.02 18.6863,0.0246 33.4795,0.21191 33.4795,0.21191 0.7654,0.0109 1.4674,-0.75961 1.4674,-1.44744 0,-0.68785 -0.702,-1.45836 -1.4674,-1.44748 z m 0.6517,3.13884 c -0.081,0.006 -0.1597,0.0282 -0.2319,0.068 -0.9818,0.51553 -14.0188,7.2013 -14.0188,7.2013 -0.4109,0.21242 -0.6874,0.66103 -0.6917,1.12358 0,0.46256 0.2648,0.91962 0.6718,1.13958 0.3764,0.20325 0.8577,0.2 1.2315,-0.008 0,0 12.4156,-7.84891 13.383,-8.35688 0.2951,-0.14711 0.4291,-0.55165 0.2759,-0.84368 -0.1149,-0.219 -0.3758,-0.34286 -0.6198,-0.32388 z m -30.7845,8.76472 c -0.023,-2.5e-4 -0.052,-5e-5 -0.088,0.004 -1.1679,0.12976 -9.3407,2.01191 -18.813,5.12608 -8.5009,2.79483 -12.1979,3.95853 -11.1599,3.95853 1.0381,0 17.7109,-4.47627 21.3441,-5.77385 3.5196,-1.25702 9.4135,-3.30592 8.7167,-3.31476 z m 23.7711,2.45109 c -0.2045,0.0124 -0.4069,0.11845 -0.5118,0.29589 -0.5837,0.94288 -4.0425,5.92579 -4.0425,5.92579 -0.246,0.39174 -0.2553,0.91893 -0.024,1.3195 0.2314,0.40057 0.6934,0.65708 1.1556,0.63976 0.4275,-0.0162 0.8393,-0.26269 1.0556,-0.63176 0,0 2.3358,-5.66851 2.9109,-6.59754 0.1795,-0.27667 0.089,-0.694 -0.1919,-0.86767 -0.1051,-0.0651 -0.2291,-0.0914 -0.3519,-0.084 z"
           id="path4015-3"
           gds_switchable="blur"
           gds_color="blur" />
        <g
           id="g4209"
           transform="matrix(0.48359886,0,0,0.48359886,-834.91916,-66.105886)"
           inkscape:export-filename="C:\Users\rober\Desktop\assets\ASSETS_2024\ESSENTIALS\sword_effects\punch_action\1.png"
           inkscape:export-xdpi="90"
           inkscape:export-ydpi="90">
          <rect
             style="opacity:0;color:#000000;fill:#800080;fill-opacity:1;fill-rule:nonzero;stroke:none;stroke-width:20;marker:none;visibility:visible;display:inline;overflow:visible;enable-background:accumulate"
             id="rect4207"
             width="277.97546"
             height="280.12198"
             x="-1287.9171"
             y="-408.13464" />
          <g
             transform="translate(-774.33284,0)"
             style="fill:#ff0000"
             id="g4176">
            <path
               inkscape:connector-curvature="0"
               style="font-size:medium;font-style:normal;font-variant:normal;font-weight:normal;font-stretch:normal;text-indent:0;text-align:start;text-decoration:none;line-height:normal;letter-spacing:normal;word-spacing:normal;text-transform:none;direction:ltr;block-progression:tb;writing-mode:lr-tb;text-anchor:start;baseline-shift:baseline;color:#000000;fill:#00ffff;fill-opacity:1;fill-rule:nonzero;stroke:none;stroke-width:10;marker:none;visibility:visible;display:inline;overflow:visible;enable-background:accumulate;font-family:Sans;-inkscape-font-specification:Sans"
               d="m -1023.0312,-1306.625 c -3.1544,-0.1183 -6.3276,1.6103 -7.9063,4.3438 -1.5787,2.7334 -1.4912,6.358 0.1875,9.0312 0,0 23.5795,33.9722 27.5625,40.4062 1.145,1.9374 3.9932,2.6539 5.90625,1.4688 1.91308,-1.1851 2.53714,-4.0496 1.3125,-5.9375 -3.92451,-6.3396 -19.87505,-45 -19.87505,-45 -1.4758,-2.5185 -4.2704,-4.202 -7.1874,-4.3125 z m -388.4063,28.5312 c -4.4154,0.4352 18.4838,7.6839 69.0625,24.3126 58.1761,19.1264 108.3902,30.6718 115.5625,31.4687 7.1724,0.797 -30.6859,-12.3431 -53,-20.3125 -22.3141,-7.9693 -124.7183,-35.4688 -131.0937,-35.4688 -0.1993,0 -0.3889,-0.014 -0.5313,0 z m 366.5937,52.1563 c -1.6707,-0.011 -3.3416,0.3932 -4.8124,1.1875 -3.1804,1.719 -5.2833,5.2599 -5.25,8.875 0.034,3.6151 2.1947,7.1211 5.4062,8.7812 0,0 101.88934,52.2521 109.5625,56.2813 2.25687,1.2447 5.42749,0.2821 6.625,-2 1.19754,-2.2823 0.18172,-5.444 -2.125,-6.5937 -7.56042,-3.97 -104.625,-65.3126 -104.625,-65.3126 -1.4607,-0.8127 -3.1105,-1.2081 -4.7813,-1.2187 z m 104.6563,88.1563 c -1.21791,6.3512 -449.7491,20.8719 -449.1875,20.875 2.9316,0.015 449.1875,1.75 449.1875,1.75 5.98261,0.085 11.46875,-5.9368 11.46875,-11.3126 0,-5.3757 -5.48614,-11.3976 -11.46875,-11.3124 z m 3.03125,54.625 c 0,0 -570.31255,10.809 -570.31255,12.5937 0,1.7848 570.31255,7.75 570.31255,7.75 15.72711,0 16.21701,-20.3437 0,-20.3437 z m -3.03125,55.8124 c 0,0 -102.6801,6.0186 -286.0313,9.8126 -235.9471,4.8823 -45.5312,7.9753 -45.5312,9.625 0,1.0324 -56.0042,1.2935 -62.25,1.375 4.9549,0.032 38.2456,0.033 132.1562,0.1562 146.0416,0.192 261.6563,1.6562 261.6563,1.6562 5.98261,0.085 11.46875,-5.9367 11.46875,-11.3124 0,-5.3758 -5.48614,-11.3977 -11.46875,-11.3126 z m 5.09375,24.5313 c -0.63549,0.049 -1.24828,0.2201 -1.8125,0.5313 -7.67316,4.02912 -109.56255,56.2812 -109.56255,56.2812 -3.2115,1.66012 -5.3722,5.16617 -5.4062,8.78125 -0.033,3.61508 2.0696,7.18721 5.25,8.90625 2.9418,1.58854 6.7036,1.56307 9.625,-0.0625 0,0 97.03333,-61.34252 104.59375,-65.3125 2.30672,-1.14973 3.35379,-4.31141 2.15625,-6.5937 -0.89813,-1.7116 -2.93727,-2.6796 -4.84375,-2.5313 z m -240.59375,68.5 c -0.1757,-0.002 -0.4023,-4.4e-4 -0.6875,0.0312 -9.1269,1.0141 -73.0014,15.72391 -147.0312,40.0625 -66.4383,21.84271 -95.3317,30.9375 -87.2188,30.9375 8.1129,0 138.4175,-34.98392 166.8125,-45.125 27.5077,-9.82417 73.5705,-25.83718 68.125,-25.90625 z m 185.78125,19.15625 c -1.59885,0.097 -3.18039,0.92574 -4,2.3125 -4.56174,7.36898 -31.59375,46.3125 -31.59375,46.3125 -1.9226,3.06164 -1.9956,7.18188 -0.1875,10.3125 1.8081,3.13062 5.4186,5.13531 9.0313,5 3.3408,-0.12658 6.5597,-2.05304 8.25,-4.9375 0,0 18.25522,-44.30176 22.74995,-51.5625 1.40262,-2.16231 0.69107,-5.42395 -1.5,-6.78125 -0.82164,-0.50899 -1.79069,-0.71444 -2.75,-0.65625 z"
               transform="matrix(0.26458334,0,0,0.26458334,-6.3049604e-6,18.562493)"
               id="path4015" />
          </g>
        </g>
      </g>
    </g>
  </g>
</svg>
