<?xml version="1.0" encoding="UTF-8" standalone="no"?>
<!-- Created with Inkscape (http://www.inkscape.org/) -->

<svg
   xmlns:dc="http://purl.org/dc/elements/1.1/"
   xmlns:cc="http://creativecommons.org/ns#"
   xmlns:rdf="http://www.w3.org/1999/02/22-rdf-syntax-ns#"
   xmlns:svg="http://www.w3.org/2000/svg"
   xmlns="http://www.w3.org/2000/svg"
   xmlns:sodipodi="http://sodipodi.sourceforge.net/DTD/sodipodi-0.dtd"
   xmlns:inkscape="http://www.inkscape.org/namespaces/inkscape"
   width="508.07666"
   height="512"
   viewBox="0 0 134.42861 135.46667"
   version="1.1"
   id="svg23489"
   inkscape:version="0.48.5 r10040"
   sodipodi:docname="punch_action_01.svg">
  <defs
     id="defs23483">
    <filter
       inkscape:collect="always"
       id="filter4362"
       color-interpolation-filters="sRGB">
      <feGaussianBlur
         inkscape:collect="always"
         stdDeviation="0.46758318"
         id="feGaussianBlur4364" />
    </filter>
    <filter
       inkscape:collect="always"
       id="filter4382"
       x="-0.020819252"
       width="1.0416385"
       y="-0.13292411"
       height="1.2658482"
       color-interpolation-filters="sRGB">
      <feGaussianBlur
         inkscape:collect="always"
         stdDeviation="0.95674149"
         id="feGaussianBlur4384" />
    </filter>
    <filter
       inkscape:collect="always"
       id="filter4390"
       color-interpolation-filters="sRGB">
      <feGaussianBlur
         inkscape:collect="always"
         stdDeviation="1.1453489"
         id="feGaussianBlur4392" />
    </filter>
    <filter
       inkscape:collect="always"
       id="filter4394"
       color-interpolation-filters="sRGB">
      <feGaussianBlur
         inkscape:collect="always"
         stdDeviation="0.99582983"
         id="feGaussianBlur4396" />
    </filter>
    <filter
       inkscape:collect="always"
       id="filter4402"
       color-interpolation-filters="sRGB">
      <feGaussianBlur
         inkscape:collect="always"
         stdDeviation="1.1936347"
         id="feGaussianBlur4404" />
    </filter>
    <filter
       inkscape:collect="always"
       id="filter4406"
       color-interpolation-filters="sRGB">
      <feGaussianBlur
         inkscape:collect="always"
         stdDeviation="1.2182047"
         id="feGaussianBlur4408" />
    </filter>
  </defs>
  <sodipodi:namedview
     id="base"
     pagecolor="#2b2e30"
     bordercolor="#666666"
     borderopacity="1.0"
     inkscape:pageopacity="0"
     inkscape:pageshadow="2"
     inkscape:zoom="0.49304414"
     inkscape:cx="165.85682"
     inkscape:cy="-78.255656"
     inkscape:document-units="px"
     inkscape:current-layer="layer1"
     showgrid="false"
     inkscape:pagecheckerboard="false"
     showborder="true"
     units="px"
     inkscape:window-width="1920"
     inkscape:window-height="1017"
     inkscape:window-x="-8"
     inkscape:window-y="-8"
     inkscape:window-maximized="1"
     inkscape:showpageshadow="false"
     guidetolerance="28"
     showguides="true"
     inkscape:guide-bbox="true">
    <inkscape:grid
       type="xygrid"
       id="grid24034"
       spacingx="1px"
       spacingy="1px"
       empspacing="8"
       visible="true"
       enabled="true"
       snapvisiblegridlinesonly="true"
       originx="6525.7763px"
       originy="-1606.347px" />
  </sodipodi:namedview>
  <metadata
     id="metadata23486">
    <rdf:RDF>
      <cc:Work
         rdf:about="">
        <dc:format>image/svg+xml</dc:format>
        <dc:type
           rdf:resource="http://purl.org/dc/dcmitype/StillImage" />
        <dc:title></dc:title>
        <cc:license
           rdf:resource="" />
        <dc:creator>
          <cc:Agent>
            <dc:title>Robert Brooks</dc:title>
          </cc:Agent>
        </dc:creator>
      </cc:Work>
    </rdf:RDF>
  </metadata>
  <g
     inkscape:label="Layer 1"
     inkscape:groupmode="layer"
     id="layer1"
     transform="translate(1726.6116,263.47933)">
    <g
       id="g4417"
       inkscape:export-filename="C:\Users\rober\Desktop\assets\ASSETS_2024\ESSENTIALS\sword_effects\punch_action\SVG\punch_action_02.png"
       inkscape:export-xdpi="90"
       inkscape:export-ydpi="90">
      <path
         gds_color="blur"
         gds_switchable="blur"
         sodipodi:nodetypes="cscsccscscccccccccccc"
         inkscape:connector-curvature="0"
         style="font-size:medium;font-style:normal;font-variant:normal;font-weight:normal;font-stretch:normal;text-indent:0;text-align:start;text-decoration:none;line-height:normal;letter-spacing:normal;word-spacing:normal;text-transform:none;direction:ltr;block-progression:tb;writing-mode:lr-tb;text-anchor:start;baseline-shift:baseline;color:#000000;fill:#00ccff;fill-opacity:1;fill-rule:nonzero;stroke:#00ccff;stroke-width:0.5291667;stroke-miterlimit:4;stroke-dasharray:none;marker:none;visibility:visible;display:inline;overflow:visible;filter:url(#filter4382);enable-background:accumulate;font-family:Sans;-inkscape-font-specification:Sans"
         d="m -1627.4186,-202.7088 c 0,0 -80.0219,2.11006 -80.0219,2.48517 0,0.37511 80.0219,0.40906 80.0219,0.40906 0.7655,0.0108 1.4688,-0.75929 1.4688,-1.44713 0,-0.68784 -0.7033,-1.45799 -1.4688,-1.4471 z m 26.444,7.82847 c 0,0 -105.8181,1.13211 -105.8181,1.47015 0,0.33806 105.8181,1.47014 105.8181,1.47014 0.7767,0.011 1.4947,-0.77215 1.4947,-1.47014 0,-0.69796 -0.718,-1.48118 -1.4947,-1.47015 z m -39.0429,6.71985 c -0.046,9.8e-4 -0.093,0.006 -0.138,0.0143 -8.9628,0.19582 -58.8675,0.56723 -66.3973,0.84974 -1.0125,0.0613 -2.0268,0.0876 -3.0349,0.20392 -0.2337,0.11176 -0.2686,0.5623 0.04,0.5838 0.4937,0.13894 1.0162,0.0474 1.5195,0.13194 3.413,0.17269 62.0801,0.82405 67.4114,0.928 0.5601,0.009 1.2635,0.1134 1.6269,-0.41388 0.508,-0.52271 0.5143,-1.55635 -0.1331,-1.97904 -0.2311,-0.18831 -0.5736,-0.32882 -0.8944,-0.31876 z"
         id="path3985-7" />
      <g
         inkscape:export-ydpi="90"
         inkscape:export-xdpi="90"
         inkscape:export-filename="C:\Users\rober\Desktop\assets\ASSETS_2024\ESSENTIALS\sword_effects\punch_action\1.png"
         transform="matrix(0.48359886,0,0,0.48359886,-1103.7764,-66.105886)"
         id="g4229">
        <rect
           style="opacity:0;color:#000000;fill:#800080;fill-opacity:1;fill-rule:nonzero;stroke:none;stroke-width:20;marker:none;visibility:visible;display:inline;overflow:visible;enable-background:accumulate"
           id="rect4197"
           width="277.97546"
           height="280.12198"
           x="-1287.9171"
           y="-408.13464" />
        <g
           id="g4165">
          <path
             sodipodi:nodetypes="cscsccscscccccccccccc"
             inkscape:connector-curvature="0"
             style="font-size:medium;font-style:normal;font-variant:normal;font-weight:normal;font-stretch:normal;text-indent:0;text-align:start;text-decoration:none;line-height:normal;letter-spacing:normal;word-spacing:normal;text-transform:none;direction:ltr;block-progression:tb;writing-mode:lr-tb;text-anchor:start;baseline-shift:baseline;color:#000000;fill:#00ffff;fill-opacity:1;fill-rule:nonzero;stroke:none;stroke-width:10;marker:none;visibility:visible;display:inline;overflow:visible;enable-background:accumulate;font-family:Sans;-inkscape-font-specification:Sans"
             d="m -1082.8028,-282.47153 c 0,0 -165.4716,4.36323 -165.4716,5.13889 0,0.77567 165.4716,0.84587 165.4716,0.84587 1.5829,0.0224 3.0373,-1.57007 3.0373,-2.99241 0,-1.42234 -1.4544,-3.01488 -3.0373,-2.99235 z m 54.6816,16.18793 c 0,0 -218.8138,2.34102 -218.8138,3.04002 0,0.69905 218.8138,3.04001 218.8138,3.04001 1.6061,0.0228 3.0908,-1.59669 3.0908,-3.04001 0,-1.44327 -1.4847,-3.06283 -3.0908,-3.04002 z m -80.734,13.8955 c -0.095,0.002 -0.1933,0.0131 -0.2853,0.0295 -18.5337,0.40492 -121.728,1.17292 -137.2984,1.75712 -2.0936,0.12671 -4.191,0.18124 -6.2756,0.42167 -0.4832,0.23109 -0.5554,1.16274 0.083,1.20719 1.0207,0.28731 2.1013,0.098 3.1419,0.27284 7.0575,0.35708 128.3712,1.70399 139.3953,1.91894 1.1582,0.019 2.6127,0.23449 3.3643,-0.85583 1.0504,-1.08088 1.0633,-3.21828 -0.2754,-4.09233 -0.4777,-0.38938 -1.1861,-0.67994 -1.8494,-0.65913 z"
             id="path3985" />
        </g>
      </g>
    </g>
  </g>
</svg>
