<?xml version="1.0" encoding="UTF-8" standalone="no"?>
<!-- Created with Inkscape (http://www.inkscape.org/) -->

<svg
   xmlns:dc="http://purl.org/dc/elements/1.1/"
   xmlns:cc="http://creativecommons.org/ns#"
   xmlns:rdf="http://www.w3.org/1999/02/22-rdf-syntax-ns#"
   xmlns:svg="http://www.w3.org/2000/svg"
   xmlns="http://www.w3.org/2000/svg"
   xmlns:sodipodi="http://sodipodi.sourceforge.net/DTD/sodipodi-0.dtd"
   xmlns:inkscape="http://www.inkscape.org/namespaces/inkscape"
   width="3048.46"
   height="512"
   viewBox="0 0 806.57166 135.46667"
   version="1.1"
   id="svg23489"
   inkscape:version="0.48.5 r10040"
   sodipodi:docname="punch_action_spritesheet.svg">
  <defs
     id="defs23483">
    <filter
       inkscape:collect="always"
       id="filter4362">
      <feGaussianBlur
         inkscape:collect="always"
         stdDeviation="0.46758318"
         id="feGaussianBlur4364" />
    </filter>
    <filter
       inkscape:collect="always"
       id="filter4382"
       x="-0.020819252"
       width="1.0416385"
       y="-0.13292411"
       height="1.2658482">
      <feGaussianBlur
         inkscape:collect="always"
         stdDeviation="0.95674149"
         id="feGaussianBlur4384" />
    </filter>
    <filter
       inkscape:collect="always"
       id="filter4390">
      <feGaussianBlur
         inkscape:collect="always"
         stdDeviation="1.1453489"
         id="feGaussianBlur4392" />
    </filter>
    <filter
       inkscape:collect="always"
       id="filter4394">
      <feGaussianBlur
         inkscape:collect="always"
         stdDeviation="0.99582983"
         id="feGaussianBlur4396" />
    </filter>
    <filter
       inkscape:collect="always"
       id="filter4402">
      <feGaussianBlur
         inkscape:collect="always"
         stdDeviation="1.1936347"
         id="feGaussianBlur4404" />
    </filter>
    <filter
       inkscape:collect="always"
       id="filter4406">
      <feGaussianBlur
         inkscape:collect="always"
         stdDeviation="1.2182047"
         id="feGaussianBlur4408" />
    </filter>
  </defs>
  <sodipodi:namedview
     id="base"
     pagecolor="#2b2e30"
     bordercolor="#666666"
     borderopacity="1.0"
     inkscape:pageopacity="0"
     inkscape:pageshadow="2"
     inkscape:zoom="0.34863486"
     inkscape:cx="1155.7902"
     inkscape:cy="134.66024"
     inkscape:document-units="px"
     inkscape:current-layer="layer1"
     showgrid="false"
     inkscape:pagecheckerboard="false"
     showborder="true"
     units="px"
     inkscape:window-width="1920"
     inkscape:window-height="1017"
     inkscape:window-x="-8"
     inkscape:window-y="-8"
     inkscape:window-maximized="1"
     inkscape:showpageshadow="false"
     guidetolerance="28"
     showguides="true"
     inkscape:guide-bbox="true">
    <inkscape:grid
       type="xygrid"
       id="grid24034"
       spacingx="1px"
       spacingy="1px"
       empspacing="8"
       visible="true"
       enabled="true"
       snapvisiblegridlinesonly="true"
       originx="7033.8527px"
       originy="-1606.347px" />
  </sodipodi:namedview>
  <metadata
     id="metadata23486">
    <rdf:RDF>
      <cc:Work
         rdf:about="">
        <dc:format>image/svg+xml</dc:format>
        <dc:type
           rdf:resource="http://purl.org/dc/dcmitype/StillImage" />
        <dc:title></dc:title>
        <cc:license
           rdf:resource="" />
        <dc:creator>
          <cc:Agent>
            <dc:title>Robert Brooks</dc:title>
          </cc:Agent>
        </dc:creator>
      </cc:Work>
    </rdf:RDF>
  </metadata>
  <g
     inkscape:label="Layer 1"
     inkscape:groupmode="layer"
     id="layer1"
     transform="translate(1861.0402,263.47933)">
    <g
       id="g4079"
       transform="translate(115.47672,0)">
      <g
         id="g4081"
         transform="translate(339.83114,-147.85477)" />
    </g>
    <g
       id="g4417">
      <path
         gds_color="blur"
         gds_switchable="blur"
         sodipodi:nodetypes="cscsccscscccccccccccc"
         inkscape:connector-curvature="0"
         style="font-size:medium;font-style:normal;font-variant:normal;font-weight:normal;font-stretch:normal;text-indent:0;text-align:start;text-decoration:none;line-height:normal;letter-spacing:normal;word-spacing:normal;text-transform:none;direction:ltr;block-progression:tb;writing-mode:lr-tb;text-anchor:start;baseline-shift:baseline;color:#000000;fill:#00ccff;fill-opacity:1;fill-rule:nonzero;stroke:#00ccff;stroke-width:0.5291667;stroke-miterlimit:4;stroke-dasharray:none;marker:none;visibility:visible;display:inline;overflow:visible;filter:url(#filter4382);enable-background:accumulate;font-family:Sans;-inkscape-font-specification:Sans"
         d="m -1627.4186,-202.7088 c 0,0 -80.0219,2.11006 -80.0219,2.48517 0,0.37511 80.0219,0.40906 80.0219,0.40906 0.7655,0.0108 1.4688,-0.75929 1.4688,-1.44713 0,-0.68784 -0.7033,-1.45799 -1.4688,-1.4471 z m 26.444,7.82847 c 0,0 -105.8181,1.13211 -105.8181,1.47015 0,0.33806 105.8181,1.47014 105.8181,1.47014 0.7767,0.011 1.4947,-0.77215 1.4947,-1.47014 0,-0.69796 -0.718,-1.48118 -1.4947,-1.47015 z m -39.0429,6.71985 c -0.046,9.8e-4 -0.093,0.006 -0.138,0.0143 -8.9628,0.19582 -58.8675,0.56723 -66.3973,0.84974 -1.0125,0.0613 -2.0268,0.0876 -3.0349,0.20392 -0.2337,0.11176 -0.2686,0.5623 0.04,0.5838 0.4937,0.13894 1.0162,0.0474 1.5195,0.13194 3.413,0.17269 62.0801,0.82405 67.4114,0.928 0.5601,0.009 1.2635,0.1134 1.6269,-0.41388 0.508,-0.52271 0.5143,-1.55635 -0.1331,-1.97904 -0.2311,-0.18831 -0.5736,-0.32882 -0.8944,-0.31876 z"
         id="path3985-7" />
      <g
         inkscape:export-ydpi="90"
         inkscape:export-xdpi="90"
         inkscape:export-filename="C:\Users\rober\Desktop\assets\ASSETS_2024\ESSENTIALS\sword_effects\punch_action\1.png"
         transform="matrix(0.48359886,0,0,0.48359886,-1103.7764,-66.105886)"
         id="g4229">
        <rect
           style="color:#000000;fill:#800080;fill-opacity:1;fill-rule:nonzero;stroke:none;stroke-width:20;marker:none;visibility:visible;display:inline;overflow:visible;enable-background:accumulate;opacity:0"
           id="rect4197"
           width="277.97546"
           height="280.12198"
           x="-1287.9171"
           y="-408.13464" />
        <g
           id="g4165">
          <path
             sodipodi:nodetypes="cscsccscscccccccccccc"
             inkscape:connector-curvature="0"
             style="font-size:medium;font-style:normal;font-variant:normal;font-weight:normal;font-stretch:normal;text-indent:0;text-align:start;text-decoration:none;line-height:normal;letter-spacing:normal;word-spacing:normal;text-transform:none;direction:ltr;block-progression:tb;writing-mode:lr-tb;text-anchor:start;baseline-shift:baseline;color:#000000;fill:#00ffff;fill-opacity:1;fill-rule:nonzero;stroke:none;stroke-width:10;marker:none;visibility:visible;display:inline;overflow:visible;enable-background:accumulate;font-family:Sans;-inkscape-font-specification:Sans"
             d="m -1082.8028,-282.47153 c 0,0 -165.4716,4.36323 -165.4716,5.13889 0,0.77567 165.4716,0.84587 165.4716,0.84587 1.5829,0.0224 3.0373,-1.57007 3.0373,-2.99241 0,-1.42234 -1.4544,-3.01488 -3.0373,-2.99235 z m 54.6816,16.18793 c 0,0 -218.8138,2.34102 -218.8138,3.04002 0,0.69905 218.8138,3.04001 218.8138,3.04001 1.6061,0.0228 3.0908,-1.59669 3.0908,-3.04001 0,-1.44327 -1.4847,-3.06283 -3.0908,-3.04002 z m -80.734,13.8955 c -0.095,0.002 -0.1933,0.0131 -0.2853,0.0295 -18.5337,0.40492 -121.728,1.17292 -137.2984,1.75712 -2.0936,0.12671 -4.191,0.18124 -6.2756,0.42167 -0.4832,0.23109 -0.5554,1.16274 0.083,1.20719 1.0207,0.28731 2.1013,0.098 3.1419,0.27284 7.0575,0.35708 128.3712,1.70399 139.3953,1.91894 1.1582,0.019 2.6127,0.23449 3.3643,-0.85583 1.0504,-1.08088 1.0633,-3.21828 -0.2754,-4.09233 -0.4777,-0.38938 -1.1861,-0.67994 -1.8494,-0.65913 z"
             id="path3985" />
        </g>
      </g>
    </g>
    <g
       id="g4453">
      <path
         gds_color="blur"
         gds_switchable="blur"
         id="path4152-5"
         d="m -1084.794,-249.96904 c -0.551,0.0918 -0.1863,1.29026 0.2728,2.11667 0,0 0.558,0.91559 0.8599,0.95084 0.01,9.8e-4 0.016,4.8e-4 0.025,0 0.054,-0.005 0.1036,-0.0379 0.1323,-0.12402 0.1836,-0.55093 -0.7389,-3.03531 -1.2899,-2.94349 z m -14.2131,19.58744 c -0.4875,0.0425 -0.029,1.12558 1.6619,1.87688 0,0 0.7788,0.49416 1.2154,0.4961 0.1709,7.9e-4 0.2894,-0.0698 0.2894,-0.28112 0,-0.7513 -2.0352,-1.72027 -2.8939,-2.04225 -0.1073,-0.0403 -0.2032,-0.0557 -0.2728,-0.0496 z m -34.4124,6.29212 c -0.9262,0 -0.4166,0.82206 1.7446,1.64538 0,0 0.4886,0.23842 0.893,0.22324 0.1838,-0.007 0.35,-0.0624 0.4465,-0.22324 0.3087,-0.51457 -2.1579,-1.64538 -3.0841,-1.64538 z m 41.0104,57.46419 c -0.7465,0.003 -2.0753,0.8599 -2.0753,0.8599 -3.3031,1.46804 -3.8493,3.66764 -2.3812,3.11712 1.468,-0.55051 4.9526,-2.20466 4.9526,-3.48919 0,-0.36128 -0.204,-0.48899 -0.4961,-0.48783 z m -37.2235,1.14929 c -0.721,-0.0271 -1.5875,0.40514 -1.5875,0.40514 -3.8536,1.46804 -4.7687,2.93522 -3.1172,2.93522 1.6516,0 6.0489,-2.0177 5.4984,-2.93522 -0.172,-0.28673 -0.466,-0.39282 -0.7937,-0.40514 z m 44.8964,20.14967 c -0.6034,0.0704 -1.7032,1.90996 -1.7032,1.90996 -0.9176,1.65154 -1.655,4.04156 -0.554,4.22507 1.1011,0.1835 2.9384,-4.77769 2.5714,-5.87871 -0.057,-0.17204 -0.1474,-0.24724 -0.2563,-0.25632 -0.018,-0.002 -0.038,-0.002 -0.058,0 z"
         style="color:#000000;fill:#00ccff;fill-opacity:1;fill-rule:nonzero;stroke:#00ccff;stroke-width:0.5291667;stroke-miterlimit:4;stroke-dasharray:none;marker:none;visibility:visible;display:inline;overflow:visible;filter:url(#filter4406);enable-background:accumulate"
         inkscape:connector-curvature="0" />
      <g
         inkscape:export-ydpi="90"
         inkscape:export-xdpi="90"
         inkscape:export-filename="C:\Users\rober\Desktop\assets\ASSETS_2024\ESSENTIALS\sword_effects\punch_action\1.png"
         transform="matrix(0.48359886,0,0,0.48359886,-566.06192,-66.105886)"
         id="g4239">
        <rect
           style="color:#000000;fill:#800080;fill-opacity:1;fill-rule:nonzero;stroke:none;stroke-width:20;marker:none;visibility:visible;display:inline;overflow:visible;enable-background:accumulate;opacity:0"
           id="rect4201"
           width="277.97546"
           height="280.12198"
           x="-1287.9171"
           y="-408.13464" />
        <g
           id="g4182"
           transform="translate(-1435.7862,0)">
          <path
             id="path4152"
             transform="matrix(0.54711324,0,0,0.54711324,-1242.0082,-408.13463)"
             d="M 2933.8438 51.0625 C 2931.7615 51.409558 2933.1397 55.93907 2934.875 59.0625 C 2934.875 59.0625 2936.9838 62.523005 2938.125 62.65625 C 2938.1617 62.659906 2938.184 62.658078 2938.2188 62.65625 C 2938.4246 62.639087 2938.6104 62.512862 2938.7188 62.1875 C 2939.4128 60.105225 2935.9261 50.71546 2933.8438 51.0625 z M 2880.125 125.09375 C 2878.2827 125.25426 2880.0172 129.34792 2886.4062 132.1875 C 2886.4062 132.1875 2889.3497 134.05519 2891 134.0625 C 2891.6458 134.06506 2892.0938 133.79865 2892.0938 133 C 2892.0938 130.16044 2884.4015 126.4982 2881.1562 125.28125 C 2880.7506 125.12913 2880.3882 125.07082 2880.125 125.09375 z M 2750.0625 148.875 C 2746.5618 148.875 2748.4879 151.982 2756.6562 155.09375 C 2756.6562 155.09375 2758.503 155.99489 2760.0312 155.9375 C 2760.7259 155.91138 2761.3541 155.70152 2761.7188 155.09375 C 2762.8857 153.14891 2753.5632 148.875 2750.0625 148.875 z M 2905.0625 366.0625 C 2902.2409 366.07367 2897.2188 369.3125 2897.2188 369.3125 C 2884.7346 374.86099 2882.6703 383.17443 2888.2188 381.09375 C 2893.7673 379.01307 2906.9375 372.76118 2906.9375 367.90625 C 2906.9375 366.5408 2906.1666 366.05812 2905.0625 366.0625 z M 2764.375 370.40625 C 2761.65 370.30381 2758.375 371.9375 2758.375 371.9375 C 2743.8103 377.48598 2740.3517 383.03125 2746.5938 383.03125 C 2752.8358 383.03125 2769.4557 375.4053 2767.375 371.9375 C 2766.7248 370.85381 2765.6136 370.45282 2764.375 370.40625 z M 2934.0625 446.5625 C 2931.7819 446.82874 2927.625 453.78125 2927.625 453.78125 C 2924.1571 460.02329 2921.3699 469.05644 2925.5312 469.75 C 2929.6927 470.44356 2936.6371 451.69261 2935.25 447.53125 C 2935.0333 446.88104 2934.6927 446.59679 2934.2812 446.5625 C 2934.2118 446.5567 2934.1361 446.55389 2934.0625 446.5625 z "
             style="color:#000000;fill:#00ffff;fill-opacity:1;fill-rule:nonzero;stroke:none;stroke-width:20;marker:none;visibility:visible;display:inline;overflow:visible;enable-background:accumulate" />
        </g>
      </g>
    </g>
    <g
       id="g4410">
      <path
         gds_switchable="blur"
         gds_color="blur"
         id="path3962-6"
         d="m -1814.1073,-201.28723 c 0,0 -31.7522,0.68849 -31.7522,1.06359 0,0.37512 31.7522,1.06362 31.7522,1.06362 0.5626,0.008 1.0796,-0.55806 1.0796,-1.06362 0,-0.50555 -0.517,-1.0716 -1.0796,-1.06359 z m 11.6516,6.91741 c 0,0 -42.756,0.6216 -42.756,0.95964 0,0.33806 42.756,0.95964 42.756,0.95964 0.507,0.007 0.9757,-0.50403 0.9757,-0.95964 0,-0.4556 -0.4687,-0.96685 -0.9757,-0.95964 z m -19.8046,6.4256 c -0.038,0.001 -0.079,0.005 -0.116,0.012 -7.5332,0.16459 -15.0657,0.35324 -22.5955,0.63576 -1.0125,0.0613 -2.0268,0.0876 -3.0349,0.20391 -0.2336,0.11176 -0.2686,0.5623 0.04,0.5838 0.4936,0.13894 1.0162,0.0474 1.5194,0.13194 3.4131,0.17269 6.8278,0.30214 10.2442,0.38386 4.4812,0.0791 8.9581,0.24051 13.439,0.32788 0.4708,0.008 1.062,0.0953 1.3675,-0.34787 0.4269,-0.43933 0.4322,-1.3081 -0.112,-1.66337 -0.1941,-0.15827 -0.482,-0.27637 -0.7517,-0.26791 z"
         style="font-size:medium;font-style:normal;font-variant:normal;font-weight:normal;font-stretch:normal;text-indent:0;text-align:start;text-decoration:none;line-height:normal;letter-spacing:normal;word-spacing:normal;text-transform:none;direction:ltr;block-progression:tb;writing-mode:lr-tb;text-anchor:start;baseline-shift:baseline;color:#000000;fill:#ff0000;fill-opacity:1;fill-rule:nonzero;stroke:#00ccff;stroke-width:0.5291667;stroke-linejoin:round;stroke-miterlimit:4;stroke-dasharray:none;marker:none;visibility:visible;display:inline;overflow:visible;filter:url(#filter4362);enable-background:accumulate;font-family:Sans;-inkscape-font-specification:Sans"
         inkscape:connector-curvature="0" />
      <g
         inkscape:export-ydpi="90"
         inkscape:export-xdpi="90"
         inkscape:export-filename="C:\Users\rober\Desktop\assets\ASSETS_2024\ESSENTIALS\sword_effects\punch_action\1.png"
         transform="matrix(0.48359886,0,0,0.48359886,-1238.205,-66.105886)"
         id="g4234">
        <rect
           y="-408.13464"
           x="-1287.9171"
           height="280.12198"
           width="277.97546"
           id="rect4199"
           style="color:#000000;fill:#800080;fill-opacity:1;fill-rule:nonzero;stroke:none;stroke-width:20;marker:none;visibility:visible;display:inline;overflow:visible;enable-background:accumulate;opacity:0" />
        <g
           id="g4162"
           style="fill:#ff0000"
           transform="translate(300.514,0)">
          <path
             id="path3962"
             transform="matrix(0.26458334,0,0,0.26458334,-6.3049604e-6,18.562493)"
             d="m -5636.7188,-1126.6562 c 0,0 -248.1562,5.3808 -248.1562,8.3124 0,2.9317 248.1562,8.3126 248.1562,8.3126 4.3972,0.062 8.4376,-4.3615 8.4376,-8.3126 0,-3.9511 -4.0404,-8.375 -8.4376,-8.3124 z m 91.0626,54.0624 c 0,0 -334.1563,4.8581 -334.1563,7.5 0,2.6421 334.1563,7.5 334.1563,7.5 3.9624,0.056 7.625,-3.9392 7.625,-7.5 0,-3.5607 -3.6626,-7.5563 -7.625,-7.5 z m -154.7813,50.2188 c -0.3011,0.01 -0.6142,0.042 -0.9063,0.094 -58.8755,1.2863 -117.7449,2.7607 -176.5937,4.9687 -7.9128,0.4789 -15.8399,0.685 -23.7187,1.5937 -1.8263,0.8734 -2.0993,4.3946 0.3124,4.5626 3.8578,1.0859 7.9421,0.3705 11.875,1.0312 26.6741,1.3496 53.3617,2.3613 80.0626,3 35.0222,0.6183 70.0112,1.8797 105.0312,2.5625 3.6797,0.061 8.3,0.7449 10.6875,-2.7187 3.3366,-3.4336 3.3777,-10.2234 -0.875,-13 -1.5173,-1.2369 -3.7676,-2.1599 -5.875,-2.0938 z"
             style="font-size:medium;font-style:normal;font-variant:normal;font-weight:normal;font-stretch:normal;text-indent:0;text-align:start;text-decoration:none;line-height:normal;letter-spacing:normal;word-spacing:normal;text-transform:none;direction:ltr;block-progression:tb;writing-mode:lr-tb;text-anchor:start;baseline-shift:baseline;color:#000000;fill:#00ffff;fill-opacity:1;fill-rule:nonzero;stroke:none;stroke-width:10;marker:none;visibility:visible;display:inline;overflow:visible;enable-background:accumulate;font-family:Sans;-inkscape-font-specification:Sans"
             inkscape:connector-curvature="0" />
        </g>
      </g>
    </g>
    <g
       id="g4424">
      <path
         gds_color="blur"
         gds_switchable="blur"
         id="path3987-6"
         d="m -1506.5482,-215.42438 c -1.3795,0.15328 25.2904,8.85237 37.2484,13.05553 -20.873,0.86444 -103.4157,2.14113 -103.3529,2.14147 0.3751,0.002 108.1154,0.41341 108.1154,0.41341 0.5409,0.008 1.0455,-0.37569 1.2981,-0.84335 0.3685,-0.37862 0.467,-1.06287 0.3638,-1.37253 -0.1835,-0.55051 -2.2942,-0.82708 -4.6798,-1.7446 -2.3856,-0.91752 -37.3414,-11.83344 -38.993,-11.64993 z m 39.3237,3.82819 c -0.4013,0.0428 -0.7815,0.28615 -0.9839,0.63665 -0.2313,0.40057 -0.2212,0.93117 0.025,1.32292 0,0 3.4595,4.97717 4.0432,5.92005 0.1677,0.2839 0.5795,0.38864 0.8599,0.21497 0.2803,-0.17367 0.3696,-0.59149 0.1901,-0.86816 -0.5751,-0.92903 -2.9104,-6.59805 -2.9104,-6.59805 -0.2163,-0.36907 -0.6226,-0.61219 -1.0501,-0.62838 -0.058,-0.002 -0.1163,-0.006 -0.1736,0 z m 2.3399,15.80058 c 0,0 -108.0161,2.05149 -108.0161,2.38952 0,0.33806 108.0161,1.46348 108.0161,1.46348 2.9788,0 3.0716,-3.853 0,-3.853 z m 0.3473,7.21817 c 0,0 -13.135,0.77132 -36.5952,1.25677 -30.1899,0.6247 -71.5202,1.01262 -71.5202,1.2237 0,0.23694 42.5945,0.1563 74.6373,0.19844 11.6573,0.0153 21.2966,0.0916 27.2769,0.14882 -12.7172,4.40519 -36.4677,12.18316 -35.1648,12.32793 1.6516,0.18351 36.6075,-10.73241 38.993,-11.64993 0.6509,-0.25033 1.2675,-0.44677 1.8438,-0.62012 0.075,8e-4 0.5292,0.008 0.5292,0.008 0.01,8e-5 0.011,0 0.016,0 -1.0079,1.52427 -3.6628,5.35781 -3.6628,5.35781 -0.246,0.39174 -0.2561,0.91408 -0.025,1.31465 0.2314,0.40057 0.6953,0.65396 1.1576,0.63665 0.4274,-0.0162 0.8338,-0.25931 1.05,-0.62838 0,0 2.3354,-5.66903 2.9105,-6.59805 0.1325,-0.20433 0.1222,-0.48358 -0.01,-0.68626 0.4818,-0.16819 0.8026,-0.33256 0.8681,-0.52917 0.1735,-0.52035 -0.2289,-2.09914 -1.513,-1.49655 -0.2339,-0.16624 -0.5104,-0.26862 -0.7938,-0.26458 z"
         style="font-size:medium;font-style:normal;font-variant:normal;font-weight:normal;font-stretch:normal;text-indent:0;text-align:start;text-decoration:none;line-height:normal;letter-spacing:normal;word-spacing:normal;text-transform:none;direction:ltr;block-progression:tb;writing-mode:lr-tb;text-anchor:start;baseline-shift:baseline;color:#000000;fill:#00ccff;fill-opacity:1;fill-rule:nonzero;stroke:#00ccff;stroke-width:0.5291667;stroke-miterlimit:4;stroke-dasharray:none;marker:none;visibility:visible;display:inline;overflow:visible;filter:url(#filter4390);enable-background:accumulate;font-family:Sans;-inkscape-font-specification:Sans"
         inkscape:connector-curvature="0" />
      <g
         inkscape:export-ydpi="90"
         inkscape:export-xdpi="90"
         inkscape:export-filename="C:\Users\rober\Desktop\assets\ASSETS_2024\ESSENTIALS\sword_effects\punch_action\1.png"
         transform="matrix(0.48359886,0,0,0.48359886,-969.34777,-66.105886)"
         id="g4219">
        <rect
           y="-408.13464"
           x="-1287.9171"
           height="280.12198"
           width="277.97546"
           id="rect4195"
           style="color:#000000;fill:#800080;fill-opacity:1;fill-rule:nonzero;stroke:none;stroke-width:20;marker:none;visibility:visible;display:inline;overflow:visible;enable-background:accumulate;opacity:0" />
        <g
           id="g4168"
           style="fill:#ffcc00"
           transform="translate(-413.20676,0)">
          <path
             id="path3987"
             transform="matrix(0.54711324,0,0,0.54711324,-1430.6612,-408.13463)"
             d="M 1339.8125 181.625 C 1334.5986 182.20432 1435.3981 215.08278 1480.5938 230.96875 C 1401.7036 234.23593 1089.7313 239.06121 1089.9688 239.0625 C 1091.3865 239.06981 1498.5938 240.625 1498.5938 240.625 C 1500.6382 240.65393 1502.5452 239.20507 1503.5 237.4375 C 1504.8929 236.00653 1505.2651 233.42038 1504.875 232.25 C 1504.1814 230.16932 1496.2038 229.12403 1487.1875 225.65625 C 1478.1712 222.18845 1346.0546 180.93143 1339.8125 181.625 z M 1488.4375 196.09375 C 1486.9206 196.25545 1485.4838 197.17528 1484.7188 198.5 C 1483.8444 200.01396 1483.8827 202.01939 1484.8125 203.5 C 1484.8125 203.5 1497.8877 222.31137 1500.0938 225.875 C 1500.7279 226.94801 1502.2842 227.34389 1503.3438 226.6875 C 1504.4033 226.03111 1504.7408 224.45194 1504.0625 223.40625 C 1501.8889 219.89497 1493.0625 198.46875 1493.0625 198.46875 C 1492.2451 197.07383 1490.7094 196.15496 1489.0938 196.09375 C 1488.8754 196.08557 1488.6542 196.07065 1488.4375 196.09375 z M 1497.2812 255.8125 C 1497.2812 255.8125 1089.0312 263.56614 1089.0312 264.84375 C 1089.0312 266.12146 1497.2812 270.375 1497.2812 270.375 C 1508.5397 270.375 1508.8904 255.8125 1497.2812 255.8125 z M 1498.5938 283.09375 C 1498.5938 283.09375 1448.9496 286.00899 1360.2812 287.84375 C 1246.1775 290.20483 1089.9688 291.67096 1089.9688 292.46875 C 1089.9688 293.36427 1250.9556 293.05951 1372.0625 293.21875 C 1416.1215 293.27667 1452.5536 293.56489 1475.1562 293.78125 C 1427.091 310.43076 1337.3254 339.82782 1342.25 340.375 C 1348.4921 341.06856 1480.6087 299.81154 1489.625 296.34375 C 1492.0849 295.39763 1494.4155 294.65517 1496.5938 294 C 1496.8768 294.00349 1498.5938 294.03125 1498.5938 294.03125 C 1498.615 294.03155 1498.6351 294.03127 1498.6562 294.03125 C 1494.8469 299.79227 1484.8125 314.28125 1484.8125 314.28125 C 1483.8827 315.76186 1483.8444 317.73604 1484.7188 319.25 C 1485.5931 320.76396 1487.3467 321.72168 1489.0938 321.65625 C 1490.7094 321.59504 1492.2451 320.67617 1493.0625 319.28125 C 1493.0625 319.28125 1501.8889 297.85503 1504.0625 294.34375 C 1504.5635 293.57148 1504.5244 292.51604 1504.0312 291.75 C 1505.8524 291.11432 1507.0648 290.4931 1507.3125 289.75 C 1507.9681 287.78331 1506.4471 281.81623 1501.5938 284.09375 C 1500.71 283.46544 1499.6648 283.07851 1498.5938 283.09375 z "
             style="font-size:medium;font-style:normal;font-variant:normal;font-weight:normal;font-stretch:normal;text-indent:0;text-align:start;text-decoration:none;line-height:normal;letter-spacing:normal;word-spacing:normal;text-transform:none;direction:ltr;block-progression:tb;writing-mode:lr-tb;text-anchor:start;baseline-shift:baseline;color:#000000;fill:#00ffff;fill-opacity:1;fill-rule:nonzero;stroke:none;stroke-width:10;marker:none;visibility:visible;display:inline;overflow:visible;enable-background:accumulate;font-family:Sans;-inkscape-font-specification:Sans" />
        </g>
      </g>
    </g>
    <g
       id="g4438">
      <g
         id="g4431">
        <path
           inkscape:connector-curvature="0"
           style="font-size:medium;font-style:normal;font-variant:normal;font-weight:normal;font-stretch:normal;text-indent:0;text-align:start;text-decoration:none;line-height:normal;letter-spacing:normal;word-spacing:normal;text-transform:none;direction:ltr;block-progression:tb;writing-mode:lr-tb;text-anchor:start;baseline-shift:baseline;color:#000000;fill:#00ccff;fill-opacity:1;fill-rule:nonzero;stroke:#00ccff;stroke-width:0.5291667;stroke-miterlimit:4;stroke-dasharray:none;marker:none;visibility:visible;display:inline;overflow:visible;filter:url(#filter4394);enable-background:accumulate;font-family:Sans;-inkscape-font-specification:Sans"
           d="m -1340.2848,-224.31464 c -0.4036,-0.0151 -0.8096,0.20604 -1.0116,0.5558 -0.202,0.34974 -0.1908,0.81352 0.024,1.15556 0,0 3.017,4.34682 3.5267,5.17006 0.1465,0.2479 0.5109,0.33958 0.7557,0.18794 0.2448,-0.15164 0.3246,-0.51816 0.1679,-0.75972 -0.5021,-0.81116 -2.543,-5.75785 -2.543,-5.75785 -0.1889,-0.32224 -0.5464,-0.53765 -0.9197,-0.55179 z m -49.6974,3.65063 c -0.565,0.0557 2.365,0.98317 8.8367,3.11085 7.4437,2.44727 13.8688,3.92453 14.7865,4.02649 0.9177,0.10198 -3.9264,-1.57933 -6.7815,-2.59903 -2.8551,-1.01969 -15.958,-4.53831 -16.7737,-4.53831 -0.025,0 -0.05,-0.002 -0.068,0 z m 46.9065,6.67351 c -0.2138,-0.001 -0.4276,0.0503 -0.6158,0.15195 -0.4069,0.21995 -0.676,0.67301 -0.6717,1.13557 0,0.46256 0.2808,0.91116 0.6917,1.12358 0,0 13.037,6.68577 14.0188,7.20131 0.2887,0.15927 0.6944,0.0361 0.8476,-0.2559 0.1533,-0.29203 0.023,-0.69657 -0.2719,-0.84368 -0.9673,-0.50797 -13.387,-8.35689 -13.387,-8.35689 -0.1869,-0.10399 -0.398,-0.15458 -0.6117,-0.15594 z m 13.391,11.2798 c -0.1559,0.81265 -57.5464,2.6706 -57.4746,2.671 0.3751,0.002 57.4746,0.22392 57.4746,0.22392 0.7654,0.0109 1.4674,-0.75963 1.4674,-1.44748 0,-0.68783 -0.702,-1.45834 -1.4674,-1.44744 z m 0.3878,6.98939 c 0,0 -72.9727,1.38303 -72.9727,1.61139 0,0.22837 72.9727,0.99163 72.9727,0.99163 2.0123,0 2.075,-2.60302 0,-2.60302 z m -0.3878,7.14131 c 0,0 -13.1382,0.7701 -36.5984,1.25555 -30.1899,0.6247 -5.8258,1.02046 -5.8258,1.23154 0,0.1321 -7.1659,0.16551 -7.965,0.17593 0.634,0.004 4.8936,0.004 16.9097,0.02 18.6863,0.0246 33.4795,0.21191 33.4795,0.21191 0.7654,0.0109 1.4674,-0.75961 1.4674,-1.44744 0,-0.68785 -0.702,-1.45836 -1.4674,-1.44748 z m 0.6517,3.13884 c -0.081,0.006 -0.1597,0.0282 -0.2319,0.068 -0.9818,0.51553 -14.0188,7.2013 -14.0188,7.2013 -0.4109,0.21242 -0.6874,0.66103 -0.6917,1.12358 0,0.46256 0.2648,0.91962 0.6718,1.13958 0.3764,0.20325 0.8577,0.2 1.2315,-0.008 0,0 12.4156,-7.84891 13.383,-8.35688 0.2951,-0.14711 0.4291,-0.55165 0.2759,-0.84368 -0.1149,-0.219 -0.3758,-0.34286 -0.6198,-0.32388 z m -30.7845,8.76472 c -0.023,-2.5e-4 -0.052,-5e-5 -0.088,0.004 -1.1679,0.12976 -9.3407,2.01191 -18.813,5.12608 -8.5009,2.79483 -12.1979,3.95853 -11.1599,3.95853 1.0381,0 17.7109,-4.47627 21.3441,-5.77385 3.5196,-1.25702 9.4135,-3.30592 8.7167,-3.31476 z m 23.7711,2.45109 c -0.2045,0.0124 -0.4069,0.11845 -0.5118,0.29589 -0.5837,0.94288 -4.0425,5.92579 -4.0425,5.92579 -0.246,0.39174 -0.2553,0.91893 -0.024,1.3195 0.2314,0.40057 0.6934,0.65708 1.1556,0.63976 0.4275,-0.0162 0.8393,-0.26269 1.0556,-0.63176 0,0 2.3358,-5.66851 2.9109,-6.59754 0.1795,-0.27667 0.089,-0.694 -0.1919,-0.86767 -0.1051,-0.0651 -0.2291,-0.0914 -0.3519,-0.084 z"
           id="path4015-3"
           gds_switchable="blur"
           gds_color="blur" />
        <g
           id="g4209"
           transform="matrix(0.48359886,0,0,0.48359886,-834.91916,-66.105886)"
           inkscape:export-filename="C:\Users\rober\Desktop\assets\ASSETS_2024\ESSENTIALS\sword_effects\punch_action\1.png"
           inkscape:export-xdpi="90"
           inkscape:export-ydpi="90">
          <rect
             style="color:#000000;fill:#800080;fill-opacity:1;fill-rule:nonzero;stroke:none;stroke-width:20;marker:none;visibility:visible;display:inline;overflow:visible;enable-background:accumulate;opacity:0"
             id="rect4207"
             width="277.97546"
             height="280.12198"
             x="-1287.9171"
             y="-408.13464" />
          <g
             transform="translate(-774.33284,0)"
             style="fill:#ff0000"
             id="g4176">
            <path
               inkscape:connector-curvature="0"
               style="font-size:medium;font-style:normal;font-variant:normal;font-weight:normal;font-stretch:normal;text-indent:0;text-align:start;text-decoration:none;line-height:normal;letter-spacing:normal;word-spacing:normal;text-transform:none;direction:ltr;block-progression:tb;writing-mode:lr-tb;text-anchor:start;baseline-shift:baseline;color:#000000;fill:#00ffff;fill-opacity:1;fill-rule:nonzero;stroke:none;stroke-width:10;marker:none;visibility:visible;display:inline;overflow:visible;enable-background:accumulate;font-family:Sans;-inkscape-font-specification:Sans"
               d="m -1023.0312,-1306.625 c -3.1544,-0.1183 -6.3276,1.6103 -7.9063,4.3438 -1.5787,2.7334 -1.4912,6.358 0.1875,9.0312 0,0 23.5795,33.9722 27.5625,40.4062 1.145,1.9374 3.9932,2.6539 5.90625,1.4688 1.91308,-1.1851 2.53714,-4.0496 1.3125,-5.9375 -3.92451,-6.3396 -19.87505,-45 -19.87505,-45 -1.4758,-2.5185 -4.2704,-4.202 -7.1874,-4.3125 z m -388.4063,28.5312 c -4.4154,0.4352 18.4838,7.6839 69.0625,24.3126 58.1761,19.1264 108.3902,30.6718 115.5625,31.4687 7.1724,0.797 -30.6859,-12.3431 -53,-20.3125 -22.3141,-7.9693 -124.7183,-35.4688 -131.0937,-35.4688 -0.1993,0 -0.3889,-0.014 -0.5313,0 z m 366.5937,52.1563 c -1.6707,-0.011 -3.3416,0.3932 -4.8124,1.1875 -3.1804,1.719 -5.2833,5.2599 -5.25,8.875 0.034,3.6151 2.1947,7.1211 5.4062,8.7812 0,0 101.88934,52.2521 109.5625,56.2813 2.25687,1.2447 5.42749,0.2821 6.625,-2 1.19754,-2.2823 0.18172,-5.444 -2.125,-6.5937 -7.56042,-3.97 -104.625,-65.3126 -104.625,-65.3126 -1.4607,-0.8127 -3.1105,-1.2081 -4.7813,-1.2187 z m 104.6563,88.1563 c -1.21791,6.3512 -449.7491,20.8719 -449.1875,20.875 2.9316,0.015 449.1875,1.75 449.1875,1.75 5.98261,0.085 11.46875,-5.9368 11.46875,-11.3126 0,-5.3757 -5.48614,-11.3976 -11.46875,-11.3124 z m 3.03125,54.625 c 0,0 -570.31255,10.809 -570.31255,12.5937 0,1.7848 570.31255,7.75 570.31255,7.75 15.72711,0 16.21701,-20.3437 0,-20.3437 z m -3.03125,55.8124 c 0,0 -102.6801,6.0186 -286.0313,9.8126 -235.9471,4.8823 -45.5312,7.9753 -45.5312,9.625 0,1.0324 -56.0042,1.2935 -62.25,1.375 4.9549,0.032 38.2456,0.033 132.1562,0.1562 146.0416,0.192 261.6563,1.6562 261.6563,1.6562 5.98261,0.085 11.46875,-5.9367 11.46875,-11.3124 0,-5.3758 -5.48614,-11.3977 -11.46875,-11.3126 z m 5.09375,24.5313 c -0.63549,0.049 -1.24828,0.2201 -1.8125,0.5313 -7.67316,4.02912 -109.56255,56.2812 -109.56255,56.2812 -3.2115,1.66012 -5.3722,5.16617 -5.4062,8.78125 -0.033,3.61508 2.0696,7.18721 5.25,8.90625 2.9418,1.58854 6.7036,1.56307 9.625,-0.0625 0,0 97.03333,-61.34252 104.59375,-65.3125 2.30672,-1.14973 3.35379,-4.31141 2.15625,-6.5937 -0.89813,-1.7116 -2.93727,-2.6796 -4.84375,-2.5313 z m -240.59375,68.5 c -0.1757,-0.002 -0.4023,-4.4e-4 -0.6875,0.0312 -9.1269,1.0141 -73.0014,15.72391 -147.0312,40.0625 -66.4383,21.84271 -95.3317,30.9375 -87.2188,30.9375 8.1129,0 138.4175,-34.98392 166.8125,-45.125 27.5077,-9.82417 73.5705,-25.83718 68.125,-25.90625 z m 185.78125,19.15625 c -1.59885,0.097 -3.18039,0.92574 -4,2.3125 -4.56174,7.36898 -31.59375,46.3125 -31.59375,46.3125 -1.9226,3.06164 -1.9956,7.18188 -0.1875,10.3125 1.8081,3.13062 5.4186,5.13531 9.0313,5 3.3408,-0.12658 6.5597,-2.05304 8.25,-4.9375 0,0 18.25522,-44.30176 22.74995,-51.5625 1.40262,-2.16231 0.69107,-5.42395 -1.5,-6.78125 -0.82164,-0.50899 -1.79069,-0.71444 -2.75,-0.65625 z"
               transform="matrix(0.26458334,0,0,0.26458334,-6.3049604e-6,18.562493)"
               id="path4015" />
          </g>
        </g>
      </g>
    </g>
    <g
       id="g4446">
      <path
         gds_color="blur"
         gds_switchable="blur"
         inkscape:connector-curvature="0"
         id="path4027-4"
         d="m -1214.5729,-237.33379 c -0.037,9.7e-4 -0.073,0.008 -0.1119,0.02 -0.5574,0.0602 -0.9345,0.53747 -0.9237,1.10358 0.2109,0.70043 0.7461,1.25112 1.1556,1.84733 0.9427,1.31371 1.2627,1.84417 2.2791,3.08684 0.3043,0.0468 0.6993,-0.26522 0.4679,-0.57179 -0.3679,-1.15566 -0.5578,-1.25855 -0.9317,-2.4111 -0.3975,-0.91099 -0.7272,-1.89208 -1.2475,-2.72298 -0.2199,-0.12081 -0.4288,-0.36033 -0.6878,-0.35187 z m -49.7534,14.87844 c -1.0637,-0.0134 6.0566,2.48569 13.523,5.33001 0,0 6.6085,1.65111 2.7549,-0.18393 -3.8536,-1.83503 -14.4984,-4.95458 -16.1499,-5.13807 -0.052,-0.006 -0.094,-0.008 -0.128,-0.008 z m 44.5674,0.37187 c -0.8174,0.001 -1.1381,0.7195 0.2799,1.55942 0,0 6.6113,3.83883 7.5931,4.35436 0.2888,0.15928 0.6985,0.0401 0.8517,-0.2519 0.1532,-0.29202 0.023,-0.70057 -0.2719,-0.84768 -0.9674,-0.50797 -7.1493,-4.31839 -7.1493,-4.31839 -0.4609,-0.35172 -0.932,-0.49653 -1.3035,-0.49581 z m 24.5028,19.37276 c -0.1558,0.81265 -19.7445,2.67061 -19.6726,2.67101 0.3751,0.002 19.6726,0.22391 19.6726,0.22391 0.7655,0.0108 1.4675,-0.75962 1.4675,-1.44746 0,-0.68784 -0.702,-1.45836 -1.4675,-1.44746 z m 0.3879,6.9894 c 0,0 -32.7838,1.38303 -32.7838,1.61139 0,0.22837 32.7838,0.99163 32.7838,0.99163 2.0123,0 2.075,-2.60302 0,-2.60302 z m -0.3879,7.14132 c 0,0 -16.2355,1.89058 -16.1979,2.15919 0.04,0.2868 16.1979,0.73573 16.1979,0.73573 0.7655,0.0108 1.4675,-0.75962 1.4675,-1.44746 0,-0.68784 -0.702,-1.45835 -1.4675,-1.44746 z m -17.2975,13.71888 c -0.056,0.004 -0.1106,0.0207 -0.16,0.048 -0.6719,0.35285 -9.5964,4.92616 -9.5964,4.92616 -0.2812,0.14538 -0.4688,0.45512 -0.4718,0.77171 0,0.31659 0.1813,0.62917 0.4598,0.77971 0.2576,0.13913 0.5839,0.13436 0.8397,-0.008 0,0 8.5025,-5.37019 9.1646,-5.71787 0.202,-0.10068 0.2888,-0.37991 0.1839,-0.57978 -0.079,-0.1499 -0.2529,-0.23291 -0.4198,-0.21991 z m -34.6751,4.33838 c -0.9946,0.0358 -3.5746,0.67974 -3.5746,0.67974 -7.7072,2.93607 -15.0466,5.50552 -13.395,5.32202 1.6515,-0.18351 12.2963,-3.30304 16.1499,-5.13809 1.4451,-0.68814 1.4165,-0.88518 0.8197,-0.86367 z m 31.5882,16.82971 c -0.039,-0.001 -0.081,0.004 -0.1199,0.012 -0.5487,0.17489 -0.7411,0.83988 -1.0836,1.20356 -0.4587,0.78575 -1.2067,1.45225 -1.3555,2.3791 0.01,0.65225 0.8986,1.05565 1.3995,0.66376 0.522,-0.49395 0.5783,-1.27586 0.9276,-1.8873 0.2335,-0.62183 0.6057,-1.20459 0.7637,-1.84731 0.01,-0.28962 -0.2561,-0.51343 -0.5318,-0.52381 z"
         style="font-size:medium;font-style:normal;font-variant:normal;font-weight:normal;font-stretch:normal;text-indent:0;text-align:start;text-decoration:none;line-height:normal;letter-spacing:normal;word-spacing:normal;text-transform:none;direction:ltr;block-progression:tb;writing-mode:lr-tb;text-anchor:start;baseline-shift:baseline;color:#000000;fill:#00ccff;fill-opacity:1;fill-rule:nonzero;stroke:#00ccff;stroke-width:0.5291667;stroke-miterlimit:4;stroke-dasharray:none;marker:none;visibility:visible;display:inline;overflow:visible;filter:url(#filter4402);enable-background:accumulate;font-family:Sans;-inkscape-font-specification:Sans" />
      <g
         inkscape:export-ydpi="90"
         inkscape:export-xdpi="90"
         inkscape:export-filename="C:\Users\rober\Desktop\assets\ASSETS_2024\ESSENTIALS\sword_effects\punch_action\1.png"
         transform="matrix(0.48359886,0,0,0.48359886,-700.49054,-66.105886)"
         id="g4214">
        <rect
           style="color:#000000;fill:#800080;fill-opacity:1;fill-rule:nonzero;stroke:none;stroke-width:20;marker:none;visibility:visible;display:inline;overflow:visible;enable-background:accumulate;opacity:0"
           id="rect4193"
           width="277.97546"
           height="280.12198"
           x="-1287.9171"
           y="-408.13464" />
        <g
           id="g4179"
           transform="translate(-1101.1429,0)">
          <path
             inkscape:connector-curvature="0"
             id="path4027"
             d="m 38.108263,-354.07007 c -0.07651,0.002 -0.150294,0.0157 -0.231511,0.0413 -1.15257,0.12449 -1.932416,1.11141 -1.909961,2.28203 0.436158,1.44836 1.542717,2.5871 2.389519,3.81995 1.949294,2.71653 2.611128,3.81344 4.712891,6.38307 0.629224,0.0967 1.445868,-0.54843 0.967382,-1.18237 -0.760671,-2.38971 -1.153435,-2.60247 -1.926497,-4.98575 -0.822058,-1.88376 -1.503765,-3.9125 -2.579688,-5.63065 -0.454646,-0.24982 -0.886558,-0.7451 -1.422135,-0.72761 z M -64.773315,-323.304 c -2.199487,-0.0276 12.524026,5.13998 27.963152,11.02156 0,0 13.66539,3.41421 5.69681,-0.38034 -7.968581,-3.79454 -29.980275,-10.24522 -33.395379,-10.62466 -0.106722,-0.0119 -0.193633,-0.0157 -0.264583,-0.0166 z m 92.157684,0.76896 c -1.69026,0.003 -2.353291,1.4878 0.578776,3.22461 0,0 13.671178,7.93805 15.701368,9.00409 0.59713,0.32935 1.444292,0.0829 1.761133,-0.52089 0.316849,-0.60386 0.04808,-1.44867 -0.56224,-1.75286 -2.000361,-1.0504 -14.783594,-8.92969 -14.783594,-8.92969 -0.953029,-0.72731 -1.927143,-1.02674 -2.695443,-1.02526 z m 50.66771,40.05958 c -0.322239,1.68042 -40.828279,5.52236 -40.679689,5.52318 0.775661,0.004 40.679689,0.46302 40.679689,0.46302 1.582899,0.0224 3.03444,-1.57078 3.03444,-2.99312 0,-1.42233 -1.451541,-3.01562 -3.03444,-2.99308 z m 0.802018,14.45287 c 0,0 -67.791212,2.85988 -67.791212,3.33208 0,0.47223 67.791212,2.05052 67.791212,2.05052 4.161132,0 4.290751,-5.3826 0,-5.3826 z m -0.802018,14.76703 c 0,0 -33.572345,3.9094 -33.494597,4.46484 0.08301,0.59307 33.494597,1.52136 33.494597,1.52136 1.582899,0.0224 3.03444,-1.57075 3.03444,-2.99308 0,-1.42234 -1.451541,-3.01564 -3.03444,-2.99312 z m -35.76836,28.36831 c -0.115081,0.009 -0.228555,0.0429 -0.330729,0.0992 -1.389529,0.72963 -19.843751,10.18645 -19.843751,10.18645 -0.581576,0.30063 -0.969451,0.94112 -0.975651,1.59577 -0.006,0.65465 0.37491,1.30101 0.950846,1.61231 0.532721,0.28769 1.20729,0.27784 1.736329,-0.0165 0,0 17.581671,-11.10465 18.950781,-11.82357 0.417722,-0.2082 0.597202,-0.78559 0.380339,-1.19889 -0.162642,-0.30998 -0.522923,-0.48162 -0.868164,-0.45475 z m -71.702085,8.97103 c -2.056623,0.0741 -7.391797,1.4056 -7.391797,1.4056 -15.937162,6.07129 -31.113676,11.38447 -27.698569,11.00501 3.415104,-0.37946 25.426798,-6.83011 33.395379,-10.62468 2.988217,-1.42296 2.928961,-1.8304 1.694987,-1.78593 z m 65.319012,34.80097 c -0.08142,-0.003 -0.166926,0.009 -0.248047,0.0248 -1.134515,0.36164 -1.532422,1.73672 -2.24069,2.48874 -0.948542,1.62481 -2.495212,3.00302 -2.80293,4.91959 0.01582,1.34874 1.858134,2.1829 2.89388,1.37253 1.079572,-1.0214 1.195814,-2.63825 1.918229,-3.90261 0.482897,-1.28583 1.252546,-2.49088 1.579232,-3.81992 0.01089,-0.59888 -0.529714,-1.06168 -1.099674,-1.08314 z"
             style="font-size:medium;font-style:normal;font-variant:normal;font-weight:normal;font-stretch:normal;text-indent:0;text-align:start;text-decoration:none;line-height:normal;letter-spacing:normal;word-spacing:normal;text-transform:none;direction:ltr;block-progression:tb;writing-mode:lr-tb;text-anchor:start;baseline-shift:baseline;color:#000000;fill:#00ffff;fill-opacity:1;fill-rule:nonzero;stroke:none;stroke-width:10;marker:none;visibility:visible;display:inline;overflow:visible;enable-background:accumulate;font-family:Sans;-inkscape-font-specification:Sans" />
        </g>
      </g>
    </g>
  </g>
</svg>
