<?xml version="1.0" encoding="UTF-8" standalone="no"?>
<!-- Created with Inkscape (http://www.inkscape.org/) -->

<svg
   xmlns:dc="http://purl.org/dc/elements/1.1/"
   xmlns:cc="http://creativecommons.org/ns#"
   xmlns:rdf="http://www.w3.org/1999/02/22-rdf-syntax-ns#"
   xmlns:svg="http://www.w3.org/2000/svg"
   xmlns="http://www.w3.org/2000/svg"
   xmlns:sodipodi="http://sodipodi.sourceforge.net/DTD/sodipodi-0.dtd"
   xmlns:inkscape="http://www.inkscape.org/namespaces/inkscape"
   width="628.59424"
   height="552.80627"
   viewBox="0 0 166.31555 146.26333"
   version="1.1"
   id="svg23489"
   inkscape:version="0.48.5 r10040"
   sodipodi:docname="punch_04.svg">
  <defs
     id="defs23483">
    <filter
       inkscape:collect="always"
       id="filter4500"
       color-interpolation-filters="sRGB">
      <feGaussianBlur
         inkscape:collect="always"
         stdDeviation="0.55223168"
         id="feGaussianBlur4502" />
    </filter>
    <filter
       inkscape:collect="always"
       id="filter4544"
       color-interpolation-filters="sRGB">
      <feGaussianBlur
         inkscape:collect="always"
         stdDeviation="1.6573933"
         id="feGaussianBlur4546" />
    </filter>
    <filter
       inkscape:collect="always"
       id="filter4566"
       color-interpolation-filters="sRGB">
      <feGaussianBlur
         inkscape:collect="always"
         stdDeviation="0.64693918"
         id="feGaussianBlur4568" />
    </filter>
    <filter
       inkscape:collect="always"
       id="filter4595"
       color-interpolation-filters="sRGB">
      <feGaussianBlur
         inkscape:collect="always"
         stdDeviation="1.9074628"
         id="feGaussianBlur4597" />
    </filter>
    <filter
       inkscape:collect="always"
       id="filter4623"
       color-interpolation-filters="sRGB">
      <feGaussianBlur
         inkscape:collect="always"
         stdDeviation="2.0170421"
         id="feGaussianBlur4625" />
    </filter>
  </defs>
  <sodipodi:namedview
     id="base"
     pagecolor="#2b2e30"
     bordercolor="#666666"
     borderopacity="1.0"
     inkscape:pageopacity="0"
     inkscape:pageshadow="2"
     inkscape:zoom="0.44681112"
     inkscape:cx="-780.50613"
     inkscape:cy="178.24009"
     inkscape:document-units="px"
     inkscape:current-layer="layer1"
     showgrid="false"
     inkscape:pagecheckerboard="false"
     showborder="true"
     units="px"
     inkscape:window-width="1920"
     inkscape:window-height="1017"
     inkscape:window-x="-8"
     inkscape:window-y="-8"
     inkscape:window-maximized="1"
     inkscape:showpageshadow="false"
     guidetolerance="28"
     showguides="true"
     inkscape:guide-bbox="true">
    <inkscape:grid
       type="xygrid"
       id="grid24034"
       spacingx="1px"
       spacingy="1px"
       empspacing="8"
       visible="true"
       enabled="true"
       snapvisiblegridlinesonly="true"
       originx="-2416.376px"
       originy="-2334.5813px" />
  </sodipodi:namedview>
  <metadata
     id="metadata23486">
    <rdf:RDF>
      <cc:Work
         rdf:about="">
        <dc:format>image/svg+xml</dc:format>
        <dc:type
           rdf:resource="http://purl.org/dc/dcmitype/StillImage" />
        <dc:title></dc:title>
        <cc:license
           rdf:resource="" />
        <dc:creator>
          <cc:Agent>
            <dc:title>Robert Brooks</dc:title>
          </cc:Agent>
        </dc:creator>
      </cc:Work>
    </rdf:RDF>
  </metadata>
  <g
     inkscape:label="Layer 1"
     inkscape:groupmode="layer"
     id="layer1"
     transform="translate(-639.3328,466.95465)">
    <g
       id="g4627">
      <path
         inkscape:connector-curvature="0"
         style="color:#000000;fill:#00ccff;fill-opacity:1;fill-rule:nonzero;stroke:#00ccff;stroke-width:0.5291667;stroke-miterlimit:4;stroke-dasharray:none;marker:none;visibility:visible;display:inline;overflow:visible;filter:url(#filter4623);enable-background:accumulate"
         d="m 736.36915,-459.79801 c -0.2944,0 -1.23198,2.4722 -1.23198,2.4722 -1.25616,2.93104 -2.09984,12.56679 -1.47171,10.68255 0.62806,-1.88424 2.3015,-9.21499 2.72023,-12.14603 0.10469,-0.73276 0.0816,-1.00872 -0.0164,-1.00872 z m -56.29838,8.12767 c 2.72169,4.81528 5.86343,9.62871 8.37573,13.18783 2.51232,3.55911 -0.42289,-2.72209 -2.93521,-6.49056 -2.51235,-3.76848 -5.44052,-6.69727 -5.44052,-6.69727 z m 94.43974,28.5502 c -0.61828,0.0294 -2.7368,0.96738 -2.7368,0.96738 -6.28081,2.72168 -14.24199,9.41955 -11.31094,7.95403 2.93103,-1.46551 12.98435,-7.53562 14.03118,-8.58242 0.26172,-0.2617 0.22264,-0.34881 0.0167,-0.33899 z m -104.7006,1.17408 c 2.93102,2.93104 10.26506,9.01033 13.19609,10.47585 2.93106,1.46552 -2.93142,-3.34986 -6.49055,-5.86217 -3.55914,-2.51232 -6.70554,-4.61368 -6.70554,-4.61368 z m 113.28299,0.80202 c -0.0455,-0.002 -0.11856,0.0152 -0.22323,0.0413 -1.67487,0.41872 -3.97703,1.0418 -3.97703,1.0418 -2.09362,1.0468 -4.39777,2.30949 -2.51354,2.10013 1.76649,-0.19628 7.39695,-3.1595 6.7138,-3.18327 z m -4.30774,4.89479 c -0.58883,-0.0294 -2.82773,0.79375 -2.82773,0.79375 -3.55912,0.83744 -10.46403,4.61337 -8.78911,3.98529 1.67489,-0.62808 10.25318,-3.3519 11.50937,-4.3987 0.31404,-0.2617 0.30374,-0.37052 0.10747,-0.38034 z m -125.04869,18.76062 c -2.28047,0.0432 -2.97656,0.46302 -2.97656,0.46302 2.30296,0.83744 12.97966,2.30387 15.70138,1.88515 2.72166,-0.41872 -7.11251,-2.09747 -10.88099,-2.30683 -0.7066,-0.0393 -1.31758,-0.0513 -1.84383,-0.0413 z m 137.94713,3.76204 c -0.36139,-0.0141 -0.85759,0.026 -1.43867,0.0992 1.49572,0.0435 2.36336,0.0824 1.83555,-0.0496 -0.10467,-0.0262 -0.24128,-0.0435 -0.39688,-0.0496 z m -1.43867,0.0992 c -3.25048,-0.0944 -9.78778,-0.22666 -13.65911,1.20716 0,0 -0.62423,1.04445 2.30682,0.83509 2.32235,-0.16588 8.18084,-1.64288 11.35229,-2.04225 z m -29.78216,21.93561 c 0,0 11.93287,4.39635 15.70138,5.23379 3.76849,0.83744 -5.02332,-2.93849 -8.58244,-3.98529 -3.55913,-1.0468 -7.11894,-1.2485 -7.11894,-1.2485 z m -76.83664,0.678 c -0.55938,0 -3.97703,1.41386 -3.97703,1.41386 l 0.84336,-0.62838 c -8.58375,4.1872 -18.21371,11.9331 -15.70138,10.46758 2.51235,-1.46552 15.49326,-9.00768 18.21492,-10.68256 0.68043,-0.41871 0.80658,-0.5705 0.62013,-0.5705 z m 2.97656,2.56315 c -0.58883,0.0883 -3.18328,1.14928 -3.18328,1.14928 -5.65271,3.34976 -7.11538,4.6051 -5.44049,3.97702 1.67486,-0.62808 6.70084,-3.76531 8.3757,-4.81211 0.41873,-0.2617 0.44434,-0.34363 0.24807,-0.31419 z m 49.74167,15.92461 c -0.0437,0.21391 2.38771,10.25553 2.97656,12.022 0.62807,1.88424 2.92693,8.16901 2.92693,8.16901 0,0 -2.50587,-10.88843 -3.76203,-14.86627 0,0 -1.6814,-3.97763 -2.10013,-5.23379 -0.0262,-0.0785 -0.0384,-0.10521 -0.0413,-0.0909 z m -25.88784,3.42304 c -0.058,-0.006 -0.14163,0.0679 -0.23976,0.23151 -0.6281,1.04681 -0.83511,1.46348 -0.83511,1.46348 -1.88423,5.65272 -4.81711,16.32884 -3.77031,14.4446 1.0468,-1.88424 3.35452,-8.79597 4.19198,-11.51765 0.70659,-2.29641 0.96665,-4.58916 0.6532,-4.62194 z m 24.05227,1.61231 c -0.23551,0.0294 0,2.38125 0,2.38125 1.04682,5.234 2.30124,9.42782 2.09187,7.9623 -0.20936,-1.46552 -0.84097,-6.7041 -1.67843,-9.42578 -0.20937,-0.68042 -0.33491,-0.92758 -0.41344,-0.91777 z"
         id="path4599"
         gds_switchable="blur"
         gds_color="blur" />
      <g
         inkscape:export-ydpi="90"
         inkscape:export-xdpi="90"
         inkscape:export-filename="C:\Users\rober\Desktop\assets\ASSETS_2024\ESSENTIALS\sword_effects\punch\1.png"
         style="fill:#00ffff"
         transform="translate(370.15582,-301.47827)"
         id="g4440">
        <rect
           y="-165.47638"
           x="269.17697"
           height="146.26334"
           width="166.31557"
           id="rect4370"
           style="opacity:0;color:#000000;fill:#00ffff;fill-opacity:1;fill-rule:nonzero;stroke:none;stroke-width:15;marker:none;visibility:visible;display:inline;overflow:visible;enable-background:accumulate" />
        <g
           style="fill:#00ffff"
           id="g4307"
           transform="translate(-418.65659,0)">
          <path
             id="path4274"
             transform="matrix(0.26458334,0,0,0.26458334,-6.3049604e-6,18.562493)"
             d="m 2966.4375,-668.53125 c -1.1127,0 -4.6563,9.34375 -4.6563,9.34375 -4.7477,11.07794 -7.9364,47.49653 -5.5624,40.375 2.3738,-7.12153 8.6986,-34.82831 10.2812,-45.90625 0.3957,-2.76949 0.3084,-3.8125 -0.062,-3.8125 z m -212.7813,30.71875 c 10.2867,18.19948 22.161,36.39196 31.6563,49.84375 9.4954,13.45179 -1.5983,-10.28818 -11.0937,-24.53125 -9.4955,-14.24307 -20.5626,-25.3125 -20.5626,-25.3125 z m 356.9376,107.90625 c -2.3368,0.11127 -10.3438,3.65625 -10.3438,3.65625 -23.7385,10.28666 -53.828,35.60147 -42.75,30.0625 11.0779,-5.53897 49.0747,-28.4811 53.0312,-32.4375 0.9892,-0.9891 0.8415,-1.31834 0.063,-1.28125 z m -395.7188,4.4375 c 11.0779,11.07794 38.7971,34.05478 49.875,39.59375 11.078,5.53897 -11.0794,-12.66088 -24.5312,-22.15625 -13.4519,-9.49538 -25.3438,-17.4375 -25.3438,-17.4375 z m 428.1562,3.03125 c -0.1721,-0.006 -0.4481,0.0573 -0.8437,0.15625 -6.3302,1.58256 -15.0313,3.9375 -15.0313,3.9375 -7.9129,3.9564 -16.6215,8.72878 -9.5,7.9375 6.6765,-0.74183 27.957,-11.94142 25.375,-12.03125 z m -16.2812,18.5 c -2.2255,-0.11128 -10.6875,3 -10.6875,3 -13.4518,3.16513 -39.5491,17.43634 -33.2187,15.0625 6.3303,-2.37384 38.7522,-12.6686 43.5,-16.625 1.1869,-0.9891 1.148,-1.40041 0.4062,-1.4375 z m -472.625,70.90625 c -8.6191,0.16324 -11.25,1.75 -11.25,1.75 8.7041,3.16512 49.057,8.70756 59.3438,7.125 10.2866,-1.58256 -26.8819,-7.92747 -41.125,-8.71875 -2.6706,-0.14837 -4.9798,-0.19392 -6.9688,-0.15625 z m 521.375,14.21875 c -1.3659,-0.0534 -3.2413,0.0984 -5.4375,0.375 5.6531,0.16426 8.9324,0.31123 6.9375,-0.1875 -0.3956,-0.0989 -0.9119,-0.16451 -1.5,-0.1875 z m -5.4375,0.375 c -12.2853,-0.35697 -36.9932,-0.85668 -51.625,4.5625 0,0 -2.3593,3.94753 8.7187,3.15625 8.7774,-0.62696 30.9197,-6.20933 42.9063,-7.71875 z M 3057.5,-335.53125 c 0,0 45.1006,16.61613 59.3438,19.78125 14.2431,3.16513 -18.9858,-11.10609 -32.4376,-15.0625 -13.4518,-3.95641 -26.9062,-4.71875 -26.9062,-4.71875 z m -290.4062,2.5625 c -2.1142,0 -15.0313,5.34375 -15.0313,5.34375 L 2755.25,-330 c -32.4425,15.82563 -68.8392,45.10147 -59.3438,39.5625 9.4955,-5.53897 58.5572,-34.04475 68.8438,-40.375 2.5717,-1.58256 3.0485,-2.15625 2.3438,-2.15625 z m 11.25,9.6875 c -2.2255,0.33382 -12.0313,4.34375 -12.0313,4.34375 -21.3646,12.6605 -26.8928,17.4051 -20.5625,15.03125 6.3302,-2.37384 25.326,-14.23109 31.6562,-18.1875 1.5826,-0.9891 1.6794,-1.29877 0.9376,-1.1875 z m 188,60.1875 c -0.1652,0.80847 9.0244,38.76107 11.25,45.4375 2.3738,7.12154 11.0624,30.875 11.0624,30.875 0,0 -9.471,-41.15315 -14.2187,-56.1875 0,0 -6.3549,-15.03357 -7.9375,-19.78125 -0.099,-0.29673 -0.1452,-0.39765 -0.1562,-0.34375 z m -97.8438,12.9375 c -0.2194,-0.0229 -0.5353,0.25681 -0.9062,0.875 -2.3739,3.95641 -3.1563,5.53125 -3.1563,5.53125 -7.1215,21.3646 -18.2064,61.71528 -14.25,54.59375 3.9564,-7.12153 12.6785,-33.24459 15.8437,-43.53125 2.6706,-8.67937 3.6535,-17.34487 2.4688,-17.46875 z m 90.9062,6.09375 c -0.8901,0.11127 0,9 0,9 3.9565,19.78204 8.6976,35.63272 7.9063,30.09375 -0.7913,-5.53897 -3.1785,-25.33834 -6.3437,-35.625 -0.7913,-2.57167 -1.2658,-3.50584 -1.5626,-3.46875 z"
             style="color:#000000;fill:#00ffff;fill-opacity:1;fill-rule:nonzero;stroke:none;stroke-width:15;marker:none;visibility:visible;display:inline;overflow:visible;enable-background:accumulate"
             inkscape:connector-curvature="0" />
        </g>
      </g>
    </g>
  </g>
</svg>
