<?xml version="1.0" encoding="UTF-8" standalone="no"?>
<!-- Created with Inkscape (http://www.inkscape.org/) -->

<svg
   xmlns:dc="http://purl.org/dc/elements/1.1/"
   xmlns:cc="http://creativecommons.org/ns#"
   xmlns:rdf="http://www.w3.org/1999/02/22-rdf-syntax-ns#"
   xmlns:svg="http://www.w3.org/2000/svg"
   xmlns="http://www.w3.org/2000/svg"
   xmlns:xlink="http://www.w3.org/1999/xlink"
   xmlns:sodipodi="http://sodipodi.sourceforge.net/DTD/sodipodi-0.dtd"
   xmlns:inkscape="http://www.inkscape.org/namespaces/inkscape"
   width="383.99997"
   height="512"
   viewBox="0 0 101.59999 135.46667"
   version="1.1"
   id="svg23489"
   inkscape:version="0.48.5 r10040"
   sodipodi:docname="punch_blast_02.svg">
  <defs
     id="defs23483">
    <linearGradient
       inkscape:collect="always"
       id="linearGradient3821">
      <stop
         style="stop-color:#ebf4f7;stop-opacity:1;"
         offset="0"
         id="stop3823" />
      <stop
         style="stop-color:#ebf4f7;stop-opacity:0;"
         offset="1"
         id="stop3825" />
    </linearGradient>
    <linearGradient
       inkscape:collect="always"
       xlink:href="#linearGradient56908"
       id="linearGradient56861"
       gradientUnits="userSpaceOnUse"
       gradientTransform="matrix(0.26458334,0,0,0.26458334,-10546.714,4018.1013)"
       x1="14533.545"
       y1="482.7551"
       x2="15026.226"
       y2="1336.1028" />
    <linearGradient
       id="linearGradient56908"
       inkscape:collect="always">
      <stop
         id="stop56910"
         offset="0"
         style="stop-color:#ffffff;stop-opacity:1" />
      <stop
         id="stop56912"
         offset="1"
         style="stop-color:#ebf4f7;stop-opacity:1" />
    </linearGradient>
    <linearGradient
       inkscape:collect="always"
       xlink:href="#linearGradient3821"
       id="linearGradient3834"
       gradientUnits="userSpaceOnUse"
       x1="-8.2902393"
       y1="623.87189"
       x2="-366.62106"
       y2="267.90973"
       gradientTransform="translate(1052.8605,259.03711)" />
    <filter
       inkscape:collect="always"
       id="filter4633"
       color-interpolation-filters="sRGB">
      <feGaussianBlur
         inkscape:collect="always"
         stdDeviation="1.3967595"
         id="feGaussianBlur4635" />
    </filter>
    <filter
       inkscape:collect="always"
       id="filter4637"
       color-interpolation-filters="sRGB">
      <feGaussianBlur
         inkscape:collect="always"
         stdDeviation="0.56677656"
         id="feGaussianBlur4639" />
    </filter>
    <filter
       inkscape:collect="always"
       id="filter4641"
       color-interpolation-filters="sRGB">
      <feGaussianBlur
         inkscape:collect="always"
         stdDeviation="1.1203685"
         id="feGaussianBlur4643" />
    </filter>
    <filter
       inkscape:collect="always"
       id="filter4645"
       color-interpolation-filters="sRGB">
      <feGaussianBlur
         inkscape:collect="always"
         stdDeviation="1.4338869"
         id="feGaussianBlur4647" />
    </filter>
    <filter
       inkscape:collect="always"
       id="filter4649"
       color-interpolation-filters="sRGB">
      <feGaussianBlur
         inkscape:collect="always"
         stdDeviation="1.3891112"
         id="feGaussianBlur4651" />
    </filter>
    <filter
       inkscape:collect="always"
       id="filter4653"
       color-interpolation-filters="sRGB">
      <feGaussianBlur
         inkscape:collect="always"
         stdDeviation="1.4646426"
         id="feGaussianBlur4655" />
    </filter>
    <filter
       inkscape:collect="always"
       id="filter4657"
       color-interpolation-filters="sRGB">
      <feGaussianBlur
         inkscape:collect="always"
         stdDeviation="0.29454085"
         id="feGaussianBlur4659" />
    </filter>
  </defs>
  <sodipodi:namedview
     id="base"
     pagecolor="#2b2e30"
     bordercolor="#666666"
     borderopacity="1.0"
     inkscape:pageopacity="0"
     inkscape:pageshadow="2"
     inkscape:zoom="0.50661983"
     inkscape:cx="-452.94533"
     inkscape:cy="222.84467"
     inkscape:document-units="px"
     inkscape:current-layer="layer1"
     showgrid="false"
     inkscape:pagecheckerboard="false"
     showborder="true"
     units="px"
     inkscape:window-width="1920"
     inkscape:window-height="1017"
     inkscape:window-x="-8"
     inkscape:window-y="-8"
     inkscape:window-maximized="1"
     inkscape:showpageshadow="false"
     guidetolerance="28"
     showguides="true"
     inkscape:guide-bbox="true">
    <inkscape:grid
       type="xygrid"
       id="grid24034"
       spacingx="1px"
       spacingy="1px"
       empspacing="8"
       visible="true"
       enabled="true"
       snapvisiblegridlinesonly="true"
       originx="-483.20895px"
       originy="-3856.4706px" />
  </sodipodi:namedview>
  <metadata
     id="metadata23486">
    <rdf:RDF>
      <cc:Work
         rdf:about="">
        <dc:format>image/svg+xml</dc:format>
        <dc:type
           rdf:resource="http://purl.org/dc/dcmitype/StillImage" />
        <dc:title></dc:title>
        <cc:license
           rdf:resource="" />
        <dc:creator>
          <cc:Agent>
            <dc:title>Robert Brooks</dc:title>
          </cc:Agent>
        </dc:creator>
      </cc:Work>
    </rdf:RDF>
  </metadata>
  <g
     inkscape:label="Layer 1"
     inkscape:groupmode="layer"
     id="layer1"
     transform="translate(-127.84904,858.82454)">
    <g
       id="g4779">
      <g
         id="g4661">
        <path
           inkscape:connector-curvature="0"
           id="path3994-9"
           d="m 165.0752,-835.79363 c -0.21664,0.009 -0.41342,0.14957 -0.41342,0.46302 l -2.14147,15.197 c -1.22846,-0.39962 -2.54877,-0.70691 -3.96875,-0.90122 0.88637,0.2046 2.24272,0.94676 3.80339,2.12492 l -1.15755,8.19383 c -0.0388,0.66252 0.31064,0.50781 0.3886,0.15708 l 1.28985,-7.94578 c 1.23989,0.98687 2.59168,2.23509 3.92741,3.71245 -0.37384,0.58547 -0.65305,1.03145 -0.86817,1.32292 0.37928,-0.41532 0.79165,-0.86429 1.0418,-1.13277 0.85925,0.96407 1.70787,2.02513 2.52181,3.16675 -1.30107,-0.9702 -2.69042,-1.54554 -3.6959,-1.8769 0.0409,-0.0483 0.088,-0.097 0.13229,-0.15708 -0.0616,0.0674 -0.0909,0.0942 -0.14056,0.14882 -0.84258,-0.27702 -1.41387,-0.38034 -1.41387,-0.38034 0.46007,0.12841 0.89127,0.30279 1.30638,0.50438 -0.0946,0.10575 -0.13697,0.15351 0,0.0164 0.004,-0.004 0.005,-0.0127 0.008,-0.0164 1.49463,0.72747 2.70453,1.87886 3.65456,3.10885 -1.74524,-0.9889 -3.9229,-1.59012 -6.64765,-1.55442 0.86108,0 3.34762,2.013 5.62239,5.21723 -2.34945,2.24853 -3.88465,3.78903 -3.99355,4.04318 -0.12892,0.30078 1.68479,-1.17435 4.39043,-3.48094 1.52542,2.27003 2.89937,5.07034 3.5388,8.14423 -3.93232,1.00049 -7.63653,2.27375 -6.76341,2.27375 0.64137,0 4.34469,0.093 7.09414,0.0827 0.0135,0.18327 0.0254,0.36109 0.0331,0.54569 -1.39562,0.1705 -2.39083,0.55788 -1.7446,0.85162 0.34416,0.15644 1.03488,0.27918 1.7446,0.38037 -0.0144,0.42788 -0.0413,0.86521 -0.0909,1.2981 -2.92957,0.24889 -6.80647,0.58975 -7.34219,0.73585 -0.6935,0.18916 3.93377,0.93607 6.93704,1.42213 -0.97455,3.75956 -3.45574,7.60842 -8.26822,11.18694 2.81586,-0.0259 4.99797,-0.85881 6.68899,-2.14146 -2.24997,3.45456 -5.3826,5.89523 -5.3826,5.89523 0,0 1.76052,-0.275 3.96875,-1.99263 -1.29226,1.72162 -2.81434,3.45938 -4.58887,5.20071 l -2.29857,-2.53836 c -0.0152,-0.0177 -0.043,-0.0254 -0.0661,-0.0249 -0.0587,0.003 -0.0888,0.0802 -0.0496,0.12401 l 2.22415,2.62104 c -1.05822,1.02799 -2.2069,2.06182 -3.44785,3.09232 -0.2529,-1.27714 -0.46723,-2.39834 -0.61185,-3.26596 l -0.10749,-0.008 c 0.1485,0.89109 0.34552,2.0707 0.57051,3.38997 -0.89308,0.73729 -1.8281,1.47873 -2.81947,2.21588 1.07487,-0.23237 2.09124,-0.50095 3.05925,-0.81027 1.47244,8.60094 3.86953,22.34075 3.86953,22.34075 0.20232,1.01161 1.41775,0.46837 1.21543,-0.23979 0,0 -3.14785,-13.64599 -4.88652,-22.17536 1.89355,-0.61942 3.58941,-1.37433 5.10149,-2.24071 l 16.80105,19.78586 c 0.21625,0.25247 0.64366,0.28602 0.89296,0.0662 0.24931,-0.21987 0.27309,-0.64686 0.0496,-0.89297 l -17.41289,-19.14928 c 1.06595,-0.63272 2.037,-1.32215 2.92696,-2.05052 3.04303,3.06229 8.23479,8.28413 7.55716,6.9288 -0.60895,-1.21785 -3.79084,-5.86581 -5.96966,-8.3592 0.97754,-0.96465 1.83965,-1.97952 2.58795,-3.02616 l 10.50065,9.40099 c 1.10229,0.93691 1.70864,0.0109 0.82683,-0.92604 l -10.89753,-9.10335 c 1.19663,-1.79169 2.09784,-3.65283 2.76986,-5.47356 4.86229,2.76993 13.38431,7.50756 14.37018,7.50756 0.99076,0 -9.02202,-6.5845 -13.73353,-9.45061 0.53774,-1.83866 0.8669,-3.59031 1.05833,-5.12631 l 19.71146,6.5898 8.52455,2.45568 -8.21036,-3.43958 -19.94296,-6.33349 c 0.30397,-2.95865 0.12402,-4.96094 0.12402,-4.96094 0,0 -0.0177,-0.26564 -0.0579,-0.7276 6.51499,-0.18841 13.70031,-0.0103 20.88555,0.17363 0.39223,-0.008 0.74401,-0.36844 0.73587,-0.76066 -0.008,-0.39223 -0.37676,-0.74457 -0.76895,-0.7359 -6.98802,0.49695 -13.97473,1.01903 -20.88554,0.97568 -0.0732,-0.73157 -0.20512,-1.80987 -0.44649,-3.10059 3.97509,-0.87687 10.31894,-2.44872 11.13731,-3.15018 0.90161,-0.77285 -6.39492,0.47394 -11.41843,1.81073 -0.40469,-1.81555 -1.00261,-3.92602 -1.90169,-6.09371 2.65671,-1.49753 6.88658,-4.18115 7.2347,-5.22551 0.46762,-1.40296 -1.55443,-0.31417 -1.55443,-0.31417 -2.06093,1.56631 -4.42327,3.43234 -6.011,4.779 -0.46661,-1.0482 -1.00115,-2.108 -1.62057,-3.14192 7.06492,-6.17487 15.61861,-13.84093 17.28886,-15.51119 2.96182,-2.9618 5.30821,-5.92006 5.30821,-5.92006 -3.28377,2.41456 -14.76256,12.77708 -23.13451,20.57964 -1.23365,-1.89174 -2.75446,-3.6816 -4.63848,-5.20898 4.58572,-4.69369 10.42624,-11.52679 10.42624,-12.76615 0,-1.40295 -4.83995,4.2106 -8.42532,8.73125 -1.09402,1.3794 -1.95044,2.55251 -2.63757,3.5388 -1.51563,-1.13144 -3.2499,-2.10021 -5.23379,-2.8112 l 2.48047,-15.28794 c 0.062,-0.37203 -0.24238,-0.58259 -0.52089,-0.57052 z m -6.97839,14.70091 c 0.1499,0.0177 0.29873,0.0378 0.44648,0.0579 -0.16474,-0.0372 -0.31608,-0.0579 -0.44648,-0.0579 z m 49.63418,14.24617 c -0.019,0.003 -0.0396,0.003 -0.0579,0.008 0,0 -14.58324,3.34239 -14.54381,3.52226 0.0393,0.17986 14.68437,-2.86907 14.68437,-2.86907 0.16526,-0.0325 0.2948,-0.20513 0.27285,-0.37208 -0.0219,-0.16698 -0.18757,-0.30078 -0.35553,-0.28937 z m -43.63145,12.56771 c -2.57207,0.31176 -5.45812,0.77962 -5.06842,1.09141 0.38975,0.31175 5.14185,0.30943 6.07715,0.23151 0.93529,-0.0779 2.8112,-0.85164 2.8112,-0.85164 l -3.81993,-0.47128 z m 43.58184,14.06424 c -0.004,0.003 -0.008,0.006 -0.008,0.008 -0.0156,0.15471 7.68945,2.76987 7.68945,2.76987 0.17037,0.0645 0.38406,-0.041 0.43822,-0.21497 0.0542,-0.17391 -0.0629,-0.37804 -0.23978,-0.42167 0,0 -7.62647,-2.21977 -7.87962,-2.14148 z m -20.15794,14.59342 c -0.26425,0.0259 -0.38229,0.43113 -0.17364,0.59531 l 15.27142,12.64213 c 0.17645,0.17446 0.50443,0.15903 0.66146,-0.0331 0.15707,-0.19211 0.10686,-0.51496 -0.0992,-0.65319 l -15.41198,-12.47673 c -0.068,-0.0571 -0.15965,-0.083 -0.24804,-0.0744 z"
           style="color:#000000;fill:#00ccff;fill-opacity:1;fill-rule:nonzero;stroke:#00ccff;stroke-width:1.32291675;stroke-miterlimit:4;stroke-dasharray:none;marker:none;visibility:visible;display:inline;overflow:visible;filter:url(#filter4641);enable-background:accumulate"
           gds_switchable="blur"
           gds_color="blur" />
        <g
           id="g4341">
          <g
             inkscape:export-ydpi="40.529583"
             inkscape:export-xdpi="40.529583"
             inkscape:export-filename="C:\Users\rober\Desktop\assets\ASSETS_2024\ESSENTIALS\sword_effects\1.png"
             transform="matrix(0.45032873,0,0,0.45032873,-233.86578,-429.53884)"
             id="g4264">
            <rect
               y="-953.27185"
               x="803.22394"
               height="300.81729"
               width="225.61296"
               id="rect4246"
               style="opacity:0;color:#000000;fill:#00ffff;fill-opacity:1;fill-rule:nonzero;stroke:none;stroke-width:6;marker:none;visibility:visible;display:inline;overflow:visible;enable-background:accumulate" />
            <path
               id="path3994"
               transform="matrix(0.58753378,0,0,0.58753378,519.32235,995.05384)"
               d="m 623.90625,-3229.0625 c -0.81876,0.035 -1.5625,0.5653 -1.5625,1.75 l -8.09375,57.4375 c -4.643,-1.5104 -9.63316,-2.6718 -15,-3.4062 3.35007,0.7733 8.47641,3.5783 14.375,8.0312 l -4.375,30.9688 c -0.14671,2.504 1.17408,1.9193 1.46875,0.5937 l 4.875,-30.0313 c 4.68623,3.7299 9.79534,8.4476 14.84375,14.0313 -1.41291,2.2128 -2.46822,3.8984 -3.28125,5 1.43348,-1.5697 2.99206,-3.2666 3.9375,-4.2813 3.24756,3.6437 6.45494,7.654 9.53125,11.9688 -4.91744,-3.6669 -10.16851,-5.8414 -13.96875,-7.0938 0.15462,-0.1826 0.33248,-0.3667 0.5,-0.5937 -0.23275,0.2549 -0.34351,0.3559 -0.53125,0.5625 -3.18454,-1.047 -5.34375,-1.4375 -5.34375,-1.4375 1.73882,0.4853 3.36855,1.1444 4.9375,1.9063 -0.3574,0.3997 -0.51768,0.5802 0,0.062 0.014,-0.014 0.0171,-0.048 0.0312,-0.062 5.64897,2.7495 10.22183,7.1012 13.8125,11.75 -6.59619,-3.7376 -14.82673,-6.0099 -25.125,-5.875 3.2545,0 12.65243,7.6082 21.25,19.7187 -8.8798,8.4984 -14.68213,14.3207 -15.09375,15.2813 -0.48724,1.1368 6.36773,-4.4385 16.59375,-13.1563 5.76537,8.5796 10.95825,19.1635 13.375,30.7813 -14.86231,3.7814 -28.86246,8.5937 -25.5625,8.5937 2.42408,0 16.42088,0.3514 26.8125,0.3125 0.0511,0.6927 0.0962,1.3648 0.125,2.0625 -5.27479,0.6444 -9.03618,2.1085 -6.59375,3.2187 1.30074,0.5913 3.91137,1.0552 6.59375,1.4376 -0.0543,1.6172 -0.15629,3.2701 -0.34375,4.9062 -11.07238,0.9407 -25.72525,2.229 -27.75,2.7812 -2.62111,0.7149 14.86779,3.5379 26.21875,5.375 -3.68336,14.2093 -13.06107,28.7562 -31.25,42.2813 10.64262,-0.098 18.88999,-3.2459 25.28125,-8.0937 -8.50382,13.0566 -20.3437,22.2812 -20.3437,22.2812 0,0 6.65395,-1.0394 15,-7.5312 -4.88412,6.5069 -10.63686,13.0748 -17.34375,19.6562 l -8.6875,-9.5938 c -0.0574,-0.067 -0.1624,-0.096 -0.25,-0.094 -0.22193,0.01 -0.33571,0.3032 -0.1875,0.4687 l 8.40625,9.9063 c -3.99957,3.8853 -8.34103,7.7927 -13.03125,11.6875 -0.95583,-4.827 -1.76591,-9.0646 -2.3125,-12.3438 l -0.40625,-0.031 c 0.56126,3.3679 1.3059,7.8263 2.15625,12.8125 -3.37543,2.7866 -6.90935,5.5889 -10.65625,8.375 4.06247,-0.8783 7.90388,-1.8934 11.5625,-3.0625 5.56514,32.5075 14.625,84.4375 14.625,84.4375 0.76469,3.8234 5.35844,1.7702 4.59375,-0.9063 0,0 -11.89737,-51.5754 -18.46875,-83.8124 7.15675,-2.3411 13.56628,-5.1943 19.28125,-8.4688 l 63.5,74.7812 c 0.81733,0.9542 2.43274,1.081 3.375,0.25 0.94226,-0.831 1.03212,-2.4448 0.1875,-3.375 l -65.8125,-72.375 c 4.02876,-2.3914 7.69888,-4.9971 11.0625,-7.75 11.50125,11.574 31.12363,31.3101 28.5625,26.1876 -2.30155,-4.6029 -14.32759,-22.17 -22.5625,-31.5938 3.69466,-3.6459 6.95304,-7.4817 9.78125,-11.4375 l 39.6875,35.5313 c 4.16613,3.5411 6.45783,0.041 3.125,-3.5 l -41.1875,-34.4063 c 4.5227,-6.7718 7.92884,-13.806 10.46875,-20.6875 18.37719,10.469 50.58638,28.375 54.3125,28.375 3.7446,0 -34.09895,-24.8863 -51.90625,-35.7188 2.03241,-6.9493 3.27647,-13.5697 4,-19.375 l 74.5,24.9063 32.21875,9.2813 -31.03125,-13 -75.375,-23.9376 c 1.14887,-11.1823 0.46875,-18.75 0.46875,-18.75 0,0 -0.0667,-1.004 -0.21875,-2.75 24.62359,-0.7121 51.7807,-0.039 78.9375,0.6563 1.48247,-0.029 2.81204,-1.3926 2.78125,-2.875 -0.0303,-1.4824 -1.42395,-2.8141 -2.90625,-2.7813 -26.41142,1.8782 -52.81788,3.8514 -78.9375,3.6876 -0.2768,-2.765 -0.77525,-6.8405 -1.6875,-11.7188 15.02394,-3.3141 39.00072,-9.255 42.09375,-11.9062 3.40767,-2.921 -24.16977,1.7913 -43.15625,6.8437 -1.52953,-6.8619 -3.78941,-14.8385 -7.1875,-23.0313 10.04111,-5.66 26.02801,-15.8028 27.34375,-19.75 1.7674,-5.3025 -5.875,-1.1874 -5.875,-1.1874 -7.78934,5.9199 -16.71789,12.9726 -22.71875,18.0624 -1.76358,-3.9617 -3.78388,-7.9673 -6.125,-11.875 26.70209,-23.3381 59.03099,-52.3122 65.34375,-58.625 11.19428,-11.1942 20.0625,-22.375 20.0625,-22.375 -12.4111,9.1259 -55.79549,48.2913 -87.4375,77.7813 -4.66261,-7.1499 -10.41057,-13.9147 -17.53125,-19.6875 17.33185,-17.7399 39.40625,-43.5658 39.40625,-48.25 0,-5.3025 -18.29272,15.9141 -31.84375,33 -4.13486,5.2135 -7.37172,9.6473 -9.96875,13.375 -5.72837,-4.2763 -12.28309,-7.9378 -19.78125,-10.625 l 9.375,-57.7812 c 0.2342,-1.4061 -0.9161,-2.2019 -1.96875,-2.1563 z m -26.375,55.5625 c 0.56657,0.067 1.12906,0.1427 1.6875,0.2188 -0.62264,-0.1408 -1.19463,-0.2188 -1.6875,-0.2188 z m 187.59375,53.8438 c -0.0718,0.01 -0.14961,0.012 -0.21875,0.031 0,0 -55.11775,12.6327 -54.96875,13.3125 0.14842,0.6798 55.5,-10.8437 55.5,-10.8437 0.62461,-0.1228 1.11421,-0.7753 1.03125,-1.4063 -0.0829,-0.6311 -0.70894,-1.1368 -1.34375,-1.0937 z m -164.90625,47.5 c -9.72123,1.1783 -20.62914,2.9466 -19.15625,4.125 1.47306,1.1783 19.43377,1.1695 22.96875,0.875 3.53498,-0.2946 10.625,-3.2188 10.625,-3.2188 l -14.4375,-1.7812 z M 784.9375,-3019 c -0.0153,0.01 -0.0297,0.022 -0.0312,0.031 -0.0591,0.5847 29.0625,10.4688 29.0625,10.4688 0.64391,0.2438 1.45156,-0.1551 1.65625,-0.8125 0.20469,-0.6573 -0.23776,-1.4288 -0.90625,-1.5937 0,0 -28.82447,-8.3897 -29.78125,-8.0938 z m -76.1875,55.1562 c -0.99873,0.098 -1.44487,1.6295 -0.65625,2.25 l 57.71875,47.7813 c 0.66689,0.6594 1.9065,0.6011 2.5,-0.125 0.59365,-0.7261 0.40388,-1.9463 -0.375,-2.4687 l -58.25,-47.1563 c -0.25719,-0.2157 -0.60341,-0.3137 -0.9375,-0.2813 z"
               style="color:#000000;fill:#00ffff;fill-opacity:1;fill-rule:nonzero;stroke:none;stroke-width:3;marker:none;visibility:visible;display:inline;overflow:visible;enable-background:accumulate"
               inkscape:connector-curvature="0" />
          </g>
          <path
             id="path4304"
             transform="matrix(0.26458334,0,0,0.26458334,-6.3049604e-6,18.562493)"
             d="m 621.78125,-3161.8438 c 24.81253,15.1633 34.65053,38.6421 38.53125,56.8438 -6.16852,-15.559 -15.84375,-27.25 -15.84375,-27.25 6.66381,10.1106 10.39989,21.6996 12.53125,31.2188 -1.77629,-4.3652 -3.71404,-8.2839 -5.625,-11.4688 -8.8824,-14.804 -14.8125,-15.2812 -14.8125,-15.2812 35.03613,47.8663 16.777,83.3741 9.375,92.75 -7.402,9.3759 -12.3125,12.8437 -12.3125,12.8437 0,0 12.81305,-1.975 24.65625,-23.6875 0.078,-0.143 0.14261,-0.2937 0.21875,-0.4375 -0.4556,5.7244 -1.69342,12.7931 -4.15625,17.7187 -4.4412,8.8825 -12.84375,17.25 -12.84375,17.25 0,0 6.20912,-3.6284 12.25,-10.7187 -2.28495,7.5341 -9.18017,22.7282 -22.59375,33.9063 -9.2525,7.7103 -14.09312,10.8023 -16.40625,12.0312 8.51051,-3.731 45.00443,-21.916 52.40625,-62.8438 8.38894,-46.3859 -5.9068,-83.403 -17.75,-99.6874 -11.8432,-16.2845 -27.625,-23.1876 -27.625,-23.1876 z m -7.375,185.875 c -0.77107,0.3284 -1.53125,0.6563 -1.53125,0.6563 0,0 0.45037,-0.1134 1.53125,-0.6563 z"
             style="color:#000000;fill:#ffffff;fill-opacity:1;fill-rule:nonzero;stroke:none;stroke-width:6;marker:none;visibility:visible;display:inline;overflow:visible;enable-background:accumulate"
             inkscape:connector-curvature="0" />
        </g>
      </g>
    </g>
  </g>
</svg>
