<?xml version="1.0" encoding="UTF-8" standalone="no"?>
<!-- Created with Inkscape (http://www.inkscape.org/) -->

<svg
   xmlns:dc="http://purl.org/dc/elements/1.1/"
   xmlns:cc="http://creativecommons.org/ns#"
   xmlns:rdf="http://www.w3.org/1999/02/22-rdf-syntax-ns#"
   xmlns:svg="http://www.w3.org/2000/svg"
   xmlns="http://www.w3.org/2000/svg"
   xmlns:sodipodi="http://sodipodi.sourceforge.net/DTD/sodipodi-0.dtd"
   xmlns:inkscape="http://www.inkscape.org/namespaces/inkscape"
   width="416.95679"
   height="521.19598"
   viewBox="0 0 110.31981 137.89979"
   version="1.1"
   id="svg23489"
   inkscape:version="0.48.5 r10040"
   sodipodi:docname="horizonal_slash_effect_spritesheet.svg">
  <defs
     id="defs23483">
    <filter
       inkscape:collect="always"
       id="filter18160"
       color-interpolation-filters="sRGB">
      <feGaussianBlur
         inkscape:collect="always"
         stdDeviation="0.68961443"
         id="feGaussianBlur18162" />
    </filter>
    <filter
       inkscape:collect="always"
       id="filter3967"
       color-interpolation-filters="sRGB">
      <feGaussianBlur
         inkscape:collect="always"
         stdDeviation="1.47148"
         id="feGaussianBlur3969" />
    </filter>
    <filter
       inkscape:collect="always"
       id="filter4022"
       color-interpolation-filters="sRGB">
      <feGaussianBlur
         inkscape:collect="always"
         stdDeviation="2.2104728"
         id="feGaussianBlur4024" />
    </filter>
    <filter
       inkscape:collect="always"
       id="filter4083"
       color-interpolation-filters="sRGB">
      <feGaussianBlur
         inkscape:collect="always"
         stdDeviation="1.7785303"
         id="feGaussianBlur4085" />
    </filter>
    <filter
       inkscape:collect="always"
       id="filter4097"
       color-interpolation-filters="sRGB">
      <feGaussianBlur
         inkscape:collect="always"
         stdDeviation="2.0982677"
         id="feGaussianBlur4099" />
    </filter>
    <filter
       inkscape:collect="always"
       id="filter4130"
       color-interpolation-filters="sRGB">
      <feGaussianBlur
         inkscape:collect="always"
         stdDeviation="0.36492097"
         id="feGaussianBlur4132" />
    </filter>
  </defs>
  <sodipodi:namedview
     id="base"
     pagecolor="#474b4f"
     bordercolor="#666666"
     borderopacity="1.0"
     inkscape:pageopacity="0"
     inkscape:pageshadow="2"
     inkscape:zoom="0.77493125"
     inkscape:cx="163.18572"
     inkscape:cy="223.17636"
     inkscape:document-units="px"
     inkscape:current-layer="layer1"
     showgrid="false"
     inkscape:pagecheckerboard="false"
     showborder="true"
     units="px"
     inkscape:window-width="1920"
     inkscape:window-height="1017"
     inkscape:window-x="-8"
     inkscape:window-y="-8"
     inkscape:window-maximized="1"
     inkscape:showpageshadow="false"
     guidetolerance="28">
    <inkscape:grid
       type="xygrid"
       id="grid24034"
       spacingx="1px"
       spacingy="1px"
       empspacing="8"
       visible="true"
       enabled="true"
       snapvisiblegridlinesonly="true"
       originx="603.60693px"
       originy="-991.20242px" />
  </sodipodi:namedview>
  <metadata
     id="metadata23486">
    <rdf:RDF>
      <cc:Work
         rdf:about="">
        <dc:format>image/svg+xml</dc:format>
        <dc:type
           rdf:resource="http://purl.org/dc/dcmitype/StillImage" />
        <dc:title />
        <cc:license
           rdf:resource="" />
        <dc:creator>
          <cc:Agent>
            <dc:title>Robert Brooks</dc:title>
          </cc:Agent>
        </dc:creator>
      </cc:Work>
    </rdf:RDF>
  </metadata>
  <g
     inkscape:label="Layer 1"
     inkscape:groupmode="layer"
     id="layer1"
     transform="translate(159.70433,103.15544)">
    <g
       id="g4134"
       transform="translate(-144.85571,16.175547)">
      <path
         inkscape:connector-curvature="0"
         style="color:#000000;fill:#00ccff;fill-opacity:1;fill-rule:nonzero;stroke:none;stroke-width:2.70000005;marker:none;visibility:visible;display:inline;overflow:visible;filter:url(#filter4130);enable-background:accumulate"
         d="m -4.75905,3.639727 c -3.67284,0.647952 -5.42317,2.142078 -5.09322,3.373438 0.65874,2.458452 7.38808,4.144531 16.18092,5.225521 11.41039,3.208038 40.29108,2.273763 40.29108,2.273763 0,0 -27.33108,0.05502 -38.92682,-2.108399 17.52107,1.98421 42.13051,1.677085 44.40039,0.214974 C 32.56184,14.302836 -7.26758,12.673164 -8.86836,6.698972 -8.98876,6.249598 -8.89386,5.85527 -8.5707,5.49181 -9.95031,9.49525 2.10515,10.032036 5.79122,10.097214 3.59741,9.415357 -9.12803,9.582675 -8.0498,5.053594 c 0.68424,-0.4661 1.77127,-0.906656 3.29075,-1.413867 z"
         id="path4128" />
      <rect
         style="color:#000000;fill:none;stroke:none;stroke-width:2.70000005;marker:none;visibility:visible;display:inline;overflow:visible;enable-background:accumulate"
         id="rect17975"
         width="110.31983"
         height="27.579958"
         x="-14.848632"
         y="-9.0111513" />
      <path
         id="path17941"
         d="m -4.75905,3.639727 c -3.67284,0.647952 -5.42317,2.142078 -5.09322,3.373438 0.65874,2.458452 7.38808,4.144531 16.18092,5.225521 11.41039,3.208038 40.29108,2.273763 40.29108,2.273763 0,0 -27.33108,0.05502 -38.92682,-2.108399 17.52107,1.98421 42.13051,1.677085 44.40039,0.214974 C 32.56184,14.302836 -7.26758,12.673164 -8.86836,6.698972 -8.98876,6.249598 -8.89386,5.85527 -8.5707,5.49181 -9.95031,9.49525 2.10515,10.032036 5.79122,10.097214 3.59741,9.415357 -9.12803,9.582675 -8.0498,5.053594 c 0.68424,-0.4661 1.77127,-0.906656 3.29075,-1.413867 z"
         style="color:#000000;fill:#00ffff;fill-opacity:1;fill-rule:nonzero;stroke:none;stroke-width:2.70000005;marker:none;visibility:visible;display:inline;overflow:visible;enable-background:accumulate"
         inkscape:connector-curvature="0" />
    </g>
    <g
       id="g4101"
       transform="translate(-149.68422,57.459425)">
      <g
         transform="translate(178.17252,-64.702218)"
         inkscape:export-ydpi="90"
         inkscape:export-xdpi="90"
         inkscape:export-filename="C:\Users\rober\Desktop\assets\ASSETS_2024\ESSENTIALS\sword_effects\horizontal_slash\sprite_sheet_png.png"
         id="g18294">
        <path
           style="color:#000000;fill:#00ccff;fill-opacity:1;fill-rule:nonzero;stroke:none;stroke-width:2.70000005;marker:none;visibility:visible;display:inline;overflow:visible;filter:url(#filter4097);enable-background:accumulate"
           d="m 948.3125,93.25 c -2.574,0.03978 -5.24871,0.171161 -7.96875,0.375 30.57827,0.954244 49.9375,5.96875 49.9375,5.96875 0,0 -15.998,-6.244728 -39.4375,-6.34375 -0.83712,-0.0035 -1.67325,-0.01326 -2.53125,0 z m 10.78125,8.8125 c -1.90684,0.0398 -3.88565,0.17116 -5.90625,0.375 22.71526,0.95424 37.09375,5.96875 37.09375,5.96875 0,0 -11.90033,-6.24473 -29.3125,-6.34375 -0.62186,-0.004 -1.23939,-0.0133 -1.875,0 z m -3.5,3.46875 c -2.41138,0.0524 -4.79233,0.21112 -7.0625,0.4375 15.8818,0 36.25995,5.67917 38.15625,17.53125 1.01046,6.31523 -1.82171,11.74603 -16.15625,14.0625 -2.57994,0.2679 -5.04655,0.76722 -6.46875,0.84375 0.0722,-0.22907 0.16962,-0.45726 0.21875,-0.6875 0.004,-0.006 -0.004,-0.0246 0,-0.0312 2.04287,-2.63906 4.01059,-7.34888 -2.90625,-10.375 -5.56222,-2.43347 -11.62963,-5.23933 -23.71875,-6.1875 16.3559,4.5038 18.94893,6.39637 15.15625,14.21875 -0.53197,0.83345 -1.4206,1.63461 -2.53125,2.375 -16.62965,7.8195 -69.9846,9.53698 -89.5,10.0625 -62.88222,1.69336 -126.20342,-2.27227 -153.15625,-11.25 23.68751,6.3249 68.96875,5.71875 68.96875,5.71875 0,0 -81.13436,-1.25456 -81.71875,-19.5 1.84218,-2.82294 6.59,-5.72174 16.34375,-8.34375 -30.84094,6.0341 -19.41758,19.13352 -11.875,21.3125 25.09039,10.00403 66.47043,14.96643 108.40625,16.875 17.77553,1.93017 46.6058,3.98212 83.90625,3.0625 46.4155,-2.0911 81.81598,-2.88865 109.68755,-9.4375 -28.71641,2.42507 -55.20452,3.93412 -79.0313,4.84375 4.19611,-0.34129 8.01659,-0.68428 11.34375,-1.0625 24.11493,-2.36756 45.12936,-6.179 56.34375,-9.09375 29.1105,-7.56615 36.4929,-15.90116 37.7188,-23.09375 1.4687,-8.61739 -24.875,-11.375 -24.875,-11.375 0,0 29.73,6.89259 6.5,19.21875 -2.1482,-13.10396 -30.44031,-20.63158 -53.75005,-20.125 z m 75.93745,0.78125 c 37.1958,12.41648 -12.4807,31.55268 -23.3437,34.0625 40.1122,-6.95447 53.3333,-28.63626 23.3437,-34.0625 z m -103.7812,7.875 c -1.90696,0.0379 -3.8544,0.13991 -5.875,0.34375 22.32638,0.93791 36.51807,5.77188 37,5.9375 0.008,0.003 0.0937,0.0312 0.0937,0.0312 13.67392,5.03648 13.17983,11.66467 9.03125,16.78125 6.37159,-2.17975 10.83922,-17.7972 -18.71875,-20.34375 -5.42486,-1.51931 -12.84401,-2.92284 -21.53125,-2.75 z m -0.5,7.53125 c -1.37629,0.0379 -2.7917,0.13991 -4.25,0.34375 16.39404,0.95424 26.75,5.96875 26.75,5.96875 0,0 -9.1959,-6.67926 -22.5,-6.3125 z"
           transform="matrix(0.26458337,0,0,0.26458337,-366.36516,-31.210425)"
           id="path4095"
           inkscape:connector-curvature="0" />
        <rect
           y="-13.17277"
           x="-188.19264"
           height="27.579958"
           width="110.31983"
           id="rect17957"
           style="color:#000000;fill:none;stroke:none;stroke-width:2.70000005;marker:none;visibility:visible;display:inline;overflow:visible;enable-background:accumulate" />
        <path
           sodipodi:nodetypes="scsccscscssscsscss"
           inkscape:connector-curvature="0"
           style="opacity:0.25;color:#000000;fill:#00ffff;fill-opacity:1;fill-rule:nonzero;stroke:none;stroke-width:2;marker:none;visibility:visible;display:inline;overflow:visible;enable-background:accumulate"
           d="m -468.53125,-92.28125 c -9.02223,-0.01591 -24.75138,1.991213 -33.83427,3.693669 43.11454,-2.737431 88.11991,4.578776 99.81862,13.759369 10.33502,8.110443 12.5102,21.293072 -2.17185,24.734462 -4.77914,0.834925 -9.92228,1.728365 -15.125,2.6875 7.04545,-4.732724 11.53756,-10.90305 1.34375,-16.8125 -20.42332,-11.839614 -46.76654,-13.917451 -94.125,-12.4375 0,0 69.26179,2.96227 78.4375,11.25 5.98048,5.40174 3.15884,14.778192 0.46875,20.6875 -12.45107,2.577624 -21.19904,5.011759 -16.375,6.125 13.08962,3.020681 75.02527,-6.062957 94.15625,-15.125 19.13098,-9.062044 21.13167,-14.073297 15.59375,-21.625 -5.53791,-7.551703 -27.41578,-15.631894 -44.28125,-14.625 34.23438,7.048257 23.13856,23.663372 16.59375,27.1875 -6.54481,3.524128 -27.69049,9.565946 -18.125,9.0625 2.48402,-0.130738 -1.63195,0.637041 -8.6875,1.875 11.79164,-5.744285 26.13669,-15.663515 10.03125,-25 -19.95772,-11.569698 -44.62244,-15.368579 -83.71875,-15.4375 z"
           transform="matrix(0.26458334,0,0,0.26458334,-6.3049604e-6,18.562493)"
           id="path18278" />
        <path
           id="path17930"
           transform="matrix(0.26458337,0,0,0.26458337,-366.36516,-31.210425)"
           d="m 948.3125,93.25 c -2.574,0.03978 -5.24871,0.171161 -7.96875,0.375 30.57827,0.954244 49.9375,5.96875 49.9375,5.96875 0,0 -15.998,-6.244728 -39.4375,-6.34375 -0.83712,-0.0035 -1.67325,-0.01326 -2.53125,0 z m 10.78125,8.8125 c -1.90684,0.0398 -3.88565,0.17116 -5.90625,0.375 22.71526,0.95424 37.09375,5.96875 37.09375,5.96875 0,0 -11.90033,-6.24473 -29.3125,-6.34375 -0.62186,-0.004 -1.23939,-0.0133 -1.875,0 z m -3.5,3.46875 c -2.41138,0.0524 -4.79233,0.21112 -7.0625,0.4375 15.8818,0 36.25995,5.67917 38.15625,17.53125 1.01046,6.31523 -1.82171,11.74603 -16.15625,14.0625 -2.57994,0.2679 -5.04655,0.76722 -6.46875,0.84375 0.0722,-0.22907 0.16962,-0.45726 0.21875,-0.6875 0.004,-0.006 -0.004,-0.0246 0,-0.0312 2.04287,-2.63906 4.01059,-7.34888 -2.90625,-10.375 -5.56222,-2.43347 -11.62963,-5.23933 -23.71875,-6.1875 16.3559,4.5038 18.94893,6.39637 15.15625,14.21875 -0.53197,0.83345 -1.4206,1.63461 -2.53125,2.375 -16.62965,7.8195 -69.9846,9.53698 -89.5,10.0625 -62.88222,1.69336 -126.20342,-2.27227 -153.15625,-11.25 23.68751,6.3249 68.96875,5.71875 68.96875,5.71875 0,0 -81.13436,-1.25456 -81.71875,-19.5 1.84218,-2.82294 6.59,-5.72174 16.34375,-8.34375 -30.84094,6.0341 -19.41758,19.13352 -11.875,21.3125 25.09039,10.00403 66.47043,14.96643 108.40625,16.875 17.77553,1.93017 46.6058,3.98212 83.90625,3.0625 46.4155,-2.0911 81.81598,-2.88865 109.68755,-9.4375 -28.71641,2.42507 -55.20452,3.93412 -79.0313,4.84375 4.19611,-0.34129 8.01659,-0.68428 11.34375,-1.0625 24.11493,-2.36756 45.12936,-6.179 56.34375,-9.09375 29.1105,-7.56615 36.4929,-15.90116 37.7188,-23.09375 1.4687,-8.61739 -24.875,-11.375 -24.875,-11.375 0,0 29.73,6.89259 6.5,19.21875 -2.1482,-13.10396 -30.44031,-20.63158 -53.75005,-20.125 z m 75.93745,0.78125 c 37.1958,12.41648 -12.4807,31.55268 -23.3437,34.0625 40.1122,-6.95447 53.3333,-28.63626 23.3437,-34.0625 z m -103.7812,7.875 c -1.90696,0.0379 -3.8544,0.13991 -5.875,0.34375 22.32638,0.93791 36.51807,5.77188 37,5.9375 0.008,0.003 0.0937,0.0312 0.0937,0.0312 13.67392,5.03648 13.17983,11.66467 9.03125,16.78125 6.37159,-2.17975 10.83922,-17.7972 -18.71875,-20.34375 -5.42486,-1.51931 -12.84401,-2.92284 -21.53125,-2.75 z m -0.5,7.53125 c -1.37629,0.0379 -2.7917,0.13991 -4.25,0.34375 16.39404,0.95424 26.75,5.96875 26.75,5.96875 0,0 -9.1959,-6.67926 -22.5,-6.3125 z"
           style="color:#000000;fill:#00ffff;fill-opacity:1;fill-rule:nonzero;stroke:none;stroke-width:2.70000005;marker:none;visibility:visible;display:inline;overflow:visible;enable-background:accumulate"
           inkscape:connector-curvature="0" />
        <path
           style="color:#000000;fill:#ffffff;fill-opacity:1;fill-rule:nonzero;stroke:none;stroke-width:1.5;marker:none;visibility:visible;display:inline;overflow:visible;enable-background:accumulate"
           d="m -183.15092,2.0464881 c -0.14129,4.4268926 18.41399,5.698447 18.03723,5.698447 -0.37676,0 -16.5773,-2.0250679 -18.03723,-5.698447 z"
           id="path18183"
           inkscape:connector-curvature="0"
           sodipodi:nodetypes="csc" />
        <path
           style="color:#000000;fill:#ffffff;fill-opacity:1;fill-rule:nonzero;stroke:none;stroke-width:1.5;marker:none;visibility:visible;display:inline;overflow:visible;enable-background:accumulate"
           d="m -109.91785,-2.8026117 c 16.414443,6.0678583 -0.10974,9.6559235 -3.89433,9.4009768 1.22896,-0.9816521 1.99138,-2.3258918 1.53789,-3.2328777 -0.61223,-1.2244597 -1.97611,-1.2733073 -1.97611,-1.2733073 0,0 1.03783,0.1915792 1.27331,0.9921875 0.18699,0.6357776 0.60592,2.6347614 -3.30729,3.927409 -4.11226,0.5868085 -13.83109,1.6345091 -31.50196,1.769401 10.48759,0.1386301 21.60922,0.5326857 33.22796,-1.3168656 4.28232,-0.6816882 18.57932,-3.1097245 18.861887,-7.34823874 0,0 -3.534762,3.95907194 -5.795307,3.06427434 0,0 1.605103,-4.3346482 -8.42605,-5.9829593 z"
           id="path18185"
           inkscape:connector-curvature="0"
           sodipodi:nodetypes="ccscsccsccc" />
        <path
           style="color:#000000;fill:#ffffff;fill-opacity:1;fill-rule:nonzero;stroke:none;stroke-width:2;marker:none;visibility:visible;display:inline;overflow:visible;enable-background:accumulate"
           d="m -103.44292,-3.3088076 c 4.337592,0.252477 7.081962,1.575082 7.081962,1.575082 0,0 -2.9663,-2.150363 -7.081962,-1.575082 z"
           id="path18273"
           inkscape:connector-curvature="0"
           sodipodi:nodetypes="ccc" />
      </g>
    </g>
    <g
       id="g3911"
       transform="translate(216.27381,39.532868)">
      <path
         inkscape:connector-curvature="0"
         style="color:#000000;fill:#00ccff;fill-opacity:1;fill-rule:nonzero;stroke:none;stroke-width:2;marker:none;visibility:visible;display:inline;overflow:visible;filter:url(#filter3967);enable-background:accumulate"
         d="m -409.78125,49.28125 c -9.8976,-0.02797 -19.95247,0.962707 -29.4375,3.28125 30.99926,-5.073055 75.62083,4.743312 88.90625,11.71875 -10.03857,-8.204072 -34.17487,-14.924334 -59.46875,-15 z m 57.75,9 c 31.20026,12.669923 18.75,34.25 18.75,34.25 0,0 9.44287,-6.176435 3.0625,-19.53125 -6.38041,-13.354811 -21.8125,-14.71875 -21.8125,-14.71875 z m -35.8125,2.15625 c -0.95357,0.02117 -1.86065,0.07216 -2.71875,0.15625 20.05674,2.045839 31.171,11.891008 25.65625,8.53125 -13.24819,-8.07118 -38.5,-8 -38.5,-8 0,0 20.64019,3.043708 28.59375,13.375 -12.53931,-2.965248 -28.5981,-5.367863 -47.28125,-7.03125 -7.77199,-1.967152 -21.34764,-4.580998 -38.40625,-4.34375 -2.79646,0.03889 -5.66189,0.166049 -8.625,0.375 16.04838,0.471257 29.21671,1.892174 38.59375,3.25 -16.92908,-1.248594 -35.74193,-1.883897 -55.90625,-1.78125 45.03854,4.079969 85.0625,10.376004 85.0625,23.625 0,1.199376 -0.41304,2.351328 -1.1875,3.4375 -3.69169,-5.062994 -9.9375,-6.09375 -9.9375,-6.09375 0,0 4.55173,1.508916 4.5625,7.1875 -7.89449,-6.114341 -30.49378,-10.515635 -59.21875,-10.34375 19.80208,2.408107 37.375,6.149085 37.375,13.9375 0,3.40517 -4.17286,6.04211 -10.59375,8.125 -31.95386,4.85857 -78.33718,6.5625 -118.90625,6.5625 -68.88778,0 -124.96521,-8.41744 -127.03125,-20.75 6.00038,19.31416 130.91742,15.20703 144.21875,11.375 0,0 -142.78721,7.97568 -144.0625,-13.25 0.97353,-3.230127 5.82921,-6.288289 13.75,-9.0625 9.36805,-3.281132 -19.0625,3.228916 -19.0625,11.0625 0,0.589943 0.12593,1.196973 0.375,1.78125 1.75359,14.36169 83.14991,28.9375 184.625,28.9375 87.1331,0 161.04633,-9.40201 181.34375,-21.125 9.60272,-4.583368 13.08254,-9.096637 12.65625,-13.6875 -0.28044,4.15926 -6.91658,7.728119 -12.65625,10.8125 -20.29742,11.72299 -94.21065,22.71875 -181.34375,22.71875 -62.22991,0 -116.86444,-5.51292 -150.25,-13.0625 0.0158,-0.0144 0.0153,-0.0486 0.0312,-0.0625 31.33812,6.68805 81.03882,11.25 137.40625,11.25 81.2548,0 150.1969,-9.40201 169.125,-21.125 14.02265,-7.177186 14.06179,-14.20067 8,-21.59375 -7.239,-8.82885 -31.38369,-15.49795 -45.6875,-15.1875 z m -79.3125,22.34375 c -0.0741,-0.01058 -0.14467,-0.02445 -0.21875,-0.03125 l 0,0.03125 c 0.0741,-4.91e-4 0.14467,4.57e-4 0.21875,0 z m 62.5,-20.28125 c -1.61429,-0.0092 -3.28284,0.04237 -5.03125,0.21875 14.74155,0.619272 24.0625,3.875 24.0625,3.875 0,0 -7.73125,-4.029489 -19.03125,-4.09375 z m -52.8125,11.40625 c -1.90696,0.03794 -3.8544,0.17116 -5.875,0.375 22.71526,0.95424 37.09375,5.9375 37.09375,5.9375 0,0 -12.78485,-6.679267 -31.21875,-6.3125 z"
         transform="matrix(0.26458337,0,0,0.26458337,-188.19264,-95.912643)"
         id="path3965" />
      <path
         sodipodi:nodetypes="cccsscccccccccsccccc"
         style="opacity:0.25;color:#000000;fill:#00ffff;fill-opacity:1;fill-rule:nonzero;stroke:none;stroke-width:2;marker:none;visibility:visible;display:inline;overflow:visible;enable-background:accumulate"
         d="m -295.43877,-84.111568 c -3.15079,0.0033 -5.53654,0.35401 -6.06888,0.592575 2.87376,0.320624 28.41025,2.12441 16.90026,11.328179 0,0 -1.44734,4.107795 3.96049,1.800812 5.40784,-2.306984 6.40515,-7.252981 -1.16582,-11.028046 -4.25866,-2.123474 -9.57502,-2.697667 -13.62605,-2.69352 z m -13.57643,2.23947 c -0.36324,4.93e-4 -0.72464,2.17e-4 -1.08314,0.0077 -11.47174,0.237279 -13.7666,1.662287 -13.7666,1.662287 0,0 16.81898,-0.873939 18.61179,2.016293 -1.92102,0.300815 -13.76661,0.123132 -13.76661,0.123132 0,0 10.64853,0.493158 12.36101,2.254863 -9.01306,-1.300305 -15.67657,0.230873 -15.67657,0.230873 17.84495,-1.423652 26.22348,2.876498 26.76426,5.225427 0,0 13.64391,-5.222277 12.36927,-6.764582 -1.23481,-1.494141 -14.55279,-4.768477 -25.81341,-4.756019 z m -53.60293,14.00631 c 39.00395,11.626608 83.57721,2.874786 84.94292,-0.624853 -2.81678,1.536427 -57.66565,8.692292 -84.94292,0.624853 z"
         id="path3822"
         inkscape:connector-curvature="0" />
      <rect
         style="color:#000000;fill:none;stroke:none;stroke-width:2.70000005;marker:none;visibility:visible;display:inline;overflow:visible;enable-background:accumulate"
         id="rect3818"
         width="110.31983"
         height="27.579958"
         x="-375.97815"
         y="-87.528389" />
      <path
         id="path3828"
         transform="matrix(0.26458337,0,0,0.26458337,-188.19264,-95.912643)"
         d="m -409.78125,49.28125 c -9.8976,-0.02797 -19.95247,0.962707 -29.4375,3.28125 30.99926,-5.073055 75.62083,4.743312 88.90625,11.71875 -10.03857,-8.204072 -34.17487,-14.924334 -59.46875,-15 z m 57.75,9 c 31.20026,12.669923 18.75,34.25 18.75,34.25 0,0 9.44287,-6.176435 3.0625,-19.53125 -6.38041,-13.354811 -21.8125,-14.71875 -21.8125,-14.71875 z m -35.8125,2.15625 c -0.95357,0.02117 -1.86065,0.07216 -2.71875,0.15625 20.05674,2.045839 31.171,11.891008 25.65625,8.53125 -13.24819,-8.07118 -38.5,-8 -38.5,-8 0,0 20.64019,3.043708 28.59375,13.375 -12.53931,-2.965248 -28.5981,-5.367863 -47.28125,-7.03125 -7.77199,-1.967152 -21.34764,-4.580998 -38.40625,-4.34375 -2.79646,0.03889 -5.66189,0.166049 -8.625,0.375 16.04838,0.471257 29.21671,1.892174 38.59375,3.25 -16.92908,-1.248594 -35.74193,-1.883897 -55.90625,-1.78125 45.03854,4.079969 85.0625,10.376004 85.0625,23.625 0,1.199376 -0.41304,2.351328 -1.1875,3.4375 -3.69169,-5.062994 -9.9375,-6.09375 -9.9375,-6.09375 0,0 4.55173,1.508916 4.5625,7.1875 -7.89449,-6.114341 -30.49378,-10.515635 -59.21875,-10.34375 19.80208,2.408107 37.375,6.149085 37.375,13.9375 0,3.40517 -4.17286,6.04211 -10.59375,8.125 -31.95386,4.85857 -78.33718,6.5625 -118.90625,6.5625 -68.88778,0 -124.96521,-8.41744 -127.03125,-20.75 6.00038,19.31416 130.91742,15.20703 144.21875,11.375 0,0 -142.78721,7.97568 -144.0625,-13.25 0.97353,-3.230127 5.82921,-6.288289 13.75,-9.0625 9.36805,-3.281132 -19.0625,3.228916 -19.0625,11.0625 0,0.589943 0.12593,1.196973 0.375,1.78125 1.75359,14.36169 83.14991,28.9375 184.625,28.9375 87.1331,0 161.04633,-9.40201 181.34375,-21.125 9.60272,-4.583368 13.08254,-9.096637 12.65625,-13.6875 -0.28044,4.15926 -6.91658,7.728119 -12.65625,10.8125 -20.29742,11.72299 -94.21065,22.71875 -181.34375,22.71875 -62.22991,0 -116.86444,-5.51292 -150.25,-13.0625 0.0158,-0.0144 0.0153,-0.0486 0.0312,-0.0625 31.33812,6.68805 81.03882,11.25 137.40625,11.25 81.2548,0 150.1969,-9.40201 169.125,-21.125 14.02265,-7.177186 14.06179,-14.20067 8,-21.59375 -7.239,-8.82885 -31.38369,-15.49795 -45.6875,-15.1875 z m -79.3125,22.34375 c -0.0741,-0.01058 -0.14467,-0.02445 -0.21875,-0.03125 l 0,0.03125 c 0.0741,-4.91e-4 0.14467,4.57e-4 0.21875,0 z m 62.5,-20.28125 c -1.61429,-0.0092 -3.28284,0.04237 -5.03125,0.21875 14.74155,0.619272 24.0625,3.875 24.0625,3.875 0,0 -7.73125,-4.029489 -19.03125,-4.09375 z m -52.8125,11.40625 c -1.90696,0.03794 -3.8544,0.17116 -5.875,0.375 22.71526,0.95424 37.09375,5.9375 37.09375,5.9375 0,0 -12.78485,-6.679267 -31.21875,-6.3125 z"
         style="color:#000000;fill:#00ffff;fill-opacity:1;fill-rule:nonzero;stroke:none;stroke-width:2;marker:none;visibility:visible;display:inline;overflow:visible;enable-background:accumulate"
         inkscape:connector-curvature="0" />
      <path
         sodipodi:nodetypes="ccc"
         inkscape:connector-curvature="0"
         id="path3840"
         d="m -300.60233,-81.544353 c 8.37185,0.258805 13.66868,1.614574 13.66868,1.614574 0,0 -5.72515,-2.204281 -13.66868,-1.614574 z"
         style="color:#000000;fill:#00ffff;fill-opacity:1;fill-rule:nonzero;stroke:none;stroke-width:2;marker:none;visibility:visible;display:inline;overflow:visible;enable-background:accumulate" />
      <path
         sodipodi:nodetypes="csscsc"
         transform="matrix(0.26458337,0,0,0.26458337,-188.19264,-95.912643)"
         inkscape:connector-curvature="0"
         id="path3896"
         d="m -498.75392,114.70831 c 0,0 68.66454,-3.06315 101.62192,-13.54959 35.48701,-11.291323 41.29398,-17.09829 37.74528,-24.518303 -3.54871,-7.420013 -28.85257,-15.635086 -28.85257,-15.635086 0,0 37.12398,5.096571 41.35605,18.294239 10.32799,32.20766 -151.35838,38.1141 -151.87068,35.40874 z"
         style="color:#000000;fill:#ffffff;fill-opacity:1;fill-rule:nonzero;stroke:none;stroke-width:5;marker:none;visibility:visible;display:inline;overflow:visible;enable-background:accumulate" />
      <path
         sodipodi:nodetypes="cscsc"
         transform="matrix(0.26458337,0,0,0.26458337,-188.19264,-95.912643)"
         inkscape:connector-curvature="0"
         id="path3898"
         d="m -426.81206,69.220404 c 43.22964,0.967828 44.52008,26.776569 21.61482,33.551366 -22.90525,6.77479 -37.10006,8.38784 -37.10006,8.38784 0,0 36.13223,-1e-5 61.94097,-11.291327 25.80875,-11.291323 -9.17097,-31.93356 -46.45573,-30.647879 z"
         style="color:#000000;fill:#ffffff;fill-opacity:1;fill-rule:nonzero;stroke:none;stroke-width:5;marker:none;visibility:visible;display:inline;overflow:visible;enable-background:accumulate" />
      <path
         sodipodi:nodetypes="cscsc"
         transform="matrix(0.26458337,0,0,0.26458337,-188.19264,-95.912643)"
         inkscape:connector-curvature="0"
         id="path3900"
         d="m -430.03815,88.899569 c 0,0 10.00089,0 10.00089,8.710451 0,8.71045 -47.74618,15.80786 -47.74618,15.80786 0,0 36.66647,-3.07179 44.19748,-4.51654 22.55729,-4.3274 8.57794,-20.967442 -6.45219,-20.001771 z"
         style="color:#000000;fill:#ffffff;fill-opacity:1;fill-rule:nonzero;stroke:none;stroke-width:5;marker:none;visibility:visible;display:inline;overflow:visible;enable-background:accumulate" />
      <path
         transform="matrix(0.26458337,0,0,0.26458337,-188.19264,-95.912643)"
         inkscape:connector-curvature="0"
         id="path3902"
         d="m -419.39204,105.99786 c 17.09829,-3.5487 14.51741,-11.936542 14.51741,-11.936542 0,0 3.5487,2.903483 1.93566,6.774792 -1.61305,3.87131 -7.09741,6.12958 -9.03306,6.12958 -1.93566,0 -7.42001,-0.96783 -7.42001,-0.96783 z"
         style="color:#000000;fill:#ffffff;fill-opacity:1;fill-rule:nonzero;stroke:none;stroke-width:5;marker:none;visibility:visible;display:inline;overflow:visible;enable-background:accumulate" />
      <path
         transform="matrix(0.26458337,0,0,0.26458337,-188.19264,-95.912643)"
         inkscape:connector-curvature="0"
         id="path3904"
         d="m -383.90502,99.545675 c 15.16263,-10.000887 10.6461,-18.388728 10.6461,-18.388728 0,0 6.12958,3.548702 5.16175,9.678278 -0.96783,6.129576 -15.80785,8.71045 -15.80785,8.71045 z"
         style="color:#000000;fill:#ffffff;fill-opacity:1;fill-rule:nonzero;stroke:none;stroke-width:5;marker:none;visibility:visible;display:inline;overflow:visible;enable-background:accumulate" />
      <path
         transform="matrix(0.26458337,0,0,0.26458337,-188.19264,-95.912643)"
         inkscape:connector-curvature="0"
         id="path3906"
         d="m -379.3885,96.964801 c 20.32439,-14.517417 9.35567,-24.518304 9.35567,-24.518304 0,0 11.29133,4.19392 8.71045,14.840026 -2.58087,10.646106 -18.06612,9.678278 -18.06612,9.678278 z"
         style="color:#000000;fill:#ffffff;fill-opacity:1;fill-rule:nonzero;stroke:none;stroke-width:5;marker:none;visibility:visible;display:inline;overflow:visible;enable-background:accumulate" />
    </g>
    <g
       id="g4034"
       transform="translate(26.556889,50.699498)">
      <rect
         style="color:#000000;fill:none;stroke:none;stroke-width:2.70000005;marker:none;visibility:visible;display:inline;overflow:visible;enable-background:accumulate"
         id="rect17953"
         width="110.31983"
         height="27.579958"
         x="-186.26123"
         y="-153.85493" />
      <g
         id="g4026">
        <path
           sodipodi:nodetypes="scccccccsccccsssccccccccssssscssccccsccssccccsssccccccsssccccccccccccccccccccccccccsscsscccccscssccccccccccccccsscccccccccssccccsscccccc"
           inkscape:connector-curvature="0"
           id="path4012"
           transform="matrix(0.26458337,0,0,0.26458337,-188.19264,-95.912643)"
           d="m 221.8125,-210.3125 c -7.04723,-0.0211 -14.71064,0.0318 -23,0.21875 -0.54554,-0.0302 -1.2507,0.005 -2.0625,0.0312 -5.68244,0.19162 -16.75,1.5625 -16.75,1.5625 0,0 3.79188,-0.23093 10.3125,-0.40625 -2.25201,0.26176 -3.78125,0.53125 -3.78125,0.53125 0,0 3.65373,-0.33934 10.0625,-0.65625 20.67334,-0.35529 57.9668,-0.031 96.1875,4.96875 -1.90075,-1.40855 -21.63816,-6.10219 -70.96875,-6.25 z m 67.03125,1.6875 c 3.56983,0.30825 6.94486,0.68825 10.15625,1.125 0.01,0.001 0.0212,-0.001 0.0312,0 1.05971,0.14429 2.10399,0.31283 3.125,0.46875 2.06176,0.31493 4.06384,0.64484 5.96875,1 3.80982,0.71032 7.30875,1.49914 10.5,2.3125 7.97813,2.03341 14.04012,4.26079 18.28125,6.09375 1.69645,0.73318 3.09958,1.40275 4.21875,1.96875 2.23998,1.1318 3.34375,1.84375 3.34375,1.84375 0,0 -0.17998,-0.19071 -0.5625,-0.5625 -0.19587,-0.19145 -0.39763,-0.41309 -0.71875,-0.6875 -0.005,-0.005 -0.0259,0.005 -0.0312,0 -0.29862,-0.25549 -0.64426,-0.55995 -1.0625,-0.875 -0.006,-0.005 -0.0252,0.005 -0.0312,0 -0.42792,-0.32161 -0.90548,-0.66061 -1.46875,-1.03125 -1.69122,-1.11175 -4.01108,-2.4228 -7.125,-3.75 -3.11392,-1.3272 -7.0324,-2.67105 -11.875,-3.875 -2.4213,-0.60198 -5.05791,-1.17984 -7.96875,-1.6875 -1.94056,-0.33844 -4.0152,-0.65666 -6.1875,-0.9375 -4.3446,-0.56168 -9.16045,-0.99399 -14.5,-1.25 -1.33489,-0.064 -2.69314,-0.11527 -4.09375,-0.15625 z m -85,3.78125 c -10.89719,0.0678 -22.57774,0.37141 -35.0625,0.9375 -13.42851,0.60888 -27.8748,1.26916 -43.28125,2.65625 30.21035,-2.37014 61.05639,-1.50132 88.65625,1 0.10332,0.009 0.20927,0.0218 0.3125,0.0312 1.29738,0.16042 2.4881,0.32008 3.5625,0.5 -35.85809,-0.71069 -82.46221,2.49846 -104.40625,5.03125 -1.61587,0.1865 -3.10339,0.35386 -4.4375,0.53125 -1.31347,0.16911 -2.4931,0.33858 -3.5,0.5 34.31281,-0.82885 55.60229,0.62345 79.625,0.8125 43.61472,0.34318 120.59704,4.18993 121.84375,19.84375 0.55404,6.95709 -4.03237,15.73982 -32,18.625 1.01986,0.007 2.01815,0.0107 3.03125,0 0.0633,4.4e-4 0.12432,-3e-4 0.1875,0 0.0209,-2.4e-4 0.0416,2.5e-4 0.0625,0 1.2104,0.005 2.40461,-0.0129 3.59375,-0.0312 1.28026,-0.0198 2.52881,-0.0771 3.78125,-0.125 7.65385,-0.29305 14.78426,-1.08288 21.15625,-2.3125 1.05939,-0.20443 2.10777,-0.39788 3.125,-0.625 0.1279,-0.0286 0.24778,-0.0648 0.375,-0.0937 0.69963,-0.15907 1.38387,-0.33052 2.0625,-0.5 0.44797,-0.11181 0.87393,-0.22751 1.3125,-0.34375 0.35475,-0.0939 0.68273,-0.18451 1.03125,-0.28125 0.71907,-0.19964 1.43316,-0.41354 2.125,-0.625 0.0517,-0.0158 0.10468,-0.0154 0.15625,-0.0312 0.98249,-0.30235 1.91871,-0.61222 2.84375,-0.9375 0.96486,-0.33929 1.91286,-0.69956 2.8125,-1.0625 0.38822,-0.15662 0.7513,-0.30957 1.125,-0.46875 10.4317,-3.94848 16.97465,-9.16732 16.9375,-14.84375 0,-8.74695 -7.2445,-19.18002 -50.40625,-24.4375 -0.12392,-0.0153 -0.24921,-0.0458 -0.375,-0.0625 -0.22715,-0.0274 -0.45837,-0.0354 -0.6875,-0.0625 -0.70185,-0.0839 -1.43559,-0.169 -2.15625,-0.25 -0.0811,-0.009 -0.16865,-0.0223 -0.25,-0.0312 -3.1015,-0.34607 -6.3657,-0.64601 -9.84375,-0.9375 -0.22348,-0.0187 -0.46249,-0.044 -0.6875,-0.0625 -1.55074,-0.12733 -3.14955,-0.25852 -4.78125,-0.375 0.87328,0.0927 1.74164,0.19772 2.625,0.3125 0.0632,0.008 0.12431,0.023 0.1875,0.0312 0.82129,0.10804 1.6427,0.21822 2.46875,0.34375 0.12547,0.019 0.24947,0.0431 0.375,0.0625 0.76527,0.11857 1.54653,0.24275 2.3125,0.375 0.17774,0.0306 0.35357,0.0624 0.53125,0.0937 0.94936,0.16743 1.89916,0.34513 2.84375,0.53125 0.0848,0.0167 0.16529,0.0457 0.25,0.0625 1.34978,0.26904 2.70559,0.54198 4.03125,0.84375 0.0927,0.0211 0.18868,0.0412 0.28125,0.0625 0.3436,0.0788 0.69001,0.16933 1.03125,0.25 1.22493,0.29025 2.43875,0.56322 3.625,0.875 0.14464,0.038 0.29354,0.0867 0.4375,0.125 1.33499,0.35427 2.63986,0.71943 3.90625,1.09375 0.30611,0.0907 0.63607,0.18964 0.9375,0.28125 0.0412,0.0125 0.0838,0.0187 0.125,0.0312 1.50475,0.45896 2.94545,0.96378 4.3125,1.4375 2.10854,0.73067 4.03602,1.46009 5.71875,2.1875 0.56091,0.24247 1.08898,0.48009 1.59375,0.71875 -0.80857,-0.36757 -1.7282,-0.73017 -2.6875,-1.09375 -0.81303,-0.30815 -1.67248,-0.60256 -2.59375,-0.90625 -0.16667,-0.0549 -0.32979,-0.13273 -0.5,-0.1875 -0.18525,-0.0593 -0.40435,-0.12851 -0.59375,-0.1875 -0.9125,-0.28586 -1.86529,-0.56367 -2.875,-0.84375 -0.0422,-0.0117 -0.0826,-0.0195 -0.125,-0.0312 -0.25823,-0.0706 -0.54799,-0.14868 -0.8125,-0.21875 -17.69732,-4.72922 -49.48182,-8.50337 -95.25,-8.21875 z m -1.71875,15.65625 c -2.74335,0.006 -5.45787,0.0251 -8.125,0.0625 -2.8793,0.0404 -5.68852,0.11494 -8.4375,0.1875 -2.34385,0.0619 -4.65488,0.13692 -6.875,0.21875 -1.55549,0.0567 -3.02183,0.12235 -4.5,0.1875 -0.22003,0.01 -0.43806,0.0214 -0.65625,0.0312 -0.6107,0.0218 -1.23184,0.0343 -1.8125,0.0625 -0.0814,0.007 -0.1382,0.0242 -0.21875,0.0312 -0.49655,0.0243 -1.04491,0.0373 -1.53125,0.0625 -8.99874,0.46672 -15.15323,0.76303 -16.09375,1.15625 -0.0565,0.0235 -0.0752,0.0695 -0.0937,0.0937 -0.0256,0.0334 -0.0178,0.0588 0.0312,0.0937 3.6703,-0.17101 7.20487,-0.31312 10.6875,-0.4375 0.01,-0.002 0.0218,0.003 0.0312,0 7.55942,-0.26972 14.64649,-0.43519 21.34375,-0.5 2.43347,-0.0234 4.80781,-0.0335 7.125,-0.0312 0.46018,2.7e-4 0.9495,-0.001 1.40625,0 0.41951,0.001 0.80273,-0.002 1.21875,0 2.22964,0.0112 4.40328,0.0279 6.53125,0.0625 0.53968,0.009 1.12319,0.021 1.65625,0.0312 0.79698,0.0157 1.62495,0.0435 2.40625,0.0625 0.96471,0.023 1.90196,0.0661 2.84375,0.0937 1.08685,0.0328 2.19458,0.0546 3.25,0.0937 0.0804,0.003 0.16979,-0.003 0.25,0 1.88906,0.0712 3.74209,0.1588 5.53125,0.25 0.0405,0.002 0.0846,-0.002 0.125,0 1.8246,0.0936 3.5904,0.199 5.3125,0.3125 0.0615,0.004 0.12614,-0.004 0.1875,0 1.69461,0.11264 3.34091,0.24392 4.9375,0.375 34.7945,2.85673 46.69088,9.44983 45.19995,16.90625 -1.06124,5.30749 -4.42047,10.34064 -24.57495,13.78125 0.46327,0 0.99224,-0.0242 1.5,-0.0312 -0.023,0.005 -0.0391,0.0257 -0.0625,0.0312 5.41144,0 13.36727,-0.4604 20.21875,-2.3125 10.43547,-2.53595 18.99337,-7.69045 14.875,-18 -3.51615,-8.80206 -36.14424,-12.06613 -68.90625,-12.71875 -0.28163,-0.006 -0.56212,-0.026 -0.84375,-0.0312 -0.31308,-0.006 -0.62437,0.006 -0.9375,0 -1.61093,-0.0274 -3.20697,-0.0785 -4.8125,-0.0937 -0.37657,-0.004 -0.74896,0.003 -1.125,0 -2.29017,-0.02 -4.58008,-0.035 -6.84375,-0.0312 -0.0721,-9e-4 -0.14673,8.5e-4 -0.21875,0 z"
           style="color:#000000;fill:#00ccff;fill-opacity:1;fill-rule:nonzero;stroke:none;stroke-width:2.700073;marker:none;visibility:visible;display:inline;overflow:visible;filter:url(#filter4022);enable-background:accumulate" />
        <path
           style="opacity:0.25;color:#000000;fill:#00ffff;fill-opacity:1;fill-rule:nonzero;stroke:none;stroke-width:2.70000005;marker:none;visibility:visible;display:inline;overflow:visible;enable-background:accumulate"
           d="m -124.36626,-152.39822 c -6.88242,-0.1118 -15.06423,0.0261 -28.88411,0.83783 11.13537,0.40449 18.8997,0.37712 23.80788,0.75794 -14.15219,-0.65336 -28.0707,1.46504 -29.26954,1.7694 2.19786,0.0666 22.84612,-1.79916 33.56902,0.13229 0.49299,0.0888 0.69924,0.12587 1.14928,0.20671 -7.50117,-0.54447 -15.73444,0.81855 -15.73444,0.81855 -9.51311,1.13027 -14.12793,3.0197 -14.12793,3.0197 0,0 25.8045,-2.63696 35.12923,0.65967 9.32473,3.29662 0.57051,6.30865 0.57051,6.30865 0,0 5.64499,-10e-4 7.15202,-4.05143 0.9303,-2.50019 -0.5451,-4.06329 -3.6711,-5.11803 0.4009,0.0643 0.58705,0.0909 0.58705,0.0909 l -1.52962,-1.05833 c 3.87427,1.18342 10.2262,2.41628 12.18737,2.99309 2.26446,0.66602 2.14664,5.1121 3.26367,4.85665 4.514055,-1.03233 8.345666,-7.39192 -4.59486,-10.2558 -6.48512,-1.43523 -11.27043,-1.83246 -19.60443,-1.96784 z"
           id="path18047"
           inkscape:connector-curvature="0"
           sodipodi:nodetypes="scccscccscscccssss" />
        <path
           style="color:#000000;fill:#00ffff;fill-opacity:1;fill-rule:nonzero;stroke:none;stroke-width:2.700073;marker:none;visibility:visible;display:inline;overflow:visible;enable-background:accumulate"
           d="m 221.8125,-210.3125 c -7.04723,-0.0211 -14.71064,0.0318 -23,0.21875 -0.54554,-0.0302 -1.2507,0.005 -2.0625,0.0312 -5.68244,0.19162 -16.75,1.5625 -16.75,1.5625 0,0 3.79188,-0.23093 10.3125,-0.40625 -2.25201,0.26176 -3.78125,0.53125 -3.78125,0.53125 0,0 3.65373,-0.33934 10.0625,-0.65625 20.67334,-0.35529 57.9668,-0.031 96.1875,4.96875 -1.90075,-1.40855 -21.63816,-6.10219 -70.96875,-6.25 z m 67.03125,1.6875 c 3.56983,0.30825 6.94486,0.68825 10.15625,1.125 0.01,0.001 0.0212,-0.001 0.0312,0 1.05971,0.14429 2.10399,0.31283 3.125,0.46875 2.06176,0.31493 4.06384,0.64484 5.96875,1 3.80982,0.71032 7.30875,1.49914 10.5,2.3125 7.97813,2.03341 14.04012,4.26079 18.28125,6.09375 1.69645,0.73318 3.09958,1.40275 4.21875,1.96875 2.23998,1.1318 3.34375,1.84375 3.34375,1.84375 0,0 -0.17998,-0.19071 -0.5625,-0.5625 -0.19587,-0.19145 -0.39763,-0.41309 -0.71875,-0.6875 -0.005,-0.005 -0.0259,0.005 -0.0312,0 -0.29862,-0.25549 -0.64426,-0.55995 -1.0625,-0.875 -0.006,-0.005 -0.0252,0.005 -0.0312,0 -0.42792,-0.32161 -0.90548,-0.66061 -1.46875,-1.03125 -1.69122,-1.11175 -4.01108,-2.4228 -7.125,-3.75 -3.11392,-1.3272 -7.0324,-2.67105 -11.875,-3.875 -2.4213,-0.60198 -5.05791,-1.17984 -7.96875,-1.6875 -1.94056,-0.33844 -4.0152,-0.65666 -6.1875,-0.9375 -4.3446,-0.56168 -9.16045,-0.99399 -14.5,-1.25 -1.33489,-0.064 -2.69314,-0.11527 -4.09375,-0.15625 z m -85,3.78125 c -10.89719,0.0678 -22.57774,0.37141 -35.0625,0.9375 -13.42851,0.60888 -27.8748,1.26916 -43.28125,2.65625 30.21035,-2.37014 61.05639,-1.50132 88.65625,1 0.10332,0.009 0.20927,0.0218 0.3125,0.0312 1.29738,0.16042 2.4881,0.32008 3.5625,0.5 -35.85809,-0.71069 -82.46221,2.49846 -104.40625,5.03125 -1.61587,0.1865 -3.10339,0.35386 -4.4375,0.53125 -1.31347,0.16911 -2.4931,0.33858 -3.5,0.5 34.31281,-0.82885 55.60229,0.62345 79.625,0.8125 43.61472,0.34318 120.59704,4.18993 121.84375,19.84375 0.55404,6.95709 -4.03237,15.73982 -32,18.625 1.01986,0.007 2.01815,0.0107 3.03125,0 0.0633,4.4e-4 0.12432,-3e-4 0.1875,0 0.0209,-2.4e-4 0.0416,2.5e-4 0.0625,0 1.2104,0.005 2.40461,-0.0129 3.59375,-0.0312 1.28026,-0.0198 2.52881,-0.0771 3.78125,-0.125 7.65385,-0.29305 14.78426,-1.08288 21.15625,-2.3125 1.05939,-0.20443 2.10777,-0.39788 3.125,-0.625 0.1279,-0.0286 0.24778,-0.0648 0.375,-0.0937 0.69963,-0.15907 1.38387,-0.33052 2.0625,-0.5 0.44797,-0.11181 0.87393,-0.22751 1.3125,-0.34375 0.35475,-0.0939 0.68273,-0.18451 1.03125,-0.28125 0.71907,-0.19964 1.43316,-0.41354 2.125,-0.625 0.0517,-0.0158 0.10468,-0.0154 0.15625,-0.0312 0.98249,-0.30235 1.91871,-0.61222 2.84375,-0.9375 0.96486,-0.33929 1.91286,-0.69956 2.8125,-1.0625 0.38822,-0.15662 0.7513,-0.30957 1.125,-0.46875 10.4317,-3.94848 16.97465,-9.16732 16.9375,-14.84375 0,-8.74695 -7.2445,-19.18002 -50.40625,-24.4375 -0.12392,-0.0153 -0.24921,-0.0458 -0.375,-0.0625 -0.22715,-0.0274 -0.45837,-0.0354 -0.6875,-0.0625 -0.70185,-0.0839 -1.43559,-0.169 -2.15625,-0.25 -0.0811,-0.009 -0.16865,-0.0223 -0.25,-0.0312 -3.1015,-0.34607 -6.3657,-0.64601 -9.84375,-0.9375 -0.22348,-0.0187 -0.46249,-0.044 -0.6875,-0.0625 -1.55074,-0.12733 -3.14955,-0.25852 -4.78125,-0.375 0.87328,0.0927 1.74164,0.19772 2.625,0.3125 0.0632,0.008 0.12431,0.023 0.1875,0.0312 0.82129,0.10804 1.6427,0.21822 2.46875,0.34375 0.12547,0.019 0.24947,0.0431 0.375,0.0625 0.76527,0.11857 1.54653,0.24275 2.3125,0.375 0.17774,0.0306 0.35357,0.0624 0.53125,0.0937 0.94936,0.16743 1.89916,0.34513 2.84375,0.53125 0.0848,0.0167 0.16529,0.0457 0.25,0.0625 1.34978,0.26904 2.70559,0.54198 4.03125,0.84375 0.0927,0.0211 0.18868,0.0412 0.28125,0.0625 0.3436,0.0788 0.69001,0.16933 1.03125,0.25 1.22493,0.29025 2.43875,0.56322 3.625,0.875 0.14464,0.038 0.29354,0.0867 0.4375,0.125 1.33499,0.35427 2.63986,0.71943 3.90625,1.09375 0.30611,0.0907 0.63607,0.18964 0.9375,0.28125 0.0412,0.0125 0.0838,0.0187 0.125,0.0312 1.50475,0.45896 2.94545,0.96378 4.3125,1.4375 2.10854,0.73067 4.03602,1.46009 5.71875,2.1875 0.56091,0.24247 1.08898,0.48009 1.59375,0.71875 -0.80857,-0.36757 -1.7282,-0.73017 -2.6875,-1.09375 -0.81303,-0.30815 -1.67248,-0.60256 -2.59375,-0.90625 -0.16667,-0.0549 -0.32979,-0.13273 -0.5,-0.1875 -0.18525,-0.0593 -0.40435,-0.12851 -0.59375,-0.1875 -0.9125,-0.28586 -1.86529,-0.56367 -2.875,-0.84375 -0.0422,-0.0117 -0.0826,-0.0195 -0.125,-0.0312 -0.25823,-0.0706 -0.54799,-0.14868 -0.8125,-0.21875 -17.69732,-4.72922 -49.48182,-8.50337 -95.25,-8.21875 z m -1.71875,15.65625 c -2.74335,0.006 -5.45787,0.0251 -8.125,0.0625 -2.8793,0.0404 -5.68852,0.11494 -8.4375,0.1875 -2.34385,0.0619 -4.65488,0.13692 -6.875,0.21875 -1.55549,0.0567 -3.02183,0.12235 -4.5,0.1875 -0.22003,0.01 -0.43806,0.0214 -0.65625,0.0312 -0.6107,0.0218 -1.23184,0.0343 -1.8125,0.0625 -0.0814,0.007 -0.1382,0.0242 -0.21875,0.0312 -0.49655,0.0243 -1.04491,0.0373 -1.53125,0.0625 -8.99874,0.46672 -15.15323,0.76303 -16.09375,1.15625 -0.0565,0.0235 -0.0752,0.0695 -0.0937,0.0937 -0.0256,0.0334 -0.0178,0.0588 0.0312,0.0937 3.6703,-0.17101 7.20487,-0.31312 10.6875,-0.4375 0.01,-0.002 0.0218,0.003 0.0312,0 7.55942,-0.26972 14.64649,-0.43519 21.34375,-0.5 2.43347,-0.0234 4.80781,-0.0335 7.125,-0.0312 0.46018,2.7e-4 0.9495,-0.001 1.40625,0 0.41951,0.001 0.80273,-0.002 1.21875,0 2.22964,0.0112 4.40328,0.0279 6.53125,0.0625 0.53968,0.009 1.12319,0.021 1.65625,0.0312 0.79698,0.0157 1.62495,0.0435 2.40625,0.0625 0.96471,0.023 1.90196,0.0661 2.84375,0.0937 1.08685,0.0328 2.19458,0.0546 3.25,0.0937 0.0804,0.003 0.16979,-0.003 0.25,0 1.88906,0.0712 3.74209,0.1588 5.53125,0.25 0.0405,0.002 0.0846,-0.002 0.125,0 1.8246,0.0936 3.5904,0.199 5.3125,0.3125 0.0615,0.004 0.12614,-0.004 0.1875,0 1.69461,0.11264 3.34091,0.24392 4.9375,0.375 34.7945,2.85673 46.69088,9.44983 45.19995,16.90625 -1.06124,5.30749 -4.42047,10.34064 -24.57495,13.78125 0.46327,0 0.99224,-0.0242 1.5,-0.0312 -0.023,0.005 -0.0391,0.0257 -0.0625,0.0312 5.41144,0 13.36727,-0.4604 20.21875,-2.3125 10.43547,-2.53595 18.99337,-7.69045 14.875,-18 -3.51615,-8.80206 -36.14424,-12.06613 -68.90625,-12.71875 -0.28163,-0.006 -0.56212,-0.026 -0.84375,-0.0312 -0.31308,-0.006 -0.62437,0.006 -0.9375,0 -1.61093,-0.0274 -3.20697,-0.0785 -4.8125,-0.0937 -0.37657,-0.004 -0.74896,0.003 -1.125,0 -2.29017,-0.02 -4.58008,-0.035 -6.84375,-0.0312 -0.0721,-9e-4 -0.14673,8.5e-4 -0.21875,0 z"
           transform="matrix(0.26458337,0,0,0.26458337,-188.19264,-95.912643)"
           id="path17881"
           inkscape:connector-curvature="0"
           sodipodi:nodetypes="scccccccsccccsssccccccccssssscssccccsccssccccsssccccccsssccccccccccccccccccccccccccsscsscccccscssccccccccccccccsscccccccccssccccsscccccc" />
        <path
           style="color:#000000;fill:#ffffff;fill-opacity:1;fill-rule:nonzero;stroke:none;stroke-width:5;marker:none;visibility:visible;display:inline;overflow:visible;enable-background:accumulate"
           d="m 210.09375,-202.84375 c 0.66155,0 34.86062,3.22965 62.59375,7.53125 -33.86771,-2.76039 -76.81205,-2.95837 -114.15625,-0.46875 59.99535,-0.22812 122.7319,-1.81529 148.28125,11.1875 25.54935,13.0028 -5.46875,25.78125 -5.46875,25.78125 0,0 31.48749,-4.57227 31.03125,-20.3125 -0.0538,-1.85604 -1.49107,-3.57486 -4.0625,-5.15625 -6.75013,-4.84161 -32.21643,-17.10174 -118.21875,-18.5625 z"
           transform="matrix(0.26458337,0,0,0.26458337,-188.19264,-95.912643)"
           id="path4003"
           inkscape:connector-curvature="0" />
        <path
           style="color:#000000;fill:#ffffff;fill-opacity:1;fill-rule:nonzero;stroke:none;stroke-width:5;marker:none;visibility:visible;display:inline;overflow:visible;enable-background:accumulate"
           d="m 237.7002,-186.88601 c 0,0 26.16802,0.81006 37.63967,10.03725 10.49349,8.4404 -6.84357,16.88082 -6.84357,16.88082 0,0 14.59963,-3.19367 14.59963,-13.00279 0,-12.32056 -45.39573,-13.91528 -45.39573,-13.91528 z"
           id="path4008"
           inkscape:connector-curvature="0"
           transform="matrix(0.26458337,0,0,0.26458337,-188.19264,-95.912643)"
           sodipodi:nodetypes="cscsc" />
        <path
           style="color:#000000;fill:#ffffff;fill-opacity:1;fill-rule:nonzero;stroke:none;stroke-width:5;marker:none;visibility:visible;display:inline;overflow:visible;enable-background:accumulate"
           d="m 310.69835,-194.64206 c 21.67132,5.70298 19.16201,18.47765 19.16201,17.56518 0,-0.91248 -0.45624,-2.50931 1.59684,-1.36872 2.05307,1.1406 2.50931,4.10615 1.36871,6.61546 -1.1406,2.50931 -1.36871,2.73743 -1.36871,2.73743 0,0 6.15921,-1.59684 3.6499,-12.31844 -2.50931,-10.7216 -24.40875,-13.23091 -24.40875,-13.23091 z"
           id="path4010"
           inkscape:connector-curvature="0"
           transform="matrix(0.26458337,0,0,0.26458337,-188.19264,-95.912643)" />
      </g>
    </g>
    <g
       id="g4087"
       transform="translate(-3.259243,123.85163)">
      <path
         style="color:#000000;fill:#00ccff;fill-opacity:1;fill-rule:nonzero;stroke:none;stroke-width:2.70000005;marker:none;visibility:visible;display:inline;overflow:visible;filter:url(#filter4083);enable-background:accumulate"
         d="m 386.90625,-379.96875 c -0.93011,-0.0203 -1.88415,0.0568 -2.8125,0.0625 -2.16618,0.0111 -4.30649,0.0595 -6.4375,0.125 -6.39303,0.19659 -12.61169,0.61544 -18.46875,1.1875 12.04522,-0.78102 62.67913,-0.31952 93.25,12.5625 0.92383,0.40024 1.85565,0.79319 2.75,1.21875 -0.17516,-0.10424 -0.35448,-0.20638 -0.53125,-0.3125 -0.35595,-0.20795 -0.70178,-0.42226 -1.0625,-0.625 -0.008,-0.004 -0.0232,0.004 -0.0312,0 -0.59051,-0.32578 -1.18063,-0.66081 -1.78125,-0.96875 -18.0719,-9.5281 -41.60723,-12.94312 -63.96875,-13.1875 -0.30992,-0.0329 -0.59621,-0.0557 -0.90625,-0.0625 z m -48.8125,4.0625 c -10.8305,-0.0168 -22.23603,0.18385 -34.21875,0.65625 -23.23381,0.91597 -52.12978,3.32916 -58.03125,4.59375 4.42847,-0.20177 8.76296,-0.40087 13,-0.5625 131.34825,-5.01059 171.61767,9.0327 176.28125,26.4375 -9.93074,-11.4394 -67.13038,-23.51571 -134.28125,-19.125 0.40668,-0.0258 0.81265,-0.0381 1.21875,-0.0625 0.35834,-0.0141 0.69417,-0.0191 1.0625,-0.0312 35.77421,-1.18019 118.02723,6.68046 122.8125,29 -5.68562,-8.73536 -45.48759,-18.33096 -104.78125,-14.375 -0.20032,0.0131 -0.39299,0.0178 -0.59375,0.0312 -1.9346,0.12842 -3.86806,0.27647 -5.84375,0.4375 119.89009,7.87294 87.73011,33.22722 53.375,35.15625 -68.83412,6.39341 -150.84375,2.125 -150.84375,2.125 0,0 65.49003,9.54488 160.25,3.9375 89.10953,-5.27297 106.19338,-15.77596 109.46875,-17.5625 11.24148,-6.13172 11.9375,-11.90625 11.9375,-11.90625 -0.96073,1.96723 -3.5684,4.27909 -7.09375,6.53125 -0.0478,0.0305 -0.10811,0.032 -0.15625,0.0625 -5.59724,3.08128 -13.46707,5.39023 -21.5,7.09375 6.27768,-3.27783 10.5182,-7.18432 13.125,-12 10.04155,-18.55028 -40.49262,-40.27509 -145.1875,-40.4375 z m 113.125,0.25 c 0,0 1.90962,0.37948 4.96875,1.21875 0.0401,0.011 0.0532,0.0201 0.0937,0.0312 0.74133,0.20465 1.54016,0.42747 2.40625,0.6875 0.0572,0.0171 0.0985,0.0451 0.15625,0.0625 0.62499,0.18785 1.29303,0.37742 1.96875,0.59375 0.19262,0.0617 0.36587,0.12341 0.5625,0.1875 0.0626,0.0211 0.12109,0.0407 0.1875,0.0625 0.0759,0.0249 0.14224,0.0372 0.21875,0.0625 0.9511,0.31453 1.9397,0.65965 2.96875,1.03125 0.0964,0.0347 0.18429,0.0585 0.28125,0.0937 1.01976,0.37113 2.04863,0.78978 3.125,1.21875 0.87639,0.34927 1.78404,0.73606 2.6875,1.125 0.41621,0.17918 0.8295,0.34346 1.25,0.53125 0.0218,0.01 0.0406,0.0215 0.0625,0.0312 1.08636,0.48604 2.17754,0.98638 3.28125,1.53125 0.15704,0.0774 0.31154,0.14014 0.46875,0.21875 0.46759,0.23411 0.93796,0.47379 1.40625,0.71875 0.16463,0.086 0.33538,0.16266 0.5,0.25 0.456,0.24232 0.88861,0.4972 1.34375,0.75 0.17653,0.0979 0.35496,0.18179 0.53125,0.28125 0.44682,0.25246 0.89922,0.51847 1.34375,0.78125 0.17729,0.10468 0.35444,0.20617 0.53125,0.3125 0.43932,0.26448 0.87687,0.5377 1.3125,0.8125 0.18479,0.11641 0.37851,0.22547 0.5625,0.34375 0.51464,0.3313 1.02664,0.68092 1.53125,1.03125 0.0938,0.0639 0.18777,0.12306 0.28125,0.1875 0.41067,0.28806 0.81215,0.58027 1.21875,0.875 0.18816,0.13632 0.37581,0.26777 0.5625,0.40625 0.39808,0.29537 0.79673,0.60097 1.1875,0.90625 0.18715,0.14621 0.37719,0.289 0.5625,0.4375 0.3812,0.30547 0.75217,0.62224 1.125,0.9375 0.19447,0.16432 0.40174,0.333 0.59375,0.5 0.35141,0.30603 0.68865,0.6224 1.03125,0.9375 0.53338,0.49057 1.05276,0.98714 1.5625,1.5 0.49935,0.50239 0.99475,1.00713 1.46875,1.53125 0.01,0.0109 0.0214,0.0203 0.0312,0.0312 0.01,0.0109 0.0214,0.0203 0.0312,0.0312 0.0249,0.0276 0.0377,0.0661 0.0625,0.0937 0.41614,0.46836 0.8233,0.9543 1.21875,1.4375 0.0277,0.0339 0.0661,0.0598 0.0937,0.0937 0.17825,0.21938 0.35783,0.43328 0.53125,0.65625 -0.14363,-0.278 -0.31632,-0.54052 -0.46875,-0.8125 0.006,-0.0125 0.0258,-0.0183 0.0312,-0.0312 -0.13213,-0.23521 -0.29536,-0.45781 -0.4375,-0.6875 -0.0121,-0.0196 -0.0194,-0.0428 -0.0312,-0.0625 -0.0548,-0.0908 -0.10045,-0.19109 -0.15625,-0.28125 -0.0554,-0.0896 -0.13114,-0.16106 -0.1875,-0.25 -0.26255,-0.41422 -0.53017,-0.81908 -0.8125,-1.21875 -0.0657,-0.093 -0.12076,-0.18901 -0.1875,-0.28125 -0.17441,-0.24089 -0.34997,-0.48315 -0.53125,-0.71875 -0.25241,-0.328 -0.51615,-0.65087 -0.78125,-0.96875 -0.18524,-0.22214 -0.37135,-0.439 -0.5625,-0.65625 -0.27529,-0.31297 -0.55683,-0.63453 -0.84375,-0.9375 -0.19509,-0.20574 -0.39357,-0.42382 -0.59375,-0.625 -0.30772,-0.30956 -0.61842,-0.60734 -0.9375,-0.90625 -0.1954,-0.18308 -0.39434,-0.35211 -0.59375,-0.53125 -0.33112,-0.29744 -0.65851,-0.58828 -1,-0.875 -0.19739,-0.16569 -0.39312,-0.33785 -0.59375,-0.5 -0.35534,-0.28717 -0.72899,-0.56751 -1.09375,-0.84375 -0.57222,-0.43335 -1.15755,-0.84293 -1.75,-1.25 -0.19681,-0.13518 -0.39498,-0.27391 -0.59375,-0.40625 -0.40244,-0.26793 -0.80906,-0.52481 -1.21875,-0.78125 -0.49563,-0.31023 -0.99553,-0.61247 -1.5,-0.90625 -0.11701,-0.0681 -0.22632,-0.15148 -0.34375,-0.21875 -0.18723,-0.1073 -0.3743,-0.2074 -0.5625,-0.3125 -0.43447,-0.2426 -0.87373,-0.4877 -1.3125,-0.71875 -0.63478,-0.33418 -1.2668,-0.6585 -1.90625,-0.96875 -0.17858,-0.0866 -0.35239,-0.16517 -0.53125,-0.25 -0.45356,-0.21522 -0.92054,-0.42111 -1.375,-0.625 -0.17781,-0.0797 -0.35344,-0.17204 -0.53125,-0.25 -0.47428,-0.20826 -0.93297,-0.39742 -1.40625,-0.59375 -0.15747,-0.0653 -0.3115,-0.12348 -0.46875,-0.1875 -0.48074,-0.19575 -0.95982,-0.37867 -1.4375,-0.5625 -0.15017,-0.0578 -0.28773,-0.13087 -0.4375,-0.1875 -0.19851,-0.0751 -0.39604,-0.14567 -0.59375,-0.21875 -0.0847,-0.0313 -0.16553,-0.0644 -0.25,-0.0937 -0.34522,-0.12629 -0.6891,-0.22349 -1.03125,-0.34375 -1.11294,-0.39171 -2.18281,-0.76309 -3.25,-1.09375 -0.11797,-0.0365 -0.22648,-0.0579 -0.34375,-0.0937 -1.07625,-0.32916 -2.11922,-0.63501 -3.125,-0.90625 -0.0984,-0.0265 -0.18362,-0.0365 -0.28125,-0.0625 -0.50337,-0.13426 -0.95661,-0.22326 -1.4375,-0.34375 -0.3944,-0.0987 -0.77412,-0.21055 -1.15625,-0.3125 -0.1689,-0.0402 -0.33467,-0.0865 -0.5,-0.125 -0.9295,-0.21672 -1.7908,-0.39766 -2.59375,-0.5625 -0.0468,-0.01 -0.0787,-0.0218 -0.125,-0.0312 -0.9059,-0.18483 -1.49726,-0.28518 -2.1875,-0.40625 -0.55036,-0.0987 -0.98288,-0.18198 -1.40625,-0.25 -0.1038,-0.0167 -0.24822,-0.0476 -0.34375,-0.0625 -0.0194,-0.003 -0.0122,0.003 -0.0312,0 -0.10136,-0.0158 -0.0914,-0.0199 -0.15625,-0.0312 -0.31845,-0.0481 -0.36991,-0.0675 -0.5625,-0.0937 -0.18067,-0.0246 -0.39296,-0.0437 -0.53125,-0.0625 -0.0283,-0.003 -0.25,-0.0312 -0.25,-0.0312 z"
         transform="matrix(0.26458337,0,0,0.26458337,-188.19264,-95.912643)"
         id="path4081"
         inkscape:connector-curvature="0" />
      <rect
         y="-199.42711"
         x="-156.4451"
         height="27.579958"
         width="110.31983"
         id="rect17951"
         style="color:#000000;fill:none;stroke:none;stroke-width:2.70000005;marker:none;visibility:visible;display:inline;overflow:visible;enable-background:accumulate" />
      <path
         id="path18129"
         d="m -90.448625,-197.11592 c -6.719258,0.0552 -10.988475,1.05007 -10.988475,1.05007 0,0 7.634498,-0.18983 16.205728,0.28112 5.456423,0.2998 7.231692,2.6282 8.07806,4.73769 -3.239405,-0.96782 -7.986795,-1.7969 -14.204818,-1.90996 0,0 7.158421,1.60259 9.136393,1.88516 1.020017,0.14572 3.563163,1.33952 5.895248,2.53008 0.0132,0.0345 0.02778,0.0743 0.04134,0.10748 0.559096,1.36669 2.451089,2.96304 3.68763,3.90261 -2.004168,-1.35675 -6.709733,-4.1011 -13.956771,-5.68854 -9.889871,-2.16636 -20.7179,-2.54559 -24.39128,-1.13275 13.374863,0.56513 17.606876,-0.18971 31.923637,7.25124 l 1.413867,1.60403 c 0,0 5.937954,0.84839 7.821745,0.94258 1.883781,0.0942 8.853827,-2.26073 9.136394,-4.80384 0.282569,-2.54311 -1.034103,-6.6001 -15.445053,-9.42578 -5.404107,-1.05963 -10.322092,-1.3643 -14.353646,-1.33119 z"
         style="opacity:0.25;color:#000000;fill:#00ffff;fill-opacity:1;fill-rule:nonzero;stroke:none;stroke-width:2;marker:none;visibility:visible;display:inline;overflow:visible;enable-background:accumulate"
         inkscape:connector-curvature="0" />
      <path
         id="path17915"
         transform="matrix(0.26458337,0,0,0.26458337,-188.19264,-95.912643)"
         d="m 386.90625,-379.96875 c -0.93011,-0.0203 -1.88415,0.0568 -2.8125,0.0625 -2.16618,0.0111 -4.30649,0.0595 -6.4375,0.125 -6.39303,0.19659 -12.61169,0.61544 -18.46875,1.1875 12.04522,-0.78102 62.67913,-0.31952 93.25,12.5625 0.92383,0.40024 1.85565,0.79319 2.75,1.21875 -0.17516,-0.10424 -0.35448,-0.20638 -0.53125,-0.3125 -0.35595,-0.20795 -0.70178,-0.42226 -1.0625,-0.625 -0.008,-0.004 -0.0232,0.004 -0.0312,0 -0.59051,-0.32578 -1.18063,-0.66081 -1.78125,-0.96875 -18.0719,-9.5281 -41.60723,-12.94312 -63.96875,-13.1875 -0.30992,-0.0329 -0.59621,-0.0557 -0.90625,-0.0625 z m -48.8125,4.0625 c -10.8305,-0.0168 -22.23603,0.18385 -34.21875,0.65625 -23.23381,0.91597 -52.12978,3.32916 -58.03125,4.59375 4.42847,-0.20177 8.76296,-0.40087 13,-0.5625 131.34825,-5.01059 171.61767,9.0327 176.28125,26.4375 -9.93074,-11.4394 -67.13038,-23.51571 -134.28125,-19.125 0.40668,-0.0258 0.81265,-0.0381 1.21875,-0.0625 0.35834,-0.0141 0.69417,-0.0191 1.0625,-0.0312 35.77421,-1.18019 118.02723,6.68046 122.8125,29 -5.68562,-8.73536 -45.48759,-18.33096 -104.78125,-14.375 -0.20032,0.0131 -0.39299,0.0178 -0.59375,0.0312 -1.9346,0.12842 -3.86806,0.27647 -5.84375,0.4375 119.89009,7.87294 87.73011,33.22722 53.375,35.15625 -68.83412,6.39341 -150.84375,2.125 -150.84375,2.125 0,0 65.49003,9.54488 160.25,3.9375 89.10953,-5.27297 106.19338,-15.77596 109.46875,-17.5625 11.24148,-6.13172 11.9375,-11.90625 11.9375,-11.90625 -0.96073,1.96723 -3.5684,4.27909 -7.09375,6.53125 -0.0478,0.0305 -0.10811,0.032 -0.15625,0.0625 -5.59724,3.08128 -13.46707,5.39023 -21.5,7.09375 6.27768,-3.27783 10.5182,-7.18432 13.125,-12 10.04155,-18.55028 -40.49262,-40.27509 -145.1875,-40.4375 z m 113.125,0.25 c 0,0 1.90962,0.37948 4.96875,1.21875 0.0401,0.011 0.0532,0.0201 0.0937,0.0312 0.74133,0.20465 1.54016,0.42747 2.40625,0.6875 0.0572,0.0171 0.0985,0.0451 0.15625,0.0625 0.62499,0.18785 1.29303,0.37742 1.96875,0.59375 0.19262,0.0617 0.36587,0.12341 0.5625,0.1875 0.0626,0.0211 0.12109,0.0407 0.1875,0.0625 0.0759,0.0249 0.14224,0.0372 0.21875,0.0625 0.9511,0.31453 1.9397,0.65965 2.96875,1.03125 0.0964,0.0347 0.18429,0.0585 0.28125,0.0937 1.01976,0.37113 2.04863,0.78978 3.125,1.21875 0.87639,0.34927 1.78404,0.73606 2.6875,1.125 0.41621,0.17918 0.8295,0.34346 1.25,0.53125 0.0218,0.01 0.0406,0.0215 0.0625,0.0312 1.08636,0.48604 2.17754,0.98638 3.28125,1.53125 0.15704,0.0774 0.31154,0.14014 0.46875,0.21875 0.46759,0.23411 0.93796,0.47379 1.40625,0.71875 0.16463,0.086 0.33538,0.16266 0.5,0.25 0.456,0.24232 0.88861,0.4972 1.34375,0.75 0.17653,0.0979 0.35496,0.18179 0.53125,0.28125 0.44682,0.25246 0.89922,0.51847 1.34375,0.78125 0.17729,0.10468 0.35444,0.20617 0.53125,0.3125 0.43932,0.26448 0.87687,0.5377 1.3125,0.8125 0.18479,0.11641 0.37851,0.22547 0.5625,0.34375 0.51464,0.3313 1.02664,0.68092 1.53125,1.03125 0.0938,0.0639 0.18777,0.12306 0.28125,0.1875 0.41067,0.28806 0.81215,0.58027 1.21875,0.875 0.18816,0.13632 0.37581,0.26777 0.5625,0.40625 0.39808,0.29537 0.79673,0.60097 1.1875,0.90625 0.18715,0.14621 0.37719,0.289 0.5625,0.4375 0.3812,0.30547 0.75217,0.62224 1.125,0.9375 0.19447,0.16432 0.40174,0.333 0.59375,0.5 0.35141,0.30603 0.68865,0.6224 1.03125,0.9375 0.53338,0.49057 1.05276,0.98714 1.5625,1.5 0.49935,0.50239 0.99475,1.00713 1.46875,1.53125 0.01,0.0109 0.0214,0.0203 0.0312,0.0312 0.01,0.0109 0.0214,0.0203 0.0312,0.0312 0.0249,0.0276 0.0377,0.0661 0.0625,0.0937 0.41614,0.46836 0.8233,0.9543 1.21875,1.4375 0.0277,0.0339 0.0661,0.0598 0.0937,0.0937 0.17825,0.21938 0.35783,0.43328 0.53125,0.65625 -0.14363,-0.278 -0.31632,-0.54052 -0.46875,-0.8125 0.006,-0.0125 0.0258,-0.0183 0.0312,-0.0312 -0.13213,-0.23521 -0.29536,-0.45781 -0.4375,-0.6875 -0.0121,-0.0196 -0.0194,-0.0428 -0.0312,-0.0625 -0.0548,-0.0908 -0.10045,-0.19109 -0.15625,-0.28125 -0.0554,-0.0896 -0.13114,-0.16106 -0.1875,-0.25 -0.26255,-0.41422 -0.53017,-0.81908 -0.8125,-1.21875 -0.0657,-0.093 -0.12076,-0.18901 -0.1875,-0.28125 -0.17441,-0.24089 -0.34997,-0.48315 -0.53125,-0.71875 -0.25241,-0.328 -0.51615,-0.65087 -0.78125,-0.96875 -0.18524,-0.22214 -0.37135,-0.439 -0.5625,-0.65625 -0.27529,-0.31297 -0.55683,-0.63453 -0.84375,-0.9375 -0.19509,-0.20574 -0.39357,-0.42382 -0.59375,-0.625 -0.30772,-0.30956 -0.61842,-0.60734 -0.9375,-0.90625 -0.1954,-0.18308 -0.39434,-0.35211 -0.59375,-0.53125 -0.33112,-0.29744 -0.65851,-0.58828 -1,-0.875 -0.19739,-0.16569 -0.39312,-0.33785 -0.59375,-0.5 -0.35534,-0.28717 -0.72899,-0.56751 -1.09375,-0.84375 -0.57222,-0.43335 -1.15755,-0.84293 -1.75,-1.25 -0.19681,-0.13518 -0.39498,-0.27391 -0.59375,-0.40625 -0.40244,-0.26793 -0.80906,-0.52481 -1.21875,-0.78125 -0.49563,-0.31023 -0.99553,-0.61247 -1.5,-0.90625 -0.11701,-0.0681 -0.22632,-0.15148 -0.34375,-0.21875 -0.18723,-0.1073 -0.3743,-0.2074 -0.5625,-0.3125 -0.43447,-0.2426 -0.87373,-0.4877 -1.3125,-0.71875 -0.63478,-0.33418 -1.2668,-0.6585 -1.90625,-0.96875 -0.17858,-0.0866 -0.35239,-0.16517 -0.53125,-0.25 -0.45356,-0.21522 -0.92054,-0.42111 -1.375,-0.625 -0.17781,-0.0797 -0.35344,-0.17204 -0.53125,-0.25 -0.47428,-0.20826 -0.93297,-0.39742 -1.40625,-0.59375 -0.15747,-0.0653 -0.3115,-0.12348 -0.46875,-0.1875 -0.48074,-0.19575 -0.95982,-0.37867 -1.4375,-0.5625 -0.15017,-0.0578 -0.28773,-0.13087 -0.4375,-0.1875 -0.19851,-0.0751 -0.39604,-0.14567 -0.59375,-0.21875 -0.0847,-0.0313 -0.16553,-0.0644 -0.25,-0.0937 -0.34522,-0.12629 -0.6891,-0.22349 -1.03125,-0.34375 -1.11294,-0.39171 -2.18281,-0.76309 -3.25,-1.09375 -0.11797,-0.0365 -0.22648,-0.0579 -0.34375,-0.0937 -1.07625,-0.32916 -2.11922,-0.63501 -3.125,-0.90625 -0.0984,-0.0265 -0.18362,-0.0365 -0.28125,-0.0625 -0.50337,-0.13426 -0.95661,-0.22326 -1.4375,-0.34375 -0.3944,-0.0987 -0.77412,-0.21055 -1.15625,-0.3125 -0.1689,-0.0402 -0.33467,-0.0865 -0.5,-0.125 -0.9295,-0.21672 -1.7908,-0.39766 -2.59375,-0.5625 -0.0468,-0.01 -0.0787,-0.0218 -0.125,-0.0312 -0.9059,-0.18483 -1.49726,-0.28518 -2.1875,-0.40625 -0.55036,-0.0987 -0.98288,-0.18198 -1.40625,-0.25 -0.1038,-0.0167 -0.24822,-0.0476 -0.34375,-0.0625 -0.0194,-0.003 -0.0122,0.003 -0.0312,0 -0.10136,-0.0158 -0.0914,-0.0199 -0.15625,-0.0312 -0.31845,-0.0481 -0.36991,-0.0675 -0.5625,-0.0937 -0.18067,-0.0246 -0.39296,-0.0437 -0.53125,-0.0625 -0.0283,-0.003 -0.25,-0.0312 -0.25,-0.0312 z"
         style="color:#000000;fill:#00ffff;fill-opacity:1;fill-rule:nonzero;stroke:none;stroke-width:2.70000005;marker:none;visibility:visible;display:inline;overflow:visible;enable-background:accumulate"
         inkscape:connector-curvature="0" />
      <path
         id="path4071"
         transform="matrix(0.26458337,0,0,0.26458337,-188.19264,-95.912643)"
         d="m 400.6875,-369.84375 c 76.02212,18.05526 49.46106,34.01999 46.03125,36 1.98999,-7.8729 -2.8125,-11.8125 -2.8125,-11.8125 0,0 4.80719,5.69976 -2.71875,13.125 0.0787,-0.97739 0.0326,-2.01 -0.1875,-3.125 -1.36448,-6.91251 -23.21967,-15.47793 -24.1875,-14.1875 11.97973,6.22946 18.60824,16.02484 10,22.5 -1.71039,-4.38116 -11.89388,-19.57259 -65.5,-19.28125 0,0 34.53498,0.65998 49.375,15.5 14.84003,14.84003 -34.54064,19.66913 -99.0625,22.25 0,0 57.84093,1.8546 107.625,-7.4375 20.77087,-1.60978 45.65975,-7.40625 44.34375,-7.40625 -1.11686,0 -13.9292,1.83571 -23.5625,2.65625 6.79063,-1.88042 13.21213,-4.04503 19.03125,-6.53125 53.64743,-22.92088 -58.375,-42.25 -58.375,-42.25 z"
         style="color:#000000;fill:#ffffff;fill-opacity:1;fill-rule:nonzero;stroke:none;stroke-width:5;marker:none;visibility:visible;display:inline;overflow:visible;enable-background:accumulate"
         inkscape:connector-curvature="0" />
    </g>
  </g>
</svg>
