<?xml version="1.0" encoding="UTF-8" standalone="no"?>
<!-- Created with Inkscape (http://www.inkscape.org/) -->

<svg
   xmlns:dc="http://purl.org/dc/elements/1.1/"
   xmlns:cc="http://creativecommons.org/ns#"
   xmlns:rdf="http://www.w3.org/1999/02/22-rdf-syntax-ns#"
   xmlns:svg="http://www.w3.org/2000/svg"
   xmlns="http://www.w3.org/2000/svg"
   xmlns:sodipodi="http://sodipodi.sourceforge.net/DTD/sodipodi-0.dtd"
   xmlns:inkscape="http://www.inkscape.org/namespaces/inkscape"
   width="416.95679"
   height="104.2392"
   viewBox="0 0 110.31981 27.579958"
   version="1.1"
   id="svg23489"
   inkscape:version="0.48.5 r10040"
   sodipodi:docname="horizonal_slash_01.svg">
  <defs
     id="defs23483">
    <filter
       inkscape:collect="always"
       id="filter18160"
       color-interpolation-filters="sRGB">
      <feGaussianBlur
         inkscape:collect="always"
         stdDeviation="0.68961443"
         id="feGaussianBlur18162" />
    </filter>
    <filter
       inkscape:collect="always"
       id="filter3967"
       color-interpolation-filters="sRGB">
      <feGaussianBlur
         inkscape:collect="always"
         stdDeviation="1.47148"
         id="feGaussianBlur3969" />
    </filter>
    <filter
       inkscape:collect="always"
       id="filter4022"
       color-interpolation-filters="sRGB">
      <feGaussianBlur
         inkscape:collect="always"
         stdDeviation="2.2104728"
         id="feGaussianBlur4024" />
    </filter>
    <filter
       inkscape:collect="always"
       id="filter4083"
       color-interpolation-filters="sRGB">
      <feGaussianBlur
         inkscape:collect="always"
         stdDeviation="1.7785303"
         id="feGaussianBlur4085" />
    </filter>
    <filter
       inkscape:collect="always"
       id="filter4097"
       color-interpolation-filters="sRGB">
      <feGaussianBlur
         inkscape:collect="always"
         stdDeviation="2.0982677"
         id="feGaussianBlur4099" />
    </filter>
    <filter
       inkscape:collect="always"
       id="filter4130"
       color-interpolation-filters="sRGB">
      <feGaussianBlur
         inkscape:collect="always"
         stdDeviation="0.36492097"
         id="feGaussianBlur4132" />
    </filter>
  </defs>
  <sodipodi:namedview
     id="base"
     pagecolor="#474b4f"
     bordercolor="#666666"
     borderopacity="1.0"
     inkscape:pageopacity="0"
     inkscape:pageshadow="2"
     inkscape:zoom="0.77493125"
     inkscape:cx="163.18572"
     inkscape:cy="-89.541221"
     inkscape:document-units="px"
     inkscape:current-layer="layer1"
     showgrid="false"
     inkscape:pagecheckerboard="false"
     showborder="true"
     units="px"
     inkscape:window-width="1920"
     inkscape:window-height="1017"
     inkscape:window-x="-8"
     inkscape:window-y="-8"
     inkscape:window-maximized="1"
     inkscape:showpageshadow="false"
     guidetolerance="28">
    <inkscape:grid
       type="xygrid"
       id="grid24034"
       spacingx="1px"
       spacingy="1px"
       empspacing="8"
       visible="true"
       enabled="true"
       snapvisiblegridlinesonly="true"
       originx="603.60693px"
       originy="-1303.92px" />
  </sodipodi:namedview>
  <metadata
     id="metadata23486">
    <rdf:RDF>
      <cc:Work
         rdf:about="">
        <dc:format>image/svg+xml</dc:format>
        <dc:type
           rdf:resource="http://purl.org/dc/dcmitype/StillImage" />
        <dc:title></dc:title>
        <cc:license
           rdf:resource="" />
        <dc:creator>
          <cc:Agent>
            <dc:title>Robert Brooks</dc:title>
          </cc:Agent>
        </dc:creator>
      </cc:Work>
    </rdf:RDF>
  </metadata>
  <g
     inkscape:label="Layer 1"
     inkscape:groupmode="layer"
     id="layer1"
     transform="translate(159.70433,75.575479)">
    <g
       id="g4087"
       transform="translate(-3.259243,123.85163)">
      <path
         style="color:#000000;fill:#00ccff;fill-opacity:1;fill-rule:nonzero;stroke:none;stroke-width:2.70000005;marker:none;visibility:visible;display:inline;overflow:visible;filter:url(#filter4083);enable-background:accumulate"
         d="m 386.90625,-379.96875 c -0.93011,-0.0203 -1.88415,0.0568 -2.8125,0.0625 -2.16618,0.0111 -4.30649,0.0595 -6.4375,0.125 -6.39303,0.19659 -12.61169,0.61544 -18.46875,1.1875 12.04522,-0.78102 62.67913,-0.31952 93.25,12.5625 0.92383,0.40024 1.85565,0.79319 2.75,1.21875 -0.17516,-0.10424 -0.35448,-0.20638 -0.53125,-0.3125 -0.35595,-0.20795 -0.70178,-0.42226 -1.0625,-0.625 -0.008,-0.004 -0.0232,0.004 -0.0312,0 -0.59051,-0.32578 -1.18063,-0.66081 -1.78125,-0.96875 -18.0719,-9.5281 -41.60723,-12.94312 -63.96875,-13.1875 -0.30992,-0.0329 -0.59621,-0.0557 -0.90625,-0.0625 z m -48.8125,4.0625 c -10.8305,-0.0168 -22.23603,0.18385 -34.21875,0.65625 -23.23381,0.91597 -52.12978,3.32916 -58.03125,4.59375 4.42847,-0.20177 8.76296,-0.40087 13,-0.5625 131.34825,-5.01059 171.61767,9.0327 176.28125,26.4375 -9.93074,-11.4394 -67.13038,-23.51571 -134.28125,-19.125 0.40668,-0.0258 0.81265,-0.0381 1.21875,-0.0625 0.35834,-0.0141 0.69417,-0.0191 1.0625,-0.0312 35.77421,-1.18019 118.02723,6.68046 122.8125,29 -5.68562,-8.73536 -45.48759,-18.33096 -104.78125,-14.375 -0.20032,0.0131 -0.39299,0.0178 -0.59375,0.0312 -1.9346,0.12842 -3.86806,0.27647 -5.84375,0.4375 119.89009,7.87294 87.73011,33.22722 53.375,35.15625 -68.83412,6.39341 -150.84375,2.125 -150.84375,2.125 0,0 65.49003,9.54488 160.25,3.9375 89.10953,-5.27297 106.19338,-15.77596 109.46875,-17.5625 11.24148,-6.13172 11.9375,-11.90625 11.9375,-11.90625 -0.96073,1.96723 -3.5684,4.27909 -7.09375,6.53125 -0.0478,0.0305 -0.10811,0.032 -0.15625,0.0625 -5.59724,3.08128 -13.46707,5.39023 -21.5,7.09375 6.27768,-3.27783 10.5182,-7.18432 13.125,-12 10.04155,-18.55028 -40.49262,-40.27509 -145.1875,-40.4375 z m 113.125,0.25 c 0,0 1.90962,0.37948 4.96875,1.21875 0.0401,0.011 0.0532,0.0201 0.0937,0.0312 0.74133,0.20465 1.54016,0.42747 2.40625,0.6875 0.0572,0.0171 0.0985,0.0451 0.15625,0.0625 0.62499,0.18785 1.29303,0.37742 1.96875,0.59375 0.19262,0.0617 0.36587,0.12341 0.5625,0.1875 0.0626,0.0211 0.12109,0.0407 0.1875,0.0625 0.0759,0.0249 0.14224,0.0372 0.21875,0.0625 0.9511,0.31453 1.9397,0.65965 2.96875,1.03125 0.0964,0.0347 0.18429,0.0585 0.28125,0.0937 1.01976,0.37113 2.04863,0.78978 3.125,1.21875 0.87639,0.34927 1.78404,0.73606 2.6875,1.125 0.41621,0.17918 0.8295,0.34346 1.25,0.53125 0.0218,0.01 0.0406,0.0215 0.0625,0.0312 1.08636,0.48604 2.17754,0.98638 3.28125,1.53125 0.15704,0.0774 0.31154,0.14014 0.46875,0.21875 0.46759,0.23411 0.93796,0.47379 1.40625,0.71875 0.16463,0.086 0.33538,0.16266 0.5,0.25 0.456,0.24232 0.88861,0.4972 1.34375,0.75 0.17653,0.0979 0.35496,0.18179 0.53125,0.28125 0.44682,0.25246 0.89922,0.51847 1.34375,0.78125 0.17729,0.10468 0.35444,0.20617 0.53125,0.3125 0.43932,0.26448 0.87687,0.5377 1.3125,0.8125 0.18479,0.11641 0.37851,0.22547 0.5625,0.34375 0.51464,0.3313 1.02664,0.68092 1.53125,1.03125 0.0938,0.0639 0.18777,0.12306 0.28125,0.1875 0.41067,0.28806 0.81215,0.58027 1.21875,0.875 0.18816,0.13632 0.37581,0.26777 0.5625,0.40625 0.39808,0.29537 0.79673,0.60097 1.1875,0.90625 0.18715,0.14621 0.37719,0.289 0.5625,0.4375 0.3812,0.30547 0.75217,0.62224 1.125,0.9375 0.19447,0.16432 0.40174,0.333 0.59375,0.5 0.35141,0.30603 0.68865,0.6224 1.03125,0.9375 0.53338,0.49057 1.05276,0.98714 1.5625,1.5 0.49935,0.50239 0.99475,1.00713 1.46875,1.53125 0.01,0.0109 0.0214,0.0203 0.0312,0.0312 0.01,0.0109 0.0214,0.0203 0.0312,0.0312 0.0249,0.0276 0.0377,0.0661 0.0625,0.0937 0.41614,0.46836 0.8233,0.9543 1.21875,1.4375 0.0277,0.0339 0.0661,0.0598 0.0937,0.0937 0.17825,0.21938 0.35783,0.43328 0.53125,0.65625 -0.14363,-0.278 -0.31632,-0.54052 -0.46875,-0.8125 0.006,-0.0125 0.0258,-0.0183 0.0312,-0.0312 -0.13213,-0.23521 -0.29536,-0.45781 -0.4375,-0.6875 -0.0121,-0.0196 -0.0194,-0.0428 -0.0312,-0.0625 -0.0548,-0.0908 -0.10045,-0.19109 -0.15625,-0.28125 -0.0554,-0.0896 -0.13114,-0.16106 -0.1875,-0.25 -0.26255,-0.41422 -0.53017,-0.81908 -0.8125,-1.21875 -0.0657,-0.093 -0.12076,-0.18901 -0.1875,-0.28125 -0.17441,-0.24089 -0.34997,-0.48315 -0.53125,-0.71875 -0.25241,-0.328 -0.51615,-0.65087 -0.78125,-0.96875 -0.18524,-0.22214 -0.37135,-0.439 -0.5625,-0.65625 -0.27529,-0.31297 -0.55683,-0.63453 -0.84375,-0.9375 -0.19509,-0.20574 -0.39357,-0.42382 -0.59375,-0.625 -0.30772,-0.30956 -0.61842,-0.60734 -0.9375,-0.90625 -0.1954,-0.18308 -0.39434,-0.35211 -0.59375,-0.53125 -0.33112,-0.29744 -0.65851,-0.58828 -1,-0.875 -0.19739,-0.16569 -0.39312,-0.33785 -0.59375,-0.5 -0.35534,-0.28717 -0.72899,-0.56751 -1.09375,-0.84375 -0.57222,-0.43335 -1.15755,-0.84293 -1.75,-1.25 -0.19681,-0.13518 -0.39498,-0.27391 -0.59375,-0.40625 -0.40244,-0.26793 -0.80906,-0.52481 -1.21875,-0.78125 -0.49563,-0.31023 -0.99553,-0.61247 -1.5,-0.90625 -0.11701,-0.0681 -0.22632,-0.15148 -0.34375,-0.21875 -0.18723,-0.1073 -0.3743,-0.2074 -0.5625,-0.3125 -0.43447,-0.2426 -0.87373,-0.4877 -1.3125,-0.71875 -0.63478,-0.33418 -1.2668,-0.6585 -1.90625,-0.96875 -0.17858,-0.0866 -0.35239,-0.16517 -0.53125,-0.25 -0.45356,-0.21522 -0.92054,-0.42111 -1.375,-0.625 -0.17781,-0.0797 -0.35344,-0.17204 -0.53125,-0.25 -0.47428,-0.20826 -0.93297,-0.39742 -1.40625,-0.59375 -0.15747,-0.0653 -0.3115,-0.12348 -0.46875,-0.1875 -0.48074,-0.19575 -0.95982,-0.37867 -1.4375,-0.5625 -0.15017,-0.0578 -0.28773,-0.13087 -0.4375,-0.1875 -0.19851,-0.0751 -0.39604,-0.14567 -0.59375,-0.21875 -0.0847,-0.0313 -0.16553,-0.0644 -0.25,-0.0937 -0.34522,-0.12629 -0.6891,-0.22349 -1.03125,-0.34375 -1.11294,-0.39171 -2.18281,-0.76309 -3.25,-1.09375 -0.11797,-0.0365 -0.22648,-0.0579 -0.34375,-0.0937 -1.07625,-0.32916 -2.11922,-0.63501 -3.125,-0.90625 -0.0984,-0.0265 -0.18362,-0.0365 -0.28125,-0.0625 -0.50337,-0.13426 -0.95661,-0.22326 -1.4375,-0.34375 -0.3944,-0.0987 -0.77412,-0.21055 -1.15625,-0.3125 -0.1689,-0.0402 -0.33467,-0.0865 -0.5,-0.125 -0.9295,-0.21672 -1.7908,-0.39766 -2.59375,-0.5625 -0.0468,-0.01 -0.0787,-0.0218 -0.125,-0.0312 -0.9059,-0.18483 -1.49726,-0.28518 -2.1875,-0.40625 -0.55036,-0.0987 -0.98288,-0.18198 -1.40625,-0.25 -0.1038,-0.0167 -0.24822,-0.0476 -0.34375,-0.0625 -0.0194,-0.003 -0.0122,0.003 -0.0312,0 -0.10136,-0.0158 -0.0914,-0.0199 -0.15625,-0.0312 -0.31845,-0.0481 -0.36991,-0.0675 -0.5625,-0.0937 -0.18067,-0.0246 -0.39296,-0.0437 -0.53125,-0.0625 -0.0283,-0.003 -0.25,-0.0312 -0.25,-0.0312 z"
         transform="matrix(0.26458337,0,0,0.26458337,-188.19264,-95.912643)"
         id="path4081"
         inkscape:connector-curvature="0" />
      <rect
         y="-199.42711"
         x="-156.4451"
         height="27.579958"
         width="110.31983"
         id="rect17951"
         style="color:#000000;fill:none;stroke:none;stroke-width:2.70000005;marker:none;visibility:visible;display:inline;overflow:visible;enable-background:accumulate" />
      <path
         id="path18129"
         d="m -90.448625,-197.11592 c -6.719258,0.0552 -10.988475,1.05007 -10.988475,1.05007 0,0 7.634498,-0.18983 16.205728,0.28112 5.456423,0.2998 7.231692,2.6282 8.07806,4.73769 -3.239405,-0.96782 -7.986795,-1.7969 -14.204818,-1.90996 0,0 7.158421,1.60259 9.136393,1.88516 1.020017,0.14572 3.563163,1.33952 5.895248,2.53008 0.0132,0.0345 0.02778,0.0743 0.04134,0.10748 0.559096,1.36669 2.451089,2.96304 3.68763,3.90261 -2.004168,-1.35675 -6.709733,-4.1011 -13.956771,-5.68854 -9.889871,-2.16636 -20.7179,-2.54559 -24.39128,-1.13275 13.374863,0.56513 17.606876,-0.18971 31.923637,7.25124 l 1.413867,1.60403 c 0,0 5.937954,0.84839 7.821745,0.94258 1.883781,0.0942 8.853827,-2.26073 9.136394,-4.80384 0.282569,-2.54311 -1.034103,-6.6001 -15.445053,-9.42578 -5.404107,-1.05963 -10.322092,-1.3643 -14.353646,-1.33119 z"
         style="opacity:0.25;color:#000000;fill:#00ffff;fill-opacity:1;fill-rule:nonzero;stroke:none;stroke-width:2;marker:none;visibility:visible;display:inline;overflow:visible;enable-background:accumulate"
         inkscape:connector-curvature="0" />
      <path
         id="path17915"
         transform="matrix(0.26458337,0,0,0.26458337,-188.19264,-95.912643)"
         d="m 386.90625,-379.96875 c -0.93011,-0.0203 -1.88415,0.0568 -2.8125,0.0625 -2.16618,0.0111 -4.30649,0.0595 -6.4375,0.125 -6.39303,0.19659 -12.61169,0.61544 -18.46875,1.1875 12.04522,-0.78102 62.67913,-0.31952 93.25,12.5625 0.92383,0.40024 1.85565,0.79319 2.75,1.21875 -0.17516,-0.10424 -0.35448,-0.20638 -0.53125,-0.3125 -0.35595,-0.20795 -0.70178,-0.42226 -1.0625,-0.625 -0.008,-0.004 -0.0232,0.004 -0.0312,0 -0.59051,-0.32578 -1.18063,-0.66081 -1.78125,-0.96875 -18.0719,-9.5281 -41.60723,-12.94312 -63.96875,-13.1875 -0.30992,-0.0329 -0.59621,-0.0557 -0.90625,-0.0625 z m -48.8125,4.0625 c -10.8305,-0.0168 -22.23603,0.18385 -34.21875,0.65625 -23.23381,0.91597 -52.12978,3.32916 -58.03125,4.59375 4.42847,-0.20177 8.76296,-0.40087 13,-0.5625 131.34825,-5.01059 171.61767,9.0327 176.28125,26.4375 -9.93074,-11.4394 -67.13038,-23.51571 -134.28125,-19.125 0.40668,-0.0258 0.81265,-0.0381 1.21875,-0.0625 0.35834,-0.0141 0.69417,-0.0191 1.0625,-0.0312 35.77421,-1.18019 118.02723,6.68046 122.8125,29 -5.68562,-8.73536 -45.48759,-18.33096 -104.78125,-14.375 -0.20032,0.0131 -0.39299,0.0178 -0.59375,0.0312 -1.9346,0.12842 -3.86806,0.27647 -5.84375,0.4375 119.89009,7.87294 87.73011,33.22722 53.375,35.15625 -68.83412,6.39341 -150.84375,2.125 -150.84375,2.125 0,0 65.49003,9.54488 160.25,3.9375 89.10953,-5.27297 106.19338,-15.77596 109.46875,-17.5625 11.24148,-6.13172 11.9375,-11.90625 11.9375,-11.90625 -0.96073,1.96723 -3.5684,4.27909 -7.09375,6.53125 -0.0478,0.0305 -0.10811,0.032 -0.15625,0.0625 -5.59724,3.08128 -13.46707,5.39023 -21.5,7.09375 6.27768,-3.27783 10.5182,-7.18432 13.125,-12 10.04155,-18.55028 -40.49262,-40.27509 -145.1875,-40.4375 z m 113.125,0.25 c 0,0 1.90962,0.37948 4.96875,1.21875 0.0401,0.011 0.0532,0.0201 0.0937,0.0312 0.74133,0.20465 1.54016,0.42747 2.40625,0.6875 0.0572,0.0171 0.0985,0.0451 0.15625,0.0625 0.62499,0.18785 1.29303,0.37742 1.96875,0.59375 0.19262,0.0617 0.36587,0.12341 0.5625,0.1875 0.0626,0.0211 0.12109,0.0407 0.1875,0.0625 0.0759,0.0249 0.14224,0.0372 0.21875,0.0625 0.9511,0.31453 1.9397,0.65965 2.96875,1.03125 0.0964,0.0347 0.18429,0.0585 0.28125,0.0937 1.01976,0.37113 2.04863,0.78978 3.125,1.21875 0.87639,0.34927 1.78404,0.73606 2.6875,1.125 0.41621,0.17918 0.8295,0.34346 1.25,0.53125 0.0218,0.01 0.0406,0.0215 0.0625,0.0312 1.08636,0.48604 2.17754,0.98638 3.28125,1.53125 0.15704,0.0774 0.31154,0.14014 0.46875,0.21875 0.46759,0.23411 0.93796,0.47379 1.40625,0.71875 0.16463,0.086 0.33538,0.16266 0.5,0.25 0.456,0.24232 0.88861,0.4972 1.34375,0.75 0.17653,0.0979 0.35496,0.18179 0.53125,0.28125 0.44682,0.25246 0.89922,0.51847 1.34375,0.78125 0.17729,0.10468 0.35444,0.20617 0.53125,0.3125 0.43932,0.26448 0.87687,0.5377 1.3125,0.8125 0.18479,0.11641 0.37851,0.22547 0.5625,0.34375 0.51464,0.3313 1.02664,0.68092 1.53125,1.03125 0.0938,0.0639 0.18777,0.12306 0.28125,0.1875 0.41067,0.28806 0.81215,0.58027 1.21875,0.875 0.18816,0.13632 0.37581,0.26777 0.5625,0.40625 0.39808,0.29537 0.79673,0.60097 1.1875,0.90625 0.18715,0.14621 0.37719,0.289 0.5625,0.4375 0.3812,0.30547 0.75217,0.62224 1.125,0.9375 0.19447,0.16432 0.40174,0.333 0.59375,0.5 0.35141,0.30603 0.68865,0.6224 1.03125,0.9375 0.53338,0.49057 1.05276,0.98714 1.5625,1.5 0.49935,0.50239 0.99475,1.00713 1.46875,1.53125 0.01,0.0109 0.0214,0.0203 0.0312,0.0312 0.01,0.0109 0.0214,0.0203 0.0312,0.0312 0.0249,0.0276 0.0377,0.0661 0.0625,0.0937 0.41614,0.46836 0.8233,0.9543 1.21875,1.4375 0.0277,0.0339 0.0661,0.0598 0.0937,0.0937 0.17825,0.21938 0.35783,0.43328 0.53125,0.65625 -0.14363,-0.278 -0.31632,-0.54052 -0.46875,-0.8125 0.006,-0.0125 0.0258,-0.0183 0.0312,-0.0312 -0.13213,-0.23521 -0.29536,-0.45781 -0.4375,-0.6875 -0.0121,-0.0196 -0.0194,-0.0428 -0.0312,-0.0625 -0.0548,-0.0908 -0.10045,-0.19109 -0.15625,-0.28125 -0.0554,-0.0896 -0.13114,-0.16106 -0.1875,-0.25 -0.26255,-0.41422 -0.53017,-0.81908 -0.8125,-1.21875 -0.0657,-0.093 -0.12076,-0.18901 -0.1875,-0.28125 -0.17441,-0.24089 -0.34997,-0.48315 -0.53125,-0.71875 -0.25241,-0.328 -0.51615,-0.65087 -0.78125,-0.96875 -0.18524,-0.22214 -0.37135,-0.439 -0.5625,-0.65625 -0.27529,-0.31297 -0.55683,-0.63453 -0.84375,-0.9375 -0.19509,-0.20574 -0.39357,-0.42382 -0.59375,-0.625 -0.30772,-0.30956 -0.61842,-0.60734 -0.9375,-0.90625 -0.1954,-0.18308 -0.39434,-0.35211 -0.59375,-0.53125 -0.33112,-0.29744 -0.65851,-0.58828 -1,-0.875 -0.19739,-0.16569 -0.39312,-0.33785 -0.59375,-0.5 -0.35534,-0.28717 -0.72899,-0.56751 -1.09375,-0.84375 -0.57222,-0.43335 -1.15755,-0.84293 -1.75,-1.25 -0.19681,-0.13518 -0.39498,-0.27391 -0.59375,-0.40625 -0.40244,-0.26793 -0.80906,-0.52481 -1.21875,-0.78125 -0.49563,-0.31023 -0.99553,-0.61247 -1.5,-0.90625 -0.11701,-0.0681 -0.22632,-0.15148 -0.34375,-0.21875 -0.18723,-0.1073 -0.3743,-0.2074 -0.5625,-0.3125 -0.43447,-0.2426 -0.87373,-0.4877 -1.3125,-0.71875 -0.63478,-0.33418 -1.2668,-0.6585 -1.90625,-0.96875 -0.17858,-0.0866 -0.35239,-0.16517 -0.53125,-0.25 -0.45356,-0.21522 -0.92054,-0.42111 -1.375,-0.625 -0.17781,-0.0797 -0.35344,-0.17204 -0.53125,-0.25 -0.47428,-0.20826 -0.93297,-0.39742 -1.40625,-0.59375 -0.15747,-0.0653 -0.3115,-0.12348 -0.46875,-0.1875 -0.48074,-0.19575 -0.95982,-0.37867 -1.4375,-0.5625 -0.15017,-0.0578 -0.28773,-0.13087 -0.4375,-0.1875 -0.19851,-0.0751 -0.39604,-0.14567 -0.59375,-0.21875 -0.0847,-0.0313 -0.16553,-0.0644 -0.25,-0.0937 -0.34522,-0.12629 -0.6891,-0.22349 -1.03125,-0.34375 -1.11294,-0.39171 -2.18281,-0.76309 -3.25,-1.09375 -0.11797,-0.0365 -0.22648,-0.0579 -0.34375,-0.0937 -1.07625,-0.32916 -2.11922,-0.63501 -3.125,-0.90625 -0.0984,-0.0265 -0.18362,-0.0365 -0.28125,-0.0625 -0.50337,-0.13426 -0.95661,-0.22326 -1.4375,-0.34375 -0.3944,-0.0987 -0.77412,-0.21055 -1.15625,-0.3125 -0.1689,-0.0402 -0.33467,-0.0865 -0.5,-0.125 -0.9295,-0.21672 -1.7908,-0.39766 -2.59375,-0.5625 -0.0468,-0.01 -0.0787,-0.0218 -0.125,-0.0312 -0.9059,-0.18483 -1.49726,-0.28518 -2.1875,-0.40625 -0.55036,-0.0987 -0.98288,-0.18198 -1.40625,-0.25 -0.1038,-0.0167 -0.24822,-0.0476 -0.34375,-0.0625 -0.0194,-0.003 -0.0122,0.003 -0.0312,0 -0.10136,-0.0158 -0.0914,-0.0199 -0.15625,-0.0312 -0.31845,-0.0481 -0.36991,-0.0675 -0.5625,-0.0937 -0.18067,-0.0246 -0.39296,-0.0437 -0.53125,-0.0625 -0.0283,-0.003 -0.25,-0.0312 -0.25,-0.0312 z"
         style="color:#000000;fill:#00ffff;fill-opacity:1;fill-rule:nonzero;stroke:none;stroke-width:2.70000005;marker:none;visibility:visible;display:inline;overflow:visible;enable-background:accumulate"
         inkscape:connector-curvature="0" />
      <path
         id="path4071"
         transform="matrix(0.26458337,0,0,0.26458337,-188.19264,-95.912643)"
         d="m 400.6875,-369.84375 c 76.02212,18.05526 49.46106,34.01999 46.03125,36 1.98999,-7.8729 -2.8125,-11.8125 -2.8125,-11.8125 0,0 4.80719,5.69976 -2.71875,13.125 0.0787,-0.97739 0.0326,-2.01 -0.1875,-3.125 -1.36448,-6.91251 -23.21967,-15.47793 -24.1875,-14.1875 11.97973,6.22946 18.60824,16.02484 10,22.5 -1.71039,-4.38116 -11.89388,-19.57259 -65.5,-19.28125 0,0 34.53498,0.65998 49.375,15.5 14.84003,14.84003 -34.54064,19.66913 -99.0625,22.25 0,0 57.84093,1.8546 107.625,-7.4375 20.77087,-1.60978 45.65975,-7.40625 44.34375,-7.40625 -1.11686,0 -13.9292,1.83571 -23.5625,2.65625 6.79063,-1.88042 13.21213,-4.04503 19.03125,-6.53125 53.64743,-22.92088 -58.375,-42.25 -58.375,-42.25 z"
         style="color:#000000;fill:#ffffff;fill-opacity:1;fill-rule:nonzero;stroke:none;stroke-width:5;marker:none;visibility:visible;display:inline;overflow:visible;enable-background:accumulate"
         inkscape:connector-curvature="0" />
    </g>
  </g>
</svg>
