<?xml version="1.0" encoding="UTF-8" standalone="no"?>
<!-- Created with Inkscape (http://www.inkscape.org/) -->

<svg
   xmlns:dc="http://purl.org/dc/elements/1.1/"
   xmlns:cc="http://creativecommons.org/ns#"
   xmlns:rdf="http://www.w3.org/1999/02/22-rdf-syntax-ns#"
   xmlns:svg="http://www.w3.org/2000/svg"
   xmlns="http://www.w3.org/2000/svg"
   xmlns:sodipodi="http://sodipodi.sourceforge.net/DTD/sodipodi-0.dtd"
   xmlns:inkscape="http://www.inkscape.org/namespaces/inkscape"
   width="416.95679"
   height="104.2392"
   viewBox="0 0 110.31981 27.579958"
   version="1.1"
   id="svg23489"
   inkscape:version="0.48.5 r10040"
   sodipodi:docname="horizonal_slash_effect_spritesheet.svg">
  <defs
     id="defs23483">
    <filter
       inkscape:collect="always"
       id="filter18160"
       color-interpolation-filters="sRGB">
      <feGaussianBlur
         inkscape:collect="always"
         stdDeviation="0.68961443"
         id="feGaussianBlur18162" />
    </filter>
    <filter
       inkscape:collect="always"
       id="filter3967"
       color-interpolation-filters="sRGB">
      <feGaussianBlur
         inkscape:collect="always"
         stdDeviation="1.47148"
         id="feGaussianBlur3969" />
    </filter>
    <filter
       inkscape:collect="always"
       id="filter4022"
       color-interpolation-filters="sRGB">
      <feGaussianBlur
         inkscape:collect="always"
         stdDeviation="2.2104728"
         id="feGaussianBlur4024" />
    </filter>
    <filter
       inkscape:collect="always"
       id="filter4083"
       color-interpolation-filters="sRGB">
      <feGaussianBlur
         inkscape:collect="always"
         stdDeviation="1.7785303"
         id="feGaussianBlur4085" />
    </filter>
    <filter
       inkscape:collect="always"
       id="filter4097"
       color-interpolation-filters="sRGB">
      <feGaussianBlur
         inkscape:collect="always"
         stdDeviation="2.0982677"
         id="feGaussianBlur4099" />
    </filter>
    <filter
       inkscape:collect="always"
       id="filter4130"
       color-interpolation-filters="sRGB">
      <feGaussianBlur
         inkscape:collect="always"
         stdDeviation="0.36492097"
         id="feGaussianBlur4132" />
    </filter>
  </defs>
  <sodipodi:namedview
     id="base"
     pagecolor="#474b4f"
     bordercolor="#666666"
     borderopacity="1.0"
     inkscape:pageopacity="0"
     inkscape:pageshadow="2"
     inkscape:zoom="0.77493125"
     inkscape:cx="163.18572"
     inkscape:cy="-193.78042"
     inkscape:document-units="px"
     inkscape:current-layer="layer1"
     showgrid="false"
     inkscape:pagecheckerboard="false"
     showborder="true"
     units="px"
     inkscape:window-width="1920"
     inkscape:window-height="1017"
     inkscape:window-x="-8"
     inkscape:window-y="-8"
     inkscape:window-maximized="1"
     inkscape:showpageshadow="false"
     guidetolerance="28">
    <inkscape:grid
       type="xygrid"
       id="grid24034"
       spacingx="1px"
       spacingy="1px"
       empspacing="8"
       visible="true"
       enabled="true"
       snapvisiblegridlinesonly="true"
       originx="603.60693px"
       originy="-1408.1592px" />
  </sodipodi:namedview>
  <metadata
     id="metadata23486">
    <rdf:RDF>
      <cc:Work
         rdf:about="">
        <dc:format>image/svg+xml</dc:format>
        <dc:type
           rdf:resource="http://purl.org/dc/dcmitype/StillImage" />
        <dc:title></dc:title>
        <cc:license
           rdf:resource="" />
        <dc:creator>
          <cc:Agent>
            <dc:title>Robert Brooks</dc:title>
          </cc:Agent>
        </dc:creator>
      </cc:Work>
    </rdf:RDF>
  </metadata>
  <g
     inkscape:label="Layer 1"
     inkscape:groupmode="layer"
     id="layer1"
     transform="translate(159.70433,103.15544)">
    <g
       id="g4034"
       transform="translate(26.556889,50.699498)">
      <rect
         style="color:#000000;fill:none;stroke:none;stroke-width:2.70000005;marker:none;visibility:visible;display:inline;overflow:visible;enable-background:accumulate"
         id="rect17953"
         width="110.31983"
         height="27.579958"
         x="-186.26123"
         y="-153.85493" />
      <g
         id="g4026">
        <path
           sodipodi:nodetypes="scccccccsccccsssccccccccssssscssccccsccssccccsssccccccsssccccccccccccccccccccccccccsscsscccccscssccccccccccccccsscccccccccssccccsscccccc"
           inkscape:connector-curvature="0"
           id="path4012"
           transform="matrix(0.26458337,0,0,0.26458337,-188.19264,-95.912643)"
           d="m 221.8125,-210.3125 c -7.04723,-0.0211 -14.71064,0.0318 -23,0.21875 -0.54554,-0.0302 -1.2507,0.005 -2.0625,0.0312 -5.68244,0.19162 -16.75,1.5625 -16.75,1.5625 0,0 3.79188,-0.23093 10.3125,-0.40625 -2.25201,0.26176 -3.78125,0.53125 -3.78125,0.53125 0,0 3.65373,-0.33934 10.0625,-0.65625 20.67334,-0.35529 57.9668,-0.031 96.1875,4.96875 -1.90075,-1.40855 -21.63816,-6.10219 -70.96875,-6.25 z m 67.03125,1.6875 c 3.56983,0.30825 6.94486,0.68825 10.15625,1.125 0.01,0.001 0.0212,-0.001 0.0312,0 1.05971,0.14429 2.10399,0.31283 3.125,0.46875 2.06176,0.31493 4.06384,0.64484 5.96875,1 3.80982,0.71032 7.30875,1.49914 10.5,2.3125 7.97813,2.03341 14.04012,4.26079 18.28125,6.09375 1.69645,0.73318 3.09958,1.40275 4.21875,1.96875 2.23998,1.1318 3.34375,1.84375 3.34375,1.84375 0,0 -0.17998,-0.19071 -0.5625,-0.5625 -0.19587,-0.19145 -0.39763,-0.41309 -0.71875,-0.6875 -0.005,-0.005 -0.0259,0.005 -0.0312,0 -0.29862,-0.25549 -0.64426,-0.55995 -1.0625,-0.875 -0.006,-0.005 -0.0252,0.005 -0.0312,0 -0.42792,-0.32161 -0.90548,-0.66061 -1.46875,-1.03125 -1.69122,-1.11175 -4.01108,-2.4228 -7.125,-3.75 -3.11392,-1.3272 -7.0324,-2.67105 -11.875,-3.875 -2.4213,-0.60198 -5.05791,-1.17984 -7.96875,-1.6875 -1.94056,-0.33844 -4.0152,-0.65666 -6.1875,-0.9375 -4.3446,-0.56168 -9.16045,-0.99399 -14.5,-1.25 -1.33489,-0.064 -2.69314,-0.11527 -4.09375,-0.15625 z m -85,3.78125 c -10.89719,0.0678 -22.57774,0.37141 -35.0625,0.9375 -13.42851,0.60888 -27.8748,1.26916 -43.28125,2.65625 30.21035,-2.37014 61.05639,-1.50132 88.65625,1 0.10332,0.009 0.20927,0.0218 0.3125,0.0312 1.29738,0.16042 2.4881,0.32008 3.5625,0.5 -35.85809,-0.71069 -82.46221,2.49846 -104.40625,5.03125 -1.61587,0.1865 -3.10339,0.35386 -4.4375,0.53125 -1.31347,0.16911 -2.4931,0.33858 -3.5,0.5 34.31281,-0.82885 55.60229,0.62345 79.625,0.8125 43.61472,0.34318 120.59704,4.18993 121.84375,19.84375 0.55404,6.95709 -4.03237,15.73982 -32,18.625 1.01986,0.007 2.01815,0.0107 3.03125,0 0.0633,4.4e-4 0.12432,-3e-4 0.1875,0 0.0209,-2.4e-4 0.0416,2.5e-4 0.0625,0 1.2104,0.005 2.40461,-0.0129 3.59375,-0.0312 1.28026,-0.0198 2.52881,-0.0771 3.78125,-0.125 7.65385,-0.29305 14.78426,-1.08288 21.15625,-2.3125 1.05939,-0.20443 2.10777,-0.39788 3.125,-0.625 0.1279,-0.0286 0.24778,-0.0648 0.375,-0.0937 0.69963,-0.15907 1.38387,-0.33052 2.0625,-0.5 0.44797,-0.11181 0.87393,-0.22751 1.3125,-0.34375 0.35475,-0.0939 0.68273,-0.18451 1.03125,-0.28125 0.71907,-0.19964 1.43316,-0.41354 2.125,-0.625 0.0517,-0.0158 0.10468,-0.0154 0.15625,-0.0312 0.98249,-0.30235 1.91871,-0.61222 2.84375,-0.9375 0.96486,-0.33929 1.91286,-0.69956 2.8125,-1.0625 0.38822,-0.15662 0.7513,-0.30957 1.125,-0.46875 10.4317,-3.94848 16.97465,-9.16732 16.9375,-14.84375 0,-8.74695 -7.2445,-19.18002 -50.40625,-24.4375 -0.12392,-0.0153 -0.24921,-0.0458 -0.375,-0.0625 -0.22715,-0.0274 -0.45837,-0.0354 -0.6875,-0.0625 -0.70185,-0.0839 -1.43559,-0.169 -2.15625,-0.25 -0.0811,-0.009 -0.16865,-0.0223 -0.25,-0.0312 -3.1015,-0.34607 -6.3657,-0.64601 -9.84375,-0.9375 -0.22348,-0.0187 -0.46249,-0.044 -0.6875,-0.0625 -1.55074,-0.12733 -3.14955,-0.25852 -4.78125,-0.375 0.87328,0.0927 1.74164,0.19772 2.625,0.3125 0.0632,0.008 0.12431,0.023 0.1875,0.0312 0.82129,0.10804 1.6427,0.21822 2.46875,0.34375 0.12547,0.019 0.24947,0.0431 0.375,0.0625 0.76527,0.11857 1.54653,0.24275 2.3125,0.375 0.17774,0.0306 0.35357,0.0624 0.53125,0.0937 0.94936,0.16743 1.89916,0.34513 2.84375,0.53125 0.0848,0.0167 0.16529,0.0457 0.25,0.0625 1.34978,0.26904 2.70559,0.54198 4.03125,0.84375 0.0927,0.0211 0.18868,0.0412 0.28125,0.0625 0.3436,0.0788 0.69001,0.16933 1.03125,0.25 1.22493,0.29025 2.43875,0.56322 3.625,0.875 0.14464,0.038 0.29354,0.0867 0.4375,0.125 1.33499,0.35427 2.63986,0.71943 3.90625,1.09375 0.30611,0.0907 0.63607,0.18964 0.9375,0.28125 0.0412,0.0125 0.0838,0.0187 0.125,0.0312 1.50475,0.45896 2.94545,0.96378 4.3125,1.4375 2.10854,0.73067 4.03602,1.46009 5.71875,2.1875 0.56091,0.24247 1.08898,0.48009 1.59375,0.71875 -0.80857,-0.36757 -1.7282,-0.73017 -2.6875,-1.09375 -0.81303,-0.30815 -1.67248,-0.60256 -2.59375,-0.90625 -0.16667,-0.0549 -0.32979,-0.13273 -0.5,-0.1875 -0.18525,-0.0593 -0.40435,-0.12851 -0.59375,-0.1875 -0.9125,-0.28586 -1.86529,-0.56367 -2.875,-0.84375 -0.0422,-0.0117 -0.0826,-0.0195 -0.125,-0.0312 -0.25823,-0.0706 -0.54799,-0.14868 -0.8125,-0.21875 -17.69732,-4.72922 -49.48182,-8.50337 -95.25,-8.21875 z m -1.71875,15.65625 c -2.74335,0.006 -5.45787,0.0251 -8.125,0.0625 -2.8793,0.0404 -5.68852,0.11494 -8.4375,0.1875 -2.34385,0.0619 -4.65488,0.13692 -6.875,0.21875 -1.55549,0.0567 -3.02183,0.12235 -4.5,0.1875 -0.22003,0.01 -0.43806,0.0214 -0.65625,0.0312 -0.6107,0.0218 -1.23184,0.0343 -1.8125,0.0625 -0.0814,0.007 -0.1382,0.0242 -0.21875,0.0312 -0.49655,0.0243 -1.04491,0.0373 -1.53125,0.0625 -8.99874,0.46672 -15.15323,0.76303 -16.09375,1.15625 -0.0565,0.0235 -0.0752,0.0695 -0.0937,0.0937 -0.0256,0.0334 -0.0178,0.0588 0.0312,0.0937 3.6703,-0.17101 7.20487,-0.31312 10.6875,-0.4375 0.01,-0.002 0.0218,0.003 0.0312,0 7.55942,-0.26972 14.64649,-0.43519 21.34375,-0.5 2.43347,-0.0234 4.80781,-0.0335 7.125,-0.0312 0.46018,2.7e-4 0.9495,-0.001 1.40625,0 0.41951,0.001 0.80273,-0.002 1.21875,0 2.22964,0.0112 4.40328,0.0279 6.53125,0.0625 0.53968,0.009 1.12319,0.021 1.65625,0.0312 0.79698,0.0157 1.62495,0.0435 2.40625,0.0625 0.96471,0.023 1.90196,0.0661 2.84375,0.0937 1.08685,0.0328 2.19458,0.0546 3.25,0.0937 0.0804,0.003 0.16979,-0.003 0.25,0 1.88906,0.0712 3.74209,0.1588 5.53125,0.25 0.0405,0.002 0.0846,-0.002 0.125,0 1.8246,0.0936 3.5904,0.199 5.3125,0.3125 0.0615,0.004 0.12614,-0.004 0.1875,0 1.69461,0.11264 3.34091,0.24392 4.9375,0.375 34.7945,2.85673 46.69088,9.44983 45.19995,16.90625 -1.06124,5.30749 -4.42047,10.34064 -24.57495,13.78125 0.46327,0 0.99224,-0.0242 1.5,-0.0312 -0.023,0.005 -0.0391,0.0257 -0.0625,0.0312 5.41144,0 13.36727,-0.4604 20.21875,-2.3125 10.43547,-2.53595 18.99337,-7.69045 14.875,-18 -3.51615,-8.80206 -36.14424,-12.06613 -68.90625,-12.71875 -0.28163,-0.006 -0.56212,-0.026 -0.84375,-0.0312 -0.31308,-0.006 -0.62437,0.006 -0.9375,0 -1.61093,-0.0274 -3.20697,-0.0785 -4.8125,-0.0937 -0.37657,-0.004 -0.74896,0.003 -1.125,0 -2.29017,-0.02 -4.58008,-0.035 -6.84375,-0.0312 -0.0721,-9e-4 -0.14673,8.5e-4 -0.21875,0 z"
           style="color:#000000;fill:#00ccff;fill-opacity:1;fill-rule:nonzero;stroke:none;stroke-width:2.700073;marker:none;visibility:visible;display:inline;overflow:visible;filter:url(#filter4022);enable-background:accumulate" />
        <path
           style="opacity:0.25;color:#000000;fill:#00ffff;fill-opacity:1;fill-rule:nonzero;stroke:none;stroke-width:2.70000005;marker:none;visibility:visible;display:inline;overflow:visible;enable-background:accumulate"
           d="m -124.36626,-152.39822 c -6.88242,-0.1118 -15.06423,0.0261 -28.88411,0.83783 11.13537,0.40449 18.8997,0.37712 23.80788,0.75794 -14.15219,-0.65336 -28.0707,1.46504 -29.26954,1.7694 2.19786,0.0666 22.84612,-1.79916 33.56902,0.13229 0.49299,0.0888 0.69924,0.12587 1.14928,0.20671 -7.50117,-0.54447 -15.73444,0.81855 -15.73444,0.81855 -9.51311,1.13027 -14.12793,3.0197 -14.12793,3.0197 0,0 25.8045,-2.63696 35.12923,0.65967 9.32473,3.29662 0.57051,6.30865 0.57051,6.30865 0,0 5.64499,-10e-4 7.15202,-4.05143 0.9303,-2.50019 -0.5451,-4.06329 -3.6711,-5.11803 0.4009,0.0643 0.58705,0.0909 0.58705,0.0909 l -1.52962,-1.05833 c 3.87427,1.18342 10.2262,2.41628 12.18737,2.99309 2.26446,0.66602 2.14664,5.1121 3.26367,4.85665 4.514055,-1.03233 8.345666,-7.39192 -4.59486,-10.2558 -6.48512,-1.43523 -11.27043,-1.83246 -19.60443,-1.96784 z"
           id="path18047"
           inkscape:connector-curvature="0"
           sodipodi:nodetypes="scccscccscscccssss" />
        <path
           style="color:#000000;fill:#00ffff;fill-opacity:1;fill-rule:nonzero;stroke:none;stroke-width:2.700073;marker:none;visibility:visible;display:inline;overflow:visible;enable-background:accumulate"
           d="m 221.8125,-210.3125 c -7.04723,-0.0211 -14.71064,0.0318 -23,0.21875 -0.54554,-0.0302 -1.2507,0.005 -2.0625,0.0312 -5.68244,0.19162 -16.75,1.5625 -16.75,1.5625 0,0 3.79188,-0.23093 10.3125,-0.40625 -2.25201,0.26176 -3.78125,0.53125 -3.78125,0.53125 0,0 3.65373,-0.33934 10.0625,-0.65625 20.67334,-0.35529 57.9668,-0.031 96.1875,4.96875 -1.90075,-1.40855 -21.63816,-6.10219 -70.96875,-6.25 z m 67.03125,1.6875 c 3.56983,0.30825 6.94486,0.68825 10.15625,1.125 0.01,0.001 0.0212,-0.001 0.0312,0 1.05971,0.14429 2.10399,0.31283 3.125,0.46875 2.06176,0.31493 4.06384,0.64484 5.96875,1 3.80982,0.71032 7.30875,1.49914 10.5,2.3125 7.97813,2.03341 14.04012,4.26079 18.28125,6.09375 1.69645,0.73318 3.09958,1.40275 4.21875,1.96875 2.23998,1.1318 3.34375,1.84375 3.34375,1.84375 0,0 -0.17998,-0.19071 -0.5625,-0.5625 -0.19587,-0.19145 -0.39763,-0.41309 -0.71875,-0.6875 -0.005,-0.005 -0.0259,0.005 -0.0312,0 -0.29862,-0.25549 -0.64426,-0.55995 -1.0625,-0.875 -0.006,-0.005 -0.0252,0.005 -0.0312,0 -0.42792,-0.32161 -0.90548,-0.66061 -1.46875,-1.03125 -1.69122,-1.11175 -4.01108,-2.4228 -7.125,-3.75 -3.11392,-1.3272 -7.0324,-2.67105 -11.875,-3.875 -2.4213,-0.60198 -5.05791,-1.17984 -7.96875,-1.6875 -1.94056,-0.33844 -4.0152,-0.65666 -6.1875,-0.9375 -4.3446,-0.56168 -9.16045,-0.99399 -14.5,-1.25 -1.33489,-0.064 -2.69314,-0.11527 -4.09375,-0.15625 z m -85,3.78125 c -10.89719,0.0678 -22.57774,0.37141 -35.0625,0.9375 -13.42851,0.60888 -27.8748,1.26916 -43.28125,2.65625 30.21035,-2.37014 61.05639,-1.50132 88.65625,1 0.10332,0.009 0.20927,0.0218 0.3125,0.0312 1.29738,0.16042 2.4881,0.32008 3.5625,0.5 -35.85809,-0.71069 -82.46221,2.49846 -104.40625,5.03125 -1.61587,0.1865 -3.10339,0.35386 -4.4375,0.53125 -1.31347,0.16911 -2.4931,0.33858 -3.5,0.5 34.31281,-0.82885 55.60229,0.62345 79.625,0.8125 43.61472,0.34318 120.59704,4.18993 121.84375,19.84375 0.55404,6.95709 -4.03237,15.73982 -32,18.625 1.01986,0.007 2.01815,0.0107 3.03125,0 0.0633,4.4e-4 0.12432,-3e-4 0.1875,0 0.0209,-2.4e-4 0.0416,2.5e-4 0.0625,0 1.2104,0.005 2.40461,-0.0129 3.59375,-0.0312 1.28026,-0.0198 2.52881,-0.0771 3.78125,-0.125 7.65385,-0.29305 14.78426,-1.08288 21.15625,-2.3125 1.05939,-0.20443 2.10777,-0.39788 3.125,-0.625 0.1279,-0.0286 0.24778,-0.0648 0.375,-0.0937 0.69963,-0.15907 1.38387,-0.33052 2.0625,-0.5 0.44797,-0.11181 0.87393,-0.22751 1.3125,-0.34375 0.35475,-0.0939 0.68273,-0.18451 1.03125,-0.28125 0.71907,-0.19964 1.43316,-0.41354 2.125,-0.625 0.0517,-0.0158 0.10468,-0.0154 0.15625,-0.0312 0.98249,-0.30235 1.91871,-0.61222 2.84375,-0.9375 0.96486,-0.33929 1.91286,-0.69956 2.8125,-1.0625 0.38822,-0.15662 0.7513,-0.30957 1.125,-0.46875 10.4317,-3.94848 16.97465,-9.16732 16.9375,-14.84375 0,-8.74695 -7.2445,-19.18002 -50.40625,-24.4375 -0.12392,-0.0153 -0.24921,-0.0458 -0.375,-0.0625 -0.22715,-0.0274 -0.45837,-0.0354 -0.6875,-0.0625 -0.70185,-0.0839 -1.43559,-0.169 -2.15625,-0.25 -0.0811,-0.009 -0.16865,-0.0223 -0.25,-0.0312 -3.1015,-0.34607 -6.3657,-0.64601 -9.84375,-0.9375 -0.22348,-0.0187 -0.46249,-0.044 -0.6875,-0.0625 -1.55074,-0.12733 -3.14955,-0.25852 -4.78125,-0.375 0.87328,0.0927 1.74164,0.19772 2.625,0.3125 0.0632,0.008 0.12431,0.023 0.1875,0.0312 0.82129,0.10804 1.6427,0.21822 2.46875,0.34375 0.12547,0.019 0.24947,0.0431 0.375,0.0625 0.76527,0.11857 1.54653,0.24275 2.3125,0.375 0.17774,0.0306 0.35357,0.0624 0.53125,0.0937 0.94936,0.16743 1.89916,0.34513 2.84375,0.53125 0.0848,0.0167 0.16529,0.0457 0.25,0.0625 1.34978,0.26904 2.70559,0.54198 4.03125,0.84375 0.0927,0.0211 0.18868,0.0412 0.28125,0.0625 0.3436,0.0788 0.69001,0.16933 1.03125,0.25 1.22493,0.29025 2.43875,0.56322 3.625,0.875 0.14464,0.038 0.29354,0.0867 0.4375,0.125 1.33499,0.35427 2.63986,0.71943 3.90625,1.09375 0.30611,0.0907 0.63607,0.18964 0.9375,0.28125 0.0412,0.0125 0.0838,0.0187 0.125,0.0312 1.50475,0.45896 2.94545,0.96378 4.3125,1.4375 2.10854,0.73067 4.03602,1.46009 5.71875,2.1875 0.56091,0.24247 1.08898,0.48009 1.59375,0.71875 -0.80857,-0.36757 -1.7282,-0.73017 -2.6875,-1.09375 -0.81303,-0.30815 -1.67248,-0.60256 -2.59375,-0.90625 -0.16667,-0.0549 -0.32979,-0.13273 -0.5,-0.1875 -0.18525,-0.0593 -0.40435,-0.12851 -0.59375,-0.1875 -0.9125,-0.28586 -1.86529,-0.56367 -2.875,-0.84375 -0.0422,-0.0117 -0.0826,-0.0195 -0.125,-0.0312 -0.25823,-0.0706 -0.54799,-0.14868 -0.8125,-0.21875 -17.69732,-4.72922 -49.48182,-8.50337 -95.25,-8.21875 z m -1.71875,15.65625 c -2.74335,0.006 -5.45787,0.0251 -8.125,0.0625 -2.8793,0.0404 -5.68852,0.11494 -8.4375,0.1875 -2.34385,0.0619 -4.65488,0.13692 -6.875,0.21875 -1.55549,0.0567 -3.02183,0.12235 -4.5,0.1875 -0.22003,0.01 -0.43806,0.0214 -0.65625,0.0312 -0.6107,0.0218 -1.23184,0.0343 -1.8125,0.0625 -0.0814,0.007 -0.1382,0.0242 -0.21875,0.0312 -0.49655,0.0243 -1.04491,0.0373 -1.53125,0.0625 -8.99874,0.46672 -15.15323,0.76303 -16.09375,1.15625 -0.0565,0.0235 -0.0752,0.0695 -0.0937,0.0937 -0.0256,0.0334 -0.0178,0.0588 0.0312,0.0937 3.6703,-0.17101 7.20487,-0.31312 10.6875,-0.4375 0.01,-0.002 0.0218,0.003 0.0312,0 7.55942,-0.26972 14.64649,-0.43519 21.34375,-0.5 2.43347,-0.0234 4.80781,-0.0335 7.125,-0.0312 0.46018,2.7e-4 0.9495,-0.001 1.40625,0 0.41951,0.001 0.80273,-0.002 1.21875,0 2.22964,0.0112 4.40328,0.0279 6.53125,0.0625 0.53968,0.009 1.12319,0.021 1.65625,0.0312 0.79698,0.0157 1.62495,0.0435 2.40625,0.0625 0.96471,0.023 1.90196,0.0661 2.84375,0.0937 1.08685,0.0328 2.19458,0.0546 3.25,0.0937 0.0804,0.003 0.16979,-0.003 0.25,0 1.88906,0.0712 3.74209,0.1588 5.53125,0.25 0.0405,0.002 0.0846,-0.002 0.125,0 1.8246,0.0936 3.5904,0.199 5.3125,0.3125 0.0615,0.004 0.12614,-0.004 0.1875,0 1.69461,0.11264 3.34091,0.24392 4.9375,0.375 34.7945,2.85673 46.69088,9.44983 45.19995,16.90625 -1.06124,5.30749 -4.42047,10.34064 -24.57495,13.78125 0.46327,0 0.99224,-0.0242 1.5,-0.0312 -0.023,0.005 -0.0391,0.0257 -0.0625,0.0312 5.41144,0 13.36727,-0.4604 20.21875,-2.3125 10.43547,-2.53595 18.99337,-7.69045 14.875,-18 -3.51615,-8.80206 -36.14424,-12.06613 -68.90625,-12.71875 -0.28163,-0.006 -0.56212,-0.026 -0.84375,-0.0312 -0.31308,-0.006 -0.62437,0.006 -0.9375,0 -1.61093,-0.0274 -3.20697,-0.0785 -4.8125,-0.0937 -0.37657,-0.004 -0.74896,0.003 -1.125,0 -2.29017,-0.02 -4.58008,-0.035 -6.84375,-0.0312 -0.0721,-9e-4 -0.14673,8.5e-4 -0.21875,0 z"
           transform="matrix(0.26458337,0,0,0.26458337,-188.19264,-95.912643)"
           id="path17881"
           inkscape:connector-curvature="0"
           sodipodi:nodetypes="scccccccsccccsssccccccccssssscssccccsccssccccsssccccccsssccccccccccccccccccccccccccsscsscccccscssccccccccccccccsscccccccccssccccsscccccc" />
        <path
           style="color:#000000;fill:#ffffff;fill-opacity:1;fill-rule:nonzero;stroke:none;stroke-width:5;marker:none;visibility:visible;display:inline;overflow:visible;enable-background:accumulate"
           d="m 210.09375,-202.84375 c 0.66155,0 34.86062,3.22965 62.59375,7.53125 -33.86771,-2.76039 -76.81205,-2.95837 -114.15625,-0.46875 59.99535,-0.22812 122.7319,-1.81529 148.28125,11.1875 25.54935,13.0028 -5.46875,25.78125 -5.46875,25.78125 0,0 31.48749,-4.57227 31.03125,-20.3125 -0.0538,-1.85604 -1.49107,-3.57486 -4.0625,-5.15625 -6.75013,-4.84161 -32.21643,-17.10174 -118.21875,-18.5625 z"
           transform="matrix(0.26458337,0,0,0.26458337,-188.19264,-95.912643)"
           id="path4003"
           inkscape:connector-curvature="0" />
        <path
           style="color:#000000;fill:#ffffff;fill-opacity:1;fill-rule:nonzero;stroke:none;stroke-width:5;marker:none;visibility:visible;display:inline;overflow:visible;enable-background:accumulate"
           d="m 237.7002,-186.88601 c 0,0 26.16802,0.81006 37.63967,10.03725 10.49349,8.4404 -6.84357,16.88082 -6.84357,16.88082 0,0 14.59963,-3.19367 14.59963,-13.00279 0,-12.32056 -45.39573,-13.91528 -45.39573,-13.91528 z"
           id="path4008"
           inkscape:connector-curvature="0"
           transform="matrix(0.26458337,0,0,0.26458337,-188.19264,-95.912643)"
           sodipodi:nodetypes="cscsc" />
        <path
           style="color:#000000;fill:#ffffff;fill-opacity:1;fill-rule:nonzero;stroke:none;stroke-width:5;marker:none;visibility:visible;display:inline;overflow:visible;enable-background:accumulate"
           d="m 310.69835,-194.64206 c 21.67132,5.70298 19.16201,18.47765 19.16201,17.56518 0,-0.91248 -0.45624,-2.50931 1.59684,-1.36872 2.05307,1.1406 2.50931,4.10615 1.36871,6.61546 -1.1406,2.50931 -1.36871,2.73743 -1.36871,2.73743 0,0 6.15921,-1.59684 3.6499,-12.31844 -2.50931,-10.7216 -24.40875,-13.23091 -24.40875,-13.23091 z"
           id="path4010"
           inkscape:connector-curvature="0"
           transform="matrix(0.26458337,0,0,0.26458337,-188.19264,-95.912643)" />
      </g>
    </g>
  </g>
</svg>
